<svg width="792" height="677" viewBox="0 0 792 677" fill="none" xmlns="http://www.w3.org/2000/svg">
<path d="M87.5801 244.496C90.1582 244.432 91.791 243.207 91.791 241.338C91.791 239.275 89.793 238.051 86.4199 238.051C86.1191 238.051 85.8291 238.062 85.5391 238.072V242.842C85.5391 245.27 84.5723 246.322 82.3594 246.322C79.373 246.322 77.1602 244.453 77.1602 241.896C77.1602 239.2 79.5771 237.105 83.2402 236.311V233.324H77.8262V231.326H83.2402V228.92H85.5391V231.326H90.5664V233.324H85.5391V236.01C85.8613 235.999 86.1943 235.988 86.5273 235.988C91.3398 235.988 94.1973 237.943 94.1973 241.273C94.1973 244.367 91.7051 246.537 88.0312 246.623L87.5801 244.496ZM94.1113 235.623C93.3809 234.012 92.4141 232.443 91.2109 231.047L93.1445 229.951C94.3477 231.412 95.2715 232.873 96.1094 234.699L94.1113 235.623ZM79.459 241.875C79.459 243.186 80.5762 244.217 82.0371 244.217C82.9395 244.217 83.2402 243.852 83.2402 242.67V238.438C80.9521 239.05 79.459 240.328 79.459 241.875ZM115.488 230.123V246.666H113.383V245.377H109.795V246.924H107.775V230.123H115.488ZM103.564 235.988V236.568H107.174V238.545H103.436C103.382 238.91 103.328 239.286 103.264 239.662C104.316 240.683 106.669 243.336 107.26 244.023L105.863 245.785C105.165 244.743 103.812 243.024 102.748 241.725C102.05 243.852 100.804 245.903 98.6445 247.461C98.3867 247.053 97.6133 246.215 97.2051 245.914C100.062 243.862 101.04 241.112 101.373 238.545H97.4629V236.568H101.502V235.945V232.916H100.342C99.8799 234.055 99.3643 235.086 98.7949 235.902C98.4297 235.58 97.6133 235 97.1621 234.699C98.2793 233.174 99.1172 230.768 99.5469 228.318L101.545 228.727C101.395 229.5 101.212 230.263 100.986 231.004H106.637V232.916H103.564V235.988ZM109.795 243.443H113.383V232.078H109.795V243.443ZM127.434 246.408C125.199 246.408 122.277 246.107 120.365 245.678L120.58 243.572C122.986 244.023 125.586 244.303 127.434 244.303C131.344 244.303 133.385 243.121 133.385 240.865C133.385 238.975 131.945 237.943 129.303 237.943C126.617 237.943 123.717 238.953 121.826 240.543L119.656 240.092C120.193 237.471 120.516 235.494 120.73 233.582L123.072 233.775C122.943 235.054 122.75 236.396 122.514 237.75C124.576 236.504 126.907 235.838 129.432 235.838C133.643 235.838 135.834 237.535 135.834 240.801C135.834 244.518 132.977 246.408 127.434 246.408ZM133.428 232.422C129.582 232.486 126.316 232.293 122.557 231.799L122.814 229.693C126.338 230.102 129.926 230.316 133.428 230.316V232.422ZM149.133 246.537C143.396 246.537 142.064 245.592 142.064 241.445V235.043L138.455 235.129V233.088L142.064 233.002V229.629H144.471V232.959L151.926 232.787V229.221H154.311V232.723L157.92 232.658V234.721L154.311 234.785V238.889C154.311 240.779 153.73 241.445 151.969 241.445C150.68 241.445 148.875 241.08 147.285 240.5L147.779 238.395C149.67 238.953 150.551 239.125 151.26 239.125C151.797 239.125 151.926 238.996 151.926 238.094V234.85L144.471 235V241.445C144.471 244.023 145.094 244.432 149.133 244.432C151.217 244.432 153.645 244.303 155.836 244.023L156.008 246.172C153.773 246.408 151.238 246.537 149.133 246.537ZM95.5508 276.006V277.918H87.3867V281.227C87.3867 282.365 87.1074 282.902 86.2266 283.246C85.3242 283.525 84.0781 283.547 82.2734 283.547C82.123 282.988 81.7363 282.107 81.4141 281.549C82.8535 281.592 84.3359 281.592 84.7441 281.57C85.1738 281.57 85.2812 281.463 85.2812 281.184V277.918H77.1816V276.006H85.2812V274.609H86.291C87.0322 274.19 87.7949 273.675 88.4609 273.148H80.748V271.344H90.4375L90.8887 271.258L92.1992 272.246C90.9639 273.535 89.1699 274.899 87.3867 275.834V276.006H95.5508ZM95.25 267.67V272.547H93.1875V269.518H79.459V272.547H77.5039V267.67H80.4688C80.0713 266.939 79.459 266.059 78.9004 265.35L80.6406 264.555C81.3926 265.414 82.252 266.531 82.5742 267.326L81.8652 267.67H85.5391C85.2705 266.832 84.7012 265.736 84.1426 264.92L85.9688 264.211C86.6348 265.178 87.3223 266.445 87.6016 267.326L86.6777 267.67H90.0293C90.749 266.703 91.5439 265.425 91.9844 264.469L94.1973 265.156C93.5957 266.005 92.9404 266.896 92.3066 267.67H95.25ZM113.855 274.91V283.59H111.707V282.795H102.34V283.59H100.277V274.91H105.154C105.348 274.438 105.562 273.911 105.713 273.449C105.605 273.535 105.487 273.6 105.348 273.664C104.746 273.922 103.887 273.9 102.619 273.9C102.533 273.449 102.275 272.848 102.082 272.418C102.877 272.439 103.672 272.439 103.908 272.439C104.166 272.439 104.273 272.354 104.273 272.139V266.939H98V265.307H106.121V272.139C106.121 272.515 106.089 272.794 106.014 273.02L108.055 273.342C107.775 273.89 107.475 274.427 107.195 274.91H113.855ZM115.445 265.307V272.139C115.445 273.02 115.252 273.449 114.629 273.729C113.984 273.986 113.039 273.986 111.686 273.986C111.6 273.492 111.342 272.826 111.127 272.375C111.965 272.418 112.91 272.418 113.146 272.439C113.447 272.375 113.49 272.332 113.49 272.096V266.939H108.807C109.773 267.369 110.966 268.11 111.557 268.658L110.504 270.012C109.945 269.432 108.742 268.637 107.775 268.1L108.742 266.939H107.324V265.307H115.445ZM106.787 271.408C108.227 270.957 110.418 270.227 112.523 269.453L112.846 270.979C110.998 271.666 109.043 272.396 107.475 272.934L106.787 271.408ZM97.4414 271.752C98.8594 271.365 100.9 270.635 102.941 269.883L103.221 271.387C101.502 272.117 99.6758 272.891 98.2148 273.471L97.4414 271.752ZM99.6973 266.939C100.643 267.412 101.846 268.164 102.383 268.744L101.33 270.055C100.793 269.475 99.6113 268.637 98.666 268.121L99.6973 266.939ZM102.34 281.227H111.707V279.615H102.34V281.227ZM102.34 278.047H111.707V276.5H102.34V278.047ZM136.006 267.82V281.055C136.006 282.258 135.748 282.859 134.975 283.203C134.158 283.525 132.869 283.525 131.021 283.525C130.957 282.945 130.635 282.021 130.334 281.484C131.666 281.527 133.041 281.506 133.428 281.527C133.857 281.527 133.965 281.377 133.965 281.012V269.84H128.615C128.583 270.635 128.486 271.473 128.314 272.311C130.216 274.029 132.536 276.274 133.75 277.768L132.031 279.121C131.107 277.854 129.324 275.974 127.648 274.352C126.843 276.21 125.414 278.015 122.922 279.486C122.621 279.035 121.934 278.262 121.439 277.918C125.65 275.694 126.392 272.482 126.51 269.84H121.225V283.568H119.184V267.82H126.531V264.34H128.637V267.82H136.006ZM146.555 269.303C145.244 271.129 143.139 272.891 141.227 273.986C140.926 273.557 140.195 272.719 139.787 272.354C141.613 271.494 143.461 270.076 144.557 268.637L146.555 269.303ZM151.131 268.594C152.914 269.668 155.277 271.322 156.416 272.461L154.869 273.814C153.816 272.676 151.518 270.936 149.691 269.797L151.131 268.594ZM148.23 272.977C147.35 274.115 146.018 275.372 144.449 276.521H152.27C150.658 275.404 149.197 274.158 148.23 272.977ZM149.197 264.34V266.08H156.953V270.227H154.826V267.971H141.463V270.227H139.465V266.08H147.07V264.34H149.197ZM138.756 277.445C142.215 276.027 145.502 273.342 147.092 271.107H149.197C151.367 273.771 154.74 276.006 157.898 277.145C157.426 277.66 156.953 278.434 156.631 279.035C155.793 278.648 154.901 278.187 154.031 277.66V283.504H151.926V282.902H144.428V283.547H142.473V277.832C141.646 278.348 140.786 278.81 139.916 279.207C139.68 278.713 139.164 277.918 138.756 277.445ZM144.428 281.098H151.926V278.326H144.428V281.098Z" fill="black"/>
<path d="M234.855 295.365C234.855 298.91 234.555 304.131 232.363 307.504C231.977 307.182 231.074 306.666 230.537 306.473C232.621 303.271 232.793 298.631 232.793 295.365V289.328H248.391V295.215H234.855V295.365ZM243.127 295.279V297.471H248.648V307.504H246.65V306.838H237.777V307.504H235.844V297.471H241.107V295.279H243.127ZM234.855 293.346H246.307V291.197H234.855V293.346ZM237.777 305.012H241.107V302.906H237.777V305.012ZM237.777 301.23H241.107V299.297H237.777V301.23ZM243.127 305.012H246.65V302.906H243.127V305.012ZM243.127 301.23H246.65V299.297H243.127V301.23ZM261.904 288.49V295.645H266.18V290.273H268.35V297.621H261.904V304.26H267.039V298.846H269.188V307.504H267.039V306.279H254.879V307.525H252.816V298.846H254.879V304.26H259.756V297.621H253.611V290.273H255.674V295.645H259.756V288.49H261.904ZM275.676 304.475L273.871 310.49H271.83L272.947 304.475H275.676ZM302.295 289.5V307.268H300.211V306.15H294.711V307.354H292.713V289.5H302.295ZM291.939 292.658V294.613H289.189V296.139C289.941 296.934 291.714 299.061 292.133 299.598L290.951 301.252C290.597 300.575 289.866 299.479 289.189 298.502V307.525H287.191V298.588C286.461 300.65 285.548 302.573 284.549 303.83C284.355 303.271 283.883 302.434 283.561 301.918C284.946 300.253 286.257 297.245 286.955 294.613H284.055V292.658H287.191V288.34H289.189V292.658H291.939ZM294.711 304.281H300.211V301.209H294.711V304.281ZM294.711 299.318H300.211V296.246H294.711V299.318ZM294.711 294.398H300.211V291.434H294.711V294.398ZM318.945 300.049C318.945 301.338 319.762 304.281 323.736 305.807C323.371 306.279 322.812 307.053 322.555 307.568C319.697 306.473 318.236 303.98 317.893 302.734C317.527 303.98 315.938 306.365 312.758 307.568C312.521 307.117 311.984 306.301 311.619 305.893C315.938 304.367 316.84 301.381 316.84 300.049V297.02H318.945V300.049ZM319.053 288.34C318.967 290.059 318.827 291.552 318.473 292.83C320.234 293.883 322.415 295.258 323.521 296.225L322.189 297.771C321.233 296.901 319.429 295.634 317.785 294.57C316.947 296.053 315.583 297.148 313.273 297.922C313.059 297.428 312.521 296.697 312.092 296.311C316.41 295 316.861 292.551 316.99 288.34H319.053ZM315.658 289.973C315.443 291.369 314.906 292.873 314.004 293.754L312.393 293.045C313.188 292.314 313.746 290.939 313.961 289.629L315.658 289.973ZM315.551 298.932C315.271 300.479 314.605 302.111 313.574 303.078L311.898 302.176C312.844 301.445 313.467 299.984 313.746 298.545L315.551 298.932ZM323.264 290.145C322.576 291.326 321.824 292.637 321.223 293.496L319.697 292.895C320.256 291.971 320.965 290.51 321.287 289.521L323.264 290.145ZM323.479 299.061C322.77 300.328 321.932 301.746 321.266 302.627L319.676 302.025C320.277 301.059 321.051 299.49 321.459 298.395L323.479 299.061ZM311.512 294.635V296.203H305.367V294.635H311.512ZM311.426 289.006V290.596H305.432V289.006H311.426ZM311.512 297.406V298.996H305.367V297.406H311.512ZM312.178 291.756V293.432H304.379V291.756H312.178ZM311.533 300.242V306.387H307.086V307.268H305.324V300.242H311.533ZM307.086 304.754H309.75V301.896H307.086V304.754Z" fill="black"/>
<path d="M636.152 229.307C636.99 230.854 637.807 232.895 638.107 234.184L636.217 234.936C636.002 233.625 635.229 231.541 634.434 229.973L636.152 229.307ZM640.385 228.555C641.029 230.166 641.609 232.229 641.76 233.539L639.848 234.119C639.74 232.83 639.16 230.703 638.58 229.049L640.385 228.555ZM638.344 236.869C639.021 237.331 639.751 237.857 640.471 238.395C640.89 237.535 641.255 236.622 641.545 235.688L643.371 236.117C642.984 237.32 642.49 238.48 641.932 239.576C642.791 240.307 643.554 241.037 644.059 241.66L642.941 243.207C642.479 242.616 641.792 241.907 641.008 241.188C640.277 242.315 639.472 243.325 638.623 244.131C638.301 243.809 637.527 243.207 637.119 242.971C638.043 242.165 638.881 241.145 639.611 239.984C638.827 239.351 638.032 238.749 637.291 238.223L638.344 236.869ZM636.883 236.203V244.26H644.295V236.139H646.293V247.332H644.295V246.129H636.883V247.375H634.906V236.203H636.883ZM646.658 229.328C645.906 231.713 644.789 234.227 643.672 235.816C643.199 235.537 642.211 235.086 641.652 234.893C642.834 233.389 643.887 231.047 644.553 228.834L646.658 229.328ZM632.479 228.34V232.25L633.617 231.756C634.283 232.938 634.949 234.463 635.143 235.473L633.768 236.16C633.606 235.215 633.037 233.797 632.479 232.615V247.525H630.48V228.34H632.479ZM629.9 232.551C629.879 234.484 629.578 236.869 628.848 238.352L627.473 237.729C628.139 236.461 628.461 234.205 628.504 232.379L629.9 232.551ZM653.533 246.387C651.148 246.387 648.807 243.701 648.807 241.102C648.807 238.319 651.514 236.536 656.09 236.246C656.187 235.054 656.24 233.743 656.262 232.314H649.666V230.273H658.732V230.488C658.732 232.604 658.657 234.527 658.518 236.225C659.86 236.3 661.149 236.515 662.406 236.848C662.417 236.139 662.428 235.344 662.428 234.463V230.811H664.77V234.57C664.77 235.72 664.759 236.751 664.727 237.664C665.704 238.094 666.671 238.609 667.627 239.211L666.768 241.23C666.026 240.747 665.307 240.328 664.598 239.963C664.265 243.701 663.362 245.173 661.203 246.773L659.506 245.033C661.396 243.669 662.095 242.552 662.32 239.039C661.031 238.62 659.71 238.405 658.281 238.352C657.562 243.637 655.961 246.387 653.533 246.387ZM651.105 241.102C651.105 242.348 652.287 243.959 653.232 243.959C654.436 243.959 655.359 241.95 655.875 238.395C652.824 238.631 651.105 239.608 651.105 241.102ZM678.562 240.307C677.402 240.307 676.479 239.383 676.479 238.223C676.479 237.062 677.402 236.139 678.562 236.139C679.723 236.139 680.646 237.062 680.646 238.223C680.646 239.383 679.723 240.307 678.562 240.307ZM646.551 276.006V277.918H638.387V281.227C638.387 282.365 638.107 282.902 637.227 283.246C636.324 283.525 635.078 283.547 633.273 283.547C633.123 282.988 632.736 282.107 632.414 281.549C633.854 281.592 635.336 281.592 635.744 281.57C636.174 281.57 636.281 281.463 636.281 281.184V277.918H628.182V276.006H636.281V274.609H637.291C638.032 274.19 638.795 273.675 639.461 273.148H631.748V271.344H641.438L641.889 271.258L643.199 272.246C641.964 273.535 640.17 274.899 638.387 275.834V276.006H646.551ZM646.25 267.67V272.547H644.188V269.518H630.459V272.547H628.504V267.67H631.469C631.071 266.939 630.459 266.059 629.9 265.35L631.641 264.555C632.393 265.414 633.252 266.531 633.574 267.326L632.865 267.67H636.539C636.271 266.832 635.701 265.736 635.143 264.92L636.969 264.211C637.635 265.178 638.322 266.445 638.602 267.326L637.678 267.67H641.029C641.749 266.703 642.544 265.425 642.984 264.469L645.197 265.156C644.596 266.005 643.94 266.896 643.307 267.67H646.25ZM664.855 274.91V283.59H662.707V282.795H653.34V283.59H651.277V274.91H656.154C656.348 274.438 656.562 273.911 656.713 273.449C656.605 273.535 656.487 273.6 656.348 273.664C655.746 273.922 654.887 273.9 653.619 273.9C653.533 273.449 653.275 272.848 653.082 272.418C653.877 272.439 654.672 272.439 654.908 272.439C655.166 272.439 655.273 272.354 655.273 272.139V266.939H649V265.307H657.121V272.139C657.121 272.515 657.089 272.794 657.014 273.02L659.055 273.342C658.775 273.89 658.475 274.427 658.195 274.91H664.855ZM666.445 265.307V272.139C666.445 273.02 666.252 273.449 665.629 273.729C664.984 273.986 664.039 273.986 662.686 273.986C662.6 273.492 662.342 272.826 662.127 272.375C662.965 272.418 663.91 272.418 664.146 272.439C664.447 272.375 664.49 272.332 664.49 272.096V266.939H659.807C660.773 267.369 661.966 268.11 662.557 268.658L661.504 270.012C660.945 269.432 659.742 268.637 658.775 268.1L659.742 266.939H658.324V265.307H666.445ZM657.787 271.408C659.227 270.957 661.418 270.227 663.523 269.453L663.846 270.979C661.998 271.666 660.043 272.396 658.475 272.934L657.787 271.408ZM648.441 271.752C649.859 271.365 651.9 270.635 653.941 269.883L654.221 271.387C652.502 272.117 650.676 272.891 649.215 273.471L648.441 271.752ZM650.697 266.939C651.643 267.412 652.846 268.164 653.383 268.744L652.33 270.055C651.793 269.475 650.611 268.637 649.666 268.121L650.697 266.939ZM653.34 281.227H662.707V279.615H653.34V281.227ZM653.34 278.047H662.707V276.5H653.34V278.047ZM687.479 265.5V283.268H685.395V282.15H679.895V283.354H677.896V265.5H687.479ZM677.123 268.658V270.613H674.373V272.139C675.125 272.934 676.897 275.061 677.316 275.598L676.135 277.252C675.78 276.575 675.05 275.479 674.373 274.502V283.525H672.375V274.588C671.645 276.65 670.731 278.573 669.732 279.83C669.539 279.271 669.066 278.434 668.744 277.918C670.13 276.253 671.44 273.245 672.139 270.613H669.238V268.658H672.375V264.34H674.373V268.658H677.123ZM679.895 280.281H685.395V277.209H679.895V280.281ZM679.895 275.318H685.395V272.246H679.895V275.318ZM679.895 270.398H685.395V267.434H679.895V270.398ZM704.129 276.049C704.129 277.338 704.945 280.281 708.92 281.807C708.555 282.279 707.996 283.053 707.738 283.568C704.881 282.473 703.42 279.98 703.076 278.734C702.711 279.98 701.121 282.365 697.941 283.568C697.705 283.117 697.168 282.301 696.803 281.893C701.121 280.367 702.023 277.381 702.023 276.049V273.02H704.129V276.049ZM704.236 264.34C704.15 266.059 704.011 267.552 703.656 268.83C705.418 269.883 707.599 271.258 708.705 272.225L707.373 273.771C706.417 272.901 704.612 271.634 702.969 270.57C702.131 272.053 700.767 273.148 698.457 273.922C698.242 273.428 697.705 272.697 697.275 272.311C701.594 271 702.045 268.551 702.174 264.34H704.236ZM700.842 265.973C700.627 267.369 700.09 268.873 699.188 269.754L697.576 269.045C698.371 268.314 698.93 266.939 699.145 265.629L700.842 265.973ZM700.734 274.932C700.455 276.479 699.789 278.111 698.758 279.078L697.082 278.176C698.027 277.445 698.65 275.984 698.93 274.545L700.734 274.932ZM708.447 266.145C707.76 267.326 707.008 268.637 706.406 269.496L704.881 268.895C705.439 267.971 706.148 266.51 706.471 265.521L708.447 266.145ZM708.662 275.061C707.953 276.328 707.115 277.746 706.449 278.627L704.859 278.025C705.461 277.059 706.234 275.49 706.643 274.395L708.662 275.061ZM696.695 270.635V272.203H690.551V270.635H696.695ZM696.609 265.006V266.596H690.615V265.006H696.609ZM696.695 273.406V274.996H690.551V273.406H696.695ZM697.361 267.756V269.432H689.562V267.756H697.361ZM696.717 276.242V282.387H692.27V283.268H690.508V276.242H696.717ZM692.27 280.754H694.934V277.896H692.27V280.754Z" fill="black"/>
<path d="M308.035 486.672V501.99C308.035 503.193 307.756 503.795 306.982 504.16C306.188 504.482 305.006 504.504 303.137 504.504C303.029 503.924 302.664 503 302.385 502.463C303.695 502.506 305.006 502.484 305.414 502.484C305.801 502.484 305.951 502.355 305.951 501.969V496.361H292.824V504.547H290.74V486.672H308.035ZM292.824 494.32H298.217V488.713H292.824V494.32ZM300.279 494.32H305.951V488.713H300.279V494.32ZM327.307 494.406V502.613C327.307 503.559 327.135 504.01 326.49 504.268C325.824 504.525 324.879 504.547 323.439 504.547C323.354 504.053 323.117 503.387 322.881 502.914C323.783 502.957 324.771 502.957 325.051 502.936C325.287 502.957 325.395 502.871 325.395 502.613V501.281H319.809V504.525H317.896V494.406H327.307ZM329.348 491.613V495.33H327.393V493.225H317.789V495.33H315.898V491.613H317.918V486.092H327.307V491.613H329.348ZM312.547 485.49C313.879 486.006 315.512 486.865 316.307 487.574L315.146 489.271C314.373 488.541 312.762 487.553 311.451 486.994L312.547 485.49ZM311.43 491.033C312.719 491.506 314.395 492.344 315.232 493.031L314.029 494.75C313.234 494.062 311.623 493.16 310.291 492.58L311.43 491.033ZM310.871 502.936C311.945 501.346 313.428 498.703 314.588 496.297L316.156 497.586C315.125 499.777 313.836 502.248 312.676 504.268L310.871 502.936ZM319.787 491.613H321.527V488.82H325.352V487.66H319.787V491.613ZM319.809 499.777H325.395V498.639H319.809V499.777ZM319.809 497.135H325.395V496.018H319.809V497.135ZM323.096 491.613H325.352V490.109H323.096V491.613ZM340.562 503.773C337.512 503.773 335.707 502.312 335.707 499.799C335.707 497.285 337.533 495.846 340.734 495.846C341.615 495.846 342.475 496.007 343.377 496.361V488.799C345.783 488.799 347.781 488.842 349.758 488.992L349.629 491.119C348.415 491.033 347.126 490.969 345.719 490.947V497.672C346.911 498.521 348.222 499.67 349.736 501.195L348.297 502.807C347.233 501.786 346.363 500.959 345.633 500.293C345.225 502.592 343.517 503.773 340.562 503.773ZM331.195 500.508C332.398 497.285 333.408 494.159 334.289 490.926H331.045V488.799H334.848C335.084 487.821 335.31 486.844 335.535 485.834L337.812 486.049C337.619 486.973 337.415 487.896 337.211 488.799H341.422V490.926H336.674C335.771 494.406 334.708 497.769 333.43 501.174L331.195 500.508ZM338.006 499.756C338.006 501.088 338.865 501.775 340.562 501.775C342.41 501.775 343.377 500.959 343.377 499.434V498.531C342.399 497.94 341.658 497.779 340.734 497.779C338.865 497.779 338.006 498.402 338.006 499.756ZM370.104 486.822V488.348H364.904V489.4H369.545V490.84H364.904V491.936H370.748V493.461H357.191V491.936H362.863V490.84H358.352V489.4H362.863V488.348H357.814V486.822H362.863V485.34H364.904V486.822H370.104ZM369.244 494.428V502.441C369.244 503.365 369.051 503.881 368.385 504.16C367.719 504.482 366.73 504.482 365.27 504.482C365.205 503.967 364.947 503.193 364.711 502.721C365.635 502.785 366.645 502.785 366.924 502.764C367.182 502.721 367.311 502.635 367.311 502.42V501.389H360.543V504.547H358.609V494.428H369.244ZM355.773 485.34V488.734L356.998 488.219C357.428 489.164 357.943 490.432 358.18 491.162L356.783 491.85C356.622 491.108 356.182 489.916 355.773 488.971V504.525H353.926V485.34H355.773ZM353.711 489.551C353.625 491.227 353.303 493.676 352.873 495.266L351.305 494.729C351.799 493.332 352.1 491.012 352.229 489.379L353.711 489.551ZM360.543 499.885H367.311V498.682H360.543V499.885ZM360.543 497.199H367.311V495.953H360.543V497.199ZM390.428 486.242V490.174C390.428 491.098 390.256 491.635 389.525 491.914C388.816 492.193 387.721 492.193 386.152 492.193C386.066 491.656 385.809 490.947 385.551 490.432C386.711 490.453 387.807 490.453 388.107 490.453C388.451 490.432 388.516 490.389 388.516 490.152V488.068H383.939V493.311H389.332L389.676 493.246L390.943 493.676C390.524 496.157 389.74 498.488 388.623 500.465C389.504 501.475 390.546 502.312 391.695 502.893C391.223 503.258 390.621 504.031 390.299 504.547C389.246 503.935 388.312 503.118 387.484 502.141C386.765 503.086 385.938 503.902 385.014 504.568C384.756 504.214 384.326 503.763 383.939 503.408V504.547H382.07V486.242H390.428ZM380.76 487.316V489.014H377.924V490.732H381.555V492.494H379.729L380.545 492.688C380.18 493.558 379.814 494.46 379.492 495.115H381.254V496.855H377.924V498.768H381.018V500.508H377.924V504.482H375.99V500.508H372.789V498.768H375.99V496.855H372.596V495.115H374.357C374.218 494.428 373.928 493.472 373.584 492.709L374.4 492.494H372.252V490.732H375.99V489.014H372.961V487.316H375.99V485.383H377.924V487.316H380.76ZM375.238 492.494C375.614 493.289 375.958 494.31 376.033 494.922L375.346 495.115H378.611L377.902 494.922C378.192 494.256 378.558 493.257 378.762 492.494H375.238ZM383.939 502.957C384.842 502.302 385.637 501.475 386.324 500.529C385.314 498.982 384.53 497.178 383.939 495.244V502.957ZM385.572 494.965C386.002 496.329 386.614 497.64 387.377 498.811C387.979 497.607 388.44 496.308 388.752 494.965H385.572ZM402.438 497.307C401.277 497.307 400.354 496.383 400.354 495.223C400.354 494.062 401.277 493.139 402.438 493.139C403.598 493.139 404.521 494.062 404.521 495.223C404.521 496.383 403.598 497.307 402.438 497.307ZM438.145 491.227V493.268H432.73C433.729 497.436 435.62 500.98 438.682 502.742C438.188 503.129 437.5 503.945 437.178 504.461C434.653 502.774 432.945 499.981 431.807 496.512C431.108 499.326 429.68 502.151 426.887 504.504C426.5 504.106 425.855 503.602 425.318 503.236V504.504H423.277V497.393C422.203 498.402 421.129 499.401 420.184 500.229L419.066 498.424C420.13 497.65 421.73 496.308 423.277 494.922V491.893L421.709 492.902C421.279 491.828 420.184 490.195 419.303 488.928L420.893 488.004C421.763 489.089 422.762 490.507 423.277 491.527V485.297H425.318V503.086C428.831 500.1 429.948 496.49 430.281 493.268H425.941V491.227H430.41V490.453V485.383H432.451V490.453V491.227H438.145ZM435.266 485.898C436.125 486.994 437.199 488.455 437.65 489.422L436.018 490.432C435.545 489.486 434.557 487.896 433.697 486.758L435.266 485.898ZM442.227 485.447C443.494 485.92 445.213 486.736 446.051 487.445L444.848 489.121C444.074 488.412 442.42 487.531 441.066 486.951L442.227 485.447ZM440.852 491.098C442.248 491.549 444.031 492.365 444.977 493.01L443.816 494.771C442.979 494.062 441.217 493.182 439.777 492.645L440.852 491.098ZM440.551 503C441.732 501.389 443.473 498.639 444.762 496.168L446.287 497.457C445.084 499.691 443.602 502.27 442.312 504.289L440.551 503ZM454.988 501.711C454.988 502.398 455.031 502.506 455.482 502.506H456.707C457.158 502.506 457.244 502.055 457.309 499.498C457.717 499.82 458.555 500.186 459.135 500.314C458.941 503.451 458.447 504.332 456.9 504.332H455.139C453.334 504.332 452.904 503.688 452.904 501.754V494.922H450.971C450.767 499.659 450.079 502.785 445.922 504.568C445.729 504.053 445.148 503.258 444.719 502.871C448.339 501.453 448.79 498.972 448.951 494.922H446.996V486.264H457.867V494.922H454.988V501.711ZM449.016 492.988H455.762V488.176H449.016V492.988ZM478.686 495.352V496.877H475.721V498.66H478.686V500.207H475.721V501.969H479.631V503.688H471.445V504.547H469.512V495.137C469.265 495.362 469.018 495.566 468.76 495.76C468.545 495.448 468.072 494.9 467.686 494.514V502.012H463.84V503.645H462.143V497.801C461.863 498.327 461.552 498.821 461.219 499.283C461.025 498.811 460.445 497.758 460.102 497.328C461.562 495.19 462.422 491.989 462.873 488.52H460.746V486.607H468.137V487.338H472.326C472.562 486.683 472.756 486.006 472.928 485.297L474.883 485.684C474.732 486.253 474.571 486.801 474.41 487.338H479.523V491.012H477.676V489.078H473.744C473.314 490.088 472.831 491.022 472.283 491.893H474.303C474.625 491.151 474.926 490.292 475.098 489.658L477.01 490.066C476.73 490.679 476.43 491.323 476.15 491.893H479.072V493.654H475.721V495.352H478.686ZM467.686 492.666V493.998C469.318 492.773 470.64 491.098 471.617 489.078H469.812V491.012H468.029V488.52H464.871C464.635 489.938 464.366 491.334 464.033 492.666H467.686ZM463.84 500.229H465.945V494.471H463.84V500.229ZM471.445 501.969H473.83V500.207H471.445V501.969ZM471.445 498.66H473.83V496.877H471.445V498.66ZM471.445 495.352H473.83V493.654H471.445V495.352ZM490.18 488.713C490.889 488.938 491.63 489.218 492.371 489.529C492.521 488.992 492.65 488.444 492.736 487.896H489.428V486.178H499.59V486.951C499.354 491.764 499.182 493.633 498.602 494.256C498.279 494.75 497.893 494.9 497.291 494.965C496.797 495.029 495.916 495.051 494.992 494.986C494.971 494.406 494.756 493.654 494.455 493.139C495.271 493.203 496.023 493.203 496.346 493.203C496.604 493.225 496.797 493.182 496.969 492.988C497.291 492.645 497.463 491.323 497.613 487.896H494.627C494.487 488.713 494.305 489.529 494.047 490.303C494.863 490.722 495.594 491.141 496.152 491.506L495.164 493.096C494.681 492.741 494.047 492.354 493.359 491.979C492.586 493.386 491.437 494.61 489.664 495.523C489.449 495.072 488.891 494.406 488.504 494.084C490.062 493.354 491.05 492.322 491.684 491.141C490.867 490.775 490.019 490.432 489.234 490.174L490.18 488.713ZM493.402 501.969C493.402 502.484 493.467 502.549 493.961 502.549H495.422C495.873 502.549 495.959 502.312 496.023 500.314C496.389 500.658 497.184 500.938 497.699 501.066C497.527 503.73 497.012 504.375 495.615 504.375H493.639C491.898 504.375 491.533 503.795 491.533 501.99V497.221H493.402V501.969ZM491.104 498.424C490.91 500.271 490.523 502.227 489.471 503.408L487.967 502.484V503.387H483.648V504.268H481.93V497.242H487.967V502.463C488.837 501.399 489.299 499.659 489.492 497.973L491.104 498.424ZM493.123 494.428C494.455 495.072 496.088 496.189 496.818 497.049L495.572 498.402C494.82 497.543 493.252 496.383 491.898 495.609L493.123 494.428ZM498.258 497.564C499.354 499.09 500.277 501.174 500.557 502.613L498.73 503.344C498.494 501.947 497.613 499.799 496.604 498.23L498.258 497.564ZM487.924 491.635V493.203H481.951V491.635H487.924ZM487.881 486.006V487.596H482.037V486.006H487.881ZM487.924 494.406V495.996H481.951V494.406H487.924ZM488.504 488.756V490.432H481.027V488.756H488.504ZM483.648 501.754H486.205V498.896H483.648V501.754Z" fill="black"/>
<path d="M331.314 640.377V642.096H313.418V640.377H318.703C318.488 639.657 318.059 638.68 317.65 637.928L318.854 637.627H316.447V632.084H328.199V637.627H326.094L327.125 637.863C326.631 638.787 326.18 639.689 325.771 640.377H331.314ZM320.229 624.092L320.594 624.027L321.947 624.715C321.346 626.294 320.443 627.712 319.391 628.947H325.428C324.16 627.486 323.107 625.789 322.312 623.941L324.053 623.383C324.396 624.178 324.826 624.951 325.32 625.682C326.169 625.016 327.061 624.188 327.641 623.512L329.23 624.629C328.296 625.445 327.211 626.283 326.266 626.928C326.631 627.39 327.028 627.809 327.447 628.217C328.36 627.508 329.359 626.638 329.982 625.918L331.508 627.014C330.627 627.798 329.596 628.604 328.672 629.27C329.735 630.097 330.906 630.773 332.152 631.246C331.658 631.676 331.035 632.471 330.734 632.986C329.026 632.213 327.479 631.085 326.137 629.721V630.688H318.531V629.85C317.081 631.3 315.395 632.449 313.697 633.266C313.418 632.836 312.859 632.127 312.43 631.74C313.729 631.214 315.062 630.387 316.254 629.377C315.609 628.754 314.621 627.991 313.805 627.486L314.943 626.326C315.824 626.82 316.866 627.583 317.479 628.195C318.166 627.454 318.778 626.638 319.283 625.789H314.621V624.092H320.229ZM318.445 635.973H326.072V633.781H318.445V635.973ZM319.648 637.627C320.143 638.4 320.562 639.399 320.766 640.141L319.885 640.377H324.439L323.795 640.227C324.225 639.518 324.751 638.443 325.041 637.627H319.648ZM352.197 624.865V626.928H343.625V630.387L343.99 629.979C346.332 631.139 349.598 632.943 351.209 634.232L349.705 636.102C348.395 634.995 345.849 633.384 343.625 632.148V642.504H341.434V626.928H333.721V624.865H352.197ZM372.93 626.262V628.195H361.543V626.262H366.184V623.34H368.203V626.262H372.93ZM365.947 629.334C365.324 630.58 364.476 631.815 363.562 632.857L365.238 632.406C365.711 633.695 366.345 634.898 367.129 635.994C367.859 634.845 368.396 633.577 368.74 632.234L370.824 632.664C370.266 634.469 369.492 636.123 368.461 637.562C369.793 638.97 371.447 640.065 373.359 640.742C372.908 641.193 372.242 642.031 371.92 642.568C370.051 641.795 368.439 640.635 367.107 639.174C365.689 640.624 363.917 641.784 361.715 642.59C361.479 642.117 360.984 641.365 360.641 640.957C362.821 640.194 364.54 639.045 365.861 637.627C364.884 636.241 364.089 634.662 363.477 632.922C363.122 633.33 362.746 633.695 362.381 634.018C362.059 633.631 361.393 633.029 360.963 632.729C362.252 631.697 363.455 630.021 364.1 628.561L365.947 629.334ZM369.965 628.496C371.275 629.828 372.715 631.59 373.295 632.857L371.576 633.867C371.018 632.6 369.643 630.773 368.375 629.398L369.965 628.496ZM361.328 627.658V629.592H358.965V630.859C359.577 631.665 361.221 634.082 361.586 634.662L360.469 636.23C360.168 635.521 359.545 634.372 358.965 633.352V642.525H357.053V633.867C356.408 635.812 355.624 637.605 354.775 638.766C354.561 638.207 354.109 637.412 353.787 636.918C355.055 635.231 356.269 632.245 356.881 629.592H354.238V627.658H357.053V623.34H358.965V627.658H361.328ZM384.188 635.307C383.027 635.307 382.104 634.383 382.104 633.223C382.104 632.062 383.027 631.139 384.188 631.139C385.348 631.139 386.271 632.062 386.271 633.223C386.271 634.383 385.348 635.307 384.188 635.307ZM405.844 623.297V625.316H413.578V630.021H411.387V627.229H398.217V630.021H396.133V625.316H403.652V623.297H405.844ZM405.049 628.389C404.641 629.248 404.179 630.172 403.717 631.117H414.029V633.051H410.441C409.797 635.178 408.873 636.843 407.648 638.143C409.765 639.023 411.73 639.969 413.127 640.85L411.516 642.525C410.162 641.645 408.132 640.613 405.887 639.625C403.695 641.15 400.838 642.01 397.293 642.568C397.121 642.053 396.498 641.15 396.111 640.678C399.194 640.334 401.697 639.743 403.652 638.701C402.535 638.282 401.418 637.885 400.365 637.52L399.914 638.314L397.723 637.734C398.507 636.488 399.441 634.812 400.365 633.051H395.66V631.117H401.354C401.912 630 402.449 628.904 402.9 627.916L405.049 628.389ZM401.246 635.887C402.61 636.306 404.104 636.8 405.586 637.348C406.746 636.263 407.573 634.866 408.078 633.051H402.729C402.224 634.028 401.719 634.995 401.246 635.887ZM425.352 625.316C424.127 627.121 422.064 629.162 419.723 630.881H431.238C428.896 629.205 426.662 627.143 425.352 625.316ZM432.463 635.436V637.24H426.447V640.141H434.311V641.988H416.693V640.141H424.299V637.24H418.369V635.436H424.299V632.686H419.357V631.139C418.595 631.676 417.811 632.181 417.016 632.621C416.736 632.17 416.156 631.396 415.684 630.988C419.25 629.119 422.645 625.896 424.213 623.275H426.318C428.51 626.369 431.99 629.248 435.234 630.73C434.74 631.268 434.268 631.955 433.859 632.578C433.107 632.148 432.345 631.665 431.582 631.117V632.686H426.447V635.436H432.463ZM455 629.119V633.115H453.002V630.666H439.23V633.115H437.297V629.119H444.988V627.572H445.289C445.01 627.433 444.752 627.304 444.537 627.207C444.849 626.992 445.139 626.745 445.439 626.477H442.432C442.754 627.014 443.033 627.562 443.205 627.98L441.314 628.518C441.186 627.991 440.767 627.164 440.369 626.477H439.832C439.273 627.282 438.683 628.002 438.113 628.561C437.705 628.238 436.867 627.68 436.395 627.443C437.619 626.391 438.801 624.801 439.445 623.189L441.357 623.727C441.196 624.103 441.014 624.479 440.82 624.844H445.783V626.111C446.6 625.273 447.266 624.253 447.674 623.189L449.672 623.684C449.5 624.07 449.307 624.468 449.092 624.844H455.559V626.477H451.627C452.046 627.003 452.411 627.572 452.637 628.002L450.746 628.582C450.488 628.023 449.94 627.186 449.414 626.477H448.018C447.685 626.896 447.341 627.293 446.986 627.637V629.119H455ZM451.863 631.74V636.145H442.367V637.283H453.303V642.547H451.24V641.924H442.367V642.568H440.412V631.74H451.863ZM442.367 640.377H451.24V638.83H442.367V640.377ZM442.367 634.641H449.779V633.266H442.367V634.641ZM466.623 631.934H469.223V629.764H466.623V631.934ZM466.623 628.152H469.223V626.025H466.623V628.152ZM475.453 624.242V633.695H471.135V635.779H475.711V637.627H471.135V639.99H476.398V641.859H463.057V639.99H469.008V637.627H464.561V635.779H469.008V633.695H464.754V624.242H475.453ZM463.873 624.629V626.541H461.574V630.559H463.529V632.471H461.574V637.025L463.701 636.338L464.066 638.336C461.811 639.088 459.361 639.904 457.471 640.506L456.977 638.422C457.718 638.229 458.62 637.96 459.598 637.648V632.471H457.406V630.559H459.598V626.541H457.213V624.629H463.873ZM470.963 631.934H473.498V629.764H470.963V631.934ZM470.963 628.152H473.498V626.025H470.963V628.152Z" fill="black"/>
<path d="M481.826 558.369C456.436 570.726 428.171 577.621 398.381 577.621C366.148 577.621 335.701 569.55 308.748 555.22" stroke="#2A3317" stroke-width="20.838" stroke-linecap="round" stroke-linejoin="round"/>
<path d="M490.978 582.061L466.586 537.694L500.957 547.685L490.978 582.061Z" fill="#2A3317"/>
<path d="M298.761 578.573L324.704 535.093L290 543.866L298.761 578.573Z" fill="#2A3317"/>
<path d="M552.432 234.87C588.202 265.496 612.534 309.083 618.146 358.35" stroke="#2A3317" stroke-width="20.838" stroke-linecap="round" stroke-linejoin="round"/>
<path d="M570.499 217L539.578 257.089L535 221.59L570.499 217Z" fill="#2A3317"/>
<path d="M643.077 353.399L592.545 356.546L619.381 380.23L643.077 353.399Z" fill="#2A3317"/>
<path d="M237.466 234.871C201.696 265.497 177.363 309.084 171.752 358.351" stroke="#2A3317" stroke-width="20.838" stroke-linecap="round" stroke-linejoin="round"/>
<path d="M250.319 257.09L219.398 217.001L254.898 221.591L250.319 257.09Z" fill="#2A3317"/>
<path d="M197.354 356.547L146.822 353.4L170.515 380.231L197.354 356.547Z" fill="#2A3317"/>
<g filter="url(#filter0_d_143_5850)">
<path d="M144 658C213.588 658 270 601.588 270 532C270 462.412 213.588 406 144 406C74.4121 406 18 462.412 18 532C18 601.588 74.4121 658 144 658Z" fill="white"/>
</g>
<path d="M130.879 596.813V599.27H126.016C127.418 601.429 129.527 603.451 131.599 604.605C130.979 605.176 130.135 606.119 129.663 606.813C127.852 605.548 126.053 603.526 124.651 601.329V607.682H121.946V601.429C120.457 603.612 118.571 605.523 116.611 606.739C116.189 606.069 115.32 605.101 114.725 604.605C116.946 603.463 119.105 601.453 120.606 599.27H115.569V596.813H121.946V594.58H117.157V586.416H129.738V594.58H124.651V596.813H130.879ZM119.762 592.173H126.983V588.823H119.762V592.173ZM116.66 586.242C116.052 587.818 115.283 589.431 114.427 590.957V607.608H111.821V594.952C111.189 595.796 110.544 596.553 109.886 597.21C109.663 596.565 108.893 595.051 108.471 594.431C110.705 592.247 112.864 588.847 114.154 585.423L116.66 586.242ZM151.947 600.213L152.369 600.113L153.932 600.883C153.076 602.458 151.848 603.699 150.359 604.655C151.786 605.064 153.374 605.349 155.024 605.523C154.503 606.044 153.808 607.012 153.511 607.682C151.364 607.372 149.342 606.838 147.58 606.069C145.595 606.863 143.349 607.372 141.004 607.707C140.805 607.136 140.334 606.218 139.912 605.697C141.711 605.511 143.461 605.201 145.049 604.729C144.18 604.146 143.411 603.488 142.766 602.744L144.379 602.123H141.078V600.213H151.947ZM154.578 586.614V588.575H151.525V589.716H150.309L149.615 590.957H153.932V592.619H149.54V593.389H153.411V594.753H149.54V595.548H153.411V596.912H149.54V597.706H154.528V599.419H142.294V594.307C142.034 594.605 141.786 594.878 141.525 595.126C141.153 594.741 140.334 594.083 139.838 593.736V594.704H133.559V592.694H139.838V593.711C141.165 592.57 142.294 590.895 142.989 589.195L143.833 589.393V588.575H140.756V586.614H143.833V585.324H146.24V586.614H149.094V585.324H151.525V586.614H154.578ZM139.813 586.118V588.177H133.708V586.118H139.813ZM139.838 595.895V597.955H133.559V595.895H139.838ZM140.458 589.319V591.503H132.542V589.319H140.458ZM139.788 599.195V606.367H135.619V607.359H133.485V599.195H139.788ZM135.619 604.208H137.654V601.329H135.619V604.208ZM144.552 590.957H147.208C147.468 590.374 147.691 589.753 147.853 589.294L149.094 589.493V588.575H146.24V589.716H145.123C144.937 590.138 144.751 590.547 144.552 590.957ZM144.676 597.706H147.158V596.912H144.676V597.706ZM144.676 595.548H147.158V594.753H144.676V595.548ZM144.676 593.389H147.158V592.619H144.676V593.389ZM145.173 602.123C145.83 602.731 146.686 603.265 147.704 603.712C148.647 603.277 149.478 602.744 150.161 602.123H145.173ZM178.276 592.644V595.076H169.615C168.673 595.771 167.705 596.416 166.712 597.036H175.497V607.608H172.693V606.962H164.28V607.682H161.575V599.791C160.322 600.386 159.057 600.908 157.779 601.379C157.456 600.783 156.637 599.667 156.141 599.096C159.292 598.091 162.332 596.739 165.099 595.076H156.811V592.644H164.603V590.336H158.895V588.004H164.603V585.373H167.283V588.004H172.568V589.12C173.487 588.153 174.318 587.135 175.075 586.068L177.383 587.284C175.993 589.232 174.368 591.019 172.568 592.644H178.276ZM164.28 604.679H172.693V602.992H164.28V604.679ZM164.28 600.932H172.693V599.27H164.28V600.932ZM167.283 592.644H168.673C169.615 591.912 170.521 591.143 171.377 590.336H167.283V592.644Z" fill="#221714"/>
<path d="M215.45 562.112H142.184V527.304C142.184 521.749 147.262 516.227 154.162 515.36L179.126 511.479L203.653 515.259C210.47 516.188 215.453 521.68 215.453 527.178V562.112H215.45Z" fill="#A15091"/>
<path d="M187.834 513.717L187.107 514.003C181.779 516.111 175.831 516.152 170.473 514.113L169.428 513.714V505.183H187.834V513.714V513.717Z" fill="#E1AD5D"/>
<path d="M200.132 486.204C200.132 499.314 190.592 509.942 178.821 509.942C167.051 509.942 157.51 499.314 157.51 486.204C157.51 485.368 157.51 484.543 157.51 483.731C157.51 471.987 167.051 462.467 178.821 462.467C190.589 462.467 200.129 471.987 200.132 483.728C200.132 484.835 200.132 485.701 200.132 486.204Z" fill="#F3CB8D"/>
<path d="M157.514 477.497C157.514 477.497 157.523 473.636 157.523 486.487C157.523 493.968 160.854 501.187 166.352 505.444C170.299 508.501 174.315 509.945 179.7 509.945C179.7 509.945 167.513 503.601 165.036 496.252C162.768 489.512 167.141 468.483 167.141 468.483L157.517 477.494L157.514 477.497Z" fill="#EBBD76"/>
<path d="M190.176 486.088C190.176 485.362 189.587 484.772 188.861 484.772C188.134 484.772 187.545 485.362 187.545 486.088V487.178C187.545 487.904 188.134 488.494 188.861 488.494C189.587 488.494 190.176 487.904 190.176 487.178V486.088Z" fill="#231815"/>
<path d="M191.039 489.836H186.687C185.189 489.836 183.975 491.05 183.975 492.548C183.975 494.046 185.189 495.26 186.687 495.26H191.039C192.536 495.26 193.751 494.046 193.751 492.548C193.751 491.05 192.536 489.836 191.039 489.836Z" fill="#E9A48A"/>
<path d="M171.015 489.836H166.663C165.165 489.836 163.951 491.05 163.951 492.548C163.951 494.046 165.165 495.26 166.663 495.26H171.015C172.513 495.26 173.727 494.046 173.727 492.548C173.727 491.05 172.513 489.836 171.015 489.836Z" fill="#E9A48A"/>
<path d="M170.155 486.088C170.155 485.362 169.566 484.772 168.839 484.772C168.113 484.772 167.523 485.362 167.523 486.088V487.178C167.523 487.904 168.113 488.494 168.839 488.494C169.566 488.494 170.155 487.904 170.155 487.178V486.088Z" fill="#231815"/>
<path d="M200.818 562.111C200.818 562.111 200.949 543.336 201.851 536.73" stroke="#5D2A80" stroke-width="0.595372" stroke-miterlimit="10"/>
<path d="M157.711 562.111C157.711 562.111 157.58 543.336 156.678 536.73" stroke="#5D2A80" stroke-width="0.595372" stroke-miterlimit="10"/>
<path d="M179.087 520.063C170.675 520.063 163.822 514.035 163.545 513.788L169.153 512.624C169.195 512.66 173.184 515.321 179.087 515.321C184.99 515.321 188.756 512.669 188.804 512.624L194.629 513.788C194.349 514.035 187.497 520.063 179.087 520.063Z" fill="#81287D"/>
<path d="M180.512 518.847L180.398 516.866C180.643 516.851 180.896 516.833 181.146 516.807L181.348 518.781C181.069 518.811 180.786 518.832 180.512 518.85V518.847Z" fill="#5D2A80"/>
<path d="M178.411 518.844C178.134 518.829 177.851 518.805 177.574 518.775L177.78 516.801C178.027 516.828 178.28 516.848 178.527 516.86L178.411 518.841V518.844Z" fill="#5D2A80"/>
<path d="M183.42 518.445L182.994 516.507C183.235 516.453 183.483 516.394 183.724 516.331L184.236 518.249C183.965 518.32 183.691 518.386 183.42 518.445Z" fill="#5D2A80"/>
<path d="M175.5 518.442C175.229 518.382 174.955 518.317 174.684 518.242L175.196 516.324C175.437 516.39 175.684 516.449 175.925 516.503L175.497 518.442H175.5Z" fill="#5D2A80"/>
<path d="M186.224 517.605L185.516 515.75C185.748 515.66 185.983 515.565 186.215 515.467L186.999 517.292C186.743 517.403 186.484 517.507 186.224 517.605Z" fill="#5D2A80"/>
<path d="M172.696 517.599C172.44 517.501 172.181 517.397 171.922 517.286L172.705 515.461C172.937 515.562 173.173 515.655 173.405 515.744L172.696 517.599Z" fill="#5D2A80"/>
<path d="M189.384 516.191L187.689 515.151C187.82 514.937 187.952 514.719 188.077 514.499L189.807 515.479C189.67 515.72 189.527 515.958 189.384 516.194V516.191Z" fill="#5D2A80"/>
<path d="M169.374 516.507C169.177 516.317 168.981 516.12 168.787 515.921L170.22 514.545C170.395 514.727 170.577 514.908 170.756 515.081L169.371 516.507H169.374Z" fill="#5D2A80"/>
<path d="M191.913 514.331L189.953 513.991C189.965 513.926 189.974 513.86 189.986 513.795L190.042 513.458L192.005 513.78L191.951 514.113C191.94 514.185 191.928 514.256 191.916 514.331H191.913Z" fill="#5D2A80"/>
<path d="M166.929 514.372C166.884 514.104 166.839 513.833 166.801 513.556L168.769 513.282C168.805 513.535 168.844 513.789 168.885 514.036L166.926 514.369L166.929 514.372Z" fill="#5D2A80"/>
<path d="M160.298 514.509C148.965 514.509 142.184 520.659 142.184 526.214V562.109H148.902C148.902 562.109 149.605 540.839 150.939 533.751C152.37 526.148 160.298 514.509 160.298 514.509Z" fill="#81287D"/>
<path d="M145.267 562.112H72V527.304C72 521.749 77.0785 516.227 83.9789 515.36L108.943 511.479L133.469 515.259C140.286 516.188 145.27 521.68 145.27 527.178V562.112H145.267Z" fill="#1266A4"/>
<path d="M117.653 513.716L116.941 514.002C111.72 516.11 105.891 516.151 100.643 514.112L99.6191 513.713V505.182H117.653V513.713V513.716Z" fill="#E1AD5D"/>
<path d="M129.951 486.205C129.951 499.315 120.41 509.943 108.639 509.943C96.869 509.943 87.3281 499.315 87.3281 486.205C87.3281 485.369 87.3281 484.544 87.3281 483.732C87.3281 471.988 96.869 462.468 108.639 462.468C120.407 462.468 129.948 471.988 129.951 483.729C129.951 484.836 129.951 485.702 129.951 486.205Z" fill="#F3CB8D"/>
<path d="M87.332 477.497C87.332 477.497 87.341 473.636 87.341 486.487C87.341 493.968 90.6721 501.187 96.1703 505.444C100.118 508.501 104.133 509.945 109.519 509.945C109.519 509.945 97.3313 503.601 94.8546 496.252C92.5862 489.512 96.9592 468.483 96.9592 468.483L87.335 477.494L87.332 477.497Z" fill="#EBBD76"/>
<path d="M119.993 486.088C119.993 485.362 119.404 484.772 118.677 484.772C117.95 484.772 117.361 485.362 117.361 486.088V487.178C117.361 487.904 117.95 488.494 118.677 488.494C119.404 488.494 119.993 487.904 119.993 487.178V486.088Z" fill="#231815"/>
<path d="M120.853 489.837H116.501C115.003 489.837 113.789 491.051 113.789 492.549C113.789 494.047 115.003 495.261 116.501 495.261H120.853C122.351 495.261 123.565 494.047 123.565 492.549C123.565 491.051 122.351 489.837 120.853 489.837Z" fill="#E9A48A"/>
<path d="M100.834 489.837H96.4814C94.9837 489.837 93.7695 491.051 93.7695 492.549C93.7695 494.047 94.9837 495.261 96.4814 495.261H100.834C102.331 495.261 103.546 494.047 103.546 492.549C103.546 491.051 102.331 489.837 100.834 489.837Z" fill="#E9A48A"/>
<path d="M99.9733 486.088C99.9733 485.362 99.3842 484.772 98.6576 484.772C97.9309 484.772 97.3418 485.362 97.3418 486.088V487.178C97.3418 487.904 97.9309 488.494 98.6576 488.494C99.3842 488.494 99.9733 487.904 99.9733 487.178V486.088Z" fill="#231815"/>
<path d="M130.635 562.111C130.635 562.111 130.766 543.336 131.668 536.73" stroke="#282E80" stroke-width="0.595372" stroke-miterlimit="10"/>
<path d="M87.5291 562.111C87.5291 562.111 87.3981 543.336 86.4961 536.73" stroke="#282E80" stroke-width="0.595372" stroke-miterlimit="10"/>
<path d="M108.604 455.787C102.43 455.787 94.479 458.204 89.9155 462.333C84.4649 467.266 83.2831 473.723 84.1493 481.18C84.4321 483.627 87.7275 490.899 87.7275 490.899L88.5223 480.385L102.439 469.871C102.439 469.871 110.789 477.012 118.544 477.807C122.089 478.17 128.088 478.006 128.088 478.006L129.877 488.72C129.99 488.678 132.065 481.778 132.261 480.188C132.788 475.979 132.461 467.293 128.883 463.128C124.658 458.21 115.165 455.787 108.601 455.787H108.604Z" fill="#4E4D4D"/>
<path d="M99.0096 472.192L88.5638 480.084L87.9654 487.529C87.9654 487.529 85.4916 482.516 85.2803 480.679C84.6313 475.083 85.5155 470.233 89.6086 466.533C93.035 463.434 99.0006 461.618 103.636 461.618L99.0096 472.189V472.192Z" fill="#323333"/>
<path d="M102.042 469.278C102.042 469.278 107.775 475.08 114.351 476.843C119.171 478.132 128.087 478.009 128.087 478.009L128.682 481.778C128.682 481.778 129.876 479.2 129.876 478.009C129.876 471.859 123.856 474.637 117.349 473.05C110.842 471.463 102.039 469.281 102.039 469.281L102.042 469.278Z" fill="#323333"/>
<path d="M121.021 513.258C121.021 513.258 115.597 518.081 108.902 518.081C102.207 518.081 96.7832 513.258 96.7832 513.258L108.902 511.335L121.021 513.258Z" fill="#EBBD76"/>
<path d="M108.904 520.064C100.491 520.064 93.6382 514.036 93.3613 513.789L98.9697 512.625C99.0114 512.661 103 515.322 108.904 515.322C114.807 515.322 118.572 512.67 118.62 512.625L124.446 513.789C124.166 514.036 117.313 520.064 108.904 520.064Z" fill="#0B4F7F"/>
<path d="M110.328 518.847L110.215 516.866C110.459 516.851 110.712 516.833 110.962 516.807L111.165 518.781C110.885 518.811 110.602 518.832 110.328 518.85V518.847Z" fill="#043D61"/>
<path d="M108.226 518.844C107.949 518.829 107.666 518.805 107.389 518.775L107.594 516.801C107.841 516.828 108.094 516.848 108.342 516.86L108.226 518.841V518.844Z" fill="#043D61"/>
<path d="M113.234 518.445L112.809 516.507C113.05 516.453 113.297 516.394 113.538 516.331L114.05 518.249C113.779 518.32 113.505 518.386 113.234 518.445Z" fill="#043D61"/>
<path d="M105.314 518.442C105.043 518.382 104.769 518.317 104.498 518.242L105.01 516.324C105.251 516.39 105.499 516.449 105.74 516.503L105.311 518.442H105.314Z" fill="#043D61"/>
<path d="M116.045 517.605L115.336 515.75C115.568 515.66 115.803 515.565 116.036 515.467L116.819 517.292C116.563 517.403 116.304 517.507 116.045 517.605Z" fill="#043D61"/>
<path d="M102.511 517.599C102.255 517.501 101.995 517.397 101.736 517.286L102.52 515.461C102.752 515.562 102.987 515.655 103.219 515.744L102.511 517.599Z" fill="#043D61"/>
<path d="M119.202 516.192L117.508 515.152C117.639 514.938 117.77 514.72 117.895 514.5L119.625 515.48C119.488 515.721 119.345 515.959 119.202 516.195V516.192Z" fill="#043D61"/>
<path d="M99.1863 516.507C98.9897 516.317 98.7932 516.12 98.5996 515.921L100.032 514.545C100.208 514.727 100.389 514.908 100.568 515.081L99.1833 516.507H99.1863Z" fill="#043D61"/>
<path d="M121.733 514.331L119.773 513.991C119.785 513.926 119.794 513.86 119.806 513.795L119.863 513.458L121.825 513.78L121.772 514.113C121.76 514.185 121.748 514.256 121.736 514.331H121.733Z" fill="#043D61"/>
<path d="M96.7452 514.371C96.7006 514.103 96.6559 513.832 96.6172 513.555L98.5857 513.281C98.6214 513.534 98.6601 513.788 98.7018 514.035L96.7423 514.368L96.7452 514.371Z" fill="#043D61"/>
<path d="M152.94 479.397C150.895 487.738 153.964 498.949 153.536 506.971C153.425 509.022 148.764 510.642 148.764 510.642C148.764 510.642 149.38 512.836 150.752 514.014C152.05 515.128 154.131 515.402 154.131 515.402L169.64 512.725V507.766C169.64 507.766 168.846 507.567 166.062 505.385C163.338 503.25 158.706 497.448 158.507 491.298C158.421 488.669 158.745 483.246 158.948 480.203L172.623 469.874C172.623 469.874 180.973 477.015 188.728 477.81C192.273 478.173 198.272 478.009 198.272 478.009C198.272 478.009 198.989 487.529 198.867 491.301C198.668 497.451 194.036 503.253 191.312 505.388C188.529 507.57 187.734 507.769 187.734 507.769V512.728L203.243 515.405C203.243 515.405 205.324 515.128 206.622 514.017C207.994 512.842 208.61 510.645 208.61 510.645C208.61 510.645 203.949 509.025 203.839 506.974C203.41 498.949 205.631 487.901 204.434 479.4C202.821 467.924 200.755 465.096 199.067 463.131C194.843 458.213 185.349 455.79 178.785 455.79C172.611 455.79 164.66 458.207 160.097 462.336C159.46 462.911 158.894 463.518 158.361 464.125C154.53 468.486 153.905 475.461 152.94 479.397Z" fill="#4E4D4D"/>
<path d="M169.189 472.193L158.743 480.085L158.505 491.298C158.505 491.298 155.671 482.517 155.46 480.68C154.811 475.083 155.695 470.234 159.788 466.534C163.215 463.435 169.18 461.619 173.815 461.619L169.189 472.19V472.193Z" fill="#323333"/>
<path d="M172.228 469.278C172.228 469.278 177.961 475.08 184.537 476.843C189.356 478.132 198.272 478.009 198.272 478.009L198.868 481.778C198.868 481.778 200.061 479.2 200.061 478.009C200.061 471.859 194.042 474.637 187.535 473.05C181.027 471.463 172.225 469.281 172.225 469.281L172.228 469.278Z" fill="#323333"/>
<path d="M175.625 498.311C177.408 500.088 180.296 500.088 182.079 498.311" stroke="#BE6E71" stroke-width="0.595372" stroke-linecap="round" stroke-linejoin="round"/>
<path d="M105.373 498.311C107.156 500.088 110.044 500.088 111.827 498.311" stroke="#BE6E71" stroke-width="0.595372" stroke-linecap="round" stroke-linejoin="round"/>
<g filter="url(#filter1_d_143_5850)">
<path d="M648 658C717.588 658 774 601.588 774 532C774 462.412 717.588 406 648 406C578.412 406 522 462.412 522 532C522 601.588 578.412 658 648 658Z" fill="white"/>
</g>
<path d="M646.241 599.441V601.929H637.096V605.245C637.096 606.66 636.755 607.318 635.682 607.757C634.584 608.123 633.121 608.147 631.121 608.147C630.926 607.416 630.438 606.27 629.999 605.538C631.56 605.611 633.292 605.611 633.755 605.587C634.218 605.587 634.389 605.489 634.389 605.172V601.929H625.293V599.441H634.389V597.929H635.633C636.34 597.502 637.035 597.002 637.681 596.49H629.438V594.198H640.145L640.705 594.076L642.413 595.344C641.035 596.807 639.12 598.344 637.169 599.441H646.241ZM645.949 589.93V595.637H643.266V592.295H628.122V595.637H625.585V589.93H628.853C628.414 589.137 627.78 588.211 627.195 587.442L629.463 586.442C630.292 587.369 631.243 588.637 631.609 589.54L630.804 589.93H634.609C634.304 589.003 633.682 587.845 633.097 586.955L635.462 586.052C636.194 587.125 636.999 588.515 637.316 589.515L636.194 589.93H639.828C640.596 588.832 641.425 587.418 641.876 586.345L644.778 587.223C644.132 588.137 643.425 589.089 642.754 589.93H645.949ZM668.532 590.466V593.076H660.557V597.393H667.654V599.953H660.557V604.855H669.751V607.44H648.583V604.855H657.777V599.953H651.314V597.393H657.777V593.076H652.802C652.095 594.417 651.338 595.612 650.558 596.563C650.046 596.1 648.875 595.32 648.192 594.929C650.046 592.954 651.558 589.735 652.387 586.491L655.119 587.101C654.814 588.235 654.436 589.381 653.997 590.466H657.777V586.199H660.557V590.466H668.532Z" fill="#221714"/>
<path d="M711.985 522.244L696.964 520.178V516.302H688.319V524.307H685.372V516.302H676.335V520.362L662.066 522.351C655.11 523.277 649.986 528.328 649.986 534.258V561.214H723.884V534.124C723.884 528.254 718.859 523.235 711.982 522.244H711.985Z" fill="#18191A"/>
<path d="M695.491 511.613H677.672V517.472L677.934 517.624C680.247 518.966 682.795 519.722 685.373 519.904V524.304H688.32V519.859C690.818 519.606 693.271 518.811 695.491 517.469V511.61V511.613Z" fill="#E1AD5D"/>
<path d="M686.847 533.415C687.847 533.415 688.657 532.61 688.657 531.617C688.657 530.624 687.847 529.819 686.847 529.819C685.847 529.819 685.037 530.624 685.037 531.617C685.037 532.61 685.847 533.415 686.847 533.415Z" fill="#E7A642"/>
<path d="M686.847 542.786C687.847 542.786 688.657 541.981 688.657 540.988C688.657 539.995 687.847 539.19 686.847 539.19C685.847 539.19 685.037 539.995 685.037 540.988C685.037 541.981 685.847 542.786 686.847 542.786Z" fill="#E7A642"/>
<path d="M686.847 552.161C687.847 552.161 688.657 551.356 688.657 550.363C688.657 549.37 687.847 548.565 686.847 548.565C685.847 548.565 685.037 549.37 685.037 550.363C685.037 551.356 685.847 552.161 686.847 552.161Z" fill="#E7A642"/>
<path d="M707.82 492.929C707.82 505.834 698.392 516.295 686.761 516.295C675.131 516.295 665.703 505.834 665.703 492.929C665.703 492.105 665.703 491.319 665.703 490.569C665.703 482.564 672.231 476.074 680.284 476.074H693.236C701.289 476.074 707.814 482.561 707.817 490.563C707.817 491.551 707.817 492.376 707.817 492.929H707.82Z" fill="#F3CB8D"/>
<path d="M665.059 484.36C665.059 484.36 665.068 480.558 665.068 493.21C665.068 500.572 668.36 507.681 673.79 511.869C677.689 514.879 681.658 516.302 686.977 516.302C686.977 516.302 675.481 509.851 672.489 502.822C669.866 496.663 671.39 484.36 671.39 484.36H665.059Z" fill="#EBBD76"/>
<path d="M697.809 495.556C697.809 494.837 697.226 494.255 696.508 494.255C695.789 494.255 695.207 494.837 695.207 495.556V496.619C695.207 497.337 695.789 497.919 696.508 497.919C697.226 497.919 697.809 497.337 697.809 496.619V495.556Z" fill="#231815"/>
<path d="M698.663 499.241H694.344C692.869 499.241 691.674 500.437 691.674 501.911C691.674 503.386 692.869 504.582 694.344 504.582H698.663C700.138 504.582 701.334 503.386 701.334 501.911C701.334 500.437 700.138 499.241 698.663 499.241Z" fill="#E9A48A"/>
<path d="M678.882 499.241H674.563C673.088 499.241 671.893 500.437 671.893 501.911C671.893 503.386 673.088 504.582 674.563 504.582H678.882C680.357 504.582 681.552 503.386 681.552 501.911C681.552 500.437 680.357 499.241 678.882 499.241Z" fill="#E9A48A"/>
<path d="M678.022 495.556C678.022 494.837 677.439 494.255 676.721 494.255C676.002 494.255 675.42 494.837 675.42 495.556V496.619C675.42 497.337 676.002 497.919 676.721 497.919C677.439 497.919 678.022 497.337 678.022 496.619V495.556Z" fill="#231815"/>
<path d="M691.883 476.391C692.428 476.209 693.232 476.075 693.232 476.075L699.126 482.065C701.043 484.011 703.52 485.321 706.214 485.812C706.393 487.613 707.768 497.946 706.196 502.438C706.196 502.438 710.322 494.627 710.519 489.941C710.519 489.873 710.679 483.106 710.126 480.96C707.116 469.258 700.984 463.385 687.043 463.385C682.953 463.385 679.089 464.504 675.674 466.433C665.16 472.372 660.597 485.083 664.669 496.404L666.911 502.635V490.331C666.911 490.331 675.273 489.108 677.913 487.989C681.759 486.357 683.908 483.61 685.575 481.35C687.737 478.421 689.898 477.054 691.889 476.394L691.883 476.391Z" fill="#4E4D4D"/>
<path d="M666.908 502.632C666.318 497.75 666.908 490.329 666.908 490.329L671.034 489.549C671.034 489.549 672.344 473.271 678.663 468.717C684.983 464.162 691.678 463.924 691.678 463.924C691.678 463.924 680.069 461.459 671.525 469.354C671.373 469.493 671.221 469.636 671.075 469.776C664.032 476.525 661.377 487.608 664.741 496.738L666.911 502.629L666.908 502.632Z" fill="#323333"/>
<path d="M710.543 561.266V545.325" stroke="#CBCBCB" stroke-width="0.297686" stroke-miterlimit="10"/>
<path d="M664.377 561.266V545.325" stroke="#CBCBCB" stroke-width="0.297686" stroke-miterlimit="10"/>
<path d="M645.898 561.266H572V533.864C572 527.935 577.123 522.886 584.08 521.957L609.258 518.447L633.996 521.85C640.87 522.841 645.898 527.86 645.898 533.73V561.266Z" fill="#18191A"/>
<path d="M609.132 545.98C609.132 545.98 617.893 539.407 620.936 534.263C623.707 529.578 625.347 520.707 625.347 520.707L609.132 518.447V524.306H609.106V518.447L592.891 520.707C592.891 520.707 594.531 529.578 597.302 534.263C600.345 539.407 609.106 545.98 609.106 545.98" fill="#B2B2B2"/>
<path d="M609.103 525.282L600.967 519.62L592.822 520.692L597.174 528.042C599.63 532.153 605.676 531.974 607.882 527.726L609.1 525.38V525.282H609.103Z" fill="#F1F1F1"/>
<path d="M609.15 525.282L617.286 519.62L625.431 520.692L621.079 528.042C618.623 532.153 612.577 531.974 610.371 527.726L609.153 525.38V525.282H609.15Z" fill="#F1F1F1"/>
<path d="M617.894 520.01L609.16 525.282L600.074 520.01V511.612H617.894V520.01Z" fill="#E1AD5D"/>
<path d="M630.226 492.929C630.226 505.834 620.798 516.295 609.168 516.295C597.537 516.295 588.109 505.834 588.109 492.929C588.109 492.105 588.109 491.319 588.109 490.569C588.109 482.564 594.638 476.074 602.69 476.074H615.642C623.695 476.074 630.22 482.561 630.223 490.563C630.223 491.551 630.223 492.376 630.223 492.929H630.226Z" fill="#F3CB8D"/>
<path d="M587.461 484.359C587.461 484.359 587.47 480.557 587.47 493.209C587.47 500.571 590.762 507.68 596.192 511.868C600.092 514.878 604.06 516.301 609.38 516.301C609.38 516.301 597.883 509.85 594.891 502.821C592.269 496.662 593.793 484.359 593.793 484.359H587.461Z" fill="#EBBD76"/>
<path d="M620.211 495.556C620.211 494.837 619.629 494.255 618.91 494.255C618.192 494.255 617.609 494.837 617.609 495.556V496.619C617.609 497.337 618.192 497.919 618.91 497.919C619.629 497.919 620.211 497.337 620.211 496.619V495.556Z" fill="#231815"/>
<path d="M621.07 499.24H616.75C615.276 499.24 614.08 500.436 614.08 501.91C614.08 503.385 615.276 504.581 616.75 504.581H621.07C622.544 504.581 623.74 503.385 623.74 501.91C623.74 500.436 622.544 499.24 621.07 499.24Z" fill="#E9A48A"/>
<path d="M601.287 499.24H596.967C595.492 499.24 594.297 500.436 594.297 501.91C594.297 503.385 595.492 504.581 596.967 504.581H601.287C602.761 504.581 603.957 503.385 603.957 501.91C603.957 500.436 602.761 499.24 601.287 499.24Z" fill="#E9A48A"/>
<path d="M600.426 495.556C600.426 494.837 599.844 494.255 599.125 494.255C598.407 494.255 597.824 494.837 597.824 495.556V496.619C597.824 497.337 598.407 497.919 599.125 497.919C599.844 497.919 600.426 497.337 600.426 496.619V495.556Z" fill="#231815"/>
<path d="M584.398 517.445H600.113V514.349C600.113 514.349 596.859 512.679 594.219 510.053C587.342 503.218 589.307 494.237 589.307 494.237L615.631 477.444L628.613 485.815C628.792 487.616 630.17 503.638 623.684 510.083C621.043 512.708 617.789 514.378 617.789 514.378V517.474H634.683C634.683 517.474 634.522 496.949 634.522 490.108C634.522 478.031 623.38 463.385 609.436 463.385C595.493 463.385 585.1 475.361 584.246 488.581L584.386 517.445H584.398Z" fill="#4E4D4D"/>
<path d="M593.357 491.653C593.357 491.653 594.744 473.271 601.064 468.717C607.384 464.162 614.079 463.924 614.079 463.924C614.079 463.924 602.469 461.459 593.925 469.354C585.382 477.245 584.527 486.143 584.367 487.358C584.206 488.572 584.399 517.445 584.399 517.445H600.114V514.349C600.114 514.349 594.613 511.81 591.273 505.951C587.933 500.093 589.308 494.234 589.308 494.234L593.354 491.653H593.357Z" fill="#323333"/>
<path d="M609.213 527.432C609.213 527.432 613.678 536.389 615.643 533.266C617.608 530.141 609.213 527.432 609.213 527.432Z" stroke="#B24B70" stroke-width="1.78612" stroke-linecap="round" stroke-linejoin="round"/>
<path d="M609.261 527.432C609.261 527.432 604.796 536.389 602.831 533.266C600.866 530.144 609.261 527.432 609.261 527.432Z" stroke="#B24B70" stroke-width="1.78612" stroke-linecap="round" stroke-linejoin="round"/>
<path d="M609.262 527.432L612.108 539.032" stroke="#B24B70" stroke-width="1.78612" stroke-linecap="round" stroke-linejoin="round"/>
<path d="M609.16 527.432L606.314 539.032" stroke="#B24B70" stroke-width="1.78612" stroke-linecap="round" stroke-linejoin="round"/>
<path d="M632.553 561.266V545.325" stroke="#CBCBCB" stroke-width="0.297686" stroke-miterlimit="10"/>
<path d="M586.383 561.266V545.325" stroke="#CBCBCB" stroke-width="0.297686" stroke-miterlimit="10"/>
<g filter="url(#filter2_d_143_5850)">
<path d="M395 270C464.588 270 521 213.588 521 144C521 74.4121 464.588 18 395 18C325.412 18 269 74.4121 269 144C269 213.588 325.412 270 395 270Z" fill="white"/>
</g>
<path d="M351.185 215.071C351.185 215.861 351.309 215.96 352.075 215.96H354.274C354.991 215.96 355.114 215.516 355.238 212.674C355.781 213.119 356.943 213.588 357.684 213.761C357.412 217.542 356.72 218.53 354.521 218.53H351.704C349.06 218.53 348.467 217.69 348.467 215.095V209.165H344.884C344.34 213.44 343.117 216.986 337.644 219C337.323 218.308 336.581 217.221 335.939 216.677C340.77 215.133 341.659 212.365 342.042 209.165H336.31V206.521H345.502V202.543H341.326C340.77 203.79 340.152 204.964 339.448 205.879C338.805 205.483 337.718 204.89 337.026 204.643C338.608 202.691 339.744 199.503 340.263 197.032L343.031 197.601C342.821 198.354 342.574 199.157 342.314 199.973H345.502V196.686H348.245V199.973H355.584V202.543H348.245V206.521H357.437V209.165H351.185V215.071ZM380.121 201.011V203.655H372.041V208.028H379.231V210.623H372.041V215.59H381.356V218.209H359.908V215.59H369.224V210.623H362.676V208.028H369.224V203.655H364.183C363.466 205.014 362.7 206.224 361.909 207.188C361.391 206.719 360.204 205.928 359.513 205.533C361.391 203.531 362.923 200.269 363.763 196.983L366.53 197.601C366.221 198.75 365.838 199.911 365.394 201.011H369.224V196.686H372.041V201.011H380.121ZM385.162 218.827L399.79 197.403H403.447L388.819 218.827H385.162ZM428.701 210.104V212.624H419.435V215.985C419.435 217.418 419.089 218.085 418.002 218.53C416.89 218.901 415.407 218.926 413.381 218.926C413.183 218.184 412.689 217.023 412.244 216.282C413.826 216.356 415.58 216.356 416.05 216.331C416.519 216.331 416.692 216.232 416.692 215.911V212.624H407.475V210.104H416.692V208.572H417.952C418.669 208.139 419.373 207.633 420.028 207.114H411.676V204.791H422.524L423.092 204.668L424.822 205.953C423.426 207.435 421.486 208.992 419.509 210.104H428.701ZM428.405 200.467V206.249H425.687V202.864H410.342V206.249H407.772V200.467H411.083C410.638 199.664 409.996 198.725 409.403 197.947L411.701 196.933C412.541 197.872 413.505 199.157 413.875 200.072L413.06 200.467H416.915C416.606 199.528 415.976 198.354 415.383 197.452L417.779 196.538C418.521 197.625 419.336 199.034 419.657 200.047L418.521 200.467H422.203C422.981 199.355 423.821 197.922 424.278 196.835L427.219 197.724C426.564 198.651 425.847 199.614 425.168 200.467H428.405ZM452.596 199.997V202.518H439.45V199.997H444.64V196.686H447.284V199.997H452.596ZM444.714 203.803C443.985 205.187 443.033 206.583 442.02 207.732L443.898 207.238C444.392 208.584 445.047 209.857 445.875 211.018C446.604 209.783 447.135 208.448 447.481 207.04L449.977 207.534C449.211 206.323 448.161 204.977 447.185 203.902L449.285 202.691C450.743 204.223 452.374 206.224 453.016 207.682L450.743 209.017C450.595 208.658 450.397 208.263 450.15 207.831C449.532 209.758 448.692 211.525 447.605 213.094C449.1 214.614 450.953 215.812 453.09 216.553C452.497 217.146 451.633 218.234 451.212 218.95C449.112 218.085 447.321 216.813 445.826 215.194C444.232 216.788 442.23 218.073 439.747 218.95C439.475 218.357 438.783 217.369 438.363 216.825C440.809 215.997 442.737 214.737 444.219 213.168C443.182 211.673 442.341 209.968 441.674 208.102C441.304 208.498 440.933 208.856 440.562 209.165C440.142 208.671 439.277 207.88 438.734 207.46C440.167 206.323 441.526 204.445 442.292 202.79L444.714 203.803ZM439.179 201.579V204.124H436.559V205.409C437.263 206.311 439.129 209.091 439.524 209.783L438.091 211.809C437.77 211.018 437.152 209.832 436.559 208.72V218.901H434.064V209.634C433.384 211.624 432.581 213.44 431.691 214.675C431.42 213.934 430.826 212.872 430.406 212.204C431.852 210.326 433.174 207.015 433.866 204.124H430.975V201.579H434.064V196.686H436.559V201.579H439.179Z" fill="#221714"/>
<path d="M474.077 112.373H437.649V84.4888C437.649 83.3636 437.208 82.3038 436.452 81.5209C436.14 81.1845 435.773 80.8957 435.36 80.6725L414.06 69.1401C413.271 68.7114 412.378 68.5567 411.512 68.6638C410.646 68.5537 409.756 68.7114 408.964 69.1401L387.664 80.6725C387.251 80.8957 386.884 81.1845 386.572 81.5209C385.819 82.3038 385.375 83.3636 385.375 84.4888V112.373H348.947C346.599 112.373 344.693 114.287 344.693 116.645V167.177C344.693 169.538 346.599 171.449 348.947 171.449H474.074C476.422 171.449 478.328 169.535 478.328 167.177V116.645C478.328 114.284 476.422 112.373 474.074 112.373H474.077Z" fill="#72C8D5"/>
<path d="M410.976 87.0518C410.916 87.0518 410.86 87.0518 410.803 87.0518C410.746 87.0518 410.687 87.0518 410.63 87.0518C402.274 87.0518 395.502 93.8539 395.502 102.249C395.502 110.643 402.274 117.446 410.63 117.446C410.69 117.446 410.746 117.44 410.803 117.44C410.863 117.44 410.919 117.446 410.976 117.446C419.332 117.446 426.104 110.643 426.104 102.249C426.104 93.8539 419.332 87.0518 410.976 87.0518Z" fill="#32A2D3"/>
<path d="M460.274 125.193H448.376C446.753 125.193 445.438 126.509 445.438 128.132V135.13C445.438 136.753 446.753 138.068 448.376 138.068H460.274C461.897 138.068 463.212 136.753 463.212 135.13V128.132C463.212 126.509 461.897 125.193 460.274 125.193Z" fill="#32A2D3"/>
<path d="M460.274 147.634H448.376C446.753 147.634 445.438 148.949 445.438 150.572V157.571C445.438 159.193 446.753 160.509 448.376 160.509H460.274C461.897 160.509 463.212 159.193 463.212 157.571V150.572C463.212 148.949 461.897 147.634 460.274 147.634Z" fill="#32A2D3"/>
<path d="M404.417 139.647H415.42C420.367 139.647 424.383 143.663 424.383 148.611V171.58H395.457V148.611C395.457 143.663 399.473 139.647 404.42 139.647H404.417Z" fill="#32A2D3"/>
<path d="M410.41 95.9502V102.347L415.527 107.093" stroke="white" stroke-width="2.97686" stroke-linecap="round" stroke-linejoin="round"/>
<g filter="url(#filter3_d_143_5850)">
<path d="M379.999 171.392H318V141.736C318 137.006 322.299 132.299 328.136 131.561L349.263 128.254L370.018 131.475C375.787 132.267 380.002 136.946 380.002 141.629V171.389L379.999 171.392Z" fill="#138C43"/>
<path d="M360.99 130.353C360.99 130.353 355.724 139.965 349.228 139.965C342.733 139.965 337.467 130.353 337.467 130.353L349.228 128.811L360.99 130.353Z" fill="#999999"/>
<path d="M349.209 133.707L356.035 129.188L362.703 130.358L354.481 139.235L349.209 133.785V133.707Z" fill="#F2F2F2"/>
<path d="M349.133 133.707L342.307 129.188L335.639 130.358L343.861 139.235L349.133 133.785V133.707Z" fill="#F2F2F2"/>
<path d="M356.632 130.165L349.154 134.726L341.369 130.165V122.896H356.632V130.165Z" fill="#F2C277"/>
<path d="M367.036 106.726C367.036 117.895 358.963 126.948 349.003 126.948C339.042 126.948 330.969 117.895 330.969 106.726C330.969 106.014 330.969 105.312 330.969 104.618C330.969 94.6129 339.042 86.5039 349.003 86.5039C358.96 86.5039 367.033 94.6129 367.036 104.618C367.036 105.562 367.036 106.297 367.036 106.729V106.726Z" fill="#F9CF90"/>
<path d="M330.972 99.3073C330.972 99.3073 330.978 96.0178 330.978 106.967C330.978 113.34 333.797 119.49 338.447 123.116C341.787 125.721 345.186 126.95 349.741 126.95C349.741 126.95 339.426 121.544 337.333 115.284C335.413 109.542 339.113 91.627 339.113 91.627L330.969 99.3043L330.972 99.3073Z" fill="#F2C277"/>
<path d="M358.613 108.984C358.613 108.37 358.115 107.871 357.5 107.871C356.885 107.871 356.387 108.37 356.387 108.984V109.928C356.387 110.543 356.885 111.041 357.5 111.041C358.115 111.041 358.613 110.543 358.613 109.928V108.984Z" fill="#231815"/>
<path d="M359.326 112.188H355.673C354.398 112.188 353.363 113.222 353.363 114.498C353.363 115.773 354.398 116.808 355.673 116.808H359.326C360.602 116.808 361.636 115.773 361.636 114.498C361.636 113.222 360.602 112.188 359.326 112.188Z" fill="#F2A88D"/>
<path d="M342.385 112.188H338.732C337.456 112.188 336.422 113.222 336.422 114.498C336.422 115.773 337.456 116.808 338.732 116.808H342.385C343.66 116.808 344.695 115.773 344.695 114.498C344.695 113.222 343.66 112.188 342.385 112.188Z" fill="#F2A88D"/>
<path d="M341.668 108.984C341.668 108.37 341.17 107.871 340.555 107.871C339.94 107.871 339.441 108.37 339.441 108.984V109.928C339.441 110.543 339.94 111.041 340.555 111.041C341.17 111.041 341.668 110.543 341.668 109.928V108.984Z" fill="#231815"/>
<path d="M337.524 104.897H343.608C345.484 104.897 347.005 106.419 347.005 108.294C347.005 111.831 344.135 114.7 340.599 114.7H340.533C336.997 114.7 334.127 111.831 334.127 108.294C334.127 106.419 335.648 104.897 337.524 104.897Z" stroke="#5F3819" stroke-width="2.0838" stroke-miterlimit="10"/>
<path d="M354.344 104.897H360.429C362.304 104.897 363.825 106.419 363.825 108.294C363.825 111.831 360.955 114.7 357.419 114.7H357.353C353.817 114.7 350.947 111.831 350.947 108.294C350.947 106.419 352.468 104.897 354.344 104.897Z" stroke="#5F3819" stroke-width="2.0838" stroke-miterlimit="10"/>
<path d="M350.947 108.472H347" stroke="#5F3819" stroke-width="2.0838" stroke-miterlimit="10"/>
<path d="M367.619 171.392C367.619 171.392 367.729 155.397 368.491 149.768" stroke="#046535" stroke-width="0.595372" stroke-miterlimit="10"/>
<path d="M331.14 171.392C331.14 171.392 331.03 155.397 330.268 149.768" stroke="#046535" stroke-width="0.595372" stroke-miterlimit="10"/>
<path d="M328.28 102.447C327.548 96.0947 329.557 89.748 334.168 85.5477C338.032 82.029 342.235 80.8145 347.46 80.8145C356.882 80.8145 362.433 86.2234 362.433 86.2234C362.433 86.2234 366.327 85.5655 368.322 87.7446C370.798 90.4506 370.34 97.8838 368.994 101.602C368.506 102.95 367.143 108.193 367.143 108.193C367.143 108.193 366.973 100.25 364.452 99.7413C362.219 99.2918 357.188 100.727 354.187 100.417C347.626 99.7413 345.507 94.1448 338.371 95.5172C330.465 97.0384 331.304 110.22 331.304 110.22C331.304 110.22 328.515 104.531 328.277 102.444L328.28 102.447Z" fill="#4E4D4D"/>
<path d="M340.058 95.3477C330.8 94.9428 331.36 110.22 331.36 110.22C331.36 110.22 329.264 105.945 329.086 104.38C328.535 99.6076 331.042 93.2639 334.507 90.1084C337.409 87.465 340.294 87.2774 344.098 88.2509C351.555 90.1561 352.511 100.081 352.511 100.081C352.511 100.081 350.769 99.7922 349.147 98.7294C345.277 96.1931 343.931 95.5174 340.061 95.3507L340.058 95.3477Z" fill="#333333"/>
</g>
<path d="M383.75 83.9529L410.658 69.1758L438.971 83.9529" stroke="#32A2D3" stroke-width="8.93058" stroke-linecap="round" stroke-linejoin="round"/>
<path d="M391 130.746C392.985 132.731 396.199 132.731 398.184 130.746" stroke="#BE6E71" stroke-width="0.662759" stroke-linecap="round" stroke-linejoin="round"/>
<rect x="279" y="332" width="232" height="106" rx="53" fill="#85C500"/>
<path d="M364.62 359.48H371.88V361.78H364.62V359.48ZM371.1 359.48H371.5L371.9 359.4L373.48 359.82C373.2 362.78 372.667 365.353 371.88 367.54C371.107 369.727 370.093 371.573 368.84 373.08C367.587 374.587 366.08 375.807 364.32 376.74C364.213 376.527 364.067 376.287 363.88 376.02C363.707 375.753 363.52 375.493 363.32 375.24C363.12 375 362.927 374.8 362.74 374.64C364.313 373.92 365.673 372.887 366.82 371.54C367.98 370.18 368.92 368.533 369.64 366.6C370.36 364.667 370.847 362.467 371.1 360V359.48ZM366.94 361.56C367.247 363.547 367.687 365.4 368.26 367.12C368.833 368.827 369.587 370.34 370.52 371.66C371.467 372.967 372.653 373.993 374.08 374.74C373.893 374.9 373.687 375.1 373.46 375.34C373.247 375.58 373.04 375.827 372.84 376.08C372.653 376.347 372.5 376.587 372.38 376.8C370.847 375.88 369.58 374.7 368.58 373.26C367.593 371.807 366.793 370.127 366.18 368.22C365.58 366.3 365.093 364.2 364.72 361.92L366.94 361.56ZM355.92 359.48H362.46V361.78H355.92V359.48ZM361.66 359.48H362.08L362.5 359.4L364.04 359.84C363.8 362.52 363.373 364.94 362.76 367.1C362.16 369.247 361.373 371.127 360.4 372.74C359.44 374.34 358.287 375.687 356.94 376.78C356.82 376.58 356.66 376.353 356.46 376.1C356.26 375.86 356.053 375.627 355.84 375.4C355.627 375.173 355.42 374.987 355.22 374.84C356.113 374.213 356.92 373.4 357.64 372.4C358.36 371.387 358.993 370.24 359.54 368.96C360.087 367.68 360.54 366.287 360.9 364.78C361.26 363.273 361.513 361.693 361.66 360.04V359.48ZM355.78 364.7L357.54 363.28C358.18 363.973 358.833 364.713 359.5 365.5C360.18 366.273 360.833 367.067 361.46 367.88C362.1 368.693 362.68 369.487 363.2 370.26C363.72 371.02 364.14 371.72 364.46 372.36L362.44 374.06C362.147 373.407 361.753 372.693 361.26 371.92C360.767 371.147 360.213 370.34 359.6 369.5C359 368.647 358.367 367.813 357.7 367C357.047 366.187 356.407 365.42 355.78 364.7ZM375.54 361.22H393.68V363.5H375.54V361.22ZM382.22 366.12H389.88V368.38H382.22V366.12ZM388.98 366.12H391.46C391.46 366.12 391.453 366.187 391.44 366.32C391.44 366.44 391.44 366.58 391.44 366.74C391.44 366.9 391.427 367.04 391.4 367.16C391.28 368.987 391.147 370.48 391 371.64C390.853 372.8 390.687 373.707 390.5 374.36C390.313 375 390.087 375.467 389.82 375.76C389.513 376.093 389.193 376.32 388.86 376.44C388.527 376.56 388.127 376.647 387.66 376.7C387.273 376.74 386.767 376.753 386.14 376.74C385.513 376.74 384.867 376.727 384.2 376.7C384.187 376.353 384.1 375.953 383.94 375.5C383.78 375.06 383.58 374.673 383.34 374.34C384.033 374.407 384.7 374.447 385.34 374.46C385.98 374.473 386.44 374.48 386.72 374.48C386.947 374.48 387.133 374.467 387.28 374.44C387.44 374.4 387.58 374.327 387.7 374.22C387.913 374.047 388.093 373.667 388.24 373.08C388.4 372.493 388.54 371.66 388.66 370.58C388.78 369.5 388.887 368.133 388.98 366.48V366.12ZM381.32 362.58H384C383.947 363.647 383.86 364.727 383.74 365.82C383.633 366.9 383.447 367.973 383.18 369.04C382.913 370.093 382.527 371.1 382.02 372.06C381.513 373.02 380.847 373.913 380.02 374.74C379.193 375.567 378.147 376.3 376.88 376.94C376.707 376.607 376.453 376.247 376.12 375.86C375.8 375.473 375.487 375.153 375.18 374.9C376.34 374.367 377.287 373.747 378.02 373.04C378.767 372.32 379.353 371.547 379.78 370.72C380.207 369.88 380.52 369.007 380.72 368.1C380.933 367.193 381.073 366.273 381.14 365.34C381.22 364.407 381.28 363.487 381.32 362.58ZM383.24 357.92H385.74V362.12H383.24V357.92ZM396.12 361.36H411.18V363.72H398.52V376.78H396.12V361.36ZM410.34 361.36H412.74V374.02C412.74 374.66 412.66 375.167 412.5 375.54C412.34 375.913 412.047 376.193 411.62 376.38C411.193 376.567 410.66 376.68 410.02 376.72C409.38 376.773 408.6 376.8 407.68 376.8C407.667 376.573 407.613 376.313 407.52 376.02C407.44 375.727 407.34 375.433 407.22 375.14C407.113 374.847 407.007 374.593 406.9 374.38C407.3 374.407 407.693 374.427 408.08 374.44C408.48 374.44 408.84 374.44 409.16 374.44C409.48 374.427 409.707 374.42 409.84 374.42C410.027 374.42 410.153 374.393 410.22 374.34C410.3 374.273 410.34 374.153 410.34 373.98V361.36ZM402.72 358L405.78 358.44C405.433 359.253 405.06 360.047 404.66 360.82C404.273 361.593 403.92 362.247 403.6 362.78L401.28 362.28C401.467 361.867 401.653 361.413 401.84 360.92C402.027 360.427 402.193 359.927 402.34 359.42C402.5 358.913 402.627 358.44 402.72 358ZM400.46 365.66H402.64V373.92H400.46V365.66ZM401.4 365.66H408.32V372.52H401.4V370.42H406.12V367.74H401.4V365.66ZM417.06 361.26H423.2V374.72H417.06V372.62H421.04V363.34H417.06V361.26ZM415.66 361.26H417.84V376.2H415.66V361.26ZM416.98 366.6H422.08V368.68H416.98V366.6ZM418.52 358L421.12 358.38C420.907 359.06 420.673 359.733 420.42 360.4C420.18 361.067 419.96 361.633 419.76 362.1L417.84 361.66C417.933 361.313 418.02 360.927 418.1 360.5C418.193 360.073 418.28 359.64 418.36 359.2C418.44 358.76 418.493 358.36 418.52 358ZM425.84 361.1H431.7V363.3H425.84V361.1ZM430.86 361.1H433.08C433.08 361.1 433.08 361.173 433.08 361.32C433.08 361.453 433.08 361.607 433.08 361.78C433.08 361.953 433.073 362.087 433.06 362.18C433.007 364.433 432.94 366.347 432.86 367.92C432.793 369.48 432.707 370.773 432.6 371.8C432.507 372.813 432.393 373.607 432.26 374.18C432.127 374.753 431.953 375.173 431.74 375.44C431.473 375.827 431.187 376.093 430.88 376.24C430.573 376.387 430.22 376.493 429.82 376.56C429.433 376.613 428.953 376.633 428.38 376.62C427.82 376.62 427.247 376.613 426.66 376.6C426.647 376.267 426.567 375.873 426.42 375.42C426.273 374.98 426.093 374.593 425.88 374.26C426.52 374.313 427.113 374.347 427.66 374.36C428.22 374.373 428.627 374.38 428.88 374.38C429.08 374.38 429.24 374.36 429.36 374.32C429.493 374.267 429.62 374.173 429.74 374.04C429.913 373.867 430.053 373.513 430.16 372.98C430.28 372.433 430.38 371.667 430.46 370.68C430.54 369.693 430.613 368.447 430.68 366.94C430.747 365.433 430.807 363.64 430.86 361.56V361.1ZM425.9 358.02L428.22 358.56C427.967 359.533 427.653 360.507 427.28 361.48C426.92 362.453 426.52 363.373 426.08 364.24C425.653 365.093 425.213 365.84 424.76 366.48C424.627 366.347 424.433 366.193 424.18 366.02C423.94 365.833 423.693 365.653 423.44 365.48C423.2 365.307 422.987 365.173 422.8 365.08C423.24 364.507 423.653 363.847 424.04 363.1C424.44 362.34 424.793 361.527 425.1 360.66C425.42 359.78 425.687 358.9 425.9 358.02ZM424.92 366.88L426.8 365.82C427.133 366.273 427.487 366.773 427.86 367.32C428.233 367.867 428.587 368.4 428.92 368.92C429.253 369.44 429.527 369.9 429.74 370.3L427.7 371.54C427.513 371.127 427.26 370.653 426.94 370.12C426.633 369.587 426.3 369.04 425.94 368.48C425.593 367.907 425.253 367.373 424.92 366.88ZM308.635 394.8C309.009 394.84 309.429 394.873 309.895 394.9C310.362 394.913 310.762 394.92 311.095 394.92H321.175C321.469 394.92 321.789 394.92 322.135 394.92C322.495 394.907 322.762 394.893 322.935 394.88C322.922 395.107 322.909 395.4 322.895 395.76C322.882 396.107 322.875 396.427 322.875 396.72V407.08C322.875 407.427 322.882 407.833 322.895 408.3C322.922 408.767 322.942 409.147 322.955 409.44H320.055C320.069 409.147 320.075 408.827 320.075 408.48C320.089 408.12 320.095 407.76 320.095 407.4V397.5H311.115C310.689 397.5 310.235 397.507 309.755 397.52C309.289 397.533 308.915 397.553 308.635 397.58V394.8ZM308.375 405.66C308.722 405.687 309.109 405.713 309.535 405.74C309.975 405.767 310.422 405.78 310.875 405.78H321.675V408.4H310.955C310.569 408.4 310.122 408.413 309.615 408.44C309.122 408.467 308.709 408.493 308.375 408.52V405.66ZM330.995 393.34C331.515 393.407 332.142 393.507 332.875 393.64C333.622 393.76 334.409 393.9 335.235 394.06C336.075 394.22 336.909 394.4 337.735 394.6C338.575 394.787 339.349 394.973 340.055 395.16C340.775 395.347 341.389 395.527 341.895 395.7L340.875 398.2C340.409 398.027 339.829 397.847 339.135 397.66C338.442 397.46 337.689 397.26 336.875 397.06C336.062 396.86 335.242 396.673 334.415 396.5C333.589 396.327 332.795 396.167 332.035 396.02C331.289 395.873 330.629 395.767 330.055 395.7L330.995 393.34ZM330.075 398.72C330.795 398.84 331.622 398.993 332.555 399.18C333.489 399.367 334.449 399.573 335.435 399.8C336.422 400.013 337.362 400.24 338.255 400.48C339.149 400.707 339.909 400.933 340.535 401.16L339.555 403.66C338.982 403.433 338.255 403.2 337.375 402.96C336.509 402.72 335.582 402.48 334.595 402.24C333.622 402 332.655 401.787 331.695 401.6C330.735 401.4 329.889 401.247 329.155 401.14L330.075 398.72ZM329.055 404.44C329.735 404.547 330.509 404.687 331.375 404.86C332.242 405.033 333.142 405.227 334.075 405.44C335.022 405.653 335.949 405.873 336.855 406.1C337.762 406.327 338.602 406.553 339.375 406.78C340.162 407.007 340.829 407.227 341.375 407.44L340.275 409.94C339.742 409.713 339.082 409.48 338.295 409.24C337.509 409.013 336.655 408.787 335.735 408.56C334.815 408.32 333.889 408.1 332.955 407.9C332.022 407.687 331.129 407.5 330.275 407.34C329.435 407.18 328.695 407.053 328.055 406.96L329.055 404.44ZM360.275 399.46C360.222 399.593 360.182 399.74 360.155 399.9C360.129 400.06 360.102 400.193 360.075 400.3C360.035 400.58 359.975 400.967 359.895 401.46C359.829 401.953 359.749 402.5 359.655 403.1C359.575 403.687 359.489 404.28 359.395 404.88C359.302 405.48 359.215 406.027 359.135 406.52C359.069 407.013 359.009 407.407 358.955 407.7H356.215C356.269 407.42 356.329 407.067 356.395 406.64C356.462 406.2 356.535 405.727 356.615 405.22C356.709 404.7 356.789 404.18 356.855 403.66C356.935 403.14 357.002 402.66 357.055 402.22C357.109 401.78 357.142 401.427 357.155 401.16C356.969 401.16 356.682 401.16 356.295 401.16C355.922 401.16 355.495 401.16 355.015 401.16C354.549 401.16 354.082 401.16 353.615 401.16C353.162 401.16 352.769 401.16 352.435 401.16C352.102 401.16 351.875 401.16 351.755 401.16C351.435 401.16 351.089 401.173 350.715 401.2C350.355 401.213 350.035 401.233 349.755 401.26V398.62C349.929 398.647 350.135 398.667 350.375 398.68C350.615 398.693 350.855 398.707 351.095 398.72C351.349 398.733 351.562 398.74 351.735 398.74C351.935 398.74 352.209 398.74 352.555 398.74C352.902 398.74 353.282 398.74 353.695 398.74C354.109 398.74 354.522 398.74 354.935 398.74C355.349 398.74 355.722 398.74 356.055 398.74C356.402 398.74 356.669 398.74 356.855 398.74C357.002 398.74 357.175 398.733 357.375 398.72C357.575 398.707 357.769 398.687 357.955 398.66C358.142 398.62 358.269 398.573 358.335 398.52L360.275 399.46ZM347.915 406.72C348.182 406.747 348.489 406.773 348.835 406.8C349.195 406.813 349.549 406.82 349.895 406.82C350.095 406.82 350.462 406.82 350.995 406.82C351.542 406.82 352.182 406.82 352.915 406.82C353.662 406.82 354.429 406.82 355.215 406.82C356.015 406.82 356.775 406.82 357.495 406.82C358.229 406.82 358.855 406.82 359.375 406.82C359.895 406.82 360.229 406.82 360.375 406.82C360.629 406.82 360.955 406.813 361.355 406.8C361.755 406.787 362.082 406.767 362.335 406.74V409.32C362.202 409.307 362.015 409.293 361.775 409.28C361.549 409.28 361.309 409.273 361.055 409.26C360.815 409.26 360.602 409.26 360.415 409.26C360.255 409.26 359.909 409.26 359.375 409.26C358.842 409.26 358.209 409.26 357.475 409.26C356.742 409.26 355.969 409.26 355.155 409.26C354.355 409.26 353.582 409.26 352.835 409.26C352.102 409.26 351.469 409.26 350.935 409.26C350.402 409.26 350.055 409.26 349.895 409.26C349.549 409.26 349.229 409.26 348.935 409.26C348.642 409.273 348.302 409.293 347.915 409.32V406.72ZM368.295 395.42C368.655 395.46 369.049 395.493 369.475 395.52C369.915 395.533 370.302 395.54 370.635 395.54C370.915 395.54 371.289 395.54 371.755 395.54C372.222 395.54 372.735 395.54 373.295 395.54C373.855 395.54 374.422 395.54 374.995 395.54C375.582 395.54 376.135 395.54 376.655 395.54C377.189 395.54 377.655 395.54 378.055 395.54C378.455 395.54 378.742 395.54 378.915 395.54C379.315 395.54 379.715 395.527 380.115 395.5C380.515 395.473 380.855 395.447 381.135 395.42V398.32C380.855 398.307 380.502 398.293 380.075 398.28C379.649 398.253 379.262 398.24 378.915 398.24C378.742 398.24 378.442 398.24 378.015 398.24C377.602 398.24 377.115 398.24 376.555 398.24C375.995 398.24 375.409 398.24 374.795 398.24C374.195 398.24 373.615 398.24 373.055 398.24C372.495 398.24 372.002 398.24 371.575 398.24C371.149 398.24 370.842 398.24 370.655 398.24C370.269 398.24 369.862 398.247 369.435 398.26C369.009 398.273 368.629 398.293 368.295 398.32V395.42ZM366.615 405.2C367.015 405.227 367.429 405.253 367.855 405.28C368.295 405.307 368.715 405.32 369.115 405.32C369.289 405.32 369.609 405.32 370.075 405.32C370.542 405.32 371.089 405.32 371.715 405.32C372.355 405.32 373.042 405.32 373.775 405.32C374.509 405.32 375.235 405.32 375.955 405.32C376.689 405.32 377.369 405.32 377.995 405.32C378.635 405.32 379.182 405.32 379.635 405.32C380.102 405.32 380.422 405.32 380.595 405.32C380.942 405.32 381.309 405.313 381.695 405.3C382.095 405.273 382.462 405.24 382.795 405.2V408.26C382.449 408.22 382.069 408.193 381.655 408.18C381.242 408.153 380.889 408.14 380.595 408.14C380.422 408.14 380.102 408.14 379.635 408.14C379.182 408.14 378.635 408.14 377.995 408.14C377.369 408.14 376.689 408.14 375.955 408.14C375.235 408.14 374.509 408.14 373.775 408.14C373.042 408.14 372.355 408.14 371.715 408.14C371.089 408.14 370.542 408.14 370.075 408.14C369.609 408.14 369.289 408.14 369.115 408.14C368.715 408.14 368.289 408.153 367.835 408.18C367.395 408.193 366.989 408.22 366.615 408.26V405.2ZM393.675 393.34C393.555 393.593 393.435 393.873 393.315 394.18C393.195 394.487 393.095 394.747 393.015 394.96C392.895 395.293 392.749 395.667 392.575 396.08C392.415 396.493 392.242 396.913 392.055 397.34C391.882 397.753 391.702 398.133 391.515 398.48C391.262 398.987 390.942 399.533 390.555 400.12C390.182 400.693 389.782 401.247 389.355 401.78C388.929 402.3 388.489 402.753 388.035 403.14L385.535 401.62C385.895 401.367 386.235 401.067 386.555 400.72C386.889 400.373 387.202 400.013 387.495 399.64C387.802 399.267 388.082 398.9 388.335 398.54C388.589 398.167 388.809 397.82 388.995 397.5C389.262 397.047 389.489 396.573 389.675 396.08C389.875 395.587 390.035 395.153 390.155 394.78C390.275 394.447 390.369 394.1 390.435 393.74C390.515 393.367 390.562 393.027 390.575 392.72L393.675 393.34ZM390.515 396.42C390.742 396.42 391.075 396.42 391.515 396.42C391.955 396.42 392.469 396.42 393.055 396.42C393.642 396.42 394.255 396.42 394.895 396.42C395.549 396.42 396.195 396.42 396.835 396.42C397.489 396.42 398.095 396.42 398.655 396.42C399.229 396.42 399.722 396.42 400.135 396.42C400.562 396.42 400.875 396.42 401.075 396.42C401.342 396.42 401.675 396.413 402.075 396.4C402.475 396.373 402.835 396.333 403.155 396.28V399.02C402.782 398.98 402.395 398.96 401.995 398.96C401.609 398.947 401.302 398.94 401.075 398.94C400.849 398.94 400.469 398.94 399.935 398.94C399.402 398.94 398.782 398.94 398.075 398.94C397.369 398.94 396.622 398.94 395.835 398.94C395.062 398.94 394.309 398.94 393.575 398.94C392.842 398.94 392.189 398.94 391.615 398.94C391.042 398.94 390.602 398.94 390.295 398.94L390.515 396.42ZM398.315 397.86C398.289 399.34 398.135 400.7 397.855 401.94C397.575 403.167 397.175 404.28 396.655 405.28C396.149 406.28 395.522 407.187 394.775 408C394.029 408.8 393.175 409.5 392.215 410.1L389.515 408.28C389.875 408.133 390.222 407.967 390.555 407.78C390.889 407.58 391.175 407.38 391.415 407.18C391.989 406.74 392.515 406.24 392.995 405.68C393.489 405.107 393.922 404.447 394.295 403.7C394.682 402.94 394.982 402.08 395.195 401.12C395.422 400.16 395.542 399.073 395.555 397.86H398.315ZM406.335 399.74C406.575 399.753 406.882 399.773 407.255 399.8C407.629 399.813 408.015 399.827 408.415 399.84C408.829 399.853 409.209 399.86 409.555 399.86C409.889 399.86 410.302 399.86 410.795 399.86C411.289 399.86 411.822 399.86 412.395 399.86C412.982 399.86 413.582 399.86 414.195 399.86C414.822 399.86 415.442 399.86 416.055 399.86C416.669 399.86 417.249 399.86 417.795 399.86C418.342 399.86 418.829 399.86 419.255 399.86C419.695 399.86 420.042 399.86 420.295 399.86C420.762 399.86 421.202 399.847 421.615 399.82C422.029 399.78 422.369 399.753 422.635 399.74V402.88C422.409 402.867 422.069 402.847 421.615 402.82C421.162 402.793 420.722 402.78 420.295 402.78C420.042 402.78 419.695 402.78 419.255 402.78C418.815 402.78 418.322 402.78 417.775 402.78C417.229 402.78 416.649 402.78 416.035 402.78C415.435 402.78 414.822 402.78 414.195 402.78C413.569 402.78 412.962 402.78 412.375 402.78C411.802 402.78 411.269 402.78 410.775 402.78C410.295 402.78 409.889 402.78 409.555 402.78C408.982 402.78 408.395 402.793 407.795 402.82C407.195 402.833 406.709 402.853 406.335 402.88V399.74ZM430.085 393.16C430.405 393.347 430.771 393.567 431.185 393.82C431.598 394.073 432.018 394.333 432.445 394.6C432.885 394.867 433.291 395.127 433.665 395.38C434.051 395.62 434.378 395.833 434.645 396.02L433.145 398.24C432.878 398.04 432.551 397.813 432.165 397.56C431.778 397.307 431.378 397.047 430.965 396.78C430.551 396.513 430.138 396.26 429.725 396.02C429.325 395.767 428.958 395.547 428.625 395.36L430.085 393.16ZM426.365 407.36C427.125 407.227 427.885 407.067 428.645 406.88C429.418 406.68 430.185 406.433 430.945 406.14C431.718 405.847 432.465 405.507 433.185 405.12C434.318 404.48 435.371 403.76 436.345 402.96C437.331 402.16 438.211 401.307 438.985 400.4C439.771 399.493 440.431 398.567 440.965 397.62L442.505 400.34C441.571 401.727 440.418 403.033 439.045 404.26C437.685 405.487 436.185 406.573 434.545 407.52C433.865 407.907 433.118 408.267 432.305 408.6C431.505 408.933 430.711 409.22 429.925 409.46C429.151 409.713 428.465 409.893 427.865 410L426.365 407.36ZM427.005 397.72C427.338 397.907 427.711 398.127 428.125 398.38C428.551 398.62 428.978 398.873 429.405 399.14C429.831 399.407 430.231 399.66 430.605 399.9C430.991 400.14 431.311 400.353 431.565 400.54L430.105 402.78C429.811 402.58 429.478 402.36 429.105 402.12C428.731 401.867 428.331 401.607 427.905 401.34C427.491 401.06 427.078 400.8 426.665 400.56C426.265 400.32 425.891 400.113 425.545 399.94L427.005 397.72ZM447.965 397.7C448.138 397.713 448.371 397.733 448.665 397.76C448.958 397.773 449.265 397.787 449.585 397.8C449.905 397.8 450.191 397.8 450.445 397.8C450.765 397.8 451.178 397.8 451.685 397.8C452.191 397.8 452.738 397.8 453.325 397.8C453.925 397.8 454.518 397.8 455.105 397.8C455.691 397.8 456.238 397.8 456.745 397.8C457.251 397.8 457.671 397.8 458.005 397.8C458.245 397.8 458.518 397.8 458.825 397.8C459.145 397.787 459.385 397.773 459.545 397.76C459.531 397.893 459.525 398.1 459.525 398.38C459.525 398.647 459.525 398.887 459.525 399.1C459.525 399.247 459.525 399.553 459.525 400.02C459.525 400.473 459.525 401.033 459.525 401.7C459.525 402.367 459.525 403.073 459.525 403.82C459.525 404.567 459.525 405.3 459.525 406.02C459.525 406.727 459.525 407.36 459.525 407.92C459.525 408.467 459.525 408.873 459.525 409.14C459.525 409.3 459.525 409.52 459.525 409.8C459.538 410.093 459.545 410.327 459.545 410.5H457.025C457.038 410.327 457.045 410.087 457.045 409.78C457.045 409.473 457.045 409.22 457.045 409.02C457.045 408.673 457.045 408.233 457.045 407.7C457.045 407.153 457.045 406.567 457.045 405.94C457.045 405.3 457.045 404.66 457.045 404.02C457.045 403.367 457.045 402.76 457.045 402.2C457.045 401.64 457.045 401.173 457.045 400.8C457.045 400.413 457.045 400.16 457.045 400.04C456.925 400.04 456.711 400.04 456.405 400.04C456.098 400.04 455.745 400.04 455.345 400.04C454.945 400.04 454.511 400.04 454.045 400.04C453.591 400.04 453.138 400.04 452.685 400.04C452.245 400.04 451.825 400.04 451.425 400.04C451.038 400.04 450.711 400.04 450.445 400.04C450.191 400.04 449.905 400.047 449.585 400.06C449.265 400.06 448.951 400.067 448.645 400.08C448.351 400.093 448.125 400.107 447.965 400.12V397.7ZM448.485 402.4C448.751 402.413 449.085 402.427 449.485 402.44C449.898 402.453 450.291 402.46 450.665 402.46C450.825 402.46 451.105 402.46 451.505 402.46C451.918 402.46 452.391 402.46 452.925 402.46C453.471 402.46 454.031 402.46 454.605 402.46C455.178 402.46 455.718 402.46 456.225 402.46C456.745 402.46 457.185 402.46 457.545 402.46C457.905 402.46 458.125 402.46 458.205 402.46V404.72C458.111 404.72 457.885 404.72 457.525 404.72C457.178 404.72 456.745 404.72 456.225 404.72C455.718 404.72 455.178 404.72 454.605 404.72C454.031 404.72 453.471 404.72 452.925 404.72C452.391 404.72 451.925 404.72 451.525 404.72C451.125 404.72 450.838 404.72 450.665 404.72C450.291 404.72 449.891 404.727 449.465 404.74C449.051 404.74 448.725 404.747 448.485 404.76V402.4ZM447.745 407.3C447.918 407.313 448.158 407.333 448.465 407.36C448.771 407.373 449.111 407.38 449.485 407.38C449.685 407.38 450.018 407.38 450.485 407.38C450.951 407.38 451.485 407.38 452.085 407.38C452.698 407.38 453.331 407.38 453.985 407.38C454.638 407.38 455.258 407.38 455.845 407.38C456.445 407.38 456.958 407.38 457.385 407.38C457.811 407.38 458.091 407.38 458.225 407.38V409.7C458.051 409.7 457.745 409.7 457.305 409.7C456.865 409.7 456.345 409.7 455.745 409.7C455.158 409.7 454.545 409.7 453.905 409.7C453.265 409.7 452.645 409.7 452.045 409.7C451.445 409.7 450.911 409.7 450.445 409.7C449.991 409.7 449.665 409.7 449.465 409.7C449.185 409.7 448.871 409.707 448.525 409.72C448.178 409.733 447.918 409.747 447.745 409.76V407.3ZM468.325 393.8C468.671 394.04 469.078 394.333 469.545 394.68C470.011 395.027 470.491 395.407 470.985 395.82C471.491 396.22 471.965 396.613 472.405 397C472.845 397.387 473.205 397.733 473.485 398.04L471.445 400.12C471.191 399.84 470.858 399.507 470.445 399.12C470.031 398.733 469.585 398.333 469.105 397.92C468.625 397.507 468.151 397.113 467.685 396.74C467.218 396.367 466.805 396.053 466.445 395.8L468.325 393.8ZM465.825 407.12C466.865 406.973 467.845 406.767 468.765 406.5C469.685 406.233 470.538 405.927 471.325 405.58C472.111 405.233 472.831 404.873 473.485 404.5C474.618 403.82 475.658 403.047 476.605 402.18C477.551 401.313 478.378 400.413 479.085 399.48C479.791 398.533 480.351 397.613 480.765 396.72L482.325 399.54C481.818 400.433 481.191 401.327 480.445 402.22C479.711 403.113 478.878 403.967 477.945 404.78C477.011 405.58 476.005 406.3 474.925 406.94C474.245 407.353 473.511 407.747 472.725 408.12C471.938 408.48 471.105 408.8 470.225 409.08C469.358 409.373 468.451 409.6 467.505 409.76L465.825 407.12Z" fill="white"/>
<defs>
<filter id="filter0_d_143_5850" x="0.0335083" y="388.932" width="287.933" height="287.933" filterUnits="userSpaceOnUse" color-interpolation-filters="sRGB">
<feFlood flood-opacity="0" result="BackgroundImageFix"/>
<feColorMatrix in="SourceAlpha" type="matrix" values="0 0 0 0 0 0 0 0 0 0 0 0 0 0 0 0 0 0 127 0" result="hardAlpha"/>
<feOffset dy="0.898325"/>
<feGaussianBlur stdDeviation="8.98325"/>
<feComposite in2="hardAlpha" operator="out"/>
<feColorMatrix type="matrix" values="0 0 0 0 0 0 0 0 0 0 0 0 0 0 0 0 0 0 0.1 0"/>
<feBlend mode="normal" in2="BackgroundImageFix" result="effect1_dropShadow_143_5850"/>
<feBlend mode="normal" in="SourceGraphic" in2="effect1_dropShadow_143_5850" result="shape"/>
</filter>
<filter id="filter1_d_143_5850" x="504.034" y="388.932" width="287.933" height="287.933" filterUnits="userSpaceOnUse" color-interpolation-filters="sRGB">
<feFlood flood-opacity="0" result="BackgroundImageFix"/>
<feColorMatrix in="SourceAlpha" type="matrix" values="0 0 0 0 0 0 0 0 0 0 0 0 0 0 0 0 0 0 127 0" result="hardAlpha"/>
<feOffset dy="0.898325"/>
<feGaussianBlur stdDeviation="8.98325"/>
<feComposite in2="hardAlpha" operator="out"/>
<feColorMatrix type="matrix" values="0 0 0 0 0 0 0 0 0 0 0 0 0 0 0 0 0 0 0.1 0"/>
<feBlend mode="normal" in2="BackgroundImageFix" result="effect1_dropShadow_143_5850"/>
<feBlend mode="normal" in="SourceGraphic" in2="effect1_dropShadow_143_5850" result="shape"/>
</filter>
<filter id="filter2_d_143_5850" x="251.034" y="0.931833" width="287.933" height="287.933" filterUnits="userSpaceOnUse" color-interpolation-filters="sRGB">
<feFlood flood-opacity="0" result="BackgroundImageFix"/>
<feColorMatrix in="SourceAlpha" type="matrix" values="0 0 0 0 0 0 0 0 0 0 0 0 0 0 0 0 0 0 127 0" result="hardAlpha"/>
<feOffset dy="0.898325"/>
<feGaussianBlur stdDeviation="8.98325"/>
<feComposite in2="hardAlpha" operator="out"/>
<feColorMatrix type="matrix" values="0 0 0 0 0 0 0 0 0 0 0 0 0 0 0 0 0 0 0.1 0"/>
<feBlend mode="normal" in2="BackgroundImageFix" result="effect1_dropShadow_143_5850"/>
<feBlend mode="normal" in="SourceGraphic" in2="effect1_dropShadow_143_5850" result="shape"/>
</filter>
<filter id="filter3_d_143_5850" x="307.873" y="63.9356" width="95.7596" height="124.337" filterUnits="userSpaceOnUse" color-interpolation-filters="sRGB">
<feFlood flood-opacity="0" result="BackgroundImageFix"/>
<feColorMatrix in="SourceAlpha" type="matrix" values="0 0 0 0 0 0 0 0 0 0 0 0 0 0 0 0 0 0 127 0" result="hardAlpha"/>
<feOffset dx="6.75152"/>
<feGaussianBlur stdDeviation="8.4394"/>
<feColorMatrix type="matrix" values="0 0 0 0 1 0 0 0 0 1 0 0 0 0 1 0 0 0 0.7 0"/>
<feBlend mode="normal" in2="BackgroundImageFix" result="effect1_dropShadow_143_5850"/>
<feBlend mode="normal" in="SourceGraphic" in2="effect1_dropShadow_143_5850" result="shape"/>
</filter>
</defs>
</svg>
