<svg width="256" height="218" viewBox="0 0 256 218" fill="none" xmlns="http://www.w3.org/2000/svg">
<path d="M28.5852 78.4449C29.4162 78.4242 29.9425 78.0294 29.9425 77.4269C29.9425 76.7621 29.2985 76.3674 28.2112 76.3674C28.1143 76.3674 28.0208 76.3708 27.9273 76.3743V77.9117C27.9273 78.6942 27.6157 79.0336 26.9024 79.0336C25.9398 79.0336 25.2265 78.4311 25.2265 77.607C25.2265 76.7379 26.0056 76.0627 27.1863 75.8064V74.8438H25.4412V74.1998H27.1863V73.4242H27.9273V74.1998H29.5478V74.8438H27.9273V75.7095C28.0312 75.706 28.1385 75.7026 28.2459 75.7026C29.7971 75.7026 30.7182 76.3328 30.7182 77.4062C30.7182 78.4034 29.9148 79.1028 28.7306 79.1305L28.5852 78.4449ZM30.6905 75.5848C30.455 75.0654 30.1434 74.5599 29.7556 74.1098L30.3788 73.7566C30.7666 74.2275 31.0644 74.6984 31.3345 75.287L30.6905 75.5848ZM25.9675 77.6001C25.9675 78.0225 26.3276 78.3549 26.7985 78.3549C27.0894 78.3549 27.1863 78.2372 27.1863 77.8563V76.492C26.4488 76.6894 25.9675 77.1014 25.9675 77.6001ZM37.581 73.812V79.1444H36.9023V78.7289H35.7458V79.2275H35.0949V73.812H37.581ZM33.7375 75.7026V75.8895H34.901V76.5267H33.696C33.6787 76.6444 33.6614 76.7656 33.6406 76.8868C33.9799 77.2157 34.7382 78.071 34.9287 78.2926L34.4785 78.8604C34.2535 78.5246 33.8172 77.9706 33.4744 77.5516C33.2493 78.2372 32.8476 78.8985 32.1517 79.4006C32.0686 79.269 31.8193 78.9989 31.6877 78.902C32.6087 78.2406 32.9238 77.3542 33.0312 76.5267H31.7708V75.8895H33.0727V75.6887V74.7123H32.6988C32.5499 75.0793 32.3837 75.4117 32.2001 75.6749C32.0824 75.571 31.8193 75.384 31.6738 75.287C32.0339 74.7954 32.304 74.0197 32.4425 73.2303L33.0866 73.3619C33.0381 73.6112 32.9792 73.857 32.9065 74.0959H34.7278V74.7123H33.7375V75.7026ZM35.7458 78.1056H36.9023V74.4422H35.7458V78.1056ZM41.4314 79.0613C40.7112 79.0613 39.7693 78.9643 39.153 78.8258L39.2223 78.1471C39.9979 78.2926 40.8358 78.3826 41.4314 78.3826C42.6918 78.3826 43.3497 78.0017 43.3497 77.2746C43.3497 76.6652 42.8857 76.3328 42.0339 76.3328C41.1682 76.3328 40.2333 76.6582 39.6239 77.1707L38.9245 77.0253C39.0976 76.1804 39.2015 75.5433 39.2707 74.9269L40.0256 74.9893C39.984 75.4013 39.9217 75.8341 39.8455 76.2704C40.5103 75.8688 41.2617 75.6541 42.0754 75.6541C43.4328 75.6541 44.1391 76.2012 44.1391 77.2538C44.1391 78.4519 43.2181 79.0613 41.4314 79.0613ZM43.3635 74.553C42.1239 74.5738 41.0713 74.5114 39.8594 74.3522L39.9425 73.6735C41.0782 73.8051 42.2347 73.8743 43.3635 73.8743V74.553ZM48.4258 79.1028C46.5768 79.1028 46.1474 78.7981 46.1474 77.4616V75.3979L44.984 75.4256V74.7677L46.1474 74.74V73.6527H46.923V74.7261L49.3261 74.6707V73.5211H50.0948V74.6499L51.2582 74.6292V75.294L50.0948 75.3148V76.6375C50.0948 77.2469 49.9078 77.4616 49.3399 77.4616C48.9244 77.4616 48.3427 77.3438 47.8302 77.1568L47.9895 76.4782C48.5989 76.6582 48.8829 76.7136 49.1114 76.7136C49.2845 76.7136 49.3261 76.6721 49.3261 76.3812V75.3355L46.923 75.384V77.4616C46.923 78.2926 47.1239 78.4242 48.4258 78.4242C49.0975 78.4242 49.8801 78.3826 50.5865 78.2926L50.6419 78.9851C49.9216 79.0613 49.1045 79.1028 48.4258 79.1028ZM31.1544 88.9976V89.6139H28.5229V90.6804C28.5229 91.0474 28.4329 91.2205 28.1489 91.3313C27.8581 91.4214 27.4564 91.4283 26.8747 91.4283C26.8262 91.2482 26.7016 90.9643 26.5977 90.7843C27.0617 90.7981 27.5395 90.7981 27.6711 90.7912C27.8096 90.7912 27.8442 90.7566 27.8442 90.6665V89.6139H25.2334V88.9976H27.8442V88.5474H28.1697C28.4086 88.4124 28.6545 88.2462 28.8691 88.0765H26.383V87.4948H29.5063L29.6517 87.4671L30.0741 87.7857C29.6759 88.2012 29.0977 88.6409 28.5229 88.9422V88.9976H31.1544ZM31.0575 86.3106V87.8826H30.3927V86.9062H25.9675V87.8826H25.3373V86.3106H26.293C26.1649 86.0751 25.9675 85.7912 25.7874 85.5627L26.3484 85.3065C26.5908 85.5835 26.8678 85.9436 26.9716 86.1998L26.7431 86.3106H27.9273C27.8407 86.0405 27.6572 85.6873 27.4772 85.4242L28.0658 85.1956C28.2805 85.5073 28.5021 85.9159 28.5921 86.1998L28.2943 86.3106H29.3747C29.6067 85.999 29.8629 85.5869 30.0049 85.2788L30.7182 85.5004C30.5243 85.7739 30.313 86.0613 30.1087 86.3106H31.0575ZM37.0547 88.6444V91.4421H36.3622V91.1859H33.3428V91.4421H32.678V88.6444H34.25C34.3123 88.492 34.3816 88.3224 34.43 88.1735C34.3954 88.2012 34.3573 88.2219 34.3123 88.2427C34.1184 88.3258 33.8414 88.3189 33.4328 88.3189C33.4051 88.1735 33.322 87.9796 33.2597 87.8411C33.5159 87.848 33.7722 87.848 33.8483 87.848C33.9314 87.848 33.9661 87.8203 33.9661 87.751V86.0751H31.9439V85.5488H34.5616V87.751C34.5616 87.8722 34.5512 87.9623 34.527 88.035L35.1849 88.1388C35.0949 88.3154 34.9979 88.4886 34.9079 88.6444H37.0547ZM37.5671 85.5488V87.751C37.5671 88.035 37.5048 88.1735 37.304 88.2635C37.0962 88.3466 36.7915 88.3466 36.3552 88.3466C36.3275 88.1873 36.2444 87.9726 36.1752 87.8272C36.4453 87.8411 36.75 87.8411 36.8262 87.848C36.9231 87.8272 36.937 87.8134 36.937 87.7372V86.0751H35.4273C35.7389 86.2136 36.1232 86.4526 36.3137 86.6292L35.9744 87.0654C35.7943 86.8785 35.4065 86.6222 35.0949 86.4491L35.4065 86.0751H34.9494V85.5488H37.5671ZM34.7763 87.5156C35.2403 87.3702 35.9467 87.1347 36.6253 86.8854L36.7292 87.3771C36.1336 87.5987 35.5034 87.8341 34.9979 88.0073L34.7763 87.5156ZM31.7639 87.6264C32.2209 87.5017 32.8788 87.2663 33.5367 87.0239L33.6267 87.5087C33.0727 87.7441 32.4841 87.9934 32.0132 88.1804L31.7639 87.6264ZM32.491 86.0751C32.7957 86.2275 33.1835 86.4699 33.3566 86.6569L33.0173 87.0793C32.8442 86.8923 32.4633 86.6222 32.1586 86.456L32.491 86.0751ZM33.3428 90.6804H36.3622V90.161H33.3428V90.6804ZM33.3428 89.6555H36.3622V89.1568H33.3428V89.6555ZM44.1945 86.3591V90.625C44.1945 91.0128 44.1114 91.2067 43.8621 91.3175C43.599 91.4214 43.1835 91.4214 42.5879 91.4214C42.5671 91.2344 42.4632 90.9366 42.3663 90.7635C42.7956 90.7773 43.2389 90.7704 43.3635 90.7773C43.502 90.7773 43.5366 90.7289 43.5366 90.6111V87.01H41.8123C41.8019 87.2663 41.7707 87.5364 41.7153 87.8064C42.3282 88.3605 43.0761 89.0841 43.4674 89.5654L42.9134 90.0017C42.6156 89.5931 42.0408 88.9872 41.5006 88.4643C41.2409 89.0634 40.7804 89.6451 39.9771 90.1194C39.8802 89.974 39.6585 89.7247 39.4993 89.6139C40.8566 88.8972 41.0955 87.8618 41.1336 87.01H39.43V91.4352H38.7721V86.3591H41.1405V85.2372H41.8192V86.3591H44.1945ZM47.5948 86.8369C47.1724 87.4256 46.4937 87.9934 45.8773 88.3466C45.7804 88.2081 45.5449 87.938 45.4134 87.8203C46.002 87.5433 46.5976 87.0862 46.9507 86.6222L47.5948 86.8369ZM49.0698 86.6084C49.6446 86.9546 50.4064 87.4879 50.7734 87.8549L50.2748 88.2912C49.9355 87.9242 49.1945 87.3632 48.6059 86.9962L49.0698 86.6084ZM48.135 88.0211C47.851 88.3882 47.4217 88.7933 46.9161 89.1638H49.4369C48.9175 88.8037 48.4466 88.402 48.135 88.0211ZM48.4466 85.2372V85.7981H50.9466V87.1347H50.261V86.4076H45.9535V87.1347H45.3095V85.7981H47.761V85.2372H48.4466ZM45.081 89.4616C46.1959 89.0045 47.2555 88.1388 47.7679 87.4186H48.4466C49.146 88.2773 50.2333 88.9976 51.2513 89.3646C51.0989 89.5308 50.9466 89.7801 50.8427 89.974C50.5726 89.8494 50.2852 89.7005 50.0047 89.5308V91.4144H49.3261V91.2205H46.9092V91.4283H46.279V89.5862C46.0124 89.7524 45.7354 89.9013 45.4549 90.0294C45.3787 89.8701 45.2125 89.6139 45.081 89.4616ZM46.9092 90.6388H49.3261V89.7455H46.9092V90.6388Z" fill="black"/>
<path d="M76.0573 95.4539C76.0573 96.5965 75.9603 98.2793 75.254 99.3666C75.1293 99.2627 74.8384 99.0965 74.6653 99.0342C75.3371 98.0023 75.3925 96.5065 75.3925 95.4539V93.5079H80.4201V95.4054H76.0573V95.4539ZM78.7235 95.4262V96.1325H80.5032V99.3666H79.8592V99.1519H76.9991V99.3666H76.3758V96.1325H78.0725V95.4262H78.7235ZM76.0573 94.8029H79.7484V94.1104H76.0573V94.8029ZM76.9991 98.5633H78.0725V97.8846H76.9991V98.5633ZM76.9991 97.3444H78.0725V96.7212H76.9991V97.3444ZM78.7235 98.5633H79.8592V97.8846H78.7235V98.5633ZM78.7235 97.3444H79.8592V96.7212H78.7235V97.3444ZM84.7761 93.2378V95.5439H86.1542V93.8126H86.8536V96.181H84.7761V98.3209H86.4312V96.5758H87.1237V99.3666H86.4312V98.9719H82.5115V99.3735H81.8467V96.5758H82.5115V98.3209H84.0835V96.181H82.1029V93.8126H82.7678V95.5439H84.0835V93.2378H84.7761ZM89.2151 98.3901L88.6334 100.329H87.9755L88.3356 98.3901H89.2151ZM97.7954 93.5633V99.2904H97.1236V98.9303H95.3508V99.3181H94.7067V93.5633H97.7954ZM94.4574 94.5813V95.2115H93.571V95.7032C93.8134 95.9594 94.3847 96.645 94.5198 96.8181L94.1389 97.3514C94.0246 97.1332 93.7892 96.78 93.571 96.465V99.3735H92.927V96.4927C92.6915 97.1575 92.3972 97.7773 92.0752 98.1824C92.0129 98.0023 91.8605 97.7323 91.7566 97.5661C92.2033 97.0294 92.6257 96.0598 92.8508 95.2115H91.9159V94.5813H92.927V93.1893H93.571V94.5813H94.4574ZM95.3508 98.3278H97.1236V97.3375H95.3508V98.3278ZM95.3508 96.7281H97.1236V95.7378H95.3508V96.7281ZM95.3508 95.1422H97.1236V94.1866H95.3508V95.1422ZM103.162 96.9636C103.162 97.3791 103.426 98.3278 104.707 98.8195C104.589 98.9719 104.409 99.2212 104.326 99.3874C103.405 99.0342 102.934 98.2309 102.823 97.8292C102.705 98.2309 102.193 98.9996 101.168 99.3874C101.092 99.2419 100.919 98.9788 100.801 98.8472C102.193 98.3555 102.484 97.3929 102.484 96.9636V95.9871H103.162V96.9636ZM103.197 93.1893C103.169 93.7434 103.124 94.2247 103.01 94.6367C103.578 94.976 104.281 95.4193 104.637 95.7309L104.208 96.2295C103.9 95.949 103.318 95.5404 102.788 95.1976C102.518 95.6755 102.079 96.0287 101.334 96.278C101.265 96.1187 101.092 95.8832 100.953 95.7586C102.345 95.3362 102.491 94.5467 102.532 93.1893H103.197ZM102.103 93.7157C102.034 94.1658 101.86 94.6506 101.57 94.9345L101.05 94.706C101.306 94.4705 101.486 94.0273 101.556 93.6049L102.103 93.7157ZM102.068 96.6035C101.978 97.1021 101.763 97.6284 101.431 97.94L100.891 97.6492C101.196 97.4137 101.396 96.9428 101.486 96.4788L102.068 96.6035ZM104.554 93.7711C104.333 94.1519 104.09 94.5744 103.896 94.8514L103.405 94.6575C103.585 94.3597 103.813 93.8888 103.917 93.5702L104.554 93.7711ZM104.624 96.645C104.395 97.0536 104.125 97.5107 103.91 97.7946L103.398 97.6007C103.592 97.289 103.841 96.7835 103.973 96.4303L104.624 96.645ZM100.766 95.2184V95.724H98.7857V95.2184H100.766ZM100.739 93.404V93.9165H98.8064V93.404H100.739ZM100.766 96.1118V96.6242H98.7857V96.1118H100.766ZM100.981 94.2905V94.8306H98.4671V94.2905H100.981ZM100.773 97.0259V99.0065H99.3397V99.2904H98.7718V97.0259H100.773ZM99.3397 98.4802H100.198V97.5591H99.3397V98.4802Z" fill="black"/>
<path d="M205.41 73.5488C205.68 74.0474 205.943 74.7053 206.04 75.1208L205.43 75.3632C205.361 74.9408 205.112 74.2691 204.856 73.7635L205.41 73.5488ZM206.774 73.3065C206.982 73.8258 207.169 74.4907 207.217 74.9131L206.601 75.1001C206.566 74.6846 206.379 73.999 206.192 73.4657L206.774 73.3065ZM206.116 75.9865C206.334 76.1354 206.57 76.305 206.802 76.4782C206.937 76.2012 207.054 75.9069 207.148 75.6056L207.736 75.7441C207.612 76.1319 207.453 76.5059 207.272 76.8591C207.549 77.0945 207.795 77.33 207.958 77.5308L207.598 78.0294C207.449 77.839 207.227 77.6104 206.975 77.3785C206.739 77.742 206.48 78.0675 206.206 78.3272C206.102 78.2233 205.853 78.0294 205.721 77.9532C206.019 77.6935 206.289 77.3646 206.525 76.9906C206.272 76.7863 206.016 76.5924 205.777 76.4228L206.116 75.9865ZM205.645 75.7718V78.3687H208.034V75.751H208.678V79.359H208.034V78.9712H205.645V79.3729H205.008V75.7718H205.645ZM208.796 73.5558C208.554 74.3245 208.194 75.1347 207.833 75.6472C207.681 75.5571 207.362 75.4117 207.182 75.3494C207.563 74.8646 207.903 74.1098 208.117 73.3965L208.796 73.5558ZM204.225 73.2372V74.4976L204.592 74.3383C204.807 74.7192 205.022 75.2109 205.084 75.5364L204.641 75.758C204.589 75.4533 204.405 74.9962 204.225 74.6153V79.4214H203.581V73.2372H204.225ZM203.394 74.5945C203.387 75.2178 203.29 75.9865 203.055 76.4643L202.612 76.2635C202.827 75.8549 202.93 75.1278 202.944 74.5391L203.394 74.5945ZM211.012 79.0543C210.243 79.0543 209.489 78.1887 209.489 77.3507C209.489 76.4539 210.361 75.8792 211.836 75.7857C211.867 75.4013 211.885 74.9789 211.892 74.5184H209.766V73.8605H212.688V73.9297C212.688 74.6118 212.664 75.2316 212.619 75.7787C213.052 75.803 213.467 75.8722 213.872 75.9796C213.876 75.751 213.879 75.4948 213.879 75.2109V74.0336H214.634V75.2455C214.634 75.616 214.63 75.9484 214.62 76.2427C214.935 76.3812 215.247 76.5474 215.555 76.7413L215.278 77.3923C215.039 77.2365 214.807 77.1014 214.579 76.9837C214.471 78.1887 214.18 78.6631 213.484 79.179L212.937 78.6181C213.547 78.1783 213.772 77.8182 213.844 76.6859C213.429 76.5509 213.003 76.4816 212.543 76.4643C212.311 78.1679 211.795 79.0543 211.012 79.0543ZM210.23 77.3507C210.23 77.7524 210.61 78.2718 210.915 78.2718C211.303 78.2718 211.601 77.6243 211.767 76.4782C210.784 76.5544 210.23 76.8695 210.23 77.3507ZM219.08 77.0945C218.706 77.0945 218.408 76.7967 218.408 76.4228C218.408 76.0488 218.706 75.751 219.08 75.751C219.454 75.751 219.752 76.0488 219.752 76.4228C219.752 76.7967 219.454 77.0945 219.08 77.0945ZM208.761 88.9976V89.6139H206.13V90.6804C206.13 91.0474 206.04 91.2205 205.756 91.3313C205.465 91.4214 205.063 91.4283 204.482 91.4283C204.433 91.2482 204.308 90.9643 204.205 90.7843C204.669 90.7981 205.146 90.7981 205.278 90.7912C205.417 90.7912 205.451 90.7566 205.451 90.6665V89.6139H202.84V88.9976H205.451V88.5474H205.777C206.016 88.4124 206.261 88.2462 206.476 88.0765H203.99V87.4948H207.113L207.259 87.4671L207.681 87.7857C207.283 88.2012 206.705 88.6409 206.13 88.9422V88.9976H208.761ZM208.664 86.3106V87.8826H208V86.9062H203.574V87.8826H202.944V86.3106H203.9C203.772 86.0751 203.574 85.7912 203.394 85.5627L203.955 85.3065C204.198 85.5835 204.475 85.9436 204.579 86.1998L204.35 86.3106H205.534C205.448 86.0405 205.264 85.6873 205.084 85.4242L205.673 85.1956C205.887 85.5073 206.109 85.9159 206.199 86.1998L205.901 86.3106H206.982C207.214 85.999 207.47 85.5869 207.612 85.2788L208.325 85.5004C208.131 85.7739 207.92 86.0613 207.716 86.3106H208.664ZM214.662 88.6444V91.4421H213.969V91.1859H210.95V91.4421H210.285V88.6444H211.857C211.919 88.492 211.989 88.3224 212.037 88.1735C212.002 88.2012 211.964 88.2219 211.919 88.2427C211.725 88.3258 211.448 88.3189 211.04 88.3189C211.012 88.1735 210.929 87.9796 210.867 87.8411C211.123 87.848 211.379 87.848 211.455 87.848C211.538 87.848 211.573 87.8203 211.573 87.751V86.0751H209.551V85.5488H212.169V87.751C212.169 87.8722 212.158 87.9623 212.134 88.035L212.792 88.1388C212.702 88.3154 212.605 88.4886 212.515 88.6444H214.662ZM215.174 85.5488V87.751C215.174 88.035 215.112 88.1735 214.911 88.2635C214.703 88.3466 214.398 88.3466 213.962 88.3466C213.934 88.1873 213.851 87.9726 213.782 87.8272C214.052 87.8411 214.357 87.8411 214.433 87.848C214.53 87.8272 214.544 87.8134 214.544 87.7372V86.0751H213.034C213.346 86.2136 213.73 86.4526 213.921 86.6292L213.581 87.0654C213.401 86.8785 213.013 86.6222 212.702 86.4491L213.013 86.0751H212.556V85.5488H215.174ZM212.383 87.5156C212.847 87.3702 213.554 87.1347 214.232 86.8854L214.336 87.3771C213.741 87.5987 213.11 87.8341 212.605 88.0073L212.383 87.5156ZM209.371 87.6264C209.828 87.5017 210.486 87.2663 211.144 87.0239L211.234 87.5087C210.68 87.7441 210.091 87.9934 209.62 88.1804L209.371 87.6264ZM210.098 86.0751C210.403 86.2275 210.79 86.4699 210.964 86.6569L210.624 87.0793C210.451 86.8923 210.07 86.6222 209.766 86.456L210.098 86.0751ZM210.95 90.6804H213.969V90.161H210.95V90.6804ZM210.95 89.6555H213.969V89.1568H210.95V89.6555ZM221.954 85.6112V91.3383H221.282V90.9782H219.509V91.366H218.865V85.6112H221.954ZM218.616 86.6292V87.2593H217.729V87.751C217.972 88.0073 218.543 88.6929 218.678 88.866L218.297 89.3992C218.183 89.1811 217.948 88.8279 217.729 88.5128V91.4214H217.085V88.5405C216.85 89.2053 216.556 89.8251 216.234 90.2302C216.171 90.0502 216.019 89.7801 215.915 89.6139C216.362 89.0772 216.784 88.1077 217.009 87.2593H216.074V86.6292H217.085V85.2372H217.729V86.6292H218.616ZM219.509 90.3757H221.282V89.3854H219.509V90.3757ZM219.509 88.776H221.282V87.7857H219.509V88.776ZM219.509 87.1901H221.282V86.2344H219.509V87.1901ZM227.321 89.0114C227.321 89.4269 227.584 90.3757 228.865 90.8674C228.747 91.0197 228.567 91.269 228.484 91.4352C227.563 91.082 227.092 90.2787 226.981 89.8771C226.864 90.2787 226.351 91.0474 225.326 91.4352C225.25 91.2898 225.077 91.0266 224.959 90.8951C226.351 90.4034 226.642 89.4408 226.642 89.0114V88.035H227.321V89.0114ZM227.355 85.2372C227.328 85.7912 227.283 86.2725 227.168 86.6846C227.736 87.0239 228.439 87.4671 228.796 87.7787L228.367 88.2773C228.058 87.9969 227.477 87.5883 226.947 87.2455C226.677 87.7233 226.237 88.0765 225.493 88.3258C225.423 88.1665 225.25 87.9311 225.112 87.8064C226.504 87.384 226.649 86.5945 226.691 85.2372H227.355ZM226.261 85.7635C226.192 86.2136 226.019 86.6984 225.728 86.9823L225.209 86.7538C225.465 86.5184 225.645 86.0751 225.714 85.6527L226.261 85.7635ZM226.227 88.6513C226.137 89.1499 225.922 89.6762 225.59 89.9879L225.049 89.697C225.354 89.4616 225.555 88.9906 225.645 88.5267L226.227 88.6513ZM228.713 85.8189C228.491 86.1998 228.249 86.6222 228.055 86.8992L227.563 86.7053C227.743 86.4076 227.972 85.9366 228.076 85.6181L228.713 85.8189ZM228.782 88.6929C228.554 89.1014 228.283 89.5585 228.069 89.8424L227.556 89.6485C227.75 89.3369 227.999 88.8314 228.131 88.4782L228.782 88.6929ZM224.925 87.2663V87.7718H222.944V87.2663H224.925ZM224.897 85.4519V85.9643H222.965V85.4519H224.897ZM224.925 88.1596V88.6721H222.944V88.1596H224.925ZM225.139 86.3383V86.8785H222.626V86.3383H225.139ZM224.932 89.0737V91.0543H223.498V91.3383H222.93V89.0737H224.932ZM223.498 90.528H224.357V89.607H223.498V90.528Z" fill="black"/>
<path d="M99.646 156.573V161.51C99.646 161.898 99.5559 162.092 99.3066 162.21C99.0504 162.314 98.6695 162.321 98.067 162.321C98.0324 162.134 97.9147 161.836 97.8246 161.663C98.2471 161.677 98.6695 161.67 98.8011 161.67C98.9257 161.67 98.9742 161.628 98.9742 161.504V159.696H94.7429V162.335H94.0712V156.573H99.646ZM94.7429 159.038H96.4812V157.231H94.7429V159.038ZM97.146 159.038H98.9742V157.231H97.146V159.038ZM105.858 159.066V161.711C105.858 162.016 105.802 162.161 105.595 162.245C105.38 162.328 105.075 162.335 104.611 162.335C104.584 162.175 104.507 161.961 104.431 161.808C104.722 161.822 105.041 161.822 105.131 161.815C105.207 161.822 105.241 161.794 105.241 161.711V161.282H103.441V162.328H102.825V159.066H105.858ZM106.516 158.166V159.364H105.886V158.685H102.79V159.364H102.181V158.166H102.832V156.386H105.858V158.166H106.516ZM101.1 156.192C101.53 156.358 102.056 156.635 102.312 156.864L101.938 157.411C101.689 157.175 101.169 156.857 100.747 156.677L101.1 156.192ZM100.74 157.979C101.156 158.131 101.696 158.401 101.966 158.623L101.578 159.177C101.322 158.955 100.802 158.664 100.373 158.477L100.74 157.979ZM100.56 161.815C100.906 161.303 101.384 160.451 101.758 159.675L102.264 160.091C101.931 160.797 101.516 161.594 101.142 162.245L100.56 161.815ZM103.434 158.166H103.995V157.265H105.228V156.891H103.434V158.166ZM103.441 160.797H105.241V160.43H103.441V160.797ZM103.441 159.945H105.241V159.585H103.441V159.945ZM104.5 158.166H105.228V157.681H104.5V158.166ZM110.131 162.085C109.147 162.085 108.566 161.614 108.566 160.804C108.566 159.994 109.154 159.53 110.186 159.53C110.47 159.53 110.747 159.582 111.038 159.696V157.258C111.813 157.258 112.458 157.272 113.095 157.321L113.053 158.006C112.662 157.979 112.246 157.958 111.793 157.951V160.118C112.177 160.392 112.599 160.763 113.088 161.254L112.624 161.774C112.281 161.445 112 161.178 111.765 160.963C111.633 161.704 111.083 162.085 110.131 162.085ZM107.111 161.033C107.499 159.994 107.825 158.986 108.109 157.944H107.063V157.258H108.289C108.365 156.943 108.437 156.628 108.51 156.303L109.244 156.372C109.182 156.67 109.116 156.968 109.05 157.258H110.408V157.944H108.877C108.586 159.066 108.244 160.15 107.831 161.247L107.111 161.033ZM109.307 160.79C109.307 161.22 109.584 161.441 110.131 161.441C110.726 161.441 111.038 161.178 111.038 160.686V160.396C110.723 160.205 110.484 160.153 110.186 160.153C109.584 160.153 109.307 160.354 109.307 160.79ZM119.653 156.621V157.113H117.977V157.452H119.473V157.916H117.977V158.269H119.861V158.761H115.491V158.269H117.319V157.916H115.865V157.452H117.319V157.113H115.692V156.621H117.319V156.143H117.977V156.621H119.653ZM119.376 159.073V161.656C119.376 161.954 119.313 162.12 119.099 162.21C118.884 162.314 118.566 162.314 118.095 162.314C118.074 162.148 117.991 161.898 117.915 161.746C118.212 161.767 118.538 161.767 118.628 161.76C118.711 161.746 118.752 161.718 118.752 161.649V161.317H116.571V162.335H115.948V159.073H119.376ZM115.034 156.143V157.238L115.428 157.071C115.567 157.376 115.733 157.785 115.809 158.02L115.359 158.242C115.307 158.003 115.165 157.619 115.034 157.314V162.328H114.438V156.143H115.034ZM114.369 157.501C114.341 158.041 114.237 158.83 114.099 159.343L113.593 159.17C113.753 158.72 113.849 157.972 113.891 157.445L114.369 157.501ZM116.571 160.832H118.752V160.444H116.571V160.832ZM116.571 159.966H118.752V159.564H116.571V159.966ZM126.204 156.434V157.702C126.204 157.999 126.149 158.173 125.913 158.263C125.685 158.353 125.331 158.353 124.826 158.353C124.798 158.179 124.715 157.951 124.632 157.785C125.006 157.792 125.359 157.792 125.456 157.792C125.567 157.785 125.588 157.771 125.588 157.695V157.023H124.113V158.713H125.851L125.962 158.692L126.37 158.83C126.235 159.63 125.982 160.382 125.622 161.019C125.906 161.344 126.242 161.614 126.613 161.801C126.46 161.919 126.266 162.168 126.162 162.335C125.823 162.137 125.522 161.874 125.255 161.559C125.023 161.864 124.757 162.127 124.459 162.341C124.376 162.227 124.237 162.082 124.113 161.968V162.335H123.51V156.434H126.204ZM123.088 156.781V157.328H122.174V157.882H123.344V158.45H122.755L123.018 158.512C122.901 158.792 122.783 159.083 122.679 159.294H123.247V159.855H122.174V160.472H123.171V161.033H122.174V162.314H121.55V161.033H120.518V160.472H121.55V159.855H120.456V159.294H121.024C120.979 159.073 120.885 158.765 120.775 158.519L121.038 158.45H120.345V157.882H121.55V157.328H120.574V156.781H121.55V156.157H122.174V156.781H123.088ZM121.308 158.45C121.429 158.706 121.54 159.035 121.564 159.232L121.342 159.294H122.395L122.167 159.232C122.26 159.017 122.378 158.695 122.444 158.45H121.308ZM124.113 161.822C124.403 161.611 124.66 161.344 124.881 161.04C124.556 160.541 124.303 159.959 124.113 159.336V161.822ZM124.639 159.246C124.777 159.686 124.975 160.108 125.221 160.486C125.414 160.098 125.563 159.679 125.664 159.246H124.639ZM130.075 160.001C129.701 160.001 129.403 159.703 129.403 159.329C129.403 158.955 129.701 158.657 130.075 158.657C130.449 158.657 130.747 158.955 130.747 159.329C130.747 159.703 130.449 160.001 130.075 160.001ZM141.585 158.041V158.699H139.84C140.162 160.042 140.771 161.185 141.758 161.753C141.599 161.877 141.377 162.141 141.273 162.307C140.459 161.763 139.909 160.863 139.542 159.745C139.317 160.652 138.856 161.562 137.956 162.321C137.831 162.193 137.624 162.03 137.45 161.912V162.321H136.793V160.028C136.446 160.354 136.1 160.676 135.795 160.943L135.435 160.361C135.778 160.112 136.294 159.679 136.793 159.232V158.256L136.287 158.581C136.149 158.235 135.795 157.709 135.511 157.3L136.024 157.002C136.304 157.352 136.626 157.809 136.793 158.138V156.13H137.45V161.864C138.583 160.901 138.943 159.738 139.05 158.699H137.651V158.041H139.092V157.792V156.157H139.75V157.792V158.041H141.585ZM140.657 156.324C140.934 156.677 141.28 157.148 141.425 157.459L140.899 157.785C140.747 157.48 140.428 156.968 140.151 156.601L140.657 156.324ZM142.901 156.178C143.309 156.33 143.863 156.594 144.133 156.822L143.745 157.362C143.496 157.134 142.963 156.85 142.527 156.663L142.901 156.178ZM142.457 157.999C142.907 158.145 143.482 158.408 143.787 158.616L143.413 159.184C143.143 158.955 142.575 158.671 142.111 158.498L142.457 157.999ZM142.36 161.836C142.741 161.317 143.302 160.43 143.718 159.634L144.209 160.049C143.822 160.769 143.344 161.6 142.928 162.251L142.36 161.836ZM147.014 161.42C147.014 161.642 147.028 161.677 147.173 161.677H147.568C147.714 161.677 147.741 161.531 147.762 160.707C147.894 160.811 148.164 160.929 148.351 160.97C148.288 161.981 148.129 162.265 147.63 162.265H147.063C146.481 162.265 146.342 162.058 146.342 161.434V159.232H145.719C145.653 160.759 145.432 161.767 144.092 162.341C144.029 162.175 143.842 161.919 143.704 161.794C144.871 161.337 145.016 160.537 145.068 159.232H144.438V156.441H147.942V159.232H147.014V161.42ZM145.089 158.609H147.263V157.058H145.089V158.609ZM154.653 159.371V159.862H153.697V160.437H154.653V160.936H153.697V161.504H154.957V162.058H152.319V162.335H151.696V159.301C151.616 159.374 151.536 159.44 151.453 159.502C151.384 159.402 151.232 159.225 151.107 159.1V161.517H149.867V162.044H149.32V160.16C149.23 160.33 149.13 160.489 149.022 160.638C148.96 160.486 148.773 160.146 148.662 160.008C149.133 159.319 149.41 158.287 149.556 157.168H148.87V156.552H151.252V156.787H152.603C152.679 156.576 152.741 156.358 152.797 156.13L153.427 156.254C153.378 156.438 153.326 156.614 153.274 156.787H154.923V157.972H154.327V157.348H153.06C152.921 157.674 152.765 157.975 152.589 158.256H153.24C153.344 158.017 153.441 157.74 153.496 157.535L154.112 157.667C154.022 157.864 153.925 158.072 153.835 158.256H154.777V158.823H153.697V159.371H154.653ZM151.107 158.505V158.934C151.633 158.54 152.059 157.999 152.374 157.348H151.792V157.972H151.218V157.168H150.2C150.123 157.625 150.037 158.076 149.93 158.505H151.107ZM149.867 160.943H150.546V159.087H149.867V160.943ZM152.319 161.504H153.087V160.936H152.319V161.504ZM152.319 160.437H153.087V159.862H152.319V160.437ZM152.319 159.371H153.087V158.823H152.319V159.371ZM158.358 157.231C158.586 157.303 158.825 157.393 159.064 157.494C159.112 157.321 159.154 157.144 159.182 156.968H158.115V156.414H161.391V156.663C161.315 158.214 161.259 158.817 161.072 159.017C160.968 159.177 160.844 159.225 160.65 159.246C160.49 159.267 160.207 159.274 159.909 159.253C159.902 159.066 159.833 158.823 159.736 158.657C159.999 158.678 160.241 158.678 160.345 158.678C160.428 158.685 160.49 158.671 160.546 158.609C160.65 158.498 160.705 158.072 160.754 156.968H159.791C159.746 157.231 159.687 157.494 159.604 157.743C159.867 157.878 160.103 158.013 160.283 158.131L159.964 158.643C159.808 158.529 159.604 158.405 159.382 158.283C159.133 158.737 158.763 159.132 158.191 159.426C158.122 159.281 157.942 159.066 157.817 158.962C158.319 158.727 158.638 158.394 158.842 158.013C158.579 157.896 158.306 157.785 158.053 157.702L158.358 157.231ZM159.396 161.504C159.396 161.67 159.417 161.691 159.576 161.691H160.047C160.193 161.691 160.22 161.614 160.241 160.97C160.359 161.081 160.615 161.171 160.781 161.213C160.726 162.071 160.56 162.279 160.11 162.279H159.472C158.912 162.279 158.794 162.092 158.794 161.51V159.973H159.396V161.504ZM158.655 160.361C158.593 160.956 158.468 161.587 158.129 161.968L157.644 161.67V161.961H156.252V162.245H155.698V159.98H157.644V161.663C157.925 161.32 158.074 160.759 158.136 160.215L158.655 160.361ZM159.306 159.073C159.736 159.281 160.262 159.641 160.497 159.918L160.096 160.354C159.853 160.077 159.348 159.703 158.912 159.454L159.306 159.073ZM160.961 160.084C161.315 160.576 161.612 161.247 161.702 161.711L161.114 161.947C161.038 161.497 160.754 160.804 160.428 160.299L160.961 160.084ZM157.63 158.173V158.678H155.705V158.173H157.63ZM157.617 156.358V156.871H155.733V156.358H157.617ZM157.63 159.066V159.578H155.705V159.066H157.63ZM157.817 157.245V157.785H155.407V157.245H157.817ZM156.252 161.434H157.076V160.513H156.252V161.434Z" fill="black"/>
<path d="M107.15 206.118V206.672H101.381V206.118H103.084C103.015 205.886 102.877 205.57 102.745 205.328L103.133 205.231H102.357V203.444H106.145V205.231H105.467L105.799 205.307C105.64 205.605 105.494 205.896 105.363 206.118H107.15ZM103.576 200.868L103.694 200.847L104.13 201.069C103.936 201.578 103.645 202.035 103.306 202.433H105.252C104.843 201.962 104.504 201.415 104.248 200.82L104.809 200.64C104.92 200.896 105.058 201.145 105.217 201.381C105.491 201.166 105.778 200.899 105.965 200.681L106.478 201.041C106.177 201.305 105.827 201.575 105.522 201.782C105.64 201.931 105.768 202.066 105.903 202.198C106.197 201.969 106.519 201.689 106.72 201.457L107.212 201.81C106.928 202.063 106.596 202.323 106.298 202.537C106.641 202.804 107.018 203.022 107.42 203.174C107.26 203.313 107.06 203.569 106.963 203.735C106.412 203.486 105.913 203.122 105.481 202.683V202.994H103.029V202.724C102.562 203.192 102.018 203.562 101.471 203.825C101.381 203.687 101.201 203.458 101.062 203.334C101.481 203.164 101.911 202.897 102.295 202.572C102.087 202.371 101.769 202.125 101.506 201.962L101.873 201.588C102.157 201.748 102.492 201.994 102.69 202.191C102.911 201.952 103.109 201.689 103.271 201.415H101.769V200.868H103.576ZM103.001 204.698H105.46V203.992H103.001V204.698ZM103.389 205.231C103.548 205.48 103.684 205.802 103.749 206.041L103.465 206.118H104.933L104.726 206.069C104.864 205.841 105.034 205.494 105.127 205.231H103.389ZM113.881 201.118V201.782H111.118V202.897L111.235 202.766C111.99 203.14 113.043 203.721 113.562 204.137L113.077 204.739C112.655 204.383 111.834 203.863 111.118 203.465V206.803H110.411V201.782H107.925V201.118H113.881ZM120.564 201.568V202.191H116.893V201.568H118.389V200.626H119.04V201.568H120.564ZM118.313 202.558C118.112 202.96 117.839 203.358 117.544 203.694L118.084 203.548C118.237 203.964 118.441 204.352 118.694 204.705C118.929 204.334 119.102 203.926 119.213 203.493L119.885 203.631C119.705 204.213 119.456 204.746 119.123 205.21C119.553 205.664 120.086 206.017 120.702 206.235C120.557 206.381 120.342 206.651 120.238 206.824C119.636 206.575 119.116 206.201 118.687 205.73C118.23 206.197 117.658 206.571 116.949 206.831C116.872 206.678 116.713 206.436 116.602 206.305C117.305 206.059 117.859 205.688 118.285 205.231C117.97 204.784 117.714 204.275 117.517 203.714C117.402 203.846 117.281 203.964 117.163 204.068C117.059 203.943 116.845 203.749 116.706 203.652C117.122 203.32 117.51 202.78 117.717 202.309L118.313 202.558ZM119.608 202.288C120.03 202.717 120.494 203.285 120.681 203.694L120.127 204.019C119.947 203.611 119.504 203.022 119.095 202.579L119.608 202.288ZM116.824 202.018V202.641H116.062V203.05C116.26 203.309 116.789 204.088 116.907 204.275L116.547 204.781C116.45 204.552 116.249 204.182 116.062 203.853V206.81H115.446V204.019C115.238 204.646 114.985 205.224 114.712 205.598C114.643 205.418 114.497 205.162 114.393 205.003C114.802 204.459 115.193 203.496 115.391 202.641H114.539V202.018H115.446V200.626H116.062V202.018H116.824ZM124.192 204.483C123.818 204.483 123.521 204.185 123.521 203.811C123.521 203.437 123.818 203.14 124.192 203.14C124.566 203.14 124.864 203.437 124.864 203.811C124.864 204.185 124.566 204.483 124.192 204.483ZM131.173 200.612V201.263H133.666V202.78H132.96V201.879H128.715V202.78H128.043V201.263H130.467V200.612H131.173ZM130.917 202.253C130.785 202.53 130.636 202.828 130.487 203.133H133.811V203.756H132.655C132.447 204.442 132.149 204.978 131.755 205.397C132.437 205.681 133.07 205.986 133.521 206.27L133.001 206.81C132.565 206.526 131.91 206.194 131.187 205.875C130.48 206.367 129.559 206.644 128.417 206.824C128.361 206.658 128.161 206.367 128.036 206.214C129.03 206.104 129.836 205.913 130.467 205.577C130.106 205.442 129.746 205.314 129.407 205.196L129.262 205.453L128.555 205.266C128.808 204.864 129.109 204.324 129.407 203.756H127.89V203.133H129.726C129.906 202.773 130.079 202.419 130.224 202.101L130.917 202.253ZM129.691 204.67C130.131 204.805 130.612 204.964 131.09 205.141C131.464 204.791 131.73 204.341 131.893 203.756H130.169C130.006 204.071 129.843 204.383 129.691 204.67ZM137.461 201.263C137.066 201.845 136.401 202.503 135.647 203.057H139.359C138.604 202.516 137.883 201.852 137.461 201.263ZM139.753 204.525V205.106H137.814V206.041H140.349V206.637H134.67V206.041H137.122V205.106H135.21V204.525H137.122V203.638H135.529V203.14C135.283 203.313 135.03 203.476 134.774 203.618C134.684 203.472 134.497 203.223 134.345 203.091C135.494 202.489 136.588 201.45 137.094 200.605H137.773C138.479 201.602 139.601 202.53 140.647 203.008C140.487 203.181 140.335 203.403 140.203 203.604C139.961 203.465 139.715 203.309 139.469 203.133V203.638H137.814V204.525H139.753ZM147.018 202.489V203.777H146.374V202.987H141.935V203.777H141.311V202.489H143.791V201.99H143.888C143.798 201.945 143.714 201.904 143.645 201.872C143.746 201.803 143.839 201.724 143.936 201.637H142.967C143.07 201.81 143.16 201.987 143.216 202.122L142.606 202.295C142.565 202.125 142.43 201.859 142.302 201.637H142.129C141.949 201.897 141.758 202.129 141.575 202.309C141.443 202.205 141.173 202.025 141.021 201.949C141.415 201.609 141.796 201.097 142.004 200.577L142.62 200.751C142.568 200.872 142.509 200.993 142.447 201.111H144.047V201.519C144.31 201.249 144.525 200.92 144.656 200.577L145.3 200.737C145.245 200.861 145.183 200.989 145.113 201.111H147.198V201.637H145.93C146.066 201.807 146.183 201.99 146.256 202.129L145.647 202.316C145.563 202.136 145.387 201.865 145.217 201.637H144.767C144.66 201.772 144.549 201.9 144.435 202.011V202.489H147.018ZM146.007 203.334V204.753H142.946V205.12H146.471V206.817H145.806V206.616H142.946V206.824H142.316V203.334H146.007ZM142.946 206.118H145.806V205.619H142.946V206.118ZM142.946 204.269H145.335V203.825H142.946V204.269ZM150.764 203.396H151.602V202.696H150.764V203.396ZM150.764 202.177H151.602V201.492H150.764V202.177ZM153.61 200.917V203.964H152.219V204.636H153.694V205.231H152.219V205.993H153.915V206.595H149.615V205.993H151.533V205.231H150.099V204.636H151.533V203.964H150.162V200.917H153.61ZM149.878 201.041V201.658H149.137V202.953H149.767V203.569H149.137V205.037L149.822 204.816L149.94 205.46C149.213 205.702 148.424 205.965 147.814 206.159L147.655 205.487C147.894 205.425 148.185 205.338 148.5 205.238V203.569H147.793V202.953H148.5V201.658H147.731V201.041H149.878ZM152.163 203.396H152.98V202.696H152.163V203.396ZM152.163 202.177H152.98V201.492H152.163V202.177Z" fill="black"/>
<path d="M155.664 179.476C147.481 183.448 138.37 185.664 128.767 185.664C118.377 185.664 108.563 183.07 99.8755 178.464" stroke="#2A3317" stroke-width="6.71683" stroke-linecap="round" stroke-linejoin="round"/>
<path d="M158.615 187.091L150.752 172.83L161.831 176.041L158.615 187.091Z" fill="#2A3317"/>
<path d="M96.6565 185.97L105.019 171.994L93.8325 174.814L96.6565 185.97Z" fill="#2A3317"/>
<path d="M178.423 75.4941C189.953 85.3382 197.797 99.3484 199.605 115.184" stroke="#2A3317" stroke-width="6.71683" stroke-linecap="round" stroke-linejoin="round"/>
<path d="M184.247 69.75L174.28 82.6359L172.805 71.2255L184.247 69.75Z" fill="#2A3317"/>
<path d="M207.642 113.593L191.354 114.604L200.004 122.217L207.642 113.593Z" fill="#2A3317"/>
<path d="M76.8993 75.4951C65.3694 85.3392 57.526 99.3493 55.7173 115.185" stroke="#2A3317" stroke-width="6.71683" stroke-linecap="round" stroke-linejoin="round"/>
<path d="M81.0425 82.6369L71.0757 69.751L82.5183 71.2264L81.0425 82.6369Z" fill="#2A3317"/>
<path d="M63.9699 114.605L47.6816 113.594L55.3187 122.218L63.9699 114.605Z" fill="#2A3317"/>
<g filter="url(#filter0_d_143_9833)">
<path d="M46.7719 211.5C69.2025 211.5 87.3861 193.368 87.3861 171C87.3861 148.632 69.2025 130.5 46.7719 130.5C24.3413 130.5 6.15771 148.632 6.15771 171C6.15771 193.368 24.3413 211.5 46.7719 211.5Z" fill="white"/>
</g>
<path d="M42.5428 192.478V193.27H40.975C41.427 193.966 42.1069 194.618 42.7748 194.99C42.5748 195.174 42.3028 195.478 42.1509 195.702C41.5669 195.294 40.987 194.642 40.5351 193.934V195.982H39.6633V193.966C39.1833 194.67 38.5754 195.286 37.9435 195.678C37.8075 195.462 37.5276 195.15 37.3356 194.99C38.0515 194.622 38.7474 193.974 39.2313 193.27H37.6076V192.478H39.6633V191.758H38.1195V189.127H42.1748V191.758H40.5351V192.478H42.5428ZM38.9594 190.982H41.287V189.903H38.9594V190.982ZM37.9595 189.071C37.7636 189.579 37.5156 190.098 37.2396 190.59V195.958H36.3998V191.878C36.1958 192.15 35.9878 192.394 35.7759 192.606C35.7039 192.398 35.4559 191.91 35.3199 191.71C36.0398 191.006 36.7357 189.911 37.1517 188.807L37.9595 189.071ZM49.3337 193.574L49.4697 193.542L49.9736 193.79C49.6976 194.298 49.3017 194.698 48.8218 195.006C49.2817 195.138 49.7936 195.23 50.3255 195.286C50.1576 195.454 49.9336 195.766 49.8376 195.982C49.1457 195.882 48.4938 195.71 47.9259 195.462C47.286 195.718 46.5621 195.882 45.8063 195.99C45.7423 195.806 45.5903 195.51 45.4543 195.342C46.0342 195.282 46.5981 195.182 47.1101 195.03C46.8301 194.842 46.5821 194.63 46.3742 194.39L46.8941 194.19H45.8303V193.574H49.3337ZM50.1816 189.191V189.823H49.1977V190.19H48.8058L48.5818 190.59H49.9736V191.126H48.5578V191.374H49.8056V191.814H48.5578V192.07H49.8056V192.51H48.5578V192.766H50.1656V193.318H46.2222V191.67C46.1382 191.766 46.0582 191.854 45.9742 191.934C45.8543 191.81 45.5903 191.598 45.4303 191.486V191.798H43.4067V191.15H45.4303V191.478C45.8583 191.11 46.2222 190.57 46.4462 190.023L46.7181 190.086V189.823H45.7263V189.191H46.7181V188.775H47.494V189.191H48.4139V188.775H49.1977V189.191H50.1816ZM45.4223 189.031V189.695H43.4546V189.031H45.4223ZM45.4303 192.182V192.846H43.4067V192.182H45.4303ZM45.6303 190.062V190.766H43.0787V190.062H45.6303ZM45.4143 193.246V195.558H44.0705V195.878H43.3827V193.246H45.4143ZM44.0705 194.862H44.7264V193.934H44.0705V194.862ZM46.9501 190.59H47.8059C47.8899 190.402 47.9619 190.202 48.0139 190.055L48.4139 190.118V189.823H47.494V190.19H47.1341C47.0741 190.326 47.0141 190.458 46.9501 190.59ZM46.9901 192.766H47.79V192.51H46.9901V192.766ZM46.9901 192.07H47.79V191.814H46.9901V192.07ZM46.9901 191.374H47.79V191.126H46.9901V191.374ZM47.1501 194.19C47.362 194.386 47.638 194.558 47.9659 194.702C48.2699 194.562 48.5378 194.39 48.7578 194.19H47.1501ZM57.8203 191.134V191.918H55.0288C54.7248 192.142 54.4129 192.35 54.0929 192.55H56.9245V195.958H56.0206V195.75H53.3091V195.982H52.4372V193.438C52.0333 193.63 51.6253 193.798 51.2134 193.95C51.1094 193.758 50.8455 193.398 50.6855 193.214C51.7013 192.89 52.6812 192.454 53.573 191.918H50.9015V191.134H53.4131V190.39H51.5733V189.639H53.4131V188.791H54.2769V189.639H55.9806V189.999C56.2766 189.687 56.5446 189.359 56.7885 189.015L57.5324 189.407C57.0845 190.035 56.5606 190.61 55.9806 191.134H57.8203ZM53.3091 195.014H56.0206V194.47H53.3091V195.014ZM53.3091 193.806H56.0206V193.27H53.3091V193.806ZM54.2769 191.134H54.7248C55.0288 190.898 55.3207 190.65 55.5967 190.39H54.2769V191.134Z" fill="#221714"/>
<path d="M69.8029 180.679H46.1865V169.491C46.1865 167.705 47.8235 165.93 50.0477 165.652L58.0945 164.404L66.0002 165.62C68.1976 165.918 69.8039 167.683 69.8039 169.451V180.679H69.8029Z" fill="#A15091"/>
<path d="M60.9011 165.123L60.667 165.215C58.9494 165.892 57.0322 165.906 55.3051 165.25L54.9683 165.122V162.38H60.9011V165.122V165.123Z" fill="#E1AD5D"/>
<path d="M64.8657 156.28C64.8657 160.494 61.7904 163.91 57.9964 163.91C54.2023 163.91 51.127 160.494 51.127 156.28C51.127 156.011 51.127 155.746 51.127 155.485C51.127 151.71 54.2023 148.65 57.9964 148.65C61.7894 148.65 64.8648 151.71 64.8657 155.484C64.8657 155.84 64.8657 156.119 64.8657 156.28Z" fill="#F3CB8D"/>
<path d="M51.1279 153.481C51.1279 153.481 51.1308 152.24 51.1308 156.371C51.1308 158.776 52.2045 161.096 53.9768 162.464C55.2492 163.447 56.5436 163.911 58.2794 163.911C58.2794 163.911 54.351 161.872 53.5527 159.509C52.8215 157.343 54.2311 150.584 54.2311 150.584L51.1289 153.48L51.1279 153.481Z" fill="#EBBD76"/>
<path d="M61.6563 156.243C61.6563 156.01 61.4665 155.82 61.2322 155.82C60.998 155.82 60.8081 156.01 60.8081 156.243V156.593C60.8081 156.827 60.998 157.016 61.2322 157.016C61.4665 157.016 61.6563 156.827 61.6563 156.593V156.243Z" fill="#231815"/>
<path d="M61.9342 157.447H60.5314C60.0486 157.447 59.6572 157.838 59.6572 158.319C59.6572 158.8 60.0486 159.191 60.5314 159.191H61.9342C62.417 159.191 62.8084 158.8 62.8084 158.319C62.8084 157.838 62.417 157.447 61.9342 157.447Z" fill="#E9A48A"/>
<path d="M55.4801 157.447H54.0773C53.5945 157.447 53.2031 157.838 53.2031 158.319C53.2031 158.8 53.5945 159.191 54.0773 159.191H55.4801C55.9629 159.191 56.3543 158.8 56.3543 158.319C56.3543 157.838 55.9629 157.447 55.4801 157.447Z" fill="#E9A48A"/>
<path d="M55.2027 156.243C55.2027 156.01 55.0128 155.82 54.7786 155.82C54.5444 155.82 54.3545 156.01 54.3545 156.243V156.593C54.3545 156.827 54.5444 157.016 54.7786 157.016C55.0128 157.016 55.2027 156.827 55.2027 156.593V156.243Z" fill="#231815"/>
<path d="M65.0864 180.679C65.0864 180.679 65.1286 174.644 65.4194 172.521" stroke="#5D2A80" stroke-width="0.191909" stroke-miterlimit="10"/>
<path d="M51.1914 180.679C51.1914 180.679 51.1491 174.644 50.8584 172.521" stroke="#5D2A80" stroke-width="0.191909" stroke-miterlimit="10"/>
<path d="M58.0821 167.164C55.3704 167.164 53.1615 165.226 53.0723 165.147L54.8801 164.772C54.8935 164.784 56.1793 165.639 58.0821 165.639C59.9848 165.639 61.1987 164.787 61.214 164.772L63.0919 165.147C63.0017 165.226 60.7928 167.164 58.0821 167.164Z" fill="#81287D"/>
<path d="M58.5409 166.772L58.5044 166.135C58.5831 166.131 58.6647 166.125 58.7453 166.116L58.8106 166.751C58.7204 166.76 58.6292 166.767 58.5409 166.773V166.772Z" fill="#5D2A80"/>
<path d="M57.864 166.771C57.7747 166.766 57.6835 166.758 57.5942 166.749L57.6605 166.114C57.7401 166.123 57.8217 166.13 57.9014 166.133L57.864 166.77V166.771Z" fill="#5D2A80"/>
<path d="M59.4786 166.644L59.3413 166.02C59.4191 166.003 59.4987 165.984 59.5765 165.964L59.7416 166.58C59.6543 166.603 59.5659 166.624 59.4786 166.644Z" fill="#5D2A80"/>
<path d="M56.9256 166.642C56.8383 166.622 56.75 166.601 56.6626 166.577L56.8277 165.961C56.9055 165.982 56.9851 166.001 57.0629 166.018L56.9247 166.642H56.9256Z" fill="#5D2A80"/>
<path d="M60.3823 166.373L60.1538 165.776C60.2287 165.748 60.3045 165.717 60.3794 165.686L60.6319 166.272C60.5493 166.308 60.4658 166.341 60.3823 166.373Z" fill="#5D2A80"/>
<path d="M56.022 166.371C55.9395 166.339 55.856 166.306 55.7725 166.27L56.0249 165.684C56.0998 165.716 56.1756 165.746 56.2505 165.775L56.022 166.371Z" fill="#5D2A80"/>
<path d="M61.4007 165.919L60.8545 165.585C60.8967 165.516 60.939 165.446 60.9793 165.375L61.537 165.69C61.4929 165.767 61.4468 165.844 61.4007 165.92V165.919Z" fill="#5D2A80"/>
<path d="M54.9508 166.02C54.8875 165.959 54.8241 165.896 54.7617 165.832L55.2234 165.39C55.2801 165.448 55.3386 165.506 55.3962 165.562L54.9499 166.02H54.9508Z" fill="#5D2A80"/>
<path d="M62.2161 165.321L61.5845 165.211C61.5883 165.19 61.5912 165.169 61.595 165.148L61.6133 165.04L62.2459 165.143L62.2286 165.251C62.2248 165.274 62.2209 165.297 62.2171 165.321H62.2161Z" fill="#5D2A80"/>
<path d="M54.1629 165.334C54.1485 165.248 54.1341 165.16 54.1216 165.071L54.7561 164.983C54.7676 165.065 54.7801 165.146 54.7935 165.226L54.1619 165.333L54.1629 165.334Z" fill="#5D2A80"/>
<path d="M52.0254 165.378C48.3724 165.378 46.1865 167.355 46.1865 169.14V180.678H48.3522C48.3522 180.678 48.5787 173.841 49.0085 171.563C49.4701 169.119 52.0254 165.378 52.0254 165.378Z" fill="#81287D"/>
<path d="M47.1803 180.679H23.564V169.491C23.564 167.705 25.201 165.93 27.4252 165.652L35.4719 164.404L43.3776 165.62C45.575 165.918 47.1813 167.683 47.1813 169.451V180.679H47.1803Z" fill="#1266A4"/>
<path d="M38.2797 165.123L38.0504 165.215C36.3674 165.892 34.4886 165.906 32.7969 165.25L32.4668 165.122V162.38H38.2797V165.122V165.123Z" fill="#E1AD5D"/>
<path d="M42.2437 156.28C42.2437 160.494 39.1683 163.91 35.3743 163.91C31.5802 163.91 28.5049 160.494 28.5049 156.28C28.5049 156.011 28.5049 155.746 28.5049 155.485C28.5049 151.71 31.5802 148.65 35.3743 148.65C39.1674 148.65 42.2427 151.71 42.2437 155.484C42.2437 155.84 42.2437 156.119 42.2437 156.28Z" fill="#F3CB8D"/>
<path d="M28.5059 153.481C28.5059 153.481 28.5087 152.24 28.5087 156.371C28.5087 158.776 29.5825 161.096 31.3548 162.464C32.6271 163.447 33.9215 163.911 35.6574 163.911C35.6574 163.911 31.729 161.872 30.9306 159.509C30.1995 157.343 31.609 150.584 31.609 150.584L28.5068 153.48L28.5059 153.481Z" fill="#EBBD76"/>
<path d="M39.0338 156.243C39.0338 156.01 38.8439 155.82 38.6097 155.82C38.3754 155.82 38.1855 156.01 38.1855 156.243V156.593C38.1855 156.827 38.3754 157.016 38.6097 157.016C38.8439 157.016 39.0338 156.827 39.0338 156.593V156.243Z" fill="#231815"/>
<path d="M39.3112 157.448H37.9083C37.4255 157.448 37.0342 157.839 37.0342 158.32C37.0342 158.801 37.4255 159.192 37.9083 159.192H39.3112C39.794 159.192 40.1853 158.801 40.1853 158.32C40.1853 157.839 39.794 157.448 39.3112 157.448Z" fill="#E9A48A"/>
<path d="M32.8581 157.448H31.4552C30.9724 157.448 30.5811 157.839 30.5811 158.32C30.5811 158.801 30.9724 159.192 31.4552 159.192H32.8581C33.3408 159.192 33.7322 158.801 33.7322 158.32C33.7322 157.839 33.3408 157.448 32.8581 157.448Z" fill="#E9A48A"/>
<path d="M32.5807 156.243C32.5807 156.01 32.3908 155.82 32.1565 155.82C31.9223 155.82 31.7324 156.01 31.7324 156.243V156.593C31.7324 156.827 31.9223 157.016 32.1565 157.016C32.3908 157.016 32.5807 156.827 32.5807 156.593V156.243Z" fill="#231815"/>
<path d="M42.4639 180.679C42.4639 180.679 42.5061 174.644 42.7968 172.521" stroke="#282E80" stroke-width="0.191909" stroke-miterlimit="10"/>
<path d="M28.5693 180.679C28.5693 180.679 28.5271 174.644 28.2363 172.521" stroke="#282E80" stroke-width="0.191909" stroke-miterlimit="10"/>
<path d="M35.3629 146.503C33.3728 146.503 30.8098 147.28 29.3389 148.607C27.5819 150.193 27.201 152.268 27.4802 154.665C27.5714 155.451 28.6336 157.789 28.6336 157.789L28.8898 154.409L33.3757 151.03C33.3757 151.03 36.0672 153.325 38.5668 153.581C39.7096 153.697 41.6431 153.645 41.6431 153.645L42.2198 157.089C42.2563 157.075 42.9251 154.857 42.9884 154.346C43.1583 152.993 43.0527 150.201 41.8993 148.863C40.5377 147.282 37.4777 146.503 35.3619 146.503H35.3629Z" fill="#4E4D4D"/>
<path d="M32.2702 151.776L28.9031 154.312L28.7102 156.705C28.7102 156.705 27.9129 155.094 27.8447 154.504C27.6355 152.705 27.9205 151.146 29.2399 149.957C30.3443 148.961 32.2673 148.377 33.7613 148.377L32.2702 151.775V151.776Z" fill="#323333"/>
<path d="M33.2475 150.84C33.2475 150.84 35.0956 152.705 37.2153 153.271C38.7688 153.686 41.6426 153.646 41.6426 153.646L41.8345 154.858C41.8345 154.858 42.2193 154.029 42.2193 153.646C42.2193 151.669 40.2791 152.562 38.1815 152.052C36.084 151.542 33.2466 150.841 33.2466 150.841L33.2475 150.84Z" fill="#323333"/>
<path d="M39.3649 164.976C39.3649 164.976 37.6166 166.526 35.4586 166.526C33.3005 166.526 31.5522 164.976 31.5522 164.976L35.4586 164.357L39.3649 164.976Z" fill="#EBBD76"/>
<path d="M35.459 167.164C32.7473 167.164 30.5385 165.226 30.4492 165.147L32.257 164.772C32.2704 164.784 33.5562 165.639 35.459 165.639C37.3618 165.639 38.5756 164.787 38.591 164.772L40.4688 165.147C40.3786 165.226 38.1697 167.164 35.459 167.164Z" fill="#0B4F7F"/>
<path d="M35.9183 166.772L35.8818 166.135C35.9606 166.131 36.0421 166.125 36.1228 166.116L36.1881 166.751C36.0978 166.76 36.0066 166.767 35.9183 166.773V166.772Z" fill="#043D61"/>
<path d="M35.2409 166.771C35.1517 166.766 35.0605 166.758 34.9712 166.749L35.0374 166.114C35.1171 166.123 35.1987 166.13 35.2784 166.133L35.2409 166.77V166.771Z" fill="#043D61"/>
<path d="M36.855 166.644L36.7178 166.02C36.7955 166.003 36.8752 165.984 36.953 165.964L37.1181 166.58C37.0307 166.603 36.9424 166.624 36.855 166.644Z" fill="#043D61"/>
<path d="M34.3021 166.643C34.2147 166.623 34.1264 166.602 34.0391 166.578L34.2042 165.962C34.2819 165.983 34.3616 166.002 34.4394 166.019L34.3011 166.643H34.3021Z" fill="#043D61"/>
<path d="M37.7612 166.373L37.5327 165.776C37.6076 165.748 37.6834 165.717 37.7583 165.686L38.0108 166.272C37.9282 166.308 37.8447 166.341 37.7612 166.373Z" fill="#043D61"/>
<path d="M33.3985 166.371C33.316 166.339 33.2324 166.306 33.1489 166.27L33.4014 165.684C33.4763 165.716 33.5521 165.746 33.627 165.775L33.3985 166.371Z" fill="#043D61"/>
<path d="M38.7791 165.919L38.2329 165.585C38.2751 165.516 38.3174 165.446 38.3577 165.375L38.9154 165.69C38.8713 165.767 38.8252 165.844 38.7791 165.92V165.919Z" fill="#043D61"/>
<path d="M32.3268 166.02C32.2634 165.959 32.2001 165.896 32.1377 165.832L32.5994 165.39C32.6561 165.448 32.7146 165.506 32.7722 165.562L32.3258 166.02H32.3268Z" fill="#043D61"/>
<path d="M39.5945 165.321L38.9629 165.211C38.9667 165.19 38.9696 165.169 38.9734 165.148L38.9917 165.04L39.6243 165.143L39.607 165.251C39.6032 165.274 39.5993 165.297 39.5955 165.321H39.5945Z" fill="#043D61"/>
<path d="M31.5403 165.334C31.5259 165.248 31.5115 165.16 31.499 165.071L32.1335 164.983C32.1451 165.065 32.1575 165.146 32.171 165.226L31.5393 165.333L31.5403 165.334Z" fill="#043D61"/>
<path d="M49.6539 154.092C48.9947 156.773 49.9839 160.376 49.8458 162.955C49.8103 163.614 48.3076 164.135 48.3076 164.135C48.3076 164.135 48.5062 164.84 48.9486 165.219C49.367 165.577 50.0377 165.665 50.0377 165.665L55.0369 164.805V163.21C55.0369 163.21 54.7807 163.146 53.8835 162.445C53.0056 161.759 51.5125 159.894 51.4482 157.917C51.4204 157.072 51.525 155.329 51.5902 154.351L55.9984 151.031C55.9984 151.031 58.6899 153.326 61.1895 153.582C62.3324 153.698 64.2658 153.646 64.2658 153.646C64.2658 153.646 64.4971 156.706 64.4577 157.918C64.3935 159.895 62.9004 161.76 62.0224 162.446C61.1252 163.147 60.869 163.211 60.869 163.211V164.806L65.8683 165.666C65.8683 165.666 66.539 165.577 66.9574 165.22C67.3997 164.842 67.5983 164.136 67.5983 164.136C67.5983 164.136 66.0957 163.615 66.0602 162.956C65.922 160.376 66.6378 156.825 66.2521 154.093C65.732 150.404 65.0661 149.495 64.522 148.863C63.1604 147.283 60.1004 146.504 57.9846 146.504C55.9945 146.504 53.4316 147.281 51.9606 148.608C51.7553 148.793 51.573 148.988 51.4012 149.183C50.1663 150.585 49.9648 152.827 49.6539 154.092Z" fill="#4E4D4D"/>
<path d="M54.8913 151.777L51.5242 154.313L51.4474 157.918C51.4474 157.918 50.534 155.095 50.4658 154.505C50.2566 152.706 50.5416 151.147 51.861 149.958C52.9654 148.962 54.8884 148.378 56.3824 148.378L54.8913 151.776V151.777Z" fill="#323333"/>
<path d="M55.8706 150.84C55.8706 150.84 57.7187 152.705 59.8383 153.271C61.3918 153.686 64.2657 153.646 64.2657 153.646L64.4576 154.858C64.4576 154.858 64.8424 154.029 64.8424 153.646C64.8424 151.669 62.9021 152.562 60.8046 152.052C58.707 151.542 55.8696 150.841 55.8696 150.841L55.8706 150.84Z" fill="#323333"/>
<path d="M56.9658 160.172C57.5406 160.743 58.4713 160.743 59.0461 160.172" stroke="#BE6E71" stroke-width="0.191909" stroke-linecap="round" stroke-linejoin="round"/>
<path d="M34.3213 160.172C34.8961 160.743 35.8268 160.743 36.4016 160.172" stroke="#BE6E71" stroke-width="0.191909" stroke-linecap="round" stroke-linejoin="round"/>
<g filter="url(#filter1_d_143_9833)">
<path d="M209.228 211.5C231.659 211.5 249.843 193.368 249.843 171C249.843 148.632 231.659 130.5 209.228 130.5C186.798 130.5 168.614 148.632 168.614 171C168.614 193.368 186.798 211.5 209.228 211.5Z" fill="white"/>
</g>
<path d="M208.662 193.325V194.127H205.714V195.196C205.714 195.652 205.604 195.864 205.258 196.006C204.904 196.124 204.433 196.132 203.788 196.132C203.725 195.896 203.568 195.526 203.426 195.29C203.93 195.314 204.488 195.314 204.637 195.306C204.786 195.306 204.841 195.275 204.841 195.173V194.127H201.909V193.325H204.841V192.838H205.242C205.47 192.7 205.694 192.539 205.903 192.374H203.246V191.635H206.697L206.877 191.596L207.428 192.005C206.984 192.476 206.366 192.971 205.738 193.325H208.662ZM208.568 190.259V192.099H207.703V191.022H202.821V192.099H202.004V190.259H203.057C202.916 190.004 202.711 189.705 202.522 189.458L203.254 189.135C203.521 189.434 203.827 189.843 203.945 190.134L203.686 190.259H204.912C204.814 189.961 204.613 189.587 204.425 189.3L205.187 189.01C205.423 189.355 205.683 189.803 205.785 190.126L205.423 190.259H206.594C206.842 189.906 207.109 189.45 207.255 189.104L208.19 189.387C207.982 189.682 207.754 189.988 207.538 190.259H208.568ZM215.847 190.432V191.273H213.276V192.665H215.564V193.49H213.276V195.07H216.24V195.904H209.417V195.07H212.38V193.49H210.297V192.665H212.38V191.273H210.776C210.549 191.706 210.305 192.091 210.053 192.398C209.888 192.248 209.511 191.997 209.291 191.871C209.888 191.234 210.376 190.197 210.643 189.151L211.523 189.348C211.425 189.713 211.303 190.083 211.162 190.432H212.38V189.057H213.276V190.432H215.847Z" fill="#221714"/>
<path d="M229.853 167.864L225.011 167.2V165.954H222.225V168.527H221.275V165.954H218.362V167.259L213.762 167.898C211.52 168.196 209.869 169.82 209.869 171.726V180.39H233.688V171.683C233.688 169.796 232.069 168.183 229.852 167.864H229.853Z" fill="#18191A"/>
<path d="M224.536 164.447H218.792V166.33L218.877 166.379C219.623 166.811 220.444 167.054 221.275 167.112V168.526H222.225V167.098C223.03 167.016 223.821 166.761 224.536 166.329V164.446V164.447Z" fill="#E1AD5D"/>
<path d="M221.75 171.455C222.073 171.455 222.334 171.196 222.334 170.877C222.334 170.558 222.073 170.299 221.75 170.299C221.428 170.299 221.167 170.558 221.167 170.877C221.167 171.196 221.428 171.455 221.75 171.455Z" fill="#E7A642"/>
<path d="M221.75 174.467C222.073 174.467 222.334 174.209 222.334 173.889C222.334 173.57 222.073 173.312 221.75 173.312C221.428 173.312 221.167 173.57 221.167 173.889C221.167 174.209 221.428 174.467 221.75 174.467Z" fill="#E7A642"/>
<path d="M221.75 177.481C222.073 177.481 222.334 177.222 222.334 176.903C222.334 176.584 222.073 176.325 221.75 176.325C221.428 176.325 221.167 176.584 221.167 176.903C221.167 177.222 221.428 177.481 221.75 177.481Z" fill="#E7A642"/>
<path d="M228.51 158.441C228.51 162.589 225.471 165.951 221.722 165.951C217.973 165.951 214.935 162.589 214.935 158.441C214.935 158.176 214.935 157.923 214.935 157.682C214.935 155.109 217.039 153.023 219.634 153.023H223.809C226.405 153.023 228.508 155.108 228.509 157.68C228.509 157.998 228.509 158.263 228.509 158.441H228.51Z" fill="#F3CB8D"/>
<path d="M214.727 155.687C214.727 155.687 214.73 154.465 214.73 158.532C214.73 160.898 215.791 163.183 217.541 164.529C218.798 165.496 220.077 165.954 221.792 165.954C221.792 165.954 218.086 163.88 217.122 161.621C216.277 159.641 216.768 155.687 216.768 155.687H214.727Z" fill="#EBBD76"/>
<path d="M225.283 159.286C225.283 159.055 225.096 158.868 224.864 158.868C224.633 158.868 224.445 159.055 224.445 159.286V159.628C224.445 159.859 224.633 160.046 224.864 160.046C225.096 160.046 225.283 159.859 225.283 159.628V159.286Z" fill="#231815"/>
<path d="M225.559 160.471H224.167C223.692 160.471 223.306 160.855 223.306 161.329C223.306 161.803 223.692 162.187 224.167 162.187H225.559C226.035 162.187 226.42 161.803 226.42 161.329C226.42 160.855 226.035 160.471 225.559 160.471Z" fill="#E9A48A"/>
<path d="M219.183 160.471H217.79C217.315 160.471 216.93 160.855 216.93 161.329C216.93 161.803 217.315 162.187 217.79 162.187H219.183C219.658 162.187 220.043 161.803 220.043 161.329C220.043 160.855 219.658 160.471 219.183 160.471Z" fill="#E9A48A"/>
<path d="M218.906 159.286C218.906 159.055 218.718 158.868 218.486 158.868C218.255 158.868 218.067 159.055 218.067 159.286V159.628C218.067 159.859 218.255 160.046 218.486 160.046C218.718 160.046 218.906 159.859 218.906 159.628V159.286Z" fill="#231815"/>
<path d="M223.373 153.126C223.549 153.067 223.808 153.024 223.808 153.024L225.708 154.95C226.326 155.575 227.124 155.996 227.993 156.154C228.05 156.733 228.494 160.054 227.987 161.498C227.987 161.498 229.317 158.987 229.38 157.481C229.38 157.459 229.432 155.284 229.254 154.595C228.283 150.833 226.307 148.945 221.813 148.945C220.495 148.945 219.249 149.305 218.149 149.925C214.76 151.834 213.289 155.92 214.601 159.559L215.324 161.561V157.607C215.324 157.607 218.019 157.213 218.87 156.854C220.11 156.329 220.803 155.446 221.34 154.72C222.037 153.778 222.733 153.339 223.375 153.127L223.373 153.126Z" fill="#4E4D4D"/>
<path d="M215.323 161.56C215.133 159.991 215.323 157.605 215.323 157.605L216.653 157.355C216.653 157.355 217.075 152.123 219.112 150.659C221.149 149.195 223.307 149.118 223.307 149.118C223.307 149.118 219.565 148.326 216.811 150.863C216.762 150.908 216.713 150.954 216.666 150.999C214.396 153.168 213.54 156.731 214.624 159.665L215.324 161.559L215.323 161.56Z" fill="#323333"/>
<path d="M229.388 180.407V175.283" stroke="#CBCBCB" stroke-width="0.0959547" stroke-miterlimit="10"/>
<path d="M214.507 180.407V175.283" stroke="#CBCBCB" stroke-width="0.0959547" stroke-miterlimit="10"/>
<path d="M208.551 180.407H184.731V171.599C184.731 169.693 186.382 168.07 188.625 167.772L196.741 166.644L204.714 167.737C206.93 168.056 208.551 169.669 208.551 171.556V180.407Z" fill="#18191A"/>
<path d="M196.7 175.493C196.7 175.493 199.524 173.381 200.505 171.727C201.398 170.221 201.927 167.37 201.927 167.37L196.7 166.644V168.527H196.691V166.644L191.465 167.37C191.465 167.37 191.994 170.221 192.887 171.727C193.868 173.381 196.691 175.493 196.691 175.493" fill="#B2B2B2"/>
<path d="M196.691 168.84L194.068 167.021L191.443 167.365L192.846 169.727C193.637 171.049 195.586 170.991 196.297 169.626L196.69 168.872V168.84H196.691Z" fill="#F1F1F1"/>
<path d="M196.706 168.84L199.328 167.021L201.954 167.365L200.551 169.727C199.759 171.049 197.81 170.991 197.099 169.626L196.707 168.872V168.84H196.706Z" fill="#F1F1F1"/>
<path d="M199.524 167.147L196.709 168.841L193.78 167.147V164.447H199.524V167.147Z" fill="#E1AD5D"/>
<path d="M203.499 158.441C203.499 162.589 200.461 165.951 196.712 165.951C192.963 165.951 189.924 162.589 189.924 158.441C189.924 158.176 189.924 157.923 189.924 157.682C189.924 155.109 192.028 153.023 194.624 153.023H198.799C201.394 153.023 203.498 155.108 203.499 157.68C203.499 157.998 203.499 158.263 203.499 158.441H203.499Z" fill="#F3CB8D"/>
<path d="M189.714 155.687C189.714 155.687 189.717 154.465 189.717 158.532C189.717 160.898 190.778 163.183 192.529 164.529C193.786 165.496 195.065 165.954 196.78 165.954C196.78 165.954 193.074 163.88 192.109 161.621C191.264 159.641 191.755 155.687 191.755 155.687H189.714Z" fill="#EBBD76"/>
<path d="M200.271 159.286C200.271 159.055 200.084 158.868 199.852 158.868C199.62 158.868 199.433 159.055 199.433 159.286V159.628C199.433 159.859 199.62 160.046 199.852 160.046C200.084 160.046 200.271 159.859 200.271 159.628V159.286Z" fill="#231815"/>
<path d="M200.548 160.471H199.156C198.68 160.471 198.295 160.855 198.295 161.329C198.295 161.803 198.68 162.187 199.156 162.187H200.548C201.023 162.187 201.409 161.803 201.409 161.329C201.409 160.855 201.023 160.471 200.548 160.471Z" fill="#E9A48A"/>
<path d="M194.171 160.471H192.779C192.303 160.471 191.918 160.855 191.918 161.329C191.918 161.803 192.303 162.187 192.779 162.187H194.171C194.646 162.187 195.032 161.803 195.032 161.329C195.032 160.855 194.646 160.471 194.171 160.471Z" fill="#E9A48A"/>
<path d="M193.894 159.286C193.894 159.055 193.706 158.868 193.474 158.868C193.243 158.868 193.055 159.055 193.055 159.286V159.628C193.055 159.859 193.243 160.046 193.474 160.046C193.706 160.046 193.894 159.859 193.894 159.628V159.286Z" fill="#231815"/>
<path d="M188.727 166.322H193.793V165.327C193.793 165.327 192.744 164.79 191.893 163.946C189.676 161.749 190.309 158.862 190.309 158.862L198.795 153.465L202.979 156.155C203.037 156.734 203.481 161.884 201.39 163.955C200.539 164.799 199.49 165.336 199.49 165.336V166.331H204.936C204.936 166.331 204.884 159.734 204.884 157.535C204.884 153.653 201.292 148.945 196.798 148.945C192.303 148.945 188.954 152.795 188.678 157.044L188.723 166.322H188.727Z" fill="#4E4D4D"/>
<path d="M191.615 158.031C191.615 158.031 192.062 152.123 194.099 150.659C196.137 149.195 198.295 149.118 198.295 149.118C198.295 149.118 194.552 148.326 191.798 150.863C189.045 153.4 188.769 156.26 188.717 156.65C188.666 157.041 188.728 166.321 188.728 166.321H193.793V165.326C193.793 165.326 192.02 164.51 190.944 162.627C189.867 160.744 190.31 158.861 190.31 158.861L191.614 158.031H191.615Z" fill="#323333"/>
<path d="M196.727 169.531C196.727 169.531 198.166 172.41 198.799 171.407C199.433 170.402 196.727 169.531 196.727 169.531Z" stroke="#B24B70" stroke-width="0.575728" stroke-linecap="round" stroke-linejoin="round"/>
<path d="M196.742 169.531C196.742 169.531 195.303 172.41 194.669 171.407C194.036 170.403 196.742 169.531 196.742 169.531Z" stroke="#B24B70" stroke-width="0.575728" stroke-linecap="round" stroke-linejoin="round"/>
<path d="M196.742 169.531L197.66 173.26" stroke="#B24B70" stroke-width="0.575728" stroke-linecap="round" stroke-linejoin="round"/>
<path d="M196.709 169.531L195.792 173.26" stroke="#B24B70" stroke-width="0.575728" stroke-linecap="round" stroke-linejoin="round"/>
<path d="M204.249 180.407V175.283" stroke="#CBCBCB" stroke-width="0.0959547" stroke-miterlimit="10"/>
<path d="M189.367 180.407V175.283" stroke="#CBCBCB" stroke-width="0.0959547" stroke-miterlimit="10"/>
<g filter="url(#filter2_d_143_9833)">
<path d="M127.678 86.7861C150.108 86.7861 168.292 68.6537 168.292 46.2861C168.292 23.9186 150.108 5.78613 127.678 5.78613C105.247 5.78613 87.0635 23.9186 87.0635 46.2861C87.0635 68.6537 105.247 86.7861 127.678 86.7861Z" fill="white"/>
</g>
<path d="M113.554 69.43C113.554 69.6849 113.594 69.7168 113.841 69.7168H114.55C114.781 69.7168 114.821 69.5734 114.861 68.6574C115.036 68.8008 115.41 68.9521 115.649 69.0079C115.562 70.2265 115.339 70.5451 114.63 70.5451H113.722C112.869 70.5451 112.678 70.2743 112.678 69.438V67.5264H111.523C111.348 68.9043 110.954 70.0473 109.19 70.6965C109.086 70.4734 108.847 70.123 108.64 69.9478C110.197 69.4499 110.484 68.5579 110.607 67.5264H108.76V66.6741H111.723V65.3918H110.376C110.197 65.794 109.998 66.1724 109.771 66.4671C109.564 66.3396 109.214 66.1485 108.991 66.0688C109.5 65.4396 109.867 64.4121 110.034 63.6156L110.926 63.7988C110.858 64.0417 110.779 64.3006 110.695 64.5634H111.723V63.5041H112.607V64.5634H114.972V65.3918H112.607V66.6741H115.57V67.5264H113.554V69.43ZM122.881 64.898V65.7502H120.277V67.16H122.595V67.9963H120.277V69.5973H123.28V70.4416H116.366V69.5973H119.369V67.9963H117.258V67.16H119.369V65.7502H117.744C117.513 66.1883 117.266 66.5786 117.011 66.8892C116.844 66.7379 116.462 66.483 116.239 66.3555C116.844 65.7104 117.338 64.659 117.609 63.5997L118.501 63.7988C118.401 64.1692 118.278 64.5435 118.134 64.898H119.369V63.5041H120.277V64.898H122.881ZM124.506 70.6407L129.222 63.7351H130.4L125.685 70.6407H124.506ZM138.541 67.8291V68.6415H135.554V69.7247C135.554 70.1867 135.442 70.4018 135.092 70.5451C134.733 70.6646 134.255 70.6726 133.602 70.6726C133.539 70.4336 133.379 70.0593 133.236 69.8203C133.746 69.8442 134.311 69.8442 134.463 69.8362C134.614 69.8362 134.67 69.8044 134.67 69.7008V68.6415H131.699V67.8291H134.67V67.3352H135.076C135.307 67.1959 135.534 67.0326 135.745 66.8653H133.053V66.1166H136.549L136.733 66.0768L137.29 66.491C136.84 66.9688 136.215 67.4706 135.578 67.8291H138.541ZM138.445 64.7227V66.5865H137.569V65.4953H132.623V66.5865H131.794V64.7227H132.862C132.718 64.4639 132.511 64.1612 132.32 63.9103L133.061 63.5837C133.332 63.8864 133.642 64.3006 133.762 64.5953L133.499 64.7227H134.741C134.642 64.4201 134.439 64.0417 134.248 63.751L135.02 63.4563C135.259 63.8067 135.522 64.2608 135.625 64.5873L135.259 64.7227H136.446C136.697 64.3643 136.968 63.9023 137.115 63.5519L138.063 63.8386C137.852 64.1373 137.621 64.4479 137.402 64.7227H138.445ZM146.243 64.5714V65.3838H142.005V64.5714H143.678V63.5041H144.53V64.5714H146.243ZM143.702 65.798C143.467 66.244 143.16 66.6941 142.834 67.0644L143.439 66.9051C143.598 67.3392 143.809 67.7494 144.076 68.1238C144.311 67.7255 144.483 67.2954 144.594 66.8414L145.398 67.0007C145.152 66.6104 144.813 66.1763 144.498 65.8299L145.175 65.4396C145.645 65.9334 146.171 66.5786 146.378 67.0485L145.645 67.4786C145.598 67.3631 145.534 67.2357 145.454 67.0963C145.255 67.7176 144.984 68.2871 144.634 68.7928C145.116 69.2827 145.713 69.669 146.402 69.9079C146.211 70.0991 145.932 70.4495 145.797 70.6805C145.12 70.4018 144.542 69.9916 144.06 69.4699C143.547 69.9836 142.901 70.3978 142.101 70.6805C142.013 70.4894 141.79 70.1708 141.655 69.9955C142.443 69.7287 143.065 69.3225 143.543 68.8167C143.208 68.3348 142.937 67.7853 142.722 67.1839C142.603 67.3113 142.483 67.4268 142.364 67.5264C142.228 67.3671 141.95 67.1122 141.774 66.9768C142.236 66.6104 142.674 66.0051 142.921 65.4714L143.702 65.798ZM141.918 65.0811V65.9015H141.074V66.3157C141.301 66.6064 141.902 67.5025 142.029 67.7255L141.567 68.3787C141.464 68.1238 141.265 67.7415 141.074 67.383V70.6646H140.269V67.6777C140.05 68.3189 139.791 68.9043 139.504 69.3026C139.417 69.0636 139.226 68.7211 139.09 68.5061C139.556 67.9008 139.982 66.8334 140.205 65.9015H139.273V65.0811H140.269V63.5041H141.074V65.0811H141.918Z" fill="#221714"/>
<path d="M153.167 36.1199H141.425V27.1571C141.425 26.7954 141.283 26.4548 141.039 26.2031C140.938 26.095 140.82 26.0022 140.687 25.9304L133.821 22.2236C133.567 22.0858 133.279 22.036 133 22.0705C132.721 22.0351 132.434 22.0858 132.179 22.2236L125.313 25.9304C125.18 26.0022 125.062 26.095 124.961 26.2031C124.718 26.4548 124.575 26.7954 124.575 27.1571V36.1199H112.833C112.076 36.1199 111.462 36.7351 111.462 37.493V53.7355C111.462 54.4942 112.076 55.1085 112.833 55.1085H153.166C153.923 55.1085 154.537 54.4933 154.537 53.7355V37.493C154.537 36.7342 153.923 36.1199 153.166 36.1199H153.167Z" fill="#72C8D5"/>
<path d="M132.827 27.9805C132.808 27.9805 132.79 27.9805 132.771 27.9805C132.753 27.9805 132.734 27.9805 132.716 27.9805C130.022 27.9805 127.839 30.1669 127.839 32.8652C127.839 35.5635 130.022 37.7499 132.716 37.7499C132.735 37.7499 132.753 37.748 132.771 37.748C132.791 37.748 132.809 37.7499 132.827 37.7499C135.521 37.7499 137.703 35.5635 137.703 32.8652C137.703 30.1669 135.521 27.9805 132.827 27.9805Z" fill="#32A2D3"/>
<path d="M148.718 40.2402H144.883C144.36 40.2402 143.936 40.6631 143.936 41.1846V43.4342C143.936 43.9558 144.36 44.3786 144.883 44.3786H148.718C149.241 44.3786 149.665 43.9558 149.665 43.4342V41.1846C149.665 40.6631 149.241 40.2402 148.718 40.2402Z" fill="#32A2D3"/>
<path d="M148.718 47.4531H144.883C144.36 47.4531 143.936 47.876 143.936 48.3975V50.6471C143.936 51.1687 144.36 51.5915 144.883 51.5915H148.718C149.241 51.5915 149.665 51.1687 149.665 50.6471V48.3975C149.665 47.876 149.241 47.4531 148.718 47.4531Z" fill="#32A2D3"/>
<path d="M130.713 44.8867H134.26C135.855 44.8867 137.149 46.1775 137.149 47.7678V55.1508H127.825V47.7678C127.825 46.1775 129.12 44.8867 130.714 44.8867H130.713Z" fill="#32A2D3"/>
<path d="M132.645 30.8408V32.8971L134.294 34.4223" stroke="white" stroke-width="0.959547" stroke-linecap="round" stroke-linejoin="round"/>
<g filter="url(#filter3_d_143_9833)">
<path d="M122.842 55.0903H102.858V45.5582C102.858 44.0377 104.244 42.525 106.125 42.2877L112.935 41.2246L119.625 42.2599C121.485 42.5144 122.843 44.0186 122.843 45.5237V55.0893L122.842 55.0903Z" fill="#138C43"/>
<path d="M116.715 41.8999C116.715 41.8999 115.018 44.9896 112.924 44.9896C110.83 44.9896 109.133 41.8999 109.133 41.8999L112.924 41.4043L116.715 41.8999Z" fill="#999999"/>
<path d="M112.917 42.9779L115.118 41.5254L117.267 41.9014L114.617 44.7548L112.917 43.0028V42.9779Z" fill="#F2F2F2"/>
<path d="M112.893 42.9779L110.693 41.5254L108.543 41.9014L111.194 44.7548L112.893 43.0028V42.9779Z" fill="#F2F2F2"/>
<path d="M115.31 41.8396L112.9 43.3054L110.391 41.8396V39.5029H115.31V41.8396Z" fill="#F2C277"/>
<path d="M118.664 34.3055C118.664 37.8956 116.062 40.8054 112.851 40.8054C109.64 40.8054 107.038 37.8956 107.038 34.3055C107.038 34.0768 107.038 33.851 107.038 33.6281C107.038 30.4121 109.64 27.8057 112.851 27.8057C116.061 27.8057 118.663 30.4121 118.664 33.6281C118.664 33.9314 118.664 34.1677 118.664 34.3065V34.3055Z" fill="#F9CF90"/>
<path d="M107.039 31.9208C107.039 31.9208 107.041 30.8635 107.041 34.3828C107.041 36.4314 107.95 38.4082 109.448 39.5737C110.525 40.4109 111.621 40.8061 113.089 40.8061C113.089 40.8061 109.764 39.0685 109.09 37.0562C108.471 35.2105 109.663 29.4521 109.663 29.4521L107.038 31.9199L107.039 31.9208Z" fill="#F2C277"/>
<path d="M115.949 35.0307C115.949 34.8331 115.789 34.6729 115.59 34.6729C115.392 34.6729 115.231 34.8331 115.231 35.0307V35.334C115.231 35.5317 115.392 35.6919 115.59 35.6919C115.789 35.6919 115.949 35.5317 115.949 35.334V35.0307Z" fill="#231815"/>
<path d="M116.179 36.0605H115.001C114.59 36.0605 114.257 36.393 114.257 36.8031C114.257 37.2131 114.59 37.5456 115.001 37.5456H116.179C116.59 37.5456 116.923 37.2131 116.923 36.8031C116.923 36.393 116.59 36.0605 116.179 36.0605Z" fill="#F2A88D"/>
<path d="M110.718 36.0605H109.541C109.129 36.0605 108.796 36.393 108.796 36.8031C108.796 37.2131 109.129 37.5456 109.541 37.5456H110.718C111.129 37.5456 111.462 37.2131 111.462 36.8031C111.462 36.393 111.129 36.0605 110.718 36.0605Z" fill="#F2A88D"/>
<path d="M110.487 35.0307C110.487 34.8331 110.326 34.6729 110.128 34.6729C109.93 34.6729 109.769 34.8331 109.769 35.0307V35.334C109.769 35.5317 109.93 35.6919 110.128 35.6919C110.326 35.6919 110.487 35.5317 110.487 35.334V35.0307Z" fill="#231815"/>
<path d="M109.151 33.7178H111.112C111.717 33.7178 112.207 34.2067 112.207 34.8095C112.207 35.9463 111.282 36.8687 110.142 36.8687H110.121C108.981 36.8687 108.056 35.9463 108.056 34.8095C108.056 34.2067 108.546 33.7178 109.151 33.7178Z" stroke="#5F3819" stroke-width="0.671683" stroke-miterlimit="10"/>
<path d="M114.573 33.7178H116.534C117.139 33.7178 117.629 34.2067 117.629 34.8095C117.629 35.9463 116.704 36.8687 115.564 36.8687H115.543C114.403 36.8687 113.478 35.9463 113.478 34.8095C113.478 34.2067 113.968 33.7178 114.573 33.7178Z" stroke="#5F3819" stroke-width="0.671683" stroke-miterlimit="10"/>
<path d="M113.478 34.8662H112.206" stroke="#5F3819" stroke-width="0.671683" stroke-miterlimit="10"/>
<path d="M118.852 55.0902C118.852 55.0902 118.888 49.949 119.133 48.1396" stroke="#046535" stroke-width="0.191909" stroke-miterlimit="10"/>
<path d="M107.093 55.0902C107.093 55.0902 107.058 49.949 106.812 48.1396" stroke="#046535" stroke-width="0.191909" stroke-miterlimit="10"/>
<path d="M106.171 32.93C105.935 30.8881 106.583 28.8481 108.069 27.498C109.315 26.367 110.67 25.9766 112.354 25.9766C115.391 25.9766 117.18 27.7152 117.18 27.7152C117.18 27.7152 118.435 27.5037 119.078 28.2041C119.877 29.0739 119.729 31.4631 119.295 32.6582C119.138 33.0917 118.698 34.7767 118.698 34.7767C118.698 34.7767 118.644 32.2238 117.831 32.0602C117.111 31.9157 115.49 32.3769 114.522 32.2774C112.408 32.0602 111.724 30.2613 109.424 30.7024C106.876 31.1914 107.146 35.4283 107.146 35.4283C107.146 35.4283 106.247 33.5998 106.17 32.929L106.171 32.93Z" fill="#4E4D4D"/>
<path d="M109.968 30.648C106.984 30.5179 107.164 35.4284 107.164 35.4284C107.164 35.4284 106.489 34.0544 106.431 33.5511C106.254 32.0173 107.062 29.9782 108.179 28.964C109.114 28.1143 110.044 28.054 111.27 28.3669C113.674 28.9793 113.982 32.1694 113.982 32.1694C113.982 32.1694 113.421 32.0766 112.898 31.735C111.65 30.9198 111.216 30.7026 109.969 30.649L109.968 30.648Z" fill="#333333"/>
</g>
<path d="M124.051 26.9842L132.725 22.2344L141.851 26.9842" stroke="#32A2D3" stroke-width="2.87864" stroke-linecap="round" stroke-linejoin="round"/>
<path d="M126.388 42.0264C127.028 42.6644 128.064 42.6644 128.704 42.0264" stroke="#BE6E71" stroke-width="0.21363" stroke-linecap="round" stroke-linejoin="round"/>
<rect x="90.2871" y="107.015" width="74.7817" height="34.1675" rx="17.0838" fill="#85C500"/>
<path d="M117.03 115.824H119.37V116.559H117.03V115.824ZM119.119 115.824H119.254L119.383 115.792L119.886 115.927C119.609 118.802 118.629 120.472 116.94 121.388C116.83 121.181 116.605 120.865 116.431 120.711C117.946 120.014 118.887 118.371 119.119 115.985V115.824ZM117.784 116.495C118.068 118.409 118.706 120.014 120.079 120.743C119.899 120.891 119.654 121.194 119.538 121.407C118.049 120.517 117.423 118.822 117.069 116.604L117.784 116.495ZM114.226 115.824H116.34V116.559H114.226V115.824ZM116.082 115.824H116.211L116.347 115.792L116.843 115.934C116.605 118.538 115.857 120.343 114.561 121.401C114.439 121.207 114.187 120.911 114 120.775C115.154 119.95 115.883 118.132 116.082 115.998V115.824ZM114.181 117.5L114.754 117.043C115.573 117.939 116.566 119.138 116.979 119.969L116.327 120.517C115.954 119.686 114.999 118.429 114.181 117.5ZM120.55 116.379H126.397V117.12H120.55V116.379ZM122.703 117.958H125.172V118.693H122.703V117.958ZM124.889 117.958H125.688C125.688 117.958 125.682 118.19 125.662 118.293C125.546 120.06 125.411 120.788 125.153 121.072C124.96 121.278 124.753 121.342 124.457 121.375C124.212 121.394 123.78 121.388 123.348 121.375C123.335 121.149 123.219 120.827 123.071 120.614C123.516 120.653 123.973 120.653 124.16 120.653C124.302 120.653 124.392 120.646 124.476 120.575C124.669 120.408 124.792 119.673 124.882 118.08L124.889 117.958ZM122.413 116.817H123.283C123.187 118.545 123.013 120.427 120.988 121.446C120.872 121.239 120.64 120.956 120.434 120.795C122.31 119.924 122.349 118.287 122.413 116.817ZM123.038 115.315H123.838V116.669H123.038V115.315ZM127.19 116.43H132.045V117.184H127.957V121.394H127.19V116.43ZM131.767 116.43H132.547V120.504C132.547 120.923 132.457 121.143 132.186 121.265C131.909 121.388 131.497 121.407 130.916 121.407C130.884 121.188 130.768 120.827 130.658 120.62C131.039 120.646 131.477 120.646 131.606 120.64C131.729 120.64 131.767 120.608 131.767 120.492V116.43ZM129.311 115.347L130.304 115.489C130.078 116.005 129.801 116.533 129.595 116.888L128.847 116.72C129.027 116.327 129.221 115.766 129.311 115.347ZM128.589 117.81H129.292V120.472H128.589V117.81ZM128.892 117.81H131.123V120.021H128.892V119.344H130.407V118.487H128.892V117.81ZM133.94 116.391H135.919V120.737H133.94V120.053H135.216V117.068H133.94V116.391ZM133.489 116.391H134.191V121.214H133.489V116.391ZM133.908 118.113H135.558V118.783H133.908V118.113ZM134.404 115.341L135.249 115.463C135.1 115.901 134.939 116.359 134.81 116.662L134.191 116.527C134.282 116.192 134.372 115.695 134.404 115.341ZM136.77 116.346H138.652V117.049H136.77V116.346ZM138.388 116.346H139.104C139.104 116.346 139.104 116.598 139.097 116.694C139.013 119.595 138.936 120.62 138.672 120.962C138.491 121.214 138.311 121.284 138.046 121.323C137.801 121.362 137.408 121.355 137.034 121.336C137.021 121.123 136.918 120.795 136.776 120.588C137.195 120.62 137.582 120.627 137.743 120.627C137.872 120.627 137.943 120.601 138.027 120.511C138.233 120.292 138.317 119.183 138.388 116.495V116.346ZM136.789 115.347L137.531 115.521C137.279 116.475 136.86 117.455 136.422 118.074C136.28 117.945 135.964 117.726 135.784 117.623C136.216 117.081 136.583 116.204 136.789 115.347ZM136.473 118.203L137.079 117.861C137.395 118.306 137.821 118.925 138.021 119.305L137.363 119.705C137.189 119.312 136.783 118.68 136.473 118.203ZM98.9843 127.243C99.2293 127.269 99.5581 127.288 99.7837 127.288H103.033C103.22 127.288 103.484 127.275 103.594 127.269C103.587 127.424 103.574 127.675 103.574 127.868V131.208C103.574 131.434 103.594 131.769 103.607 131.969H102.672C102.678 131.775 102.685 131.543 102.685 131.305V128.12H99.7837C99.513 128.12 99.1648 128.133 98.9843 128.146V127.243ZM98.907 130.744C99.1262 130.763 99.4163 130.782 99.7064 130.782H103.194V131.633H99.7321C99.4807 131.633 99.1197 131.646 98.907 131.672V130.744ZM106.192 126.773C107.043 126.876 108.899 127.256 109.712 127.54L109.383 128.339C108.629 128.062 106.804 127.656 105.895 127.54L106.192 126.773ZM105.902 128.507C106.824 128.661 108.461 129.016 109.267 129.293L108.951 130.099C108.216 129.815 106.559 129.441 105.599 129.287L105.902 128.507ZM105.566 130.357C106.675 130.525 108.654 130.989 109.544 131.317L109.189 132.123C108.319 131.769 106.276 131.324 105.244 131.163L105.566 130.357ZM115.63 128.752C115.604 128.835 115.578 128.952 115.572 129.022C115.507 129.474 115.288 130.937 115.211 131.401H114.321C114.405 130.976 114.598 129.732 114.63 129.3C114.321 129.3 113.07 129.3 112.883 129.3C112.684 129.3 112.426 129.313 112.239 129.325V128.474C112.413 128.5 112.709 128.52 112.877 128.52C113.206 128.52 114.224 128.52 114.534 128.52C114.663 128.52 114.927 128.494 115.011 128.449L115.63 128.752ZM111.652 131.085C111.82 131.105 112.065 131.124 112.284 131.124C112.671 131.124 115.352 131.124 115.668 131.124C115.83 131.124 116.133 131.111 116.3 131.092V131.923C116.165 131.917 115.849 131.911 115.681 131.911C115.346 131.911 112.613 131.911 112.284 131.911C112.058 131.911 111.891 131.917 111.652 131.93V131.085ZM118.215 127.443C118.453 127.469 118.75 127.482 118.976 127.482C119.517 127.482 121.29 127.482 121.644 127.482C121.902 127.482 122.173 127.469 122.36 127.443V128.378C122.173 128.371 121.87 128.358 121.644 128.358C121.303 128.358 119.337 128.358 118.976 128.358C118.731 128.358 118.434 128.371 118.215 128.378V127.443ZM117.673 130.602C117.925 130.615 118.228 130.641 118.486 130.641C118.892 130.641 121.78 130.641 122.186 130.641C122.399 130.641 122.676 130.621 122.895 130.602V131.588C122.663 131.562 122.373 131.543 122.186 131.543C121.78 131.543 118.892 131.543 118.486 131.543C118.228 131.543 117.918 131.562 117.673 131.588V130.602ZM126.396 126.773C126.325 126.94 126.241 127.159 126.183 127.301C126.073 127.624 125.874 128.101 125.706 128.429C125.448 128.939 125.01 129.558 124.584 129.938L123.772 129.448C124.236 129.106 124.649 128.526 124.894 128.12C125.068 127.823 125.19 127.482 125.268 127.237C125.338 127.024 125.39 126.779 125.403 126.579L126.396 126.773ZM125.377 127.772C125.893 127.772 128.343 127.772 128.787 127.772C128.949 127.772 129.245 127.759 129.458 127.727V128.603C129.213 128.584 128.936 128.584 128.787 128.584C128.336 128.584 125.893 128.584 125.313 128.584L125.377 127.772ZM127.898 128.236C127.853 130.138 127.176 131.395 125.932 132.175L125.061 131.595C125.293 131.498 125.519 131.369 125.667 131.24C126.402 130.679 126.976 129.79 127.002 128.236H127.898ZM130.476 128.835C130.715 128.855 131.179 128.881 131.514 128.881C132.275 128.881 134.402 128.881 134.976 128.881C135.279 128.881 135.563 128.848 135.737 128.835V129.854C135.582 129.848 135.253 129.815 134.983 129.815C134.396 129.815 132.275 129.815 131.514 129.815C131.153 129.815 130.721 129.835 130.476 129.854V128.835ZM138.132 126.721C138.557 126.953 139.266 127.404 139.602 127.643L139.125 128.352C138.763 128.101 138.093 127.669 137.668 127.43L138.132 126.721ZM136.939 131.298C137.661 131.176 138.428 130.956 139.131 130.57C140.227 129.957 141.129 129.074 141.639 128.152L142.135 129.029C141.542 129.925 140.627 130.737 139.576 131.35C138.918 131.717 137.99 132.04 137.423 132.143L136.939 131.298ZM137.139 128.191C137.571 128.423 138.28 128.861 138.615 129.1L138.138 129.822C137.777 129.564 137.107 129.132 136.675 128.9L137.139 128.191ZM143.895 128.184C144.063 128.197 144.456 128.21 144.694 128.21C145.223 128.21 146.603 128.21 147.138 128.21C147.286 128.21 147.525 128.204 147.628 128.197C147.621 128.288 147.621 128.5 147.621 128.636C147.621 128.894 147.621 131.356 147.621 131.865C147.621 131.969 147.628 132.194 147.628 132.304H146.822C146.828 132.201 146.828 131.956 146.828 131.827C146.828 131.169 146.828 129.151 146.828 128.939C146.577 128.939 145.217 128.939 144.694 128.939C144.456 128.939 144.056 128.952 143.895 128.958V128.184ZM144.063 129.693C144.23 129.706 144.527 129.712 144.772 129.712C145.088 129.712 147.028 129.712 147.202 129.712V130.447C147.022 130.447 145.088 130.447 144.772 130.447C144.527 130.447 144.217 130.447 144.063 130.46V129.693ZM143.831 131.272C143.934 131.285 144.153 131.298 144.385 131.298C144.785 131.298 146.931 131.298 147.209 131.298V132.052C146.854 132.052 144.785 132.052 144.385 132.052C144.198 132.052 143.934 132.065 143.831 132.065V131.272ZM150.464 126.921C150.909 127.224 151.747 127.894 152.128 128.288L151.47 128.958C151.135 128.597 150.322 127.894 149.852 127.572L150.464 126.921ZM149.652 131.214C150.664 131.072 151.496 130.744 152.121 130.376C153.223 129.719 154.062 128.739 154.474 127.868L154.97 128.771C154.487 129.648 153.63 130.537 152.592 131.163C151.934 131.556 151.102 131.911 150.2 132.065L149.652 131.214Z" fill="white"/>
<defs>
<filter id="filter0_d_143_9833" x="0.366485" y="124.998" width="92.811" height="92.5825" filterUnits="userSpaceOnUse" color-interpolation-filters="sRGB">
<feFlood flood-opacity="0" result="BackgroundImageFix"/>
<feColorMatrix in="SourceAlpha" type="matrix" values="0 0 0 0 0 0 0 0 0 0 0 0 0 0 0 0 0 0 127 0" result="hardAlpha"/>
<feOffset dy="0.289561"/>
<feGaussianBlur stdDeviation="2.89561"/>
<feComposite in2="hardAlpha" operator="out"/>
<feColorMatrix type="matrix" values="0 0 0 0 0 0 0 0 0 0 0 0 0 0 0 0 0 0 0.1 0"/>
<feBlend mode="normal" in2="BackgroundImageFix" result="effect1_dropShadow_143_9833"/>
<feBlend mode="normal" in="SourceGraphic" in2="effect1_dropShadow_143_9833" result="shape"/>
</filter>
<filter id="filter1_d_143_9833" x="162.823" y="124.998" width="92.811" height="92.5825" filterUnits="userSpaceOnUse" color-interpolation-filters="sRGB">
<feFlood flood-opacity="0" result="BackgroundImageFix"/>
<feColorMatrix in="SourceAlpha" type="matrix" values="0 0 0 0 0 0 0 0 0 0 0 0 0 0 0 0 0 0 127 0" result="hardAlpha"/>
<feOffset dy="0.289561"/>
<feGaussianBlur stdDeviation="2.89561"/>
<feComposite in2="hardAlpha" operator="out"/>
<feColorMatrix type="matrix" values="0 0 0 0 0 0 0 0 0 0 0 0 0 0 0 0 0 0 0.1 0"/>
<feBlend mode="normal" in2="BackgroundImageFix" result="effect1_dropShadow_143_9833"/>
<feBlend mode="normal" in="SourceGraphic" in2="effect1_dropShadow_143_9833" result="shape"/>
</filter>
<filter id="filter2_d_143_9833" x="81.2722" y="0.284465" width="92.811" height="92.5825" filterUnits="userSpaceOnUse" color-interpolation-filters="sRGB">
<feFlood flood-opacity="0" result="BackgroundImageFix"/>
<feColorMatrix in="SourceAlpha" type="matrix" values="0 0 0 0 0 0 0 0 0 0 0 0 0 0 0 0 0 0 127 0" result="hardAlpha"/>
<feOffset dy="0.289561"/>
<feGaussianBlur stdDeviation="2.89561"/>
<feComposite in2="hardAlpha" operator="out"/>
<feColorMatrix type="matrix" values="0 0 0 0 0 0 0 0 0 0 0 0 0 0 0 0 0 0 0.1 0"/>
<feBlend mode="normal" in2="BackgroundImageFix" result="effect1_dropShadow_143_9833"/>
<feBlend mode="normal" in="SourceGraphic" in2="effect1_dropShadow_143_9833" result="shape"/>
</filter>
<filter id="filter3_d_143_9833" x="99.5935" y="20.5359" width="30.8666" height="39.9955" filterUnits="userSpaceOnUse" color-interpolation-filters="sRGB">
<feFlood flood-opacity="0" result="BackgroundImageFix"/>
<feColorMatrix in="SourceAlpha" type="matrix" values="0 0 0 0 0 0 0 0 0 0 0 0 0 0 0 0 0 0 127 0" result="hardAlpha"/>
<feOffset dx="2.17625"/>
<feGaussianBlur stdDeviation="2.72032"/>
<feColorMatrix type="matrix" values="0 0 0 0 1 0 0 0 0 1 0 0 0 0 1 0 0 0 0.7 0"/>
<feBlend mode="normal" in2="BackgroundImageFix" result="effect1_dropShadow_143_9833"/>
<feBlend mode="normal" in="SourceGraphic" in2="effect1_dropShadow_143_9833" result="shape"/>
</filter>
</defs>
</svg>
