<svg width="436" height="371" viewBox="0 0 436 371" fill="none" xmlns="http://www.w3.org/2000/svg">
<path d="M48.9168 133.796C50.3302 133.76 51.2254 133.089 51.2254 132.064C51.2254 130.934 50.13 130.262 48.2808 130.262C48.1159 130.262 47.9569 130.268 47.7979 130.274V132.889C47.7979 134.22 47.2679 134.797 46.0547 134.797C44.4175 134.797 43.2044 133.772 43.2044 132.37C43.2044 130.892 44.5294 129.744 46.5376 129.308V127.671H43.5695V126.576H46.5376V125.256H47.7979V126.576H50.554V127.671H47.7979V129.143C47.9746 129.137 48.1571 129.131 48.3397 129.131C50.978 129.131 52.5445 130.203 52.5445 132.029C52.5445 133.725 51.1783 134.915 49.1642 134.962L48.9168 133.796ZM52.4974 128.931C52.097 128.048 51.5669 127.188 50.9074 126.422L51.9674 125.822C52.627 126.623 53.1334 127.424 53.5928 128.425L52.4974 128.931ZM44.4647 132.359C44.4647 133.077 45.0771 133.643 45.878 133.643C46.3727 133.643 46.5376 133.442 46.5376 132.794V130.474C45.2832 130.81 44.4647 131.511 44.4647 132.359ZM64.2168 125.916V134.985H63.0625V134.279H61.0955V135.127H59.9884V125.916H64.2168ZM57.6798 129.131V129.449H59.6586V130.533H57.6092C57.5797 130.733 57.5503 130.939 57.5149 131.146C58.0921 131.705 59.3818 133.16 59.7057 133.537L58.9401 134.502C58.5573 133.931 57.8153 132.989 57.2323 132.276C56.8495 133.442 56.1663 134.567 54.9826 135.421C54.8413 135.197 54.4173 134.738 54.1935 134.573C55.76 133.448 56.2959 131.941 56.4785 130.533H54.3348V129.449H56.5491V129.108V127.447H55.9131C55.6599 128.071 55.3772 128.637 55.0651 129.084C54.8648 128.908 54.4173 128.59 54.1699 128.425C54.7824 127.589 55.2417 126.269 55.4773 124.927L56.5727 125.15C56.4902 125.574 56.3901 125.993 56.2664 126.399H59.3641V127.447H57.6798V129.131ZM61.0955 133.219H63.0625V126.988H61.0955V133.219ZM70.7655 134.844C69.5405 134.844 67.9387 134.679 66.8904 134.443L67.0082 133.289C68.3274 133.537 69.7525 133.69 70.7655 133.69C72.9091 133.69 74.028 133.042 74.028 131.805C74.028 130.769 73.2389 130.203 71.7902 130.203C70.3179 130.203 68.7278 130.757 67.6913 131.628L66.5017 131.381C66.7962 129.944 66.9729 128.861 67.0906 127.812L68.3745 127.918C68.3038 128.619 68.1978 129.355 68.0682 130.097C69.199 129.414 70.4769 129.049 71.8608 129.049C74.1694 129.049 75.3707 129.979 75.3707 131.77C75.3707 133.807 73.8042 134.844 70.7655 134.844ZM74.0516 127.176C71.9433 127.212 70.153 127.106 68.0918 126.835L68.2331 125.68C70.1648 125.904 72.1317 126.022 74.0516 126.022V127.176ZM82.6615 134.915C79.5167 134.915 78.7864 134.396 78.7864 132.123V128.613L76.8077 128.66V127.541L78.7864 127.494V125.645H80.1056V127.471L84.1926 127.377V125.421H85.5V127.341L87.4788 127.306V128.437L85.5 128.472V130.722C85.5 131.758 85.182 132.123 84.2162 132.123C83.5095 132.123 82.5201 131.923 81.6485 131.605L81.9194 130.451C82.9559 130.757 83.4388 130.851 83.8275 130.851C84.122 130.851 84.1926 130.78 84.1926 130.286V128.507L80.1056 128.59V132.123C80.1056 133.537 80.4472 133.76 82.6615 133.76C83.804 133.76 85.1349 133.69 86.3363 133.537L86.4305 134.714C85.2056 134.844 83.8157 134.915 82.6615 134.915ZM53.2866 151.334V152.382H48.8108V154.196C48.8108 154.82 48.6577 155.115 48.1748 155.303C47.6801 155.456 46.997 155.468 46.0076 155.468C45.9252 155.162 45.7131 154.679 45.5365 154.373C46.3256 154.396 47.1383 154.396 47.3621 154.385C47.5977 154.385 47.6566 154.326 47.6566 154.173V152.382H43.2162V151.334H47.6566V150.568H48.2101C48.6165 150.339 49.0346 150.056 49.3997 149.767H45.1713V148.778H50.4833L50.7307 148.731L51.4491 149.273C50.7719 149.979 49.7884 150.727 48.8108 151.24V151.334H53.2866ZM53.1217 146.764V149.438H51.9909V147.777H44.4647V149.438H43.3928V146.764H45.0182C44.8003 146.364 44.4647 145.881 44.1584 145.492L45.1125 145.056C45.5247 145.527 45.9958 146.14 46.1725 146.576L45.7838 146.764H47.7979C47.6507 146.305 47.3385 145.704 47.0323 145.256L48.0335 144.868C48.3986 145.398 48.7755 146.093 48.9286 146.576L48.4221 146.764H50.2595C50.6541 146.234 51.0899 145.533 51.3314 145.009L52.5445 145.386C52.2147 145.851 51.8555 146.34 51.508 146.764H53.1217ZM63.3216 150.733V155.492H62.1438V155.056H57.0085V155.492H55.8778V150.733H58.5514C58.6574 150.474 58.7752 150.186 58.8577 149.932C58.7988 149.979 58.734 150.015 58.6574 150.05C58.3276 150.192 57.8565 150.18 57.1616 150.18C57.1145 149.932 56.9731 149.603 56.8671 149.367C57.3029 149.379 57.7387 149.379 57.8683 149.379C58.0096 149.379 58.0685 149.332 58.0685 149.214V146.364H54.6293V145.468H59.0814V149.214C59.0814 149.42 59.0638 149.573 59.0226 149.697L60.1415 149.873C59.9884 150.174 59.8235 150.468 59.6704 150.733H63.3216ZM64.1932 145.468V149.214C64.1932 149.697 64.0872 149.932 63.7456 150.085C63.3923 150.227 62.874 150.227 62.132 150.227C62.0849 149.956 61.9436 149.591 61.8258 149.343C62.2851 149.367 62.8034 149.367 62.9329 149.379C63.0978 149.343 63.1214 149.32 63.1214 149.19V146.364H60.5537C61.0837 146.599 61.7374 147.005 62.0613 147.306L61.4842 148.048C61.178 147.73 60.5184 147.294 59.9884 147L60.5184 146.364H59.741V145.468H64.1932ZM59.4466 148.813C60.2357 148.566 61.4371 148.166 62.5914 147.742L62.768 148.578C61.7551 148.955 60.6833 149.355 59.8235 149.65L59.4466 148.813ZM54.323 149.002C55.1004 148.79 56.2193 148.389 57.3383 147.977L57.4914 148.802C56.5491 149.202 55.548 149.626 54.7471 149.944L54.323 149.002ZM55.5598 146.364C56.078 146.623 56.7376 147.035 57.032 147.353L56.4549 148.071C56.1604 147.753 55.5126 147.294 54.9944 147.011L55.5598 146.364ZM57.0085 154.196H62.1438V153.313H57.0085V154.196ZM57.0085 152.453H62.1438V151.605H57.0085V152.453ZM75.465 146.846V154.102C75.465 154.761 75.3236 155.091 74.8996 155.28C74.452 155.456 73.7454 155.456 72.7324 155.456C72.6971 155.138 72.5204 154.632 72.3555 154.337C73.0858 154.361 73.8396 154.349 74.0516 154.361C74.2872 154.361 74.346 154.279 74.346 154.078V147.954H71.4133C71.3956 148.389 71.3426 148.849 71.2484 149.308C72.2907 150.25 73.5628 151.481 74.2283 152.3L73.286 153.042C72.7795 152.347 71.8019 151.316 70.8832 150.427C70.4416 151.446 69.6583 152.435 68.292 153.242C68.1271 152.995 67.7502 152.571 67.4793 152.382C69.7879 151.163 70.1942 149.402 70.259 147.954H67.3615V155.48H66.2426V146.846H70.2708V144.938H71.425V146.846H75.465ZM81.2481 147.659C80.5296 148.66 79.3753 149.626 78.3271 150.227C78.1622 149.991 77.7617 149.532 77.5379 149.332C78.5391 148.861 79.552 148.083 80.1527 147.294L81.2481 147.659ZM83.7569 147.27C84.7344 147.859 86.0301 148.766 86.6543 149.391L85.8063 150.133C85.2291 149.508 83.9689 148.554 82.9677 147.93L83.7569 147.27ZM82.1668 149.673C81.6839 150.298 80.9536 150.987 80.0938 151.617H84.3811C83.4977 151.004 82.6968 150.321 82.1668 149.673ZM82.6968 144.938V145.892H86.9488V148.166H85.7827V146.929H78.4566V148.166H77.3613V145.892H81.5308V144.938H82.6968ZM76.9726 152.123C78.8689 151.346 80.671 149.873 81.5425 148.649H82.6968C83.8864 150.109 85.7356 151.334 87.467 151.958C87.2079 152.241 86.9488 152.665 86.7721 152.995C86.3127 152.783 85.8239 152.529 85.3469 152.241V155.445H84.1926V155.115H80.082V155.468H79.0102V152.335C78.5568 152.618 78.0856 152.871 77.6086 153.089C77.4791 152.818 77.1964 152.382 76.9726 152.123ZM80.082 154.125H84.1926V152.606H80.082V154.125Z" fill="black"/>
<path d="M129.656 161.425C129.656 163.368 129.491 166.23 128.29 168.079C128.078 167.903 127.583 167.62 127.289 167.514C128.431 165.759 128.525 163.215 128.525 161.425V158.115H137.076V161.342H129.656V161.425ZM134.191 161.378V162.579H137.218V168.079H136.122V167.714H131.258V168.079H130.198V162.579H133.083V161.378H134.191ZM129.656 160.318H135.934V159.14H129.656V160.318ZM131.258 166.713H133.083V165.559H131.258V166.713ZM131.258 164.64H133.083V163.58H131.258V164.64ZM134.191 166.713H136.122V165.559H134.191V166.713ZM134.191 164.64H136.122V163.58H134.191V164.64ZM144.485 157.656V161.578H146.829V158.633H148.018V162.661H144.485V166.301H147.3V163.333H148.478V168.079H147.3V167.408H140.633V168.091H139.503V163.333H140.633V166.301H143.307V162.661H139.938V158.633H141.069V161.578H143.307V157.656H144.485ZM152.035 166.419L151.045 169.717H149.926L150.539 166.419H152.035ZM166.628 158.209V167.95H165.485V167.337H162.47V167.997H161.375V158.209H166.628ZM160.951 159.941V161.012H159.443V161.849C159.855 162.284 160.827 163.451 161.057 163.745L160.409 164.652C160.215 164.281 159.814 163.68 159.443 163.144V168.091H158.348V163.191C157.947 164.322 157.447 165.376 156.899 166.065C156.793 165.759 156.534 165.3 156.357 165.017C157.117 164.104 157.835 162.455 158.218 161.012H156.628V159.941H158.348V157.573H159.443V159.941H160.951ZM162.47 166.313H165.485V164.628H162.47V166.313ZM162.47 163.592H165.485V161.908H162.47V163.592ZM162.47 160.895H165.485V159.269H162.47V160.895ZM175.756 163.992C175.756 164.699 176.204 166.313 178.383 167.149C178.182 167.408 177.876 167.832 177.735 168.115C176.168 167.514 175.367 166.148 175.179 165.465C174.979 166.148 174.107 167.455 172.364 168.115C172.234 167.867 171.94 167.42 171.74 167.196C174.107 166.36 174.602 164.723 174.602 163.992V162.332H175.756V163.992ZM175.815 157.573C175.768 158.515 175.691 159.334 175.497 160.035C176.463 160.612 177.658 161.366 178.265 161.896L177.535 162.744C177.01 162.267 176.021 161.572 175.12 160.989C174.661 161.802 173.913 162.402 172.647 162.826C172.529 162.555 172.234 162.155 171.999 161.943C174.366 161.224 174.614 159.882 174.684 157.573H175.815ZM173.954 158.468C173.836 159.234 173.542 160.058 173.047 160.541L172.164 160.153C172.599 159.752 172.906 158.998 173.023 158.28L173.954 158.468ZM173.895 163.38C173.742 164.228 173.377 165.123 172.811 165.653L171.893 165.158C172.411 164.758 172.753 163.957 172.906 163.168L173.895 163.38ZM178.123 158.563C177.747 159.21 177.334 159.929 177.005 160.4L176.168 160.07C176.475 159.564 176.863 158.763 177.04 158.221L178.123 158.563ZM178.241 163.451C177.853 164.145 177.393 164.923 177.028 165.406L176.156 165.076C176.486 164.546 176.91 163.686 177.134 163.085L178.241 163.451ZM171.681 161.024V161.884H168.312V161.024H171.681ZM171.634 157.938V158.81H168.348V157.938H171.634ZM171.681 162.544V163.415H168.312V162.544H171.681ZM172.046 159.446V160.365H167.77V159.446H172.046ZM171.693 164.098V167.467H169.254V167.95H168.289V164.098H171.693ZM169.254 166.572H170.715V165.005H169.254V166.572Z" fill="black"/>
<path d="M349.657 125.468C350.117 126.316 350.564 127.435 350.729 128.142L349.693 128.554C349.575 127.836 349.151 126.693 348.715 125.834L349.657 125.468ZM351.977 125.056C352.331 125.94 352.649 127.07 352.731 127.789L351.683 128.107C351.624 127.4 351.306 126.234 350.988 125.327L351.977 125.056ZM350.859 129.614C351.23 129.868 351.63 130.156 352.025 130.451C352.254 129.979 352.455 129.479 352.614 128.967L353.615 129.202C353.403 129.862 353.132 130.498 352.826 131.098C353.297 131.499 353.715 131.899 353.992 132.241L353.379 133.089C353.126 132.765 352.749 132.376 352.319 131.982C351.919 132.6 351.477 133.154 351.012 133.595C350.835 133.419 350.411 133.089 350.187 132.959C350.694 132.518 351.153 131.958 351.553 131.322C351.124 130.975 350.688 130.645 350.281 130.356L350.859 129.614ZM350.058 129.249V133.666H354.121V129.214H355.217V135.35H354.121V134.691H350.058V135.374H348.974V129.249H350.058ZM355.417 125.48C355.004 126.788 354.392 128.166 353.78 129.037C353.52 128.884 352.979 128.637 352.672 128.531C353.32 127.706 353.897 126.422 354.262 125.209L355.417 125.48ZM347.643 124.938V127.082L348.267 126.811C348.632 127.459 348.998 128.295 349.104 128.849L348.35 129.226C348.261 128.707 347.949 127.93 347.643 127.282V135.456H346.548V124.938H347.643ZM346.23 127.247C346.218 128.307 346.053 129.614 345.653 130.427L344.899 130.085C345.264 129.391 345.441 128.154 345.464 127.153L346.23 127.247ZM359.186 134.832C357.878 134.832 356.595 133.36 356.595 131.935C356.595 130.409 358.079 129.432 360.587 129.273C360.64 128.619 360.67 127.901 360.682 127.117H357.066V125.998H362.036V126.116C362.036 127.276 361.995 128.331 361.918 129.261C362.654 129.302 363.361 129.42 364.05 129.603C364.056 129.214 364.062 128.778 364.062 128.295V126.293H365.346V128.354C365.346 128.984 365.34 129.55 365.322 130.05C365.858 130.286 366.388 130.568 366.912 130.898L366.441 132.005C366.035 131.74 365.64 131.511 365.252 131.31C365.069 133.36 364.574 134.167 363.391 135.044L362.46 134.09C363.497 133.342 363.879 132.73 364.003 130.804C363.296 130.574 362.572 130.457 361.789 130.427C361.394 133.325 360.517 134.832 359.186 134.832ZM357.855 131.935C357.855 132.618 358.503 133.501 359.021 133.501C359.68 133.501 360.187 132.4 360.47 130.451C358.797 130.58 357.855 131.116 357.855 131.935ZM372.907 131.499C372.271 131.499 371.765 130.992 371.765 130.356C371.765 129.72 372.271 129.214 372.907 129.214C373.543 129.214 374.05 129.72 374.05 130.356C374.05 130.992 373.543 131.499 372.907 131.499ZM355.358 151.334V152.382H350.882V154.196C350.882 154.82 350.729 155.115 350.246 155.303C349.751 155.456 349.068 155.468 348.079 155.468C347.996 155.162 347.784 154.679 347.608 154.373C348.397 154.396 349.21 154.396 349.433 154.385C349.669 154.385 349.728 154.326 349.728 154.173V152.382H345.287V151.334H349.728V150.568H350.281C350.688 150.339 351.106 150.056 351.471 149.767H347.243V148.778H352.555L352.802 148.731L353.52 149.273C352.843 149.979 351.86 150.727 350.882 151.24V151.334H355.358ZM355.193 146.764V149.438H354.062V147.777H346.536V149.438H345.464V146.764H347.09C346.872 146.364 346.536 145.881 346.23 145.492L347.184 145.056C347.596 145.527 348.067 146.14 348.244 146.576L347.855 146.764H349.869C349.722 146.305 349.41 145.704 349.104 145.256L350.105 144.868C350.47 145.398 350.847 146.093 351 146.576L350.493 146.764H352.331C352.725 146.234 353.161 145.533 353.403 145.009L354.616 145.386C354.286 145.851 353.927 146.34 353.579 146.764H355.193ZM365.393 150.733V155.492H364.215V155.056H359.08V155.492H357.949V150.733H360.623C360.729 150.474 360.847 150.186 360.929 149.932C360.87 149.979 360.805 150.015 360.729 150.05C360.399 150.192 359.928 150.18 359.233 150.18C359.186 149.932 359.044 149.603 358.938 149.367C359.374 149.379 359.81 149.379 359.94 149.379C360.081 149.379 360.14 149.332 360.14 149.214V146.364H356.701V145.468H361.153V149.214C361.153 149.42 361.135 149.573 361.094 149.697L362.213 149.873C362.06 150.174 361.895 150.468 361.742 150.733H365.393ZM366.264 145.468V149.214C366.264 149.697 366.158 149.932 365.817 150.085C365.464 150.227 364.945 150.227 364.203 150.227C364.156 149.956 364.015 149.591 363.897 149.343C364.356 149.367 364.875 149.367 365.004 149.379C365.169 149.343 365.193 149.32 365.193 149.19V146.364H362.625C363.155 146.599 363.809 147.005 364.133 147.306L363.555 148.048C363.249 147.73 362.59 147.294 362.06 147L362.59 146.364H361.812V145.468H366.264ZM361.518 148.813C362.307 148.566 363.508 148.166 364.663 147.742L364.839 148.578C363.826 148.955 362.755 149.355 361.895 149.65L361.518 148.813ZM356.394 149.002C357.172 148.79 358.291 148.389 359.41 147.977L359.563 148.802C358.62 149.202 357.619 149.626 356.818 149.944L356.394 149.002ZM357.631 146.364C358.149 146.623 358.809 147.035 359.103 147.353L358.526 148.071C358.232 147.753 357.584 147.294 357.066 147.011L357.631 146.364ZM359.08 154.196H364.215V153.313H359.08V154.196ZM359.08 152.453H364.215V151.605H359.08V152.453ZM377.795 145.574V155.315H376.653V154.703H373.638V155.362H372.542V145.574H377.795ZM372.118 147.306V148.378H370.611V149.214C371.023 149.65 371.995 150.816 372.224 151.11L371.576 152.017C371.382 151.646 370.982 151.045 370.611 150.51V155.456H369.515V150.557C369.115 151.687 368.614 152.741 368.067 153.431C367.961 153.124 367.701 152.665 367.525 152.382C368.284 151.469 369.003 149.82 369.386 148.378H367.796V147.306H369.515V144.938H370.611V147.306H372.118ZM373.638 153.678H376.653V151.994H373.638V153.678ZM373.638 150.957H376.653V149.273H373.638V150.957ZM373.638 148.26H376.653V146.634H373.638V148.26ZM386.924 151.358C386.924 152.064 387.371 153.678 389.55 154.514C389.35 154.773 389.044 155.197 388.902 155.48C387.336 154.879 386.535 153.513 386.346 152.83C386.146 153.513 385.275 154.82 383.531 155.48C383.402 155.233 383.107 154.785 382.907 154.561C385.275 153.725 385.769 152.088 385.769 151.358V149.697H386.924V151.358ZM386.982 144.938C386.935 145.881 386.859 146.699 386.664 147.4C387.63 147.977 388.826 148.731 389.432 149.261L388.702 150.109C388.178 149.632 387.189 148.937 386.287 148.354C385.828 149.167 385.08 149.767 383.814 150.192C383.696 149.921 383.402 149.52 383.166 149.308C385.534 148.59 385.781 147.247 385.852 144.938H386.982ZM385.121 145.834C385.004 146.599 384.709 147.424 384.215 147.907L383.331 147.518C383.767 147.117 384.073 146.364 384.191 145.645L385.121 145.834ZM385.063 150.745C384.909 151.593 384.544 152.488 383.979 153.018L383.06 152.524C383.578 152.123 383.92 151.322 384.073 150.533L385.063 150.745ZM389.291 145.928C388.914 146.576 388.502 147.294 388.172 147.765L387.336 147.435C387.642 146.929 388.031 146.128 388.207 145.586L389.291 145.928ZM389.409 150.816C389.02 151.511 388.561 152.288 388.196 152.771L387.324 152.441C387.654 151.911 388.078 151.051 388.302 150.451L389.409 150.816ZM382.848 148.389V149.249H379.48V148.389H382.848ZM382.801 145.304V146.175H379.515V145.304H382.801ZM382.848 149.909V150.78H379.48V149.909H382.848ZM383.213 146.811V147.73H378.938V146.811H383.213ZM382.86 151.464V154.832H380.422V155.315H379.456V151.464H382.86ZM380.422 153.937H381.882V152.37H380.422V153.937Z" fill="black"/>
<path d="M169.775 266.273V274.671C169.775 275.331 169.622 275.66 169.198 275.861C168.762 276.037 168.115 276.049 167.09 276.049C167.031 275.731 166.831 275.225 166.678 274.93C167.396 274.954 168.115 274.942 168.338 274.942C168.55 274.942 168.633 274.871 168.633 274.659V271.585H161.436V276.073H160.294V266.273H169.775ZM161.436 270.466H164.393V267.392H161.436V270.466ZM165.523 270.466H168.633V267.392H165.523V270.466ZM180.34 270.513V275.013C180.34 275.531 180.246 275.778 179.893 275.92C179.528 276.061 179.009 276.073 178.22 276.073C178.173 275.802 178.044 275.437 177.914 275.177C178.409 275.201 178.951 275.201 179.104 275.189C179.233 275.201 179.292 275.154 179.292 275.013V274.282H176.23V276.061H175.182V270.513H180.34ZM181.459 268.982V271.02H180.388V269.866H175.123V271.02H174.086V268.982H175.193V265.955H180.34V268.982H181.459ZM172.249 265.625C172.979 265.908 173.874 266.379 174.31 266.768L173.674 267.698C173.25 267.298 172.367 266.756 171.648 266.45L172.249 265.625ZM171.636 268.664C172.343 268.923 173.262 269.383 173.721 269.76L173.061 270.702C172.626 270.325 171.742 269.83 171.012 269.512L171.636 268.664ZM171.33 275.189C171.919 274.318 172.732 272.869 173.368 271.55L174.228 272.256C173.662 273.458 172.955 274.812 172.319 275.92L171.33 275.189ZM176.218 268.982H177.172V267.451H179.269V266.815H176.218V268.982ZM176.23 273.458H179.292V272.834H176.23V273.458ZM176.23 272.009H179.292V271.397H176.23V272.009ZM178.032 268.982H179.269V268.158H178.032V268.982ZM187.608 275.649C185.935 275.649 184.946 274.848 184.946 273.47C184.946 272.092 185.947 271.302 187.702 271.302C188.185 271.302 188.656 271.391 189.151 271.585V267.439C190.47 267.439 191.565 267.463 192.649 267.545L192.578 268.711C191.913 268.664 191.206 268.629 190.434 268.617V272.304C191.088 272.769 191.807 273.399 192.637 274.235L191.848 275.119C191.265 274.559 190.788 274.106 190.387 273.741C190.163 275.001 189.227 275.649 187.608 275.649ZM182.472 273.858C183.132 272.092 183.685 270.378 184.168 268.605H182.39V267.439H184.475C184.604 266.903 184.728 266.367 184.852 265.814L186.1 265.932C185.994 266.438 185.882 266.945 185.77 267.439H188.079V268.605H185.476C184.981 270.513 184.398 272.357 183.697 274.223L182.472 273.858ZM186.206 273.446C186.206 274.176 186.677 274.553 187.608 274.553C188.621 274.553 189.151 274.106 189.151 273.269V272.775C188.615 272.451 188.208 272.362 187.702 272.362C186.677 272.362 186.206 272.704 186.206 273.446ZM203.803 266.356V267.192H200.952V267.769H203.496V268.558H200.952V269.159H204.156V269.995H196.724V269.159H199.833V268.558H197.36V267.769H199.833V267.192H197.066V266.356H199.833V265.543H200.952V266.356H203.803ZM203.332 270.525V274.918C203.332 275.425 203.226 275.708 202.86 275.861C202.495 276.037 201.954 276.037 201.153 276.037C201.117 275.755 200.976 275.331 200.846 275.071C201.353 275.107 201.906 275.107 202.06 275.095C202.201 275.071 202.272 275.024 202.272 274.907V274.341H198.561V276.073H197.501V270.525H203.332ZM195.947 265.543V267.404L196.618 267.121C196.854 267.639 197.136 268.334 197.266 268.735L196.5 269.112C196.412 268.705 196.17 268.052 195.947 267.533V276.061H194.934V265.543H195.947ZM194.816 267.851C194.769 268.77 194.592 270.113 194.357 270.984L193.497 270.69C193.768 269.924 193.933 268.652 194.003 267.757L194.816 267.851ZM198.561 273.517H202.272V272.857H198.561V273.517ZM198.561 272.044H202.272V271.361H198.561V272.044ZM214.945 266.038V268.193C214.945 268.699 214.851 268.994 214.45 269.147C214.062 269.3 213.461 269.3 212.601 269.3C212.554 269.006 212.413 268.617 212.271 268.334C212.907 268.346 213.508 268.346 213.673 268.346C213.861 268.334 213.897 268.311 213.897 268.181V267.039H211.388V269.913H214.344L214.533 269.877L215.228 270.113C214.998 271.473 214.568 272.751 213.956 273.835C214.438 274.388 215.01 274.848 215.64 275.166C215.381 275.366 215.051 275.79 214.874 276.073C214.297 275.737 213.785 275.289 213.331 274.753C212.937 275.272 212.483 275.719 211.977 276.084C211.835 275.89 211.6 275.643 211.388 275.448V276.073H210.363V266.038H214.945ZM209.645 266.626V267.557H208.09V268.499H210.08V269.465H209.079L209.527 269.571C209.327 270.048 209.126 270.543 208.95 270.902H209.916V271.856H208.09V272.904H209.786V273.858H208.09V276.037H207.03V273.858H205.275V272.904H207.03V271.856H205.169V270.902H206.135C206.058 270.525 205.899 270.001 205.711 269.583L206.158 269.465H204.981V268.499H207.03V267.557H205.369V266.626H207.03V265.566H208.09V266.626H209.645ZM206.618 269.465C206.824 269.901 207.012 270.46 207.053 270.796L206.677 270.902H208.467L208.078 270.796C208.237 270.431 208.437 269.883 208.549 269.465H206.618ZM211.388 275.201C211.883 274.842 212.318 274.388 212.695 273.87C212.142 273.022 211.712 272.033 211.388 270.973V275.201ZM212.283 270.82C212.519 271.567 212.854 272.286 213.272 272.928C213.602 272.268 213.855 271.556 214.026 270.82H212.283ZM221.529 272.103C220.893 272.103 220.386 271.597 220.386 270.961C220.386 270.325 220.893 269.818 221.529 269.818C222.165 269.818 222.671 270.325 222.671 270.961C222.671 271.597 222.165 272.103 221.529 272.103ZM241.104 268.77V269.889H238.136C238.684 272.174 239.72 274.117 241.399 275.083C241.128 275.295 240.751 275.743 240.574 276.026C239.19 275.101 238.254 273.57 237.63 271.668C237.247 273.211 236.464 274.759 234.933 276.049C234.721 275.831 234.367 275.554 234.073 275.354V276.049H232.954V272.15C232.365 272.704 231.776 273.252 231.258 273.705L230.645 272.716C231.228 272.292 232.106 271.556 232.954 270.796V269.135L232.094 269.689C231.858 269.1 231.258 268.205 230.775 267.51L231.646 267.003C232.123 267.598 232.671 268.376 232.954 268.935V265.519H234.073V275.272C235.998 273.635 236.611 271.656 236.794 269.889H234.414V268.77H236.864V268.346V265.566H237.983V268.346V268.77H241.104ZM239.526 265.849C239.997 266.45 240.586 267.251 240.833 267.781L239.938 268.334C239.679 267.816 239.137 266.945 238.666 266.32L239.526 265.849ZM243.342 265.602C244.037 265.861 244.979 266.308 245.439 266.697L244.779 267.616C244.355 267.227 243.448 266.744 242.706 266.426L243.342 265.602ZM242.588 268.699C243.354 268.947 244.332 269.394 244.85 269.748L244.214 270.714C243.754 270.325 242.789 269.842 242 269.547L242.588 268.699ZM242.424 275.225C243.071 274.341 244.025 272.834 244.732 271.479L245.568 272.186C244.909 273.411 244.096 274.824 243.389 275.931L242.424 275.225ZM250.338 274.518C250.338 274.895 250.362 274.954 250.609 274.954H251.281C251.528 274.954 251.575 274.706 251.611 273.305C251.834 273.481 252.294 273.682 252.612 273.752C252.506 275.472 252.235 275.955 251.387 275.955H250.421C249.432 275.955 249.196 275.602 249.196 274.541V270.796H248.136C248.024 273.393 247.647 275.107 245.368 276.084C245.262 275.802 244.944 275.366 244.709 275.154C246.693 274.377 246.94 273.016 247.029 270.796H245.957V266.049H251.917V270.796H250.338V274.518ZM247.064 269.736H250.763V267.098H247.064V269.736ZM263.33 271.032V271.868H261.704V272.845H263.33V273.693H261.704V274.659H263.848V275.602H259.361V276.073H258.301V270.914C258.165 271.037 258.03 271.149 257.888 271.255C257.771 271.085 257.511 270.784 257.299 270.572V274.683H255.191V275.578H254.261V272.374C254.108 272.663 253.937 272.934 253.754 273.187C253.648 272.928 253.33 272.351 253.142 272.115C253.943 270.943 254.414 269.188 254.661 267.286H253.495V266.238H257.547V266.638H259.844C259.973 266.279 260.079 265.908 260.173 265.519L261.245 265.731C261.163 266.043 261.074 266.344 260.986 266.638H263.789V268.652H262.776V267.592H260.621C260.385 268.146 260.12 268.658 259.82 269.135H260.927C261.104 268.729 261.269 268.258 261.363 267.91L262.411 268.134C262.258 268.47 262.093 268.823 261.94 269.135H263.542V270.101H261.704V271.032H263.33ZM257.299 269.559V270.29C258.195 269.618 258.919 268.699 259.455 267.592H258.465V268.652H257.488V267.286H255.756C255.627 268.063 255.48 268.829 255.297 269.559H257.299ZM255.191 273.705H256.345V270.549H255.191V273.705ZM259.361 274.659H260.668V273.693H259.361V274.659ZM259.361 272.845H260.668V271.868H259.361V272.845ZM259.361 271.032H260.668V270.101H259.361V271.032ZM269.631 267.392C270.02 267.516 270.426 267.669 270.833 267.84C270.915 267.545 270.986 267.245 271.033 266.945H269.219V266.002H274.79V266.426C274.661 269.065 274.566 270.089 274.248 270.431C274.072 270.702 273.86 270.784 273.53 270.82C273.259 270.855 272.776 270.867 272.27 270.831C272.258 270.513 272.14 270.101 271.975 269.818C272.423 269.854 272.835 269.854 273.012 269.854C273.153 269.866 273.259 269.842 273.353 269.736C273.53 269.547 273.624 268.823 273.707 266.945H272.069C271.993 267.392 271.893 267.84 271.751 268.264C272.199 268.493 272.599 268.723 272.906 268.923L272.364 269.795C272.099 269.601 271.751 269.388 271.374 269.182C270.95 269.954 270.32 270.625 269.349 271.126C269.231 270.878 268.925 270.513 268.713 270.337C269.566 269.936 270.108 269.371 270.456 268.723C270.008 268.523 269.543 268.334 269.113 268.193L269.631 267.392ZM271.398 274.659C271.398 274.942 271.433 274.977 271.704 274.977H272.505C272.752 274.977 272.8 274.848 272.835 273.752C273.035 273.941 273.471 274.094 273.754 274.165C273.659 275.625 273.377 275.978 272.611 275.978H271.528C270.574 275.978 270.373 275.66 270.373 274.671V272.056H271.398V274.659ZM270.138 272.716C270.032 273.729 269.82 274.801 269.243 275.448L268.418 274.942V275.437H266.051V275.92H265.108V272.068H268.418V274.93C268.895 274.347 269.148 273.393 269.254 272.469L270.138 272.716ZM271.245 270.525C271.975 270.878 272.87 271.491 273.271 271.962L272.588 272.704C272.175 272.233 271.316 271.597 270.574 271.173L271.245 270.525ZM274.06 272.245C274.661 273.081 275.167 274.223 275.32 275.013L274.319 275.413C274.189 274.647 273.707 273.47 273.153 272.61L274.06 272.245ZM268.395 268.994V269.854H265.12V268.994H268.395ZM268.371 265.908V266.78H265.167V265.908H268.371ZM268.395 270.513V271.385H265.12V270.513H268.395ZM268.713 267.416V268.334H264.614V267.416H268.713ZM266.051 274.541H267.452V272.975H266.051V274.541Z" fill="black"/>
<path d="M182.538 350.537V351.48H172.727V350.537H175.624C175.506 350.143 175.271 349.607 175.047 349.195L175.706 349.03H174.387V345.991H180.83V349.03H179.676L180.241 349.159C179.97 349.666 179.723 350.16 179.499 350.537H182.538ZM176.46 341.609L176.661 341.574L177.403 341.951C177.073 342.817 176.578 343.594 176.001 344.271H179.311C178.616 343.47 178.039 342.54 177.603 341.527L178.557 341.221C178.745 341.657 178.981 342.081 179.252 342.481C179.717 342.116 180.206 341.662 180.524 341.291L181.395 341.904C180.883 342.351 180.288 342.811 179.77 343.164C179.97 343.417 180.188 343.647 180.418 343.871C180.918 343.482 181.466 343.005 181.808 342.611L182.644 343.211C182.161 343.641 181.596 344.083 181.089 344.448C181.672 344.901 182.314 345.272 182.997 345.532C182.726 345.767 182.385 346.203 182.22 346.486C181.283 346.062 180.435 345.443 179.699 344.695V345.225H175.53V344.766C174.735 345.561 173.81 346.191 172.88 346.639C172.727 346.403 172.42 346.014 172.185 345.802C172.897 345.514 173.628 345.06 174.281 344.507C173.928 344.165 173.386 343.747 172.939 343.47L173.563 342.834C174.046 343.105 174.617 343.523 174.953 343.859C175.33 343.453 175.665 343.005 175.942 342.54H173.386V341.609H176.46ZM175.483 348.123H179.664V346.921H175.483V348.123ZM176.142 349.03C176.413 349.454 176.643 350.001 176.755 350.408L176.272 350.537H178.769L178.415 350.455C178.651 350.066 178.94 349.477 179.099 349.03H176.142ZM193.986 342.033V343.164H189.287V345.06L189.487 344.837C190.771 345.473 192.561 346.462 193.445 347.169L192.62 348.193C191.902 347.587 190.506 346.704 189.287 346.026V351.703H188.085V343.164H183.857V342.033H193.986ZM205.352 342.799V343.859H199.11V342.799H201.654V341.197H202.761V342.799H205.352ZM201.524 344.483C201.183 345.166 200.718 345.844 200.217 346.415L201.136 346.168C201.395 346.874 201.742 347.534 202.172 348.135C202.573 347.504 202.867 346.81 203.056 346.073L204.198 346.309C203.892 347.298 203.468 348.205 202.902 348.994C203.633 349.766 204.54 350.367 205.588 350.738C205.341 350.985 204.975 351.444 204.799 351.739C203.774 351.315 202.891 350.679 202.16 349.878C201.383 350.673 200.411 351.309 199.204 351.75C199.074 351.491 198.804 351.079 198.615 350.855C199.811 350.437 200.753 349.807 201.477 349.03C200.941 348.27 200.506 347.404 200.17 346.45C199.976 346.674 199.769 346.874 199.569 347.051C199.393 346.839 199.027 346.509 198.792 346.344C199.499 345.779 200.158 344.86 200.511 344.059L201.524 344.483ZM203.727 344.024C204.445 344.754 205.235 345.72 205.553 346.415L204.61 346.969C204.304 346.274 203.55 345.272 202.855 344.519L203.727 344.024ZM198.992 343.565V344.625H197.696V345.32C198.032 345.761 198.933 347.086 199.133 347.404L198.521 348.264C198.356 347.875 198.014 347.245 197.696 346.686V351.715H196.648V346.969C196.295 348.034 195.865 349.018 195.4 349.654C195.282 349.348 195.035 348.912 194.858 348.641C195.553 347.716 196.218 346.079 196.554 344.625H195.105V343.565H196.648V341.197H197.696V343.565H198.992ZM211.524 347.758C210.888 347.758 210.382 347.251 210.382 346.615C210.382 345.979 210.888 345.473 211.524 345.473C212.16 345.473 212.667 345.979 212.667 346.615C212.667 347.251 212.16 347.758 211.524 347.758ZM223.397 341.174V342.281H227.637V344.86H226.435V343.329H219.215V344.86H218.073V342.281H222.195V341.174H223.397ZM222.961 343.965C222.737 344.436 222.484 344.943 222.231 345.461H227.884V346.521H225.917C225.564 347.687 225.057 348.6 224.386 349.312C225.546 349.795 226.624 350.314 227.389 350.796L226.506 351.715C225.764 351.232 224.651 350.667 223.42 350.125C222.219 350.961 220.652 351.432 218.709 351.739C218.615 351.456 218.273 350.961 218.061 350.702C219.751 350.514 221.123 350.19 222.195 349.619C221.583 349.389 220.97 349.171 220.393 348.971L220.146 349.407L218.944 349.089C219.374 348.405 219.887 347.487 220.393 346.521H217.814V345.461H220.935C221.241 344.848 221.536 344.248 221.783 343.706L222.961 343.965ZM220.876 348.076C221.624 348.305 222.443 348.576 223.255 348.877C223.891 348.282 224.345 347.516 224.621 346.521H221.689C221.412 347.057 221.135 347.587 220.876 348.076ZM234.091 342.281C233.42 343.27 232.289 344.389 231.005 345.331H237.318C236.035 344.413 234.81 343.282 234.091 342.281ZM237.99 347.828V348.818H234.692V350.408H239.003V351.421H229.345V350.408H233.514V348.818H230.263V347.828H233.514V346.321H230.805V345.473C230.387 345.767 229.957 346.044 229.521 346.285C229.368 346.038 229.05 345.614 228.791 345.39C230.746 344.366 232.607 342.599 233.467 341.162H234.621C235.823 342.858 237.731 344.436 239.509 345.249C239.238 345.543 238.979 345.92 238.755 346.262C238.343 346.026 237.925 345.761 237.507 345.461V346.321H234.692V347.828H237.99ZM250.345 344.366V346.556H249.25V345.214H241.7V346.556H240.64V344.366H244.857V343.518H245.021C244.868 343.441 244.727 343.37 244.609 343.317C244.78 343.199 244.939 343.064 245.104 342.917H243.455C243.632 343.211 243.785 343.512 243.879 343.741L242.842 344.036C242.772 343.747 242.542 343.294 242.324 342.917H242.03C241.723 343.359 241.4 343.753 241.087 344.059C240.864 343.883 240.404 343.576 240.145 343.447C240.817 342.87 241.464 341.998 241.818 341.115L242.866 341.409C242.778 341.615 242.678 341.821 242.572 342.022H245.292V342.717C245.74 342.257 246.105 341.698 246.329 341.115L247.424 341.386C247.33 341.598 247.224 341.816 247.106 342.022H250.651V342.917H248.496C248.726 343.205 248.926 343.518 249.05 343.753L248.013 344.071C247.872 343.765 247.571 343.306 247.283 342.917H246.517C246.335 343.146 246.146 343.364 245.952 343.553V344.366H250.345ZM248.626 345.802V348.217H243.42V348.841H249.415V351.727H248.284V351.385H243.42V351.739H242.348V345.802H248.626ZM243.42 350.537H248.284V349.689H243.42V350.537ZM243.42 347.393H247.483V346.639H243.42V347.393ZM256.717 345.908H258.142V344.719H256.717V345.908ZM256.717 343.836H258.142V342.669H256.717V343.836ZM261.558 341.692V346.874H259.191V348.017H261.699V349.03H259.191V350.325H262.076V351.35H254.762V350.325H258.025V349.03H255.586V348.017H258.025V346.874H255.692V341.692H261.558ZM255.21 341.904V342.952H253.949V345.155H255.021V346.203H253.949V348.7L255.115 348.323L255.316 349.418C254.079 349.831 252.736 350.278 251.7 350.608L251.429 349.466C251.835 349.36 252.33 349.212 252.866 349.042V346.203H251.664V345.155H252.866V342.952H251.558V341.904H255.21ZM259.096 345.908H260.486V344.719H259.096V345.908ZM259.096 343.836H260.486V342.669H259.096V343.836Z" fill="black"/>
<path d="M265.051 305.774C251.132 312.54 235.636 316.316 219.305 316.316C201.634 316.316 184.942 311.897 170.166 304.049" stroke="#2A3317" stroke-width="11.4239" stroke-linecap="round" stroke-linejoin="round"/>
<path d="M270.069 318.748L256.696 294.452L275.539 299.923L270.069 318.748Z" fill="#2A3317"/>
<path d="M164.691 316.838L178.913 293.027L159.888 297.831L164.691 316.838Z" fill="#2A3317"/>
<path d="M303.76 128.62C323.37 145.391 336.71 169.261 339.786 196.24" stroke="#2A3317" stroke-width="11.4239" stroke-linecap="round" stroke-linejoin="round"/>
<path d="M313.665 118.834L296.713 140.788L294.203 121.348L313.665 118.834Z" fill="#2A3317"/>
<path d="M353.454 193.529L325.751 195.252L340.463 208.222L353.454 193.529Z" fill="#2A3317"/>
<path d="M131.089 128.62C111.479 145.391 98.1388 169.261 95.0625 196.24" stroke="#2A3317" stroke-width="11.4239" stroke-linecap="round" stroke-linejoin="round"/>
<path d="M138.135 140.788L121.184 118.834L140.645 121.348L138.135 140.788Z" fill="#2A3317"/>
<path d="M109.098 195.252L81.3955 193.529L94.3845 208.222L109.098 195.252Z" fill="#2A3317"/>
<g filter="url(#filter0_d_143_9100)">
<path d="M79.8476 360.333C117.997 360.333 148.924 329.441 148.924 291.333C148.924 253.225 117.997 222.333 79.8476 222.333C41.6979 222.333 10.7715 253.225 10.7715 291.333C10.7715 329.441 41.6979 360.333 79.8476 360.333Z" fill="white"/>
</g>
<path d="M72.6543 326.923V328.27H69.9879C70.7566 329.453 71.9129 330.562 73.0489 331.195C72.7087 331.508 72.2462 332.025 71.9877 332.406C70.9946 331.712 70.0083 330.603 69.2397 329.399V332.882H67.7568V329.453C66.9406 330.651 65.9067 331.698 64.832 332.365C64.6007 331.997 64.1245 331.467 63.798 331.195C65.0156 330.569 66.1992 329.467 67.0222 328.27H64.2606V326.923H67.7568V325.699H65.1313V321.223H72.0285V325.699H69.2397V326.923H72.6543ZM66.5597 324.379H70.5185V322.543H66.5597V324.379ZM64.8592 321.128C64.5259 321.992 64.1041 322.876 63.6348 323.713V332.841H62.2064V325.903C61.8595 326.365 61.5058 326.78 61.1452 327.141C61.0228 326.787 60.6011 325.957 60.3698 325.617C61.5942 324.42 62.7777 322.556 63.4852 320.679L64.8592 321.128ZM84.2042 328.787L84.4355 328.732L85.2926 329.154C84.8232 330.018 84.1498 330.698 83.3336 331.222C84.1158 331.446 84.9865 331.603 85.8911 331.698C85.6055 331.984 85.2245 332.514 85.0613 332.882C83.8845 332.712 82.7758 332.419 81.8099 331.997C80.7216 332.433 79.4904 332.712 78.2048 332.895C78.096 332.582 77.8375 332.079 77.6062 331.793C78.5925 331.691 79.5516 331.521 80.4223 331.263C79.9461 330.943 79.5244 330.583 79.1707 330.174L80.055 329.834H78.2456V328.787H84.2042ZM85.6463 321.332V322.407H83.973V323.032H83.3064L82.9254 323.713H85.2926V324.624H82.8846V325.046H85.0069V325.794H82.8846V326.229H85.0069V326.978H82.8846V327.413H85.6191V328.352H78.9122V325.549C78.7694 325.712 78.6333 325.862 78.4905 325.998C78.2864 325.787 77.8375 325.427 77.5654 325.236V325.767H74.1236V324.665H77.5654V325.223C78.2932 324.597 78.9122 323.679 79.2931 322.747L79.7557 322.855V322.407H78.0688V321.332H79.7557V320.624H81.0753V321.332H82.6398V320.624H83.973V321.332H85.6463ZM77.5518 321.06V322.189H74.2052V321.06H77.5518ZM77.5654 326.42V327.549H74.1236V326.42H77.5654ZM77.9055 322.815V324.012H73.5658V322.815H77.9055ZM77.5382 328.229V332.161H75.2527V332.705H74.0828V328.229H77.5382ZM75.2527 330.977H76.3683V329.399H75.2527V330.977ZM80.1502 323.713H81.6058C81.7487 323.393 81.8711 323.053 81.9596 322.801L82.6398 322.91V322.407H81.0753V323.032H80.4631C80.3611 323.264 80.259 323.488 80.1502 323.713ZM80.2182 327.413H81.5786V326.978H80.2182V327.413ZM80.2182 326.229H81.5786V325.794H80.2182V326.229ZM80.2182 325.046H81.5786V324.624H80.2182V325.046ZM80.4903 329.834C80.8508 330.168 81.3202 330.46 81.8779 330.705C82.3949 330.467 82.8506 330.174 83.2247 329.834H80.4903ZM98.6382 324.638V325.971H93.8904C93.3734 326.352 92.8429 326.705 92.2987 327.046H97.1146V332.841H95.5773V332.487H90.9655V332.882H89.4826V328.556C88.7956 328.882 88.1018 329.168 87.4012 329.426C87.2244 329.1 86.7754 328.488 86.5033 328.175C88.2311 327.624 89.8976 326.882 91.4144 325.971H86.8706V324.638H91.1423V323.372H88.0134V322.094H91.1423V320.652H92.6116V322.094H95.5093V322.706C96.0126 322.175 96.4684 321.617 96.8833 321.033L98.1485 321.699C97.3866 322.767 96.4956 323.747 95.5093 324.638H98.6382ZM90.9655 331.236H95.5773V330.311H90.9655V331.236ZM90.9655 329.181H95.5773V328.27H90.9655V329.181ZM92.6116 324.638H93.3734C93.8904 324.236 94.3869 323.815 94.8563 323.372H92.6116V324.638Z" fill="#221714"/>
<path d="M119.018 307.823H78.8516V288.761C78.8516 285.719 81.6357 282.695 85.4187 282.22L99.1045 280.095L112.55 282.165C116.288 282.674 119.02 285.681 119.02 288.692V307.823H119.018Z" fill="#A15091"/>
<path d="M103.878 281.321L103.479 281.478C100.558 282.632 97.2975 282.655 94.3599 281.538L93.7871 281.32V276.647H103.878V281.32V281.321Z" fill="#E1AD5D"/>
<path d="M110.621 266.254C110.621 273.433 105.39 279.253 98.9373 279.253C92.4844 279.253 87.2539 273.433 87.2539 266.254C87.2539 265.796 87.2539 265.344 87.2539 264.899C87.2539 258.468 92.4844 253.255 98.9373 253.255C105.389 253.255 110.619 258.468 110.621 264.898C110.621 265.504 110.621 265.978 110.621 266.254Z" fill="#F3CB8D"/>
<path d="M87.2559 261.486C87.2559 261.486 87.2608 259.372 87.2608 266.409C87.2608 270.506 89.0869 274.459 92.1012 276.79C94.2652 278.464 96.4668 279.255 99.419 279.255C99.419 279.255 92.7377 275.781 91.3799 271.756C90.1363 268.065 92.5337 256.55 92.5337 256.55L87.2575 261.484L87.2559 261.486Z" fill="#EBBD76"/>
<path d="M105.162 266.19C105.162 265.792 104.839 265.47 104.441 265.47C104.043 265.47 103.72 265.792 103.72 266.19V266.787C103.72 267.185 104.043 267.507 104.441 267.507C104.839 267.507 105.162 267.185 105.162 266.787V266.19Z" fill="#231815"/>
<path d="M105.635 268.243H103.249C102.428 268.243 101.763 268.908 101.763 269.728C101.763 270.548 102.428 271.213 103.249 271.213H105.635C106.456 271.213 107.122 270.548 107.122 269.728C107.122 268.908 106.456 268.243 105.635 268.243Z" fill="#E9A48A"/>
<path d="M94.6579 268.243H92.2719C91.4508 268.243 90.7852 268.908 90.7852 269.728C90.7852 270.548 91.4508 271.213 92.2719 271.213H94.6579C95.479 271.213 96.1446 270.548 96.1446 269.728C96.1446 268.908 95.479 268.243 94.6579 268.243Z" fill="#E9A48A"/>
<path d="M94.1858 266.19C94.1858 265.792 93.8629 265.47 93.4645 265.47C93.0661 265.47 92.7432 265.792 92.7432 266.19V266.787C92.7432 267.185 93.0661 267.507 93.4645 267.507C93.8629 267.507 94.1858 267.185 94.1858 266.787V266.19Z" fill="#231815"/>
<path d="M110.996 307.823C110.996 307.823 111.068 297.541 111.562 293.924" stroke="#5D2A80" stroke-width="0.326397" stroke-miterlimit="10"/>
<path d="M87.3642 307.823C87.3642 307.823 87.2923 297.541 86.7979 293.924" stroke="#5D2A80" stroke-width="0.326397" stroke-miterlimit="10"/>
<path d="M99.0831 284.797C94.4711 284.797 90.7143 281.495 90.5625 281.36L93.6372 280.723C93.66 280.742 95.8469 282.2 99.0831 282.2C102.319 282.2 104.384 280.747 104.41 280.723L107.604 281.36C107.45 281.495 103.693 284.797 99.0831 284.797Z" fill="#81287D"/>
<path d="M99.8638 284.13L99.8018 283.045C99.9356 283.037 100.074 283.027 100.212 283.013L100.323 284.094C100.169 284.11 100.014 284.122 99.8638 284.131V284.13Z" fill="#5D2A80"/>
<path d="M98.7127 284.129C98.5608 284.12 98.4057 284.107 98.2539 284.091L98.3666 283.01C98.5021 283.024 98.6408 283.036 98.7763 283.042L98.7127 284.127V284.129Z" fill="#5D2A80"/>
<path d="M101.459 283.911L101.226 282.849C101.358 282.82 101.493 282.787 101.626 282.753L101.906 283.803C101.758 283.842 101.608 283.878 101.459 283.911Z" fill="#5D2A80"/>
<path d="M97.1163 283.909C96.9677 283.876 96.8175 283.84 96.6689 283.799L96.9498 282.749C97.082 282.785 97.2175 282.818 97.3498 282.847L97.1147 283.909H97.1163Z" fill="#5D2A80"/>
<path d="M102.996 283.45L102.607 282.434C102.735 282.385 102.864 282.333 102.991 282.279L103.42 283.279C103.28 283.339 103.138 283.396 102.996 283.45Z" fill="#5D2A80"/>
<path d="M95.5798 283.446C95.4394 283.393 95.2973 283.335 95.1553 283.275L95.5847 282.275C95.712 282.331 95.841 282.381 95.9683 282.43L95.5798 283.446Z" fill="#5D2A80"/>
<path d="M104.728 282.676L103.799 282.107C103.871 281.99 103.943 281.871 104.011 281.75L104.96 282.287C104.885 282.419 104.806 282.549 104.728 282.678V282.676Z" fill="#5D2A80"/>
<path d="M93.7582 282.849C93.6504 282.745 93.5426 282.637 93.4365 282.528L94.2218 281.774C94.3182 281.874 94.4177 281.973 94.5157 282.068L93.7565 282.849H93.7582Z" fill="#5D2A80"/>
<path d="M106.114 281.658L105.04 281.472C105.047 281.436 105.051 281.4 105.058 281.364L105.089 281.18L106.165 281.356L106.136 281.538C106.129 281.578 106.122 281.617 106.116 281.658H106.114Z" fill="#5D2A80"/>
<path d="M92.4179 281.68C92.3934 281.533 92.3689 281.385 92.3477 281.233L93.4268 281.083C93.4464 281.222 93.4677 281.36 93.4905 281.496L92.4162 281.678L92.4179 281.68Z" fill="#5D2A80"/>
<path d="M88.7822 281.755C82.5692 281.755 78.8516 285.123 78.8516 288.165V307.822H82.535C82.535 307.822 82.9201 296.174 83.6512 292.292C84.4362 288.129 88.7822 281.755 88.7822 281.755Z" fill="#81287D"/>
<path d="M80.5414 307.824H40.375V288.762C40.375 285.72 43.1592 282.696 46.9421 282.221L60.6279 280.096L74.0739 282.166C77.8111 282.675 80.5431 285.682 80.5431 288.693V307.824H80.5414Z" fill="#1266A4"/>
<path d="M65.4032 281.32L65.0131 281.477C62.1506 282.631 58.9552 282.654 56.078 281.537L55.5166 281.319V276.646H65.4032V281.319V281.32Z" fill="#E1AD5D"/>
<path d="M72.1451 266.255C72.1451 273.434 66.9146 279.254 60.4617 279.254C54.0088 279.254 48.7783 273.434 48.7783 266.255C48.7783 265.797 48.7783 265.345 48.7783 264.9C48.7783 258.469 54.0088 253.256 60.4617 253.256C66.9129 253.256 72.1435 258.469 72.1451 264.899C72.1451 265.505 72.1451 265.979 72.1451 266.255Z" fill="#F3CB8D"/>
<path d="M48.7803 261.487C48.7803 261.487 48.7852 259.373 48.7852 266.41C48.7852 270.507 50.6114 274.46 53.6256 276.791C55.7896 278.465 57.9912 279.256 60.9435 279.256C60.9435 279.256 54.2621 275.782 52.9043 271.757C51.6607 268.066 54.0581 256.551 54.0581 256.551L48.7819 261.485L48.7803 261.487Z" fill="#EBBD76"/>
<path d="M66.6858 266.191C66.6858 265.793 66.3629 265.471 65.9645 265.471C65.5661 265.471 65.2432 265.793 65.2432 266.191V266.788C65.2432 267.186 65.5661 267.508 65.9645 267.508C66.3629 267.508 66.6858 267.186 66.6858 266.788V266.191Z" fill="#231815"/>
<path d="M67.1579 268.244H64.7719C63.9508 268.244 63.2852 268.909 63.2852 269.729C63.2852 270.549 63.9508 271.214 64.7719 271.214H67.1579C67.979 271.214 68.6446 270.549 68.6446 269.729C68.6446 268.909 67.979 268.244 67.1579 268.244Z" fill="#E9A48A"/>
<path d="M56.1823 268.244H53.7963C52.9752 268.244 52.3096 268.909 52.3096 269.729C52.3096 270.549 52.9752 271.214 53.7963 271.214H56.1823C57.0034 271.214 57.669 270.549 57.669 269.729C57.669 268.909 57.0034 268.244 56.1823 268.244Z" fill="#E9A48A"/>
<path d="M55.7103 266.191C55.7103 265.793 55.3873 265.471 54.9889 265.471C54.5905 265.471 54.2676 265.793 54.2676 266.191V266.788C54.2676 267.186 54.5905 267.508 54.9889 267.508C55.3873 267.508 55.7103 267.186 55.7103 266.788V266.191Z" fill="#231815"/>
<path d="M72.5195 307.823C72.5195 307.823 72.5913 297.541 73.0858 293.924" stroke="#282E80" stroke-width="0.326397" stroke-miterlimit="10"/>
<path d="M48.8886 307.823C48.8886 307.823 48.8168 297.541 48.3223 293.924" stroke="#282E80" stroke-width="0.326397" stroke-miterlimit="10"/>
<path d="M60.442 249.598C57.0573 249.598 52.6983 250.921 50.1964 253.182C47.2083 255.884 46.5604 259.42 47.0353 263.503C47.1903 264.843 48.9969 268.826 48.9969 268.826L49.4327 263.068L57.0622 257.31C57.0622 257.31 61.6399 261.221 65.8912 261.656C67.8349 261.855 71.1234 261.765 71.1234 261.765L72.1042 267.632C72.1662 267.61 73.3037 263.831 73.4114 262.96C73.7003 260.655 73.5208 255.898 71.5591 253.618C69.2433 250.925 64.0389 249.598 60.4404 249.598H60.442Z" fill="#4E4D4D"/>
<path d="M55.182 258.581L49.4554 262.903L49.1273 266.98C49.1273 266.98 47.7711 264.235 47.6553 263.229C47.2995 260.164 47.7842 257.509 50.0282 255.482C51.9066 253.785 55.1771 252.791 57.7181 252.791L55.182 258.58V258.581Z" fill="#323333"/>
<path d="M56.8444 256.985C56.8444 256.985 59.9876 260.163 63.5927 261.128C66.2348 261.834 71.1226 261.767 71.1226 261.767L71.449 263.83C71.449 263.83 72.1035 262.419 72.1035 261.767C72.1035 258.399 68.8036 259.92 65.2361 259.051C61.6686 258.182 56.8428 256.987 56.8428 256.987L56.8444 256.985Z" fill="#323333"/>
<path d="M67.2495 281.07C67.2495 281.07 64.2761 283.711 60.6057 283.711C56.9354 283.711 53.9619 281.07 53.9619 281.07L60.6057 280.017L67.2495 281.07Z" fill="#EBBD76"/>
<path d="M60.6065 284.797C55.9945 284.797 52.2377 281.496 52.0859 281.361L55.1606 280.724C55.1834 280.743 57.3703 282.201 60.6065 282.201C63.8428 282.201 65.9072 280.748 65.9333 280.724L69.1271 281.361C68.9737 281.496 65.2169 284.797 60.6065 284.797Z" fill="#0B4F7F"/>
<path d="M61.3872 284.13L61.3252 283.045C61.4591 283.037 61.5978 283.027 61.735 283.013L61.846 284.094C61.6925 284.11 61.5374 284.122 61.3872 284.131V284.13Z" fill="#043D61"/>
<path d="M60.2351 284.129C60.0833 284.12 59.9282 284.107 59.7764 284.091L59.889 283.01C60.0245 283.024 60.1633 283.036 60.2988 283.042L60.2351 284.127V284.129Z" fill="#043D61"/>
<path d="M62.9805 283.911L62.7471 282.849C62.8793 282.82 63.0148 282.787 63.1471 282.753L63.4279 283.803C63.2793 283.842 63.1291 283.878 62.9805 283.911Z" fill="#043D61"/>
<path d="M58.6388 283.909C58.4902 283.876 58.34 283.84 58.1914 283.799L58.4722 282.749C58.6045 282.785 58.74 282.818 58.8722 282.847L58.6371 283.909H58.6388Z" fill="#043D61"/>
<path d="M64.5214 283.45L64.1328 282.434C64.2602 282.385 64.3891 282.333 64.5165 282.279L64.9459 283.279C64.8055 283.339 64.6634 283.396 64.5214 283.45Z" fill="#043D61"/>
<path d="M57.1012 283.447C56.9608 283.394 56.8188 283.336 56.6768 283.276L57.1061 282.276C57.2335 282.332 57.3625 282.382 57.4898 282.431L57.1012 283.447Z" fill="#043D61"/>
<path d="M66.2522 282.676L65.3232 282.107C65.3951 281.99 65.4669 281.871 65.5355 281.75L66.4841 282.287C66.409 282.419 66.3306 282.549 66.2522 282.678V282.676Z" fill="#043D61"/>
<path d="M55.2796 282.849C55.1719 282.745 55.0641 282.637 54.958 282.528L55.7433 281.774C55.8396 281.874 55.9392 281.973 56.0372 282.068L55.278 282.849H55.2796Z" fill="#043D61"/>
<path d="M67.6397 281.658L66.5654 281.472C66.572 281.436 66.5769 281.4 66.5834 281.364L66.6144 281.18L67.6903 281.356L67.6609 281.538C67.6544 281.578 67.6479 281.617 67.6413 281.658H67.6397Z" fill="#043D61"/>
<path d="M53.9413 281.679C53.9168 281.532 53.8923 281.384 53.8711 281.232L54.9503 281.082C54.9699 281.221 54.9911 281.359 55.014 281.495L53.9397 281.677L53.9413 281.679Z" fill="#043D61"/>
<path d="M84.7487 262.526C83.6275 267.094 85.3101 273.233 85.0751 277.626C85.0147 278.75 82.459 279.636 82.459 279.636C82.459 279.636 82.7968 280.838 83.5491 281.483C84.2607 282.093 85.4015 282.243 85.4015 282.243L93.9041 280.778V278.062C93.9041 278.062 93.4684 277.952 91.9425 276.758C90.4492 275.589 87.9098 272.411 87.8005 269.043C87.7531 267.604 87.931 264.634 88.042 262.968L95.5393 257.311C95.5393 257.311 100.117 261.222 104.368 261.657C106.312 261.856 109.601 261.766 109.601 261.766C109.601 261.766 109.994 266.98 109.927 269.045C109.818 272.413 107.278 275.59 105.785 276.759C104.259 277.954 103.823 278.063 103.823 278.063V280.779L112.326 282.245C112.326 282.245 113.467 282.093 114.178 281.485C114.931 280.841 115.268 279.638 115.268 279.638C115.268 279.638 112.713 278.751 112.652 277.628C112.417 273.233 113.635 267.183 112.979 262.528C112.094 256.243 110.962 254.695 110.036 253.619C107.72 250.926 102.516 249.599 98.9176 249.599C95.5328 249.599 91.1738 250.922 88.672 253.183C88.3227 253.498 88.0126 253.831 87.7205 254.163C85.6201 256.551 85.2774 260.371 84.7487 262.526Z" fill="#4E4D4D"/>
<path d="M93.6566 258.581L87.93 262.903L87.7994 269.044C87.7994 269.044 86.2458 264.235 86.1299 263.229C85.7741 260.164 86.2588 257.509 88.5028 255.482C90.3812 253.785 93.6517 252.791 96.1927 252.791L93.6566 258.58V258.581Z" fill="#323333"/>
<path d="M95.3229 256.985C95.3229 256.985 98.4661 260.163 102.071 261.128C104.713 261.834 109.601 261.767 109.601 261.767L109.928 263.83C109.928 263.83 110.582 262.419 110.582 261.767C110.582 258.399 107.282 259.92 103.715 259.051C100.147 258.182 95.3213 256.987 95.3213 256.987L95.3229 256.985Z" fill="#323333"/>
<path d="M97.1846 272.884C98.1621 273.857 99.7452 273.857 100.723 272.884" stroke="#BE6E71" stroke-width="0.326397" stroke-linecap="round" stroke-linejoin="round"/>
<path d="M58.6709 272.884C59.6485 273.857 61.2315 273.857 62.209 272.884" stroke="#BE6E71" stroke-width="0.326397" stroke-linecap="round" stroke-linejoin="round"/>
<g filter="url(#filter1_d_143_9100)">
<path d="M356.152 360.333C394.302 360.333 425.228 329.441 425.228 291.333C425.228 253.225 394.302 222.333 356.152 222.333C318.003 222.333 287.076 253.225 287.076 291.333C287.076 329.441 318.003 360.333 356.152 360.333Z" fill="white"/>
</g>
<path d="M355.188 328.363V329.727H350.175V331.546C350.175 332.321 349.988 332.682 349.399 332.923C348.798 333.123 347.995 333.137 346.899 333.137C346.792 332.735 346.525 332.107 346.284 331.706C347.14 331.746 348.089 331.746 348.343 331.733C348.597 331.733 348.691 331.679 348.691 331.505V329.727H343.704V328.363H348.691V327.535H349.373C349.76 327.301 350.141 327.027 350.496 326.746H345.977V325.489H351.846L352.153 325.422L353.089 326.117C352.334 326.92 351.284 327.762 350.215 328.363H355.188ZM355.028 323.149V326.278H353.557V324.446H345.255V326.278H343.864V323.149H345.656C345.415 322.715 345.067 322.207 344.747 321.786L345.99 321.237C346.445 321.745 346.966 322.441 347.167 322.935L346.725 323.149H348.811C348.644 322.641 348.303 322.006 347.982 321.518L349.279 321.023C349.68 321.612 350.121 322.374 350.295 322.922L349.68 323.149H351.672C352.093 322.548 352.548 321.772 352.795 321.184L354.386 321.665C354.032 322.167 353.644 322.688 353.277 323.149H355.028ZM367.408 323.443V324.874H363.037V327.24H366.927V328.644H363.037V331.332H368.077V332.749H356.472V331.332H361.512V328.644H357.969V327.24H361.512V324.874H358.785C358.397 325.609 357.983 326.264 357.555 326.786C357.274 326.532 356.632 326.104 356.258 325.89C357.274 324.807 358.103 323.042 358.558 321.264L360.055 321.598C359.888 322.22 359.681 322.848 359.44 323.443H361.512V321.104H363.037V323.443H367.408Z" fill="#221714"/>
<path d="M391.231 285.989L382.996 284.858V282.735H378.256V287.119H376.641V282.735H371.686V284.959L363.864 286.048C360.05 286.555 357.241 289.321 357.241 292.569V307.33H397.754V292.495C397.754 289.281 394.999 286.532 391.229 285.989H391.231Z" fill="#18191A"/>
<path d="M382.188 280.168H372.419V283.376L372.563 283.459C373.831 284.194 375.228 284.608 376.641 284.708V287.117H378.257V284.683C379.626 284.545 380.971 284.109 382.188 283.374V280.166V280.168Z" fill="#E1AD5D"/>
<path d="M377.449 292.107C377.997 292.107 378.442 291.666 378.442 291.122C378.442 290.579 377.997 290.138 377.449 290.138C376.901 290.138 376.457 290.579 376.457 291.122C376.457 291.666 376.901 292.107 377.449 292.107Z" fill="#E7A642"/>
<path d="M377.449 297.239C377.997 297.239 378.442 296.798 378.442 296.254C378.442 295.71 377.997 295.27 377.449 295.27C376.901 295.27 376.457 295.71 376.457 296.254C376.457 296.798 376.901 297.239 377.449 297.239Z" fill="#E7A642"/>
<path d="M377.449 302.373C377.997 302.373 378.442 301.932 378.442 301.388C378.442 300.844 377.997 300.403 377.449 300.403C376.901 300.403 376.457 300.844 376.457 301.388C376.457 301.932 376.901 302.373 377.449 302.373Z" fill="#E7A642"/>
<path d="M388.947 269.936C388.947 277.003 383.778 282.732 377.402 282.732C371.026 282.732 365.857 277.003 365.857 269.936C365.857 269.485 365.857 269.054 365.857 268.643C365.857 264.26 369.436 260.706 373.851 260.706H380.952C385.366 260.706 388.943 264.258 388.945 268.64C388.945 269.181 388.945 269.633 388.945 269.936H388.947Z" fill="#F3CB8D"/>
<path d="M365.504 265.244C365.504 265.244 365.509 263.162 365.509 270.09C365.509 274.122 367.314 278.014 370.29 280.308C372.428 281.956 374.604 282.735 377.52 282.735C377.52 282.735 371.217 279.203 369.577 275.354C368.14 271.981 368.975 265.244 368.975 265.244H365.504Z" fill="#EBBD76"/>
<path d="M383.459 271.374C383.459 270.981 383.139 270.662 382.745 270.662C382.352 270.662 382.032 270.981 382.032 271.374V271.956C382.032 272.35 382.352 272.669 382.745 272.669C383.139 272.669 383.459 272.35 383.459 271.956V271.374Z" fill="#231815"/>
<path d="M383.928 273.393H381.56C380.751 273.393 380.096 274.047 380.096 274.855C380.096 275.662 380.751 276.317 381.56 276.317H383.928C384.736 276.317 385.391 275.662 385.391 274.855C385.391 274.047 384.736 273.393 383.928 273.393Z" fill="#E9A48A"/>
<path d="M373.083 273.393H370.715C369.906 273.393 369.251 274.047 369.251 274.855C369.251 275.662 369.906 276.317 370.715 276.317H373.083C373.891 276.317 374.547 275.662 374.547 274.855C374.547 274.047 373.891 273.393 373.083 273.393Z" fill="#E9A48A"/>
<path d="M372.611 271.374C372.611 270.981 372.292 270.662 371.898 270.662C371.504 270.662 371.185 270.981 371.185 271.374V271.956C371.185 272.35 371.504 272.669 371.898 272.669C372.292 272.669 372.611 272.35 372.611 271.956V271.374Z" fill="#231815"/>
<path d="M380.21 260.879C380.509 260.78 380.949 260.706 380.949 260.706L384.181 263.986C385.232 265.052 386.59 265.77 388.066 266.039C388.164 267.025 388.918 272.683 388.057 275.143C388.057 275.143 390.319 270.866 390.426 268.3C390.426 268.262 390.514 264.557 390.211 263.381C388.561 256.973 385.199 253.757 377.556 253.757C375.314 253.757 373.196 254.37 371.324 255.426C365.56 258.678 363.058 265.639 365.291 271.839L366.519 275.251V268.513C366.519 268.513 371.104 267.843 372.551 267.23C374.66 266.337 375.838 264.832 376.752 263.595C377.937 261.991 379.122 261.243 380.213 260.881L380.21 260.879Z" fill="#4E4D4D"/>
<path d="M366.518 275.249C366.195 272.576 366.518 268.512 366.518 268.512L368.78 268.085C368.78 268.085 369.498 259.171 372.963 256.677C376.427 254.182 380.098 254.052 380.098 254.052C380.098 254.052 373.733 252.702 369.049 257.025C368.966 257.102 368.883 257.18 368.803 257.257C364.941 260.953 363.486 267.022 365.33 272.022L366.52 275.248L366.518 275.249Z" fill="#323333"/>
<path d="M390.439 307.359V298.63" stroke="#CBCBCB" stroke-width="0.163199" stroke-miterlimit="10"/>
<path d="M365.131 307.359V298.63" stroke="#CBCBCB" stroke-width="0.163199" stroke-miterlimit="10"/>
<path d="M355 307.359H314.487V292.353C314.487 289.106 317.296 286.341 321.11 285.832L334.913 283.91L348.475 285.773C352.243 286.316 355 289.065 355 292.28V307.359Z" fill="#18191A"/>
<path d="M334.845 298.988C334.845 298.988 339.647 295.388 341.315 292.571C342.835 290.005 343.734 285.147 343.734 285.147L334.845 283.91V287.118H334.83V283.91L325.94 285.147C325.94 285.147 326.84 290.005 328.359 292.571C330.027 295.388 334.83 298.988 334.83 298.988" fill="#B2B2B2"/>
<path d="M334.828 287.653L330.367 284.553L325.902 285.14L328.288 289.165C329.635 291.416 332.949 291.318 334.159 288.992L334.826 287.707V287.653H334.828Z" fill="#F1F1F1"/>
<path d="M334.854 287.653L339.315 284.553L343.78 285.14L341.394 289.165C340.047 291.416 336.733 291.318 335.524 288.992L334.856 287.707V287.653H334.854Z" fill="#F1F1F1"/>
<path d="M339.647 284.766L334.859 287.653L329.878 284.766V280.167H339.647V284.766Z" fill="#E1AD5D"/>
<path d="M346.408 269.936C346.408 277.003 341.239 282.732 334.863 282.732C328.487 282.732 323.318 277.003 323.318 269.936C323.318 269.485 323.318 269.054 323.318 268.643C323.318 264.26 326.897 260.706 331.312 260.706H338.413C342.827 260.706 346.404 264.258 346.406 268.64C346.406 269.181 346.406 269.633 346.406 269.936H346.408Z" fill="#F3CB8D"/>
<path d="M322.963 265.243C322.963 265.243 322.968 263.161 322.968 270.089C322.968 274.121 324.773 278.013 327.749 280.307C329.887 281.955 332.063 282.734 334.979 282.734C334.979 282.734 328.676 279.202 327.036 275.353C325.599 271.98 326.434 265.243 326.434 265.243H322.963Z" fill="#EBBD76"/>
<path d="M340.918 271.374C340.918 270.981 340.598 270.662 340.204 270.662C339.811 270.662 339.491 270.981 339.491 271.374V271.956C339.491 272.35 339.811 272.669 340.204 272.669C340.598 272.669 340.918 272.35 340.918 271.956V271.374Z" fill="#231815"/>
<path d="M341.389 273.393H339.021C338.212 273.393 337.557 274.047 337.557 274.855C337.557 275.662 338.212 276.317 339.021 276.317H341.389C342.197 276.317 342.852 275.662 342.852 274.855C342.852 274.047 342.197 273.393 341.389 273.393Z" fill="#E9A48A"/>
<path d="M330.543 273.393H328.175C327.366 273.393 326.711 274.047 326.711 274.855C326.711 275.662 327.366 276.317 328.175 276.317H330.543C331.351 276.317 332.007 275.662 332.007 274.855C332.007 274.047 331.351 273.393 330.543 273.393Z" fill="#E9A48A"/>
<path d="M330.071 271.374C330.071 270.981 329.752 270.662 329.358 270.662C328.964 270.662 328.645 270.981 328.645 271.374V271.956C328.645 272.35 328.964 272.669 329.358 272.669C329.752 272.669 330.071 272.35 330.071 271.956V271.374Z" fill="#231815"/>
<path d="M321.284 283.361H329.9V281.666C329.9 281.666 328.116 280.751 326.668 279.313C322.898 275.57 323.976 270.652 323.976 270.652L338.407 261.456L345.524 266.04C345.622 267.027 346.378 275.8 342.822 279.33C341.374 280.767 339.59 281.682 339.59 281.682V283.377H348.852C348.852 283.377 348.764 272.137 348.764 268.391C348.764 261.777 342.655 253.757 335.011 253.757C327.367 253.757 321.67 260.315 321.201 267.555L321.278 283.361H321.284Z" fill="#4E4D4D"/>
<path d="M326.196 269.237C326.196 269.237 326.957 259.171 330.421 256.677C333.886 254.182 337.556 254.052 337.556 254.052C337.556 254.052 331.192 252.702 326.508 257.025C321.824 261.347 321.356 266.22 321.267 266.885C321.179 267.55 321.285 283.361 321.285 283.361H329.901V281.666C329.901 281.666 326.885 280.275 325.054 277.067C323.223 273.859 323.977 270.651 323.977 270.651L326.194 269.237H326.196Z" fill="#323333"/>
<path d="M334.889 288.83C334.889 288.83 337.337 293.735 338.414 292.025C339.491 290.314 334.889 288.83 334.889 288.83Z" stroke="#B24B70" stroke-width="0.979191" stroke-linecap="round" stroke-linejoin="round"/>
<path d="M334.915 288.83C334.915 288.83 332.467 293.735 331.39 292.025C330.313 290.315 334.915 288.83 334.915 288.83Z" stroke="#B24B70" stroke-width="0.979191" stroke-linecap="round" stroke-linejoin="round"/>
<path d="M334.915 288.83L336.475 295.183" stroke="#B24B70" stroke-width="0.979191" stroke-linecap="round" stroke-linejoin="round"/>
<path d="M334.859 288.83L333.299 295.183" stroke="#B24B70" stroke-width="0.979191" stroke-linecap="round" stroke-linejoin="round"/>
<path d="M347.684 307.359V298.629" stroke="#CBCBCB" stroke-width="0.163199" stroke-miterlimit="10"/>
<path d="M322.372 307.359V298.629" stroke="#CBCBCB" stroke-width="0.163199" stroke-miterlimit="10"/>
<g filter="url(#filter2_d_143_9100)">
<path d="M217.451 147.857C255.601 147.857 286.527 116.965 286.527 78.8574C286.527 40.7498 255.601 9.85742 217.451 9.85742C179.301 9.85742 148.375 40.7498 148.375 78.8574C148.375 116.965 179.301 147.857 217.451 147.857Z" fill="white"/>
</g>
<path d="M193.431 117.644C193.431 118.077 193.498 118.132 193.918 118.132H195.124C195.517 118.132 195.585 117.888 195.652 116.33C195.95 116.574 196.587 116.831 196.994 116.926C196.845 118.999 196.465 119.54 195.26 119.54H193.715C192.266 119.54 191.941 119.08 191.941 117.657V114.406H189.976C189.678 116.75 189.008 118.694 186.007 119.798C185.831 119.419 185.425 118.822 185.072 118.524C187.721 117.678 188.208 116.161 188.418 114.406H185.276V112.957H190.315V110.776H188.026C187.721 111.46 187.382 112.103 186.996 112.605C186.644 112.388 186.048 112.063 185.668 111.927C186.535 110.857 187.159 109.109 187.443 107.755L188.96 108.066C188.845 108.48 188.71 108.92 188.567 109.367H190.315V107.565H191.819V109.367H195.842V110.776H191.819V112.957H196.858V114.406H193.431V117.644ZM209.294 109.936V111.385H204.864V113.783H208.806V115.206H204.864V117.928H209.971V119.364H198.213V117.928H203.32V115.206H199.73V113.783H203.32V111.385H200.556C200.163 112.13 199.744 112.794 199.31 113.323C199.026 113.065 198.375 112.632 197.996 112.415C199.026 111.318 199.865 109.529 200.326 107.728L201.843 108.066C201.674 108.696 201.464 109.333 201.22 109.936H203.32V107.565H204.864V109.936H209.294ZM212.058 119.703L220.077 107.958H222.082L214.062 119.703H212.058ZM235.927 114.921V116.303H230.847V118.145C230.847 118.931 230.657 119.297 230.061 119.54C229.452 119.744 228.639 119.757 227.528 119.757C227.42 119.351 227.149 118.714 226.905 118.308C227.772 118.348 228.734 118.348 228.991 118.335C229.248 118.335 229.343 118.281 229.343 118.105V116.303H224.29V114.921H229.343V114.081H230.034C230.427 113.844 230.813 113.566 231.172 113.282H226.593V112.008H232.54L232.852 111.941L233.8 112.645C233.035 113.458 231.971 114.311 230.888 114.921H235.927ZM235.764 109.638V112.808H234.274V110.952H225.862V112.808H224.453V109.638H226.268C226.024 109.198 225.672 108.683 225.347 108.256L226.607 107.701C227.067 108.215 227.596 108.92 227.799 109.421L227.352 109.638H229.465C229.296 109.123 228.95 108.48 228.625 107.985L229.939 107.484C230.346 108.08 230.793 108.852 230.969 109.407L230.346 109.638H232.364C232.791 109.028 233.251 108.242 233.502 107.646L235.114 108.134C234.755 108.642 234.362 109.17 233.99 109.638H235.764ZM249.027 109.38V110.762H241.82V109.38H244.665V107.565H246.114V109.38H249.027ZM244.705 111.467C244.306 112.225 243.784 112.991 243.229 113.621L244.258 113.35C244.529 114.088 244.888 114.786 245.342 115.422C245.742 114.745 246.033 114.013 246.222 113.241L247.591 113.512C247.171 112.848 246.595 112.11 246.06 111.521L247.211 110.857C248.011 111.697 248.905 112.794 249.257 113.593L248.011 114.325C247.929 114.129 247.821 113.912 247.685 113.675C247.347 114.731 246.886 115.7 246.29 116.56C247.11 117.393 248.126 118.05 249.298 118.457C248.972 118.782 248.498 119.378 248.268 119.771C247.117 119.297 246.134 118.599 245.315 117.712C244.441 118.585 243.344 119.29 241.982 119.771C241.833 119.446 241.454 118.904 241.224 118.606C242.565 118.152 243.621 117.461 244.434 116.601C243.865 115.781 243.405 114.847 243.039 113.824C242.836 114.04 242.633 114.237 242.429 114.406C242.199 114.135 241.725 113.702 241.427 113.472C242.213 112.848 242.958 111.819 243.378 110.911L244.705 111.467ZM241.671 110.247V111.643H240.235V112.347C240.621 112.842 241.644 114.366 241.86 114.745L241.075 115.856C240.899 115.422 240.56 114.772 240.235 114.162V119.744H238.867V114.664C238.494 115.754 238.054 116.75 237.566 117.427C237.417 117.021 237.092 116.438 236.862 116.073C237.654 115.043 238.379 113.228 238.758 111.643H237.173V110.247H238.867V107.565H240.235V110.247H241.671Z" fill="#221714"/>
<path d="M260.803 61.5386H240.832V46.2686C240.832 45.6524 240.591 45.0721 240.176 44.6433C240.005 44.4591 239.804 44.301 239.577 44.1787L227.901 37.8634C227.468 37.6286 226.979 37.5439 226.504 37.6026C226.029 37.5423 225.541 37.6286 225.107 37.8634L213.43 44.1787C213.203 44.301 213.002 44.4591 212.831 44.6433C212.418 45.0721 212.175 45.6524 212.175 46.2686V61.5386H192.204C190.917 61.5386 189.872 62.5868 189.872 63.8779V91.5503C189.872 92.843 190.917 93.8896 192.204 93.8896H260.801C262.089 93.8896 263.134 92.8414 263.134 91.5503V63.8779C263.134 62.5852 262.089 61.5386 260.801 61.5386H260.803Z" fill="#72C8D5"/>
<path d="M226.21 47.6719C226.177 47.6719 226.146 47.6719 226.115 47.6719C226.084 47.6719 226.051 47.6719 226.02 47.6719C221.439 47.6719 217.727 51.3969 217.727 55.994C217.727 60.5911 221.439 64.3161 226.02 64.3161C226.053 64.3161 226.084 64.3128 226.115 64.3128C226.148 64.3128 226.179 64.3161 226.21 64.3161C230.791 64.3161 234.503 60.5911 234.503 55.994C234.503 51.3969 230.791 47.6719 226.21 47.6719Z" fill="#32A2D3"/>
<path d="M253.236 68.5596H246.713C245.824 68.5596 245.103 69.2799 245.103 70.1686V74.0011C245.103 74.8898 245.824 75.6101 246.713 75.6101H253.236C254.126 75.6101 254.847 74.8898 254.847 74.0011V70.1686C254.847 69.2799 254.126 68.5596 253.236 68.5596Z" fill="#32A2D3"/>
<path d="M253.236 80.8477H246.713C245.824 80.8477 245.103 81.568 245.103 82.4566V86.2892C245.103 87.1778 245.824 87.8982 246.713 87.8982H253.236C254.126 87.8982 254.847 87.1778 254.847 86.2892V82.4566C254.847 81.568 254.126 80.8477 253.236 80.8477Z" fill="#32A2D3"/>
<path d="M222.614 76.4746H228.646C231.359 76.4746 233.56 78.6737 233.56 81.3831V93.9616H217.702V81.3831C217.702 78.6737 219.904 76.4746 222.616 76.4746H222.614Z" fill="#32A2D3"/>
<path d="M225.899 52.5449V56.0482L228.705 58.6467" stroke="white" stroke-width="1.63199" stroke-linecap="round" stroke-linejoin="round"/>
<g filter="url(#filter3_d_143_9100)">
<path d="M209.228 93.8574H175.238V77.6175C175.238 75.0271 177.595 72.4498 180.795 72.0455L192.377 70.2344L203.756 71.9982C206.918 72.4319 209.229 74.9945 209.229 77.5588V93.8558L209.228 93.8574Z" fill="#138C43"/>
<path d="M198.806 71.3835C198.806 71.3835 195.919 76.6474 192.358 76.6474C188.797 76.6474 185.91 71.3835 185.91 71.3835L192.358 70.5391L198.806 71.3835Z" fill="#999999"/>
<path d="M192.348 73.2207L196.09 70.7461L199.745 71.3868L195.238 76.248L192.348 73.2631V73.2207Z" fill="#F2F2F2"/>
<path d="M192.306 73.2207L188.564 70.7461L184.908 71.3868L189.416 76.248L192.306 73.2631V73.2207Z" fill="#F2F2F2"/>
<path d="M196.417 71.2807L192.317 73.7782L188.05 71.2807V67.2998H196.417V71.2807Z" fill="#F2C277"/>
<path d="M202.121 58.4459C202.121 64.5624 197.695 69.5198 192.234 69.5198C186.774 69.5198 182.348 64.5624 182.348 58.4459C182.348 58.0563 182.348 57.6716 182.348 57.2918C182.348 51.8127 186.774 47.3721 192.234 47.3721C197.693 47.3721 202.119 51.8127 202.121 57.2918C202.121 57.8085 202.121 58.2112 202.121 58.4476V58.4459Z" fill="#F9CF90"/>
<path d="M182.349 54.3826C182.349 54.3826 182.353 52.5813 182.353 58.5771C182.353 62.0673 183.898 65.4353 186.447 67.4209C188.278 68.8473 190.142 69.5205 192.639 69.5205C192.639 69.5205 186.984 66.5601 185.837 63.1318C184.784 59.9872 186.813 50.1768 186.813 50.1768L182.348 54.381L182.349 54.3826Z" fill="#F2C277"/>
<path d="M197.504 59.682C197.504 59.3452 197.231 59.0723 196.894 59.0723C196.556 59.0723 196.283 59.3452 196.283 59.682V60.1987C196.283 60.5354 196.556 60.8084 196.894 60.8084C197.231 60.8084 197.504 60.5354 197.504 60.1987V59.682Z" fill="#231815"/>
<path d="M197.894 61.4365H195.891C195.192 61.4365 194.625 62.0029 194.625 62.7015C194.625 63.4002 195.192 63.9666 195.891 63.9666H197.894C198.593 63.9666 199.16 63.4002 199.16 62.7015C199.16 62.0029 198.593 61.4365 197.894 61.4365Z" fill="#F2A88D"/>
<path d="M188.607 61.4365H186.604C185.905 61.4365 185.338 62.0029 185.338 62.7015C185.338 63.4002 185.905 63.9666 186.604 63.9666H188.607C189.306 63.9666 189.873 63.4002 189.873 62.7015C189.873 62.0029 189.306 61.4365 188.607 61.4365Z" fill="#F2A88D"/>
<path d="M188.214 59.682C188.214 59.3452 187.941 59.0723 187.604 59.0723C187.266 59.0723 186.993 59.3452 186.993 59.682V60.1987C186.993 60.5354 187.266 60.8084 187.604 60.8084C187.941 60.8084 188.214 60.5354 188.214 60.1987V59.682Z" fill="#231815"/>
<path d="M185.941 57.4443H189.277C190.305 57.4443 191.139 58.2774 191.139 59.3044C191.139 61.241 189.566 62.8125 187.627 62.8125H187.591C185.652 62.8125 184.079 61.241 184.079 59.3044C184.079 58.2774 184.913 57.4443 185.941 57.4443Z" stroke="#5F3819" stroke-width="1.14239" stroke-miterlimit="10"/>
<path d="M195.163 57.4443H198.499C199.527 57.4443 200.361 58.2774 200.361 59.3044C200.361 61.241 198.788 62.8125 196.849 62.8125H196.813C194.874 62.8125 193.301 61.241 193.301 59.3044C193.301 58.2774 194.135 57.4443 195.163 57.4443Z" stroke="#5F3819" stroke-width="1.14239" stroke-miterlimit="10"/>
<path d="M193.301 59.4014H191.137" stroke="#5F3819" stroke-width="1.14239" stroke-miterlimit="10"/>
<path d="M202.44 93.8573C202.44 93.8573 202.501 85.0983 202.919 82.0156" stroke="#046535" stroke-width="0.326397" stroke-miterlimit="10"/>
<path d="M182.442 93.8573C182.442 93.8573 182.382 85.0983 181.964 82.0156" stroke="#046535" stroke-width="0.326397" stroke-miterlimit="10"/>
<path d="M180.874 56.1024C180.472 52.6236 181.574 49.1481 184.102 46.8479C186.22 44.921 188.524 44.2559 191.388 44.2559C196.554 44.2559 199.597 47.2179 199.597 47.2179C199.597 47.2179 201.732 46.8576 202.825 48.0509C204.183 49.5328 203.932 53.6033 203.194 55.6395C202.927 56.3779 202.179 59.2487 202.179 59.2487C202.179 59.2487 202.086 54.8993 200.704 54.6206C199.48 54.3744 196.722 55.1602 195.077 54.9906C191.48 54.6206 190.318 51.5558 186.406 52.3074C182.071 53.1404 182.532 60.3588 182.532 60.3588C182.532 60.3588 181.003 57.2436 180.872 56.1008L180.874 56.1024Z" fill="#4E4D4D"/>
<path d="M187.332 52.2143C182.256 51.9926 182.563 60.3587 182.563 60.3587C182.563 60.3587 181.414 58.0177 181.316 57.1603C181.014 54.5471 182.388 51.0731 184.288 49.3451C185.879 47.8975 187.461 47.7948 189.546 48.3279C193.634 49.3712 194.158 54.8063 194.158 54.8063C194.158 54.8063 193.203 54.6481 192.314 54.0662C190.192 52.6772 189.455 52.3072 187.333 52.2159L187.332 52.2143Z" fill="#333333"/>
</g>
<path d="M211.283 45.9751L226.035 37.8828L241.557 45.9751" stroke="#32A2D3" stroke-width="4.89596" stroke-linecap="round" stroke-linejoin="round"/>
<path d="M215.258 71.5986C216.346 72.6856 218.108 72.6856 219.196 71.5986" stroke="#BE6E71" stroke-width="0.36334" stroke-linecap="round" stroke-linejoin="round"/>
<rect x="153.858" y="182.011" width="127.188" height="58.1117" rx="29.0558" fill="#85C500"/>
<path d="M200.72 196.717H204.701V197.967H200.72V196.717ZM204.273 196.717H204.503L204.722 196.663L205.578 196.893C205.106 201.783 203.44 204.623 200.567 206.18C200.381 205.829 199.997 205.292 199.701 205.028C202.277 203.844 203.878 201.048 204.273 196.991V196.717ZM202.003 197.858C202.486 201.114 203.571 203.844 205.907 205.083C205.6 205.335 205.183 205.851 204.986 206.213C202.453 204.7 201.389 201.816 200.786 198.044L202.003 197.858ZM195.951 196.717H199.547V197.967H195.951V196.717ZM199.109 196.717H199.328L199.558 196.663L200.402 196.904C199.997 201.333 198.725 204.403 196.521 206.202C196.313 205.873 195.885 205.368 195.567 205.138C197.53 203.735 198.769 200.643 199.109 197.013V196.717ZM195.874 199.568L196.85 198.79C198.242 200.314 199.931 202.353 200.633 203.768L199.525 204.7C198.889 203.285 197.267 201.147 195.874 199.568ZM206.707 197.66H216.652V198.921H206.707V197.66ZM210.369 200.347H214.569V201.597H210.369V200.347ZM214.086 200.347H215.446C215.446 200.347 215.435 200.741 215.402 200.917C215.204 203.921 214.974 205.16 214.536 205.642C214.207 205.993 213.856 206.103 213.351 206.158C212.935 206.191 212.2 206.18 211.466 206.158C211.444 205.774 211.246 205.226 210.994 204.864C211.751 204.93 212.529 204.93 212.847 204.93C213.088 204.93 213.242 204.919 213.384 204.798C213.713 204.513 213.922 203.263 214.075 200.555L214.086 200.347ZM209.876 198.406H211.356C211.191 201.344 210.895 204.546 207.453 206.278C207.255 205.928 206.861 205.445 206.51 205.171C209.7 203.691 209.766 200.906 209.876 198.406ZM210.939 195.851H212.299V198.154H210.939V195.851ZM218 197.748H226.257V199.031H219.305V206.191H218V197.748ZM225.785 197.748H227.112V204.678C227.112 205.39 226.958 205.763 226.498 205.971C226.026 206.18 225.325 206.213 224.338 206.213C224.283 205.84 224.086 205.226 223.899 204.875C224.546 204.919 225.292 204.919 225.511 204.908C225.719 204.908 225.785 204.853 225.785 204.656V197.748ZM221.608 195.906L223.296 196.147C222.913 197.024 222.441 197.923 222.09 198.527L220.818 198.241C221.125 197.573 221.454 196.619 221.608 195.906ZM220.38 200.094H221.575V204.623H220.38V200.094ZM220.895 200.094H224.689V203.855H220.895V202.704H223.472V201.246H220.895V200.094ZM229.48 197.682H232.846V205.072H229.48V203.91H231.651V198.834H229.48V197.682ZM228.713 197.682H229.908V205.884H228.713V197.682ZM229.425 200.61H232.232V201.75H229.425V200.61ZM230.27 195.895L231.706 196.103C231.454 196.849 231.18 197.627 230.96 198.143L229.908 197.913C230.061 197.342 230.215 196.498 230.27 195.895ZM234.294 197.606H237.495V198.801H234.294V197.606ZM237.046 197.606H238.263C238.263 197.606 238.263 198.033 238.252 198.198C238.109 203.132 237.978 204.875 237.528 205.456C237.221 205.884 236.914 206.004 236.465 206.07C236.048 206.136 235.379 206.125 234.743 206.092C234.721 205.73 234.546 205.171 234.305 204.82C235.017 204.875 235.675 204.886 235.949 204.886C236.169 204.886 236.289 204.842 236.432 204.689C236.783 204.316 236.925 202.43 237.046 197.858V197.606ZM234.327 195.906L235.587 196.202C235.16 197.825 234.447 199.491 233.702 200.544C233.46 200.325 232.923 199.952 232.616 199.776C233.351 198.855 233.976 197.364 234.327 195.906ZM233.789 200.763L234.82 200.182C235.357 200.939 236.081 201.991 236.421 202.638L235.302 203.318C235.006 202.649 234.316 201.575 233.789 200.763ZM170.028 216.43C170.445 216.474 171.004 216.507 171.388 216.507H176.914C177.232 216.507 177.682 216.485 177.868 216.474C177.857 216.737 177.835 217.165 177.835 217.494V223.173C177.835 223.557 177.868 224.127 177.89 224.467H176.3C176.311 224.138 176.322 223.743 176.322 223.338V217.921H171.388C170.927 217.921 170.335 217.943 170.028 217.965V216.43ZM169.897 222.384C170.27 222.417 170.763 222.45 171.256 222.45H177.188V223.897H171.3C170.873 223.897 170.259 223.919 169.897 223.963V222.384ZM182.287 215.63C183.734 215.805 186.892 216.452 188.273 216.934L187.714 218.294C186.431 217.823 183.328 217.132 181.782 216.934L182.287 215.63ZM181.793 218.579C183.361 218.842 186.146 219.445 187.517 219.917L186.979 221.287C185.729 220.805 182.912 220.169 181.278 219.906L181.793 218.579ZM181.223 221.726C183.109 222.011 186.475 222.8 187.988 223.36L187.385 224.73C185.905 224.127 182.429 223.371 180.675 223.096L181.223 221.726ZM198.339 218.996C198.295 219.138 198.251 219.336 198.24 219.456C198.13 220.224 197.757 222.713 197.626 223.502H196.113C196.255 222.778 196.584 220.662 196.639 219.928C196.113 219.928 193.986 219.928 193.668 219.928C193.328 219.928 192.889 219.95 192.571 219.972V218.524C192.867 218.568 193.372 218.601 193.657 218.601C194.216 218.601 195.948 218.601 196.475 218.601C196.694 218.601 197.143 218.557 197.286 218.48L198.339 218.996ZM191.573 222.965C191.859 222.998 192.275 223.031 192.648 223.031C193.306 223.031 197.867 223.031 198.404 223.031C198.678 223.031 199.194 223.009 199.479 222.976V224.39C199.249 224.379 198.711 224.368 198.426 224.368C197.856 224.368 193.207 224.368 192.648 224.368C192.264 224.368 191.979 224.379 191.573 224.401V222.965ZM202.735 216.77C203.141 216.814 203.645 216.836 204.029 216.836C204.95 216.836 207.965 216.836 208.568 216.836C209.007 216.836 209.467 216.814 209.785 216.77V218.36C209.467 218.349 208.952 218.327 208.568 218.327C207.987 218.327 204.643 218.327 204.029 218.327C203.612 218.327 203.108 218.349 202.735 218.36V216.77ZM201.814 222.143C202.242 222.164 202.757 222.208 203.196 222.208C203.887 222.208 208.799 222.208 209.489 222.208C209.851 222.208 210.323 222.175 210.696 222.143V223.82C210.301 223.776 209.807 223.743 209.489 223.743C208.799 223.743 203.887 223.743 203.196 223.743C202.757 223.743 202.231 223.776 201.814 223.82V222.143ZM216.649 215.63C216.529 215.915 216.386 216.288 216.287 216.529C216.101 217.077 215.761 217.888 215.476 218.448C215.037 219.314 214.292 220.366 213.568 221.013L212.187 220.18C212.976 219.599 213.678 218.612 214.095 217.921C214.391 217.417 214.599 216.836 214.73 216.419C214.851 216.057 214.939 215.641 214.961 215.301L216.649 215.63ZM214.917 217.329C215.794 217.329 219.96 217.329 220.717 217.329C220.991 217.329 221.496 217.307 221.857 217.252V218.744C221.441 218.711 220.969 218.711 220.717 218.711C219.95 218.711 215.794 218.711 214.807 218.711L214.917 217.329ZM219.204 218.119C219.127 221.353 217.976 223.491 215.86 224.818L214.38 223.831C214.774 223.667 215.158 223.447 215.41 223.228C216.66 222.274 217.636 220.761 217.68 218.119H219.204ZM223.59 219.138C223.995 219.171 224.785 219.215 225.355 219.215C226.649 219.215 230.267 219.215 231.243 219.215C231.758 219.215 232.241 219.16 232.537 219.138V220.871C232.274 220.86 231.714 220.805 231.254 220.805C230.256 220.805 226.649 220.805 225.355 220.805C224.741 220.805 224.006 220.838 223.59 220.871V219.138ZM236.61 215.542C237.333 215.937 238.539 216.704 239.11 217.11L238.298 218.316C237.684 217.888 236.544 217.154 235.82 216.748L236.61 215.542ZM234.581 223.327C235.809 223.118 237.114 222.746 238.309 222.088C240.173 221.046 241.708 219.544 242.574 217.976L243.419 219.467C242.41 220.991 240.853 222.373 239.066 223.414C237.947 224.039 236.368 224.588 235.404 224.763L234.581 223.327ZM234.921 218.042C235.656 218.437 236.862 219.182 237.432 219.588L236.621 220.816C236.007 220.377 234.866 219.643 234.132 219.248L234.921 218.042ZM246.412 218.031C246.697 218.053 247.366 218.075 247.772 218.075C248.671 218.075 251.017 218.075 251.927 218.075C252.179 218.075 252.585 218.064 252.76 218.053C252.749 218.206 252.749 218.568 252.749 218.798C252.749 219.237 252.749 223.425 252.749 224.292C252.749 224.467 252.76 224.851 252.76 225.037H251.39C251.401 224.862 251.401 224.445 251.401 224.226C251.401 223.107 251.401 219.676 251.401 219.314C250.973 219.314 248.66 219.314 247.772 219.314C247.366 219.314 246.686 219.336 246.412 219.347V218.031ZM246.697 220.597C246.982 220.618 247.486 220.629 247.903 220.629C248.44 220.629 251.741 220.629 252.037 220.629V221.879C251.73 221.879 248.44 221.879 247.903 221.879C247.486 221.879 246.96 221.879 246.697 221.901V220.597ZM246.302 223.283C246.478 223.305 246.851 223.327 247.245 223.327C247.925 223.327 251.576 223.327 252.048 223.327V224.61C251.445 224.61 247.925 224.61 247.245 224.61C246.927 224.61 246.478 224.631 246.302 224.631V223.283ZM257.585 215.882C258.341 216.397 259.767 217.537 260.414 218.206L259.295 219.347C258.725 218.733 257.344 217.537 256.543 216.989L257.585 215.882ZM256.203 223.184C257.925 222.943 259.339 222.384 260.403 221.759C262.278 220.64 263.703 218.974 264.405 217.494L265.249 219.029C264.427 220.52 262.968 222.033 261.203 223.096C260.085 223.765 258.67 224.368 257.135 224.631L256.203 223.184Z" fill="white"/>
<defs>
<filter id="filter0_d_143_9100" x="0.921834" y="212.976" width="157.852" height="157.699" filterUnits="userSpaceOnUse" color-interpolation-filters="sRGB">
<feFlood flood-opacity="0" result="BackgroundImageFix"/>
<feColorMatrix in="SourceAlpha" type="matrix" values="0 0 0 0 0 0 0 0 0 0 0 0 0 0 0 0 0 0 127 0" result="hardAlpha"/>
<feOffset dy="0.492483"/>
<feGaussianBlur stdDeviation="4.92483"/>
<feComposite in2="hardAlpha" operator="out"/>
<feColorMatrix type="matrix" values="0 0 0 0 0 0 0 0 0 0 0 0 0 0 0 0 0 0 0.1 0"/>
<feBlend mode="normal" in2="BackgroundImageFix" result="effect1_dropShadow_143_9100"/>
<feBlend mode="normal" in="SourceGraphic" in2="effect1_dropShadow_143_9100" result="shape"/>
</filter>
<filter id="filter1_d_143_9100" x="277.227" y="212.976" width="157.852" height="157.699" filterUnits="userSpaceOnUse" color-interpolation-filters="sRGB">
<feFlood flood-opacity="0" result="BackgroundImageFix"/>
<feColorMatrix in="SourceAlpha" type="matrix" values="0 0 0 0 0 0 0 0 0 0 0 0 0 0 0 0 0 0 127 0" result="hardAlpha"/>
<feOffset dy="0.492483"/>
<feGaussianBlur stdDeviation="4.92483"/>
<feComposite in2="hardAlpha" operator="out"/>
<feColorMatrix type="matrix" values="0 0 0 0 0 0 0 0 0 0 0 0 0 0 0 0 0 0 0.1 0"/>
<feBlend mode="normal" in2="BackgroundImageFix" result="effect1_dropShadow_143_9100"/>
<feBlend mode="normal" in="SourceGraphic" in2="effect1_dropShadow_143_9100" result="shape"/>
</filter>
<filter id="filter2_d_143_9100" x="138.525" y="0.500254" width="157.852" height="157.699" filterUnits="userSpaceOnUse" color-interpolation-filters="sRGB">
<feFlood flood-opacity="0" result="BackgroundImageFix"/>
<feColorMatrix in="SourceAlpha" type="matrix" values="0 0 0 0 0 0 0 0 0 0 0 0 0 0 0 0 0 0 127 0" result="hardAlpha"/>
<feOffset dy="0.492483"/>
<feGaussianBlur stdDeviation="4.92483"/>
<feComposite in2="hardAlpha" operator="out"/>
<feColorMatrix type="matrix" values="0 0 0 0 0 0 0 0 0 0 0 0 0 0 0 0 0 0 0.1 0"/>
<feBlend mode="normal" in2="BackgroundImageFix" result="effect1_dropShadow_143_9100"/>
<feBlend mode="normal" in="SourceGraphic" in2="effect1_dropShadow_143_9100" result="shape"/>
</filter>
<filter id="filter3_d_143_9100" x="169.686" y="35.0025" width="52.4979" height="68.1093" filterUnits="userSpaceOnUse" color-interpolation-filters="sRGB">
<feFlood flood-opacity="0" result="BackgroundImageFix"/>
<feColorMatrix in="SourceAlpha" type="matrix" values="0 0 0 0 0 0 0 0 0 0 0 0 0 0 0 0 0 0 127 0" result="hardAlpha"/>
<feOffset dx="3.70134"/>
<feGaussianBlur stdDeviation="4.62668"/>
<feColorMatrix type="matrix" values="0 0 0 0 1 0 0 0 0 1 0 0 0 0 1 0 0 0 0.7 0"/>
<feBlend mode="normal" in2="BackgroundImageFix" result="effect1_dropShadow_143_9100"/>
<feBlend mode="normal" in="SourceGraphic" in2="effect1_dropShadow_143_9100" result="shape"/>
</filter>
</defs>
</svg>
