<svg width="940" height="602" viewBox="0 0 940 602" fill="none" xmlns="http://www.w3.org/2000/svg">
<path d="M6.94567 266.763C-2.79054 355 36.5 448 89.5005 512L882.231 510.892C903.651 488.665 936.475 459.95 939.029 426.655C941.216 398.139 940.84 366.864 925.705 344.314C910.887 322.249 885.804 314.171 862.483 307.385C884.794 265.008 888.942 223.036 876.935 180.002C864.928 136.967 840.379 100.234 802.359 91.1401C781.621 86.1777 739.364 85.9239 724.11 105.843C724.11 105.843 671.598 -2.00278 528.513 0.0283339C427.31 1.47089 373.175 111.613 373.175 111.613C373.175 111.613 351.427 77.8109 308.665 61.9082C279.791 51.1756 224.686 44.6091 190.05 48.0135C84.8973 58.3306 19.0006 157.5 6.94567 266.763Z" fill="#CFEF8C"/>
<path d="M376.278 223.558C376.278 223.558 425.926 147.977 518.741 146.989C649.965 145.591 698.125 219.599 698.125 219.599C712.114 205.933 750.868 206.107 769.887 209.516C804.756 215.76 827.261 240.963 838.282 270.489C849.293 300.016 845.49 328.821 825.028 357.899C846.416 362.552 869.42 368.092 883.01 383.239C896.89 398.707 897.235 420.171 895.229 439.742C892.887 462.587 862.784 495.816 843.138 511.063L89.1546 510.661C56.0376 482.926 30.0273 385 40.4141 330.027C54.8736 253.5 121.954 184.908 189.758 171.287C304.243 148.297 376.287 223.558 376.287 223.558H376.278Z" fill="#B1DD56"/>
<path d="M644.669 255.743L637.669 253.237C637.206 253.074 636.861 252.683 636.743 252.211L631.013 230.157C630.732 229.031 631.831 228.041 632.92 228.431L639.921 230.937C640.384 231.101 640.729 231.491 640.847 231.963L646.576 254.018C646.857 255.144 645.759 256.133 644.669 255.743Z" fill="#171C61"/>
<g filter="url(#filter0_d_143_10143)">
<path d="M555.988 48.2285H231.872C220.183 48.2285 210.707 57.7043 210.707 69.3932V276.327C210.707 288.016 220.183 297.492 231.872 297.492H555.988C567.677 297.492 577.152 288.016 577.152 276.327V69.3932C577.152 57.7043 567.677 48.2285 555.988 48.2285Z" fill="#F7F5F7" stroke="white" stroke-width="0.453982" stroke-miterlimit="10"/>
<path opacity="0.9" d="M268.734 235.814C284.184 235.814 296.709 223.289 296.709 207.84C296.709 192.39 284.184 179.865 268.734 179.865C253.284 179.865 240.76 192.39 240.76 207.84C240.76 223.289 253.284 235.814 268.734 235.814Z" fill="#DACFDF"/>
<path opacity="0.9" d="M310.765 235.814C326.215 235.814 338.74 223.289 338.74 207.84C338.74 192.39 326.215 179.865 310.765 179.865C295.316 179.865 282.791 192.39 282.791 207.84C282.791 223.289 295.316 235.814 310.765 235.814Z" stroke="#CCB9D9" stroke-width="0.907964" stroke-linecap="round" stroke-linejoin="round"/>
<path opacity="0.9" d="M293.332 226.435L337.632 182.126" stroke="#CCB9D9" stroke-width="0.907964" stroke-linecap="round" stroke-linejoin="round" stroke-dasharray="7.26 7.26"/>
<path opacity="0.6" d="M525.398 77.4922H242.059V86.5718H525.398V77.4922Z" fill="#DBD2DC"/>
<path opacity="0.6" d="M497.651 100.437H242.059V109.516H497.651V100.437Z" fill="#DBD2DC"/>
<path opacity="0.6" d="M497.651 124.062H242.059V133.141H497.651V124.062Z" fill="#DBD2DC"/>
<path opacity="0.6" d="M340.2 146.579H242.059V155.659H340.2V146.579Z" fill="#DBD2DC"/>
<path opacity="0.8" d="M406.074 186.366V196.753" stroke="#CCB9D9" stroke-width="0.907964" stroke-linecap="round" stroke-linejoin="round"/>
<path opacity="0.8" d="M411.269 191.561H400.891" stroke="#CCB9D9" stroke-width="0.907964" stroke-linecap="round" stroke-linejoin="round"/>
<path opacity="0.8" d="M450.291 189.054H460.669" stroke="#CCB9D9" stroke-width="0.907964" stroke-linecap="round" stroke-linejoin="round"/>
<path opacity="0.8" d="M450.291 195.409H460.669" stroke="#CCB9D9" stroke-width="0.907964" stroke-linecap="round" stroke-linejoin="round"/>
<path opacity="0.8" d="M393.271 182.834H372.225V203.881H393.271V182.834Z" stroke="#CCB9D9" stroke-width="0.907964" stroke-linecap="round" stroke-linejoin="round"/>
<path opacity="0.8" d="M439.314 182.834H418.268V203.881H439.314V182.834Z" stroke="#CCB9D9" stroke-width="0.907964" stroke-linecap="round" stroke-linejoin="round"/>
</g>
<g filter="url(#filter1_d_143_10143)">
<path d="M165.182 231.483C159.108 223.847 163.04 190.598 178.321 185.277C190.306 181.1 199.658 182.353 206.213 187.338C211.252 191.179 209.137 198.497 210.127 201.321C211.025 203.89 220.677 214.504 221.485 217.092C224.191 225.736 196.507 236.913 196.507 236.913C196.507 236.913 172.728 240.971 165.182 231.474V231.483Z" fill="#152041"/>
<path d="M181.578 211.199C181.587 211.598 181.278 211.925 180.879 211.925C179.226 211.925 175.395 211.562 174.859 215.902C174.314 220.287 178.491 222.748 180.997 222.884C181.723 222.92 183.394 223.075 183.884 223.611C185.391 225.254 186.109 228.84 187.271 233.317C189.84 243.204 182.068 247.717 182.068 247.717C182.068 247.717 208.472 259.23 208.227 246.473C208.227 246.473 205.675 224.21 205.793 224.092C207.818 222.067 215.663 221.204 210.733 204.462C204.522 189.562 194.789 190.061 191.892 190.57C189.45 191.006 180.979 191.532 181.569 211.199H181.578Z" fill="#F5B2AD"/>
<path d="M195.735 189.908C195.735 189.908 197.705 211.672 181.243 211.799C181.243 211.799 166.235 187.012 195.735 189.908Z" fill="#152041"/>
<path d="M176.738 217.146C176.738 217.146 179.344 211.653 182.649 219.016L176.738 217.146Z" fill="#E6918A"/>
<path d="M211.859 209.02C210.942 209.129 209.207 209.311 208.817 208.121C208.563 207.359 208.926 206.133 210.996 205.307C210.996 205.307 211.323 206.278 211.868 209.011L211.859 209.02Z" fill="#EE828F"/>
<path d="M204.234 214.849C204.234 214.849 206.795 215.957 208.084 215.003C209.373 214.05 209.373 212.461 209.373 212.461" stroke="#040000" stroke-width="0.453982" stroke-linecap="round" stroke-linejoin="round"/>
<path d="M196.761 204.771C196.244 205.488 196.543 202.982 197.388 202.401C198.232 201.82 199.322 201.947 199.821 202.682C199.821 202.682 197.996 203.046 196.761 204.771Z" fill="#040000"/>
<path d="M207.947 200.54C208.801 200.777 206.994 199.006 205.977 199.088C204.96 199.169 204.188 199.941 204.252 200.831C204.252 200.831 205.904 199.968 207.947 200.55V200.54Z" fill="#040000"/>
<path d="M200.184 207.885C200.474 208.594 200.983 209.057 201.328 208.92C201.673 208.784 201.718 208.094 201.428 207.386C201.137 206.678 200.629 206.215 200.284 206.351C199.939 206.487 199.893 207.177 200.184 207.885Z" fill="#040000"/>
<path d="M205.678 205.271C205.95 205.952 206.441 206.388 206.768 206.261C207.095 206.124 207.14 205.471 206.868 204.799C206.595 204.118 206.105 203.682 205.778 203.809C205.451 203.945 205.406 204.599 205.678 205.271Z" fill="#040000"/>
<path d="M205.804 224.083C205.804 224.083 198.413 225.499 194.682 225.254C190.95 225.009 207.466 246.564 205.804 224.083Z" fill="#E6918A"/>
<path opacity="0.5" d="M166.734 579.688C209.368 579.688 243.929 576.221 243.929 571.943C243.929 567.666 209.368 564.198 166.734 564.198C124.1 564.198 89.5391 567.666 89.5391 571.943C89.5391 576.221 124.1 579.688 166.734 579.688Z" fill="#595757"/>
<path d="M204.288 536.887L204.724 538.984L207.493 556.989C207.466 557.044 207.438 557.098 207.411 557.153C204.796 562.019 208.019 563.39 211.125 563.681C212.414 565.006 213.867 565.479 215.283 563.744C215.329 563.69 215.374 563.635 215.419 563.581C215.437 563.581 215.447 563.581 215.447 563.581V563.554C219.396 558.787 223.246 556.254 223.246 556.254L224.563 536.396L204.27 536.887H204.288Z" fill="#E6918A"/>
<path d="M140.459 535.415L134.521 554.464C134.521 554.464 129.999 558.432 128.365 558.332C125.396 558.141 123.834 553.02 123.834 553.02L123.344 535.415H140.459Z" fill="#F5B2AD"/>
<path d="M133.849 529.169C133.849 529.169 130.807 540.291 130.09 544.069C129.246 548.472 127.747 561.847 127.747 561.847C127.747 561.847 119.231 564.098 123.934 555.609L122.899 531.366L133.858 529.169H133.849Z" fill="#E6918A"/>
<path d="M210.672 570.154C210.718 570.708 205.079 570.554 205.025 570.054C204.716 566.922 205.37 556.671 205.933 553.82C206.014 553.411 206.432 553.084 206.995 553.003C207.494 552.93 208.012 553.066 208.311 553.366C209.9 554.909 215.003 559.549 217.718 558.605C219.534 557.978 221.895 556.852 222.63 556.199C223.129 555.763 224.046 555.745 224.591 556.153L237.584 566.686C238.864 567.83 238.12 570.762 234.842 570.762L216.047 570.953C215.475 570.953 214.967 570.699 214.776 570.308L212.043 565.832L210.681 570.163L210.672 570.154Z" fill="#A051D4"/>
<path d="M123.615 552.358L115.907 566.268C114.935 567.748 114.318 570.545 115.08 572.442C116.079 574.93 120.301 576.973 122.807 576.973C126.039 576.973 129.245 575.847 131.905 574.095C133.748 572.878 135.628 568.683 135.628 566.522C135.628 562.772 134.983 553.375 134.983 553.375C134.956 553.184 134.62 553.121 134.456 553.266L130.979 556.417C129.835 557.452 126.748 557.306 125.976 556.072C125.431 555.191 124.142 552.34 124.142 552.34C124.024 552.186 123.715 552.195 123.615 552.349V552.358Z" fill="#A051D4"/>
<path d="M146.115 539.982C142.311 540.191 120.074 531.774 114.055 530.321C116.361 495.555 148.939 365.816 153.824 346.703C158.036 330.224 161.913 320.726 169.241 307.77C183.977 307.334 201.719 304.71 216.246 306.717C248.034 359.251 229.521 498.034 225.553 540.844C221.903 541.298 192.812 541.661 189.661 540.054C197.578 501.657 194.773 421.429 197.715 396.469L146.115 540V539.982Z" fill="#152041"/>
<path d="M128.119 518.572L176.414 310.93" stroke="white" stroke-width="0.562938" stroke-miterlimit="10"/>
<path d="M185.609 311.893C185.609 311.893 185.228 347.685 169.166 344.861" stroke="white" stroke-width="0.562938" stroke-miterlimit="10"/>
<g style="mix-blend-mode:multiply" opacity="0.21">
<path d="M216.046 313.245L156.202 358.307C156.202 358.307 153.705 333.992 164.338 314.035L216.046 313.254V313.245Z" fill="#040000"/>
</g>
<path d="M227.793 338.977C214.092 341.383 213.348 310.739 213.348 310.739" stroke="white" stroke-width="0.562938" stroke-miterlimit="10"/>
<path d="M115.951 514.704L150.817 525.79" stroke="white" stroke-width="0.562938" stroke-miterlimit="10"/>
<path d="M316.486 254.291C304.21 259.639 296.129 263.48 295.049 264.107L255.634 281.712L255.706 281.558C255.706 281.558 253.736 282.475 252.293 283.028C251.602 283.292 250.813 283.092 250.35 282.511C239.136 268.492 211.87 230.448 199.903 240.272C199.73 240.418 201.746 240.863 202.527 241.244C209.618 244.74 224.473 270.816 224.473 270.816C224.763 271.189 225.626 273.041 226.87 275.701C235.05 305.355 241.769 304.774 241.769 304.774C242.813 304.892 243.985 304.847 245.247 304.683C245.283 304.702 245.319 304.72 245.347 304.738L245.383 304.665C265.367 301.842 310.203 266.222 310.203 266.222C313.789 263.18 320.054 252.748 316.495 254.301L316.486 254.291Z" fill="#F5B2AD"/>
<path d="M207.447 237.712C207.447 237.712 215.628 239.437 217.635 240.79C220.068 242.415 246.808 275.302 251.211 281.648L266.51 276.219C266.51 276.219 273.919 291.563 273.474 293.579C273.474 293.579 252.065 313.563 241.623 308.47C231.181 303.376 207.456 237.712 207.456 237.712H207.447Z" fill="#543080"/>
<path d="M312.653 236.785L308.885 231.265L305.171 236.449L305.062 239.445L312.481 239.573L312.653 236.785Z" fill="#FEF1E6"/>
<path d="M310.593 233.771L308.886 231.265L307.279 233.516C307.279 233.516 308.133 235.269 310.602 233.771H310.593Z" fill="#1A274D"/>
<path d="M305.226 236.459C305.326 237.031 305.808 237.476 306.407 237.494C307.006 237.521 307.524 237.121 307.669 236.558H307.732C307.832 237.13 308.313 237.575 308.913 237.603C309.512 237.63 310.03 237.23 310.175 236.667H310.238C310.338 237.239 310.819 237.684 311.419 237.712C311.991 237.739 312.49 237.367 312.663 236.84L310.974 274.984L303.492 274.648L305.19 236.44H305.235L305.226 236.459Z" fill="#036EB8"/>
<path d="M306.397 237.494C306.996 237.521 307.514 237.122 307.659 236.559H307.723C307.823 237.131 308.304 237.576 308.903 237.603C309.502 237.63 310.02 237.23 310.165 236.668H310.229C310.329 237.24 310.81 237.684 311.409 237.712C311.981 237.739 312.48 237.367 312.653 236.84L310.964 274.984L304.854 274.53C304.854 274.53 305.807 237.457 306.406 237.485L306.397 237.494Z" fill="#2EA7E0"/>
<path d="M303.478 274.6L310.961 274.932L311.041 273.127L303.558 272.795L303.478 274.6Z" fill="#FEF1E6"/>
<path d="M310.963 274.857L303.482 274.521L303.373 276.928C303.282 278.998 304.88 280.741 306.95 280.832C309.02 280.923 310.764 279.325 310.854 277.254L310.963 274.848V274.857Z" fill="#C63786"/>
<path d="M310.964 274.857L304.39 274.566L304.282 276.973C304.191 279.043 305.589 280.777 307.405 280.859C309.221 280.94 310.764 279.333 310.855 277.263L310.964 274.857Z" fill="#E0579A"/>
<path d="M310.284 236.55L308.568 270.98" stroke="#FEF1E6" stroke-width="0.272389" stroke-miterlimit="10"/>
<path d="M307.759 236.613L306.043 271.052" stroke="#FEF1E6" stroke-width="0.272389" stroke-miterlimit="10"/>
<path d="M298.898 262.19C298.898 262.19 305.308 252.066 306.352 253.283C308.413 255.689 302.175 262.19 303.537 262.599C303.537 262.599 300.686 262.272 298.889 262.19H298.898Z" fill="#F2A0AF"/>
<path d="M207.448 237.712C212.832 238.656 221.122 264.406 220.614 274.466C220.105 284.608 219.524 298.609 218.081 309.95C218.081 309.95 209.255 315.897 165.863 309.06C152.525 297.383 164.247 257.714 168.724 245.157C168.724 245.157 183.769 238.683 187.446 238.411C187.446 238.411 194.138 249.261 203.589 246.592C208.429 245.23 207.448 242.016 207.448 237.712Z" fill="#F7F8F8"/>
<path d="M182.198 239.982C180.019 240.164 169.259 244.504 169.259 244.504C163.167 263.98 153.379 316.724 153.379 316.724L197.088 316.179C197.996 303.93 198.251 275.357 195.527 264.243C193.484 255.908 182.198 239.982 182.198 239.982Z" fill="#5E3390"/>
<path d="M218.08 309.949C218.08 309.949 218.77 303.984 219.179 299.136C219.987 289.366 220.64 276.473 219.56 264.769C219.042 259.167 215.084 248.571 212.151 242.633C210.98 240.254 208.928 238.111 208.928 238.111L213.54 239.364C213.54 239.364 217.799 249.116 221.004 262.59C224.853 278.779 227.795 311.72 227.795 311.72L220.187 314.099L218.08 309.94V309.949Z" fill="#5E3390"/>
<path d="M197.476 215.21C199.445 214.227 200.608 212.56 200.072 211.488C199.537 210.416 197.507 210.344 195.537 211.327C193.567 212.31 192.405 213.977 192.94 215.049C193.475 216.121 195.506 216.193 197.476 215.21Z" fill="#EE828F"/>
<path d="M166.734 329.825L202.426 340.548L217.898 291.191L179.818 280.922L166.734 329.825Z" fill="#96C731"/>
<path d="M166.734 329.825L169.658 330.642L182.551 281.63L179.818 280.922L166.734 329.825Z" fill="#22AC38"/>
<path d="M188.616 325.839C188.616 325.839 130.543 320.636 127.538 310.703C127.538 310.703 123.488 303.24 144.607 284.145C146.287 282.002 147.468 280.522 147.649 280.123C147.649 280.123 164.238 251.676 159.035 256.824C157.228 258.613 158.182 254.482 158.309 254.645C167.134 265.94 158.472 283.746 151.544 298.845C151.254 299.472 194.736 315.851 194.736 315.851C194.736 315.851 205.096 315.543 208.183 316.151C208.183 316.151 209.327 317.477 203.671 318.684C200.701 318.766 209.836 320.918 209.89 322.715C209.926 323.905 208.891 324.395 208.891 324.395C208.891 324.395 209.491 324.913 209.264 325.703C208.9 326.947 208.265 326.865 208.265 326.865C208.265 326.865 208.564 327.5 208.101 328.245C207.638 328.989 207.075 328.89 207.075 328.89C207.075 328.89 207.511 329.598 206.394 330.351C205.804 330.751 189.052 325.439 188.607 325.83L188.616 325.839Z" fill="#F5B2AD"/>
<path d="M177.52 264.77C177.52 264.77 176.276 284.518 174.814 290.928C173.925 294.823 169.394 305.955 169.394 305.955L148.729 298.228L177.52 264.761V264.77Z" fill="#4A2379"/>
<path d="M132.022 317.613C126.692 312.592 125.24 304.692 128.454 298.119C137.697 279.206 162.212 238.302 174.37 244.876C191.013 253.874 156.691 296.811 156.691 296.811L166.679 302.885L143.662 322.389L132.022 317.622V317.613Z" fill="#5E3390"/>
<path d="M197.714 396.461L209.89 355.975L203.261 541.172L189.66 540.055C189.66 540.055 192.566 524.211 193.8 508.095C197.451 460.182 196.061 427.613 196.443 421.194C197.405 404.859 197.723 396.47 197.723 396.47L197.714 396.461Z" fill="#231815"/>
<path d="M191.805 526.39H226.961" stroke="white" stroke-width="0.562938" stroke-miterlimit="10"/>
</g>
<g filter="url(#filter2_d_143_10143)">
<path d="M689.251 288.803C671.146 306.581 666.597 303.385 666.597 303.385C665.808 303.031 664.99 302.523 664.155 301.878C664.119 301.878 664.091 301.878 664.055 301.878V301.815C650.971 291.536 633.711 247.582 633.711 247.582C632.413 243.923 632.258 233.899 634.156 236.477C640.702 245.375 644.879 251.45 645.396 252.349L666.243 281.213L666.262 281.077C666.262 281.077 667.287 282.548 668.086 283.537C668.468 284.018 669.113 284.191 669.685 283.973" fill="#F5B2AD"/>
<path d="M643.436 249.37C643.436 249.37 643.045 239.492 641.792 239.936C639.332 240.799 641.084 248.017 639.949 247.745C639.949 247.745 642.119 248.689 643.436 249.37Z" fill="#F2A0AF"/>
<path d="M706.339 186.494C703.705 187.165 697.495 189.09 696.841 200.966C696.342 210.01 721.574 227.188 721.574 227.188C721.574 227.188 733.223 221.804 737.518 210.464C739.098 206.305 737.89 195.564 731.743 190.416C725.597 185.268 711.723 185.122 706.339 186.494Z" fill="#152041"/>
<path d="M725.859 212.661C725.941 213.052 726.322 213.297 726.703 213.197C728.311 212.798 733.622 210.41 735.166 214.495C736.727 218.627 733.259 223.148 730.853 223.875C730.154 224.084 728.565 224.619 728.211 225.255C727.13 227.207 727.285 230.866 727.203 235.488C727.03 245.702 733.386 248.263 733.386 248.263C733.386 248.263 708.099 261.328 705.339 248.862C705.339 248.862 705.484 230.957 705.339 230.866C702.897 229.377 695.061 230.376 695.933 212.952C698.466 197.017 706.356 194.012 709.289 193.83C711.758 193.676 721.819 193.403 725.868 212.661H725.859Z" fill="#F5B2AD"/>
<path d="M705.34 194.656C705.34 194.656 709.825 194.82 711.841 197.208C715.536 201.602 713.076 216.202 725.097 213.397C725.097 213.397 723.318 219.771 724.552 219.426C725.37 219.19 726.504 216.048 728.021 214.06C728.783 213.061 730.599 212.244 730.636 212.035C731.607 205.761 728.729 186.521 705.349 194.656H705.34Z" fill="#152041"/>
<path d="M733.441 215.667C733.441 215.667 729.619 210.936 728.139 218.872L733.441 215.667Z" fill="#E6918A"/>
<path d="M695.834 217.237C696.642 217.146 698.177 216.928 698.267 215.83C698.322 215.121 697.759 214.132 695.807 213.859C695.807 213.859 695.725 214.758 695.834 217.237Z" fill="#EE828F"/>
<path d="M704.705 221.532C704.705 221.532 702.472 223.212 701.001 222.585C699.53 221.968 699.148 220.415 699.148 220.415" stroke="#040000" stroke-width="0.453982" stroke-linecap="round" stroke-linejoin="round"/>
<path d="M709.599 209.973C710.271 210.554 709.39 208.184 708.428 207.821C707.466 207.458 706.44 207.839 706.131 208.666C706.131 208.666 707.992 208.593 709.599 209.973Z" fill="#040000"/>
<path d="M697.73 208.484C696.958 208.92 698.293 206.768 699.301 206.605C700.309 206.442 701.244 207.014 701.389 207.894C701.389 207.894 699.582 207.449 697.73 208.484Z" fill="#040000"/>
<path d="M707.003 213.806C706.894 214.559 706.504 215.131 706.14 215.077C705.777 215.022 705.568 214.368 705.677 213.606C705.786 212.852 706.177 212.28 706.54 212.335C706.903 212.389 707.112 213.043 707.003 213.806Z" fill="#040000"/>
<path d="M701.046 212.552C700.937 213.279 700.564 213.814 700.219 213.769C699.865 213.715 699.675 213.088 699.774 212.371C699.883 211.644 700.256 211.109 700.601 211.154C700.955 211.209 701.146 211.835 701.046 212.552Z" fill="#040000"/>
<path d="M705.34 230.874C705.34 230.874 712.858 230.511 716.426 229.403C719.994 228.296 709.008 253.119 705.34 230.874Z" fill="#E6918A"/>
<path opacity="0.5" d="M733.133 576.7C775.766 576.7 810.328 571.871 810.328 565.914C810.328 559.956 775.766 555.127 733.133 555.127C690.499 555.127 655.938 559.956 655.938 565.914C655.938 571.871 690.499 576.7 733.133 576.7Z" fill="#595757"/>
<path d="M709.471 564.987C709.217 565.495 708.554 565.841 707.801 565.831L679.654 565.577C675.341 565.577 672.372 558.177 674.778 554.609C678.201 549.543 696.533 546.337 696.533 546.337C697.25 545.802 698.458 545.82 699.12 546.401C700.092 547.254 705.585 538.075 707.982 538.91C711.559 540.145 715.89 544.694 717.988 542.669C718.387 542.279 719.068 542.097 719.731 542.188C720.467 542.297 721.021 542.724 721.12 543.268C721.493 545.148 723.191 549.406 723.445 553.41C723.699 557.415 722.519 561.174 722.31 563.244C722.31 563.244 719.722 565.223 716.326 565.514C714.61 565.659 709.471 564.996 709.471 564.996V564.987Z" fill="#593287"/>
<path d="M760.218 539.066L773.12 556.035C774.745 557.842 775.78 561.256 774.5 563.562C772.82 566.604 765.774 569.092 761.57 569.092C756.168 569.092 750.802 567.721 746.344 565.587C743.257 564.107 740.124 558.986 740.115 556.353C740.115 551.777 741.205 540.31 741.205 540.31C741.25 540.083 741.804 539.992 742.086 540.173L747.906 544.023C749.812 545.285 754.988 545.113 756.268 543.605C757.185 542.525 759.337 539.057 759.337 539.057C759.527 538.875 760.045 538.884 760.218 539.075V539.066Z" fill="#593287"/>
<path d="M688.343 334.792C673.924 399.394 680.316 509.394 683.794 546.865C687.444 547.319 721.456 547.356 724.616 545.748C716.698 507.351 719.504 425.607 716.562 400.647L731.344 546.865C735.148 547.074 768.035 544.831 774.064 543.379C770.995 516.376 763.677 386.955 758.646 361.522C756.095 348.611 754.824 343.617 753.798 339.604L688.352 334.792H688.343Z" fill="white"/>
<path d="M658.488 252.448C658.488 252.448 636.161 260.529 636.606 262.553C636.606 262.553 660.241 316.586 670.682 311.493C674.986 309.386 686.081 302.812 692.31 288.957C701.181 269.227 705.348 242.306 705.348 242.306C705.348 242.306 693.599 242.26 687.116 248.353C682.531 252.666 671.181 275.637 671.181 275.637L658.479 252.448H658.488Z" fill="#5E3390"/>
<path d="M748.397 341.083C721.739 344.606 708.982 344.815 699.158 343.508C696.362 343.135 685.066 341.737 685.066 341.737C685.066 341.737 685.411 280.822 689.261 264.633C692.466 251.159 699.267 243.632 699.267 243.632L705.368 242.297C705.368 246.592 705.868 249.406 710.707 250.768C720.168 253.438 728.685 242.715 728.685 242.715C730.628 242.86 735.25 244.703 739.163 246.41C742.214 247.545 745.037 248.689 745.037 248.689C745.083 248.843 745.128 248.998 745.183 249.152C745.428 249.27 745.573 249.343 745.573 249.343C747.044 253.465 749.296 262.436 751.184 273.022L754.353 340.021L748.415 341.083H748.397Z" fill="#5E3390"/>
<path d="M715.736 219.083C716.004 217.915 714.483 216.569 712.337 216.076C710.192 215.583 708.235 216.13 707.966 217.298C707.698 218.466 709.22 219.813 711.365 220.306C713.511 220.799 715.468 220.251 715.736 219.083Z" fill="#EE828F"/>
<path d="M733.805 269.827C733.805 269.827 734.368 281.249 733.442 284.109C732.216 287.914 718.225 277.064 718.225 277.064L741.714 296.657L733.814 269.827H733.805Z" fill="#4A2379"/>
<path d="M718.869 413.34C717.144 404.469 707.855 372.509 707.855 372.509L711.115 546.856L727.231 545.948C727.231 545.948 725.452 524.148 724.226 508.032C720.576 460.118 721.384 445.191 721.384 445.191C721.384 445.191 720.394 421.176 718.869 413.331V413.34Z" fill="#DDDDDD"/>
<path d="M706.875 289.148C706.966 288.512 690.731 276.963 690.477 276.227C689.905 274.584 695.952 277.135 695.271 276.354C695.071 276.127 689.914 273.422 689.279 271.388C688.643 269.354 696.533 273.857 696.533 273.857C696.533 273.857 688.843 268.446 689.941 267.574C691.04 266.703 698.749 272.005 698.894 271.161C698.731 271.016 691.993 266.403 693.092 265.731C694.763 264.723 706.212 273.966 704.551 271.215C702.326 265.35 704.215 265.613 704.215 265.613C706.594 268.074 712.395 277.707 712.395 277.707C712.395 277.707 752.882 307.752 753.281 307.125L706.875 289.148Z" fill="#F2A0AF"/>
<path d="M701.391 242.596C701.391 242.596 701.246 251.431 704.706 253.61C708.165 255.789 711.161 256.252 714.148 256.143C717.136 256.034 722.538 254.3 724.608 253.156C726.678 252.012 733.443 244.085 733.443 244.085L728.658 242.723C728.658 242.723 719.051 252.82 711.842 251.04C704.633 249.261 705.35 242.306 705.35 242.306L701.391 242.596Z" fill="#4A2379"/>
<path d="M728.168 243.968L731.536 245.194" stroke="#4E7033" stroke-width="0.907964" stroke-miterlimit="10"/>
<path d="M716.182 251.214L717.553 254.837" stroke="#4E7033" stroke-width="0.907964" stroke-miterlimit="10"/>
<path d="M713.194 251.776L712.949 255.317" stroke="#4E7033" stroke-width="0.907964" stroke-miterlimit="10"/>
<path d="M710.424 251.395L708.98 254.5" stroke="#4E7033" stroke-width="0.907964" stroke-miterlimit="10"/>
<path d="M707.7 249.996L705.148 252.575" stroke="#4E7033" stroke-width="0.907964" stroke-miterlimit="10"/>
<path d="M705.94 247.953L703.098 249.233" stroke="#4E7033" stroke-width="0.907964" stroke-miterlimit="10"/>
<path d="M705.15 245.058L702.09 245.611" stroke="#4E7033" stroke-width="0.907964" stroke-miterlimit="10"/>
<path d="M726.023 246.028L728.956 248.117" stroke="#4E7033" stroke-width="0.907964" stroke-miterlimit="10"/>
<path d="M723.49 247.953L725.624 250.822" stroke="#4E7033" stroke-width="0.907964" stroke-miterlimit="10"/>
<path d="M720.512 249.996L721.81 252.802" stroke="#4E7033" stroke-width="0.907964" stroke-miterlimit="10"/>
<path d="M730.79 342.945L701.391 284.663L753.281 307.117L754.334 340.022C754.334 340.022 746.889 341.266 742.285 341.838C737.682 342.41 730.79 342.936 730.79 342.936V342.945Z" fill="#4A2379"/>
<path d="M750.155 324.912C753.197 325.266 758.681 325.856 761.514 322.669C765.455 318.229 766.235 309.059 765.745 304.828C763.294 283.917 755.812 245.438 742.165 247.617C723.479 250.595 739.986 293.315 739.986 293.315L718.222 277.062L707.98 292.207C707.98 292.207 734.548 323.087 750.155 324.912Z" fill="#5E3390"/>
<path d="M687.054 282.393C687.054 282.393 677.538 296.348 676.04 298.591C674.542 300.833 672.045 309.314 673.843 309.768C675.64 310.222 680.898 304.529 680.898 304.529L686.118 298.491L687.044 282.402L687.054 282.393Z" fill="#4A2379"/>
</g>
<g filter="url(#filter3_d_143_10143)">
<path d="M353.241 398.212H342.318V580.722H353.241V398.212Z" fill="black"/>
<path d="M621.597 398.212H610.674V580.722H621.597V398.212Z" fill="black"/>
<path d="M622.344 398.212H342.318V474.554H622.344V398.212Z" fill="#A051D4"/>
<path d="M621.915 398.476H342.262V420.267H621.915V398.476Z" fill="#8430BB"/>
<path d="M549.187 376.948H547.117C547.453 376.693 547.88 376.539 548.343 376.539H600.115C602.821 376.539 605.018 378.691 605.018 381.342V384.393C605.018 387.044 602.821 389.196 600.115 389.196L548.924 389.178L549.187 376.939V376.948Z" fill="#51B79E"/>
<path d="M578.578 376.549C581.165 376.549 583.272 378.61 583.272 381.143V384.593C583.272 387.136 581.175 389.188 578.578 389.188H546.345V388.416H546.481L554.671 387.653L556.324 381.288C556.324 381.288 553.128 377.775 552.919 377.684C552.71 377.593 546.472 377.321 546.472 377.321H546.336V376.549H578.569H578.578Z" fill="#3B8A78"/>
<path d="M548.442 382.85C548.442 379.127 546.48 377.32 546.48 377.32H577.923C580.302 377.32 582.236 379.209 582.236 381.542V384.194C582.236 386.527 580.311 388.416 577.923 388.416H546.48C546.48 388.416 548.442 387.526 548.442 382.841V382.85Z" fill="#F4F4F5"/>
<path d="M582.228 381.542V384.193C582.228 384.538 582.183 384.883 582.101 385.21C581.039 382.668 579.005 380.216 575.137 379.436C566.103 377.601 546.473 377.329 546.473 377.329H577.915C580.294 377.329 582.228 379.218 582.228 381.551V381.542Z" fill="#D8ECF5"/>
<path d="M550.422 366.824H548.352C548.688 366.624 549.114 366.497 549.577 366.497H601.368C604.073 366.497 606.271 368.204 606.271 370.311V372.735C606.271 374.841 604.073 376.548 601.368 376.548H550.149L550.413 366.824H550.422Z" fill="#F0C87F"/>
<path d="M579.822 366.515C582.41 366.515 584.516 368.149 584.516 370.165V372.898C584.516 374.913 582.419 376.548 579.822 376.548H547.58V375.939H547.716L555.915 375.34L557.568 370.292C557.568 370.292 554.372 367.504 554.163 367.432C553.954 367.359 547.716 367.141 547.716 367.141H547.58V366.533H579.822V366.515Z" fill="#E2AC54"/>
<path d="M549.668 371.509C549.668 368.559 547.707 367.124 547.707 367.124H579.159C581.538 367.124 583.472 368.622 583.472 370.474V372.581C583.472 374.433 581.538 375.931 579.159 375.931H547.707C547.707 375.931 549.668 375.232 549.668 371.509Z" fill="#F4F4F5"/>
<path d="M583.472 370.474V372.581C583.472 372.853 583.426 373.126 583.345 373.38C582.282 371.364 580.248 369.421 576.381 368.795C567.346 367.333 547.707 367.124 547.707 367.124H579.159C581.538 367.124 583.472 368.622 583.472 370.474Z" fill="#D8ECF5"/>
<path d="M556.504 381.915L554.489 385.102L552.246 381.915H556.504Z" fill="#4569AB"/>
<path d="M572.376 370.946L570.379 374.097L568.154 370.946H572.376Z" fill="#E97157"/>
<path d="M549.65 370.946H583.471V370.691H549.613L549.641 370.946H549.65Z" fill="#D8ECF5"/>
<path d="M548.38 381.914L582.22 381.896V381.642L548.344 381.66L548.371 381.914H548.38Z" fill="#D8ECF5"/>
<path d="M634.037 389.205H330.613V398.212H634.037V389.205Z" fill="#A051D4"/>
<path d="M401.796 378.482H403.549C403.258 378.264 402.904 378.137 402.514 378.137H358.586C356.289 378.137 354.428 379.962 354.428 382.213V384.801C354.428 387.053 356.289 388.878 358.586 388.878L402.023 388.86L401.796 378.473V378.482Z" fill="#E97157"/>
<path d="M376.864 378.146C374.666 378.146 372.887 379.889 372.887 382.05V384.973C372.887 387.125 374.666 388.878 376.864 388.878H404.211V388.224H404.103L397.148 387.579L395.74 382.177C395.74 382.177 398.455 379.19 398.627 379.117C398.809 379.044 404.093 378.808 404.093 378.808H404.202V378.155H376.855L376.864 378.146Z" fill="#B15541"/>
<path d="M402.431 383.484C402.431 380.324 404.093 378.799 404.093 378.799H377.417C375.401 378.799 373.758 380.406 373.758 382.376V384.628C373.758 386.607 375.392 388.214 377.417 388.214H404.093C404.093 388.214 402.431 387.461 402.431 383.484Z" fill="#F4F4F5"/>
<path d="M373.768 382.376V384.628C373.768 384.928 373.804 385.209 373.877 385.491C374.775 383.33 376.501 381.259 379.787 380.588C387.451 379.026 404.103 378.799 404.103 378.799H377.427C375.411 378.799 373.768 380.406 373.768 382.376Z" fill="#D8ECF5"/>
<path d="M383.592 383.267L381.704 386.617L380.006 383.267H383.592Z" fill="#113659"/>
<path d="M373.77 383.267H402.452V382.994H373.77V383.267Z" fill="#D8ECF5"/>
</g>
<g filter="url(#filter4_d_143_10143)">
<path d="M545.865 390.021H447.914L452.063 350.007C453.053 345.894 456.912 342.979 461.361 342.979H539.718C545.838 342.979 550.369 348.364 549.016 354.02L545.874 390.021H545.865Z" fill="#601986"/>
<path d="M480.537 295.14C479.847 292.243 480.365 285.261 482.035 282.764C485.449 277.652 490.479 275.646 497.344 276.072C503.345 276.445 511.953 279.332 515.212 281.838C522.994 287.83 524.319 296.81 526.771 307.697C532.1 331.295 530.176 355.301 530.176 355.301L477.668 359.832" fill="#40220F"/>
<path d="M501.485 332.393C499.651 338.604 500.141 346.14 500.141 346.14C500.141 346.14 483.734 343.797 475.898 339.829C475.599 341.037 480.248 333.238 486.395 320.907C486.449 320.798 472.793 319.999 478.123 302.14C483.998 282.473 491.924 284.852 494.721 284.861C497.072 284.861 506.116 283.427 507.786 303.075C507.822 303.474 508.149 303.738 508.531 303.674C510.092 303.375 514.977 303.81 514.278 308.241C513.579 312.672 510.22 313.444 507.859 314.016L501.485 332.393Z" fill="#F5B2AD"/>
<path d="M512.462 308.541C512.462 308.541 512.263 303.121 507.26 308.305L512.462 308.541Z" fill="#E6918A"/>
<path d="M485.45 310.729C485.45 310.729 483.389 312.327 481.927 311.637C480.456 310.947 480.129 309.276 480.129 309.276" stroke="#040000" stroke-width="0.453982" stroke-linecap="round" stroke-linejoin="round"/>
<path d="M492.415 300.859C492.996 301.431 492.324 299.198 491.462 298.816C490.599 298.426 489.637 298.716 489.301 299.461C489.301 299.461 491.017 299.497 492.415 300.859Z" fill="#060C27"/>
<path d="M480.573 297.337C479.811 297.491 481.5 296.057 482.389 296.184C483.279 296.32 483.906 297.046 483.788 297.818C483.788 297.818 482.389 296.965 480.564 297.337H480.573Z" fill="#060C27"/>
<path d="M488.328 304.256C488.11 305.282 487.538 306.026 487.039 305.926C486.539 305.827 486.312 304.91 486.53 303.874C486.748 302.848 487.32 302.095 487.819 302.204C488.319 302.304 488.546 303.221 488.328 304.256Z" fill="#060C27"/>
<path d="M482.327 302.104C482.118 303.085 481.573 303.802 481.092 303.702C480.62 303.602 480.402 302.73 480.601 301.75C480.81 300.769 481.355 300.052 481.836 300.152C482.308 300.252 482.526 301.123 482.327 302.104Z" fill="#060C27"/>
<path d="M481.271 291.208L496.144 295.648L499.658 287.086L498.586 296.175L511.398 300.134C511.398 300.134 515.72 284.408 506.122 281.266C504.288 280.667 487.473 274.702 481.271 291.208Z" fill="#40220F"/>
<path d="M485.34 329.496C483.024 331.067 480.582 332.711 478.475 333.719C470.767 335.571 459.862 337.641 455.477 332.584C451.091 327.526 452.099 317.085 450.11 309.294C450.11 309.294 455.885 298.553 453.316 299.016C450.746 299.479 449.802 302.376 448.531 303.274C447.259 304.173 448.549 289.591 446.506 289.782C444.472 289.973 443.401 300.478 443.401 300.478C443.401 300.478 442.847 290.654 441.548 290.808C440.25 290.972 439.406 300.532 439.406 300.532C439.406 300.532 439.623 290.817 438.552 291.961C437.49 293.105 437.127 300.333 437.127 300.333C437.127 300.333 436.836 294.749 435.329 294.667C433.822 294.576 435.274 311.927 435.274 311.927C435.901 322.324 436.709 334.726 439.433 345.368C443.264 360.358 465.991 356.209 471.847 354.529C478.203 352.704 489.289 348.373 491.259 341.554C491.577 340.437 491.895 338.404 492.122 336.778H492.195C492.267 336.07 492.322 334.399 492.376 332.538C492.376 332.538 490.524 330.477 485.34 329.496Z" fill="#F5B2AD"/>
<path d="M514.732 338.694C514.732 338.694 506.869 331.857 501.794 329.841C491.071 334.408 485.069 336.914 482.854 336.07C480.193 335.053 482.463 330.023 482.046 328.933C478.777 328.815 469.198 342.035 467.382 351.705C465.902 359.595 461.607 387.715 461.607 390.802L509.893 391.247C509.893 391.247 518.219 349.29 514.732 338.703V338.694Z" fill="white"/>
<path d="M412.686 391.547H464.957V388.278H412.686V391.547Z" fill="#4A2379"/>
<path d="M454.888 387.216L455.36 390.003L457.594 388.723C457.594 388.723 457.548 386.907 454.879 387.216H454.888Z" fill="#1A274D"/>
<path d="M486.403 320.907L494.076 321.888C494.076 321.888 490.625 325.837 486.776 325.147C485.468 324.911 485.196 322.796 486.403 320.907Z" fill="#E6918A"/>
<path d="M482.037 328.925C482.037 328.925 471.977 328.843 460.291 333.183L459.955 358.67L466.665 359.832C466.665 359.832 470.923 342.281 473.992 337.178C475.481 334.709 482.037 328.916 482.037 328.916V328.925Z" fill="white"/>
<path d="M496.811 310.706C497.102 309.544 495.606 308.168 493.47 307.635C491.334 307.101 489.367 307.611 489.077 308.774C488.786 309.936 490.282 311.312 492.418 311.845C494.554 312.379 496.52 311.869 496.811 310.706Z" fill="#EE828F"/>
<path d="M488.41 378.853L502.284 347.41L506.306 379.688L488.41 378.853Z" fill="#EFEFEF"/>
<path d="M507.133 349.709C507.16 359.279 506.534 372.68 499.37 376.421C492.206 380.162 470.079 381.714 460.373 381.878C450.658 382.032 449.205 391.693 449.205 391.693C449.205 391.693 492.206 394.19 510.901 393.872C529.596 393.563 525.883 375.676 525.547 368.322C525.184 360.341 522.187 342.281 515.759 336.87C515.014 336.243 512.754 334.373 512.754 334.373L507.142 349.709H507.133Z" fill="#F5B2AD"/>
<path d="M512.29 333.228C514.487 333.51 519.935 332.683 523.458 344.514C526.264 353.93 528.77 377.337 528.77 377.337C528.77 377.337 521.951 378.853 515.577 378.853C508.685 378.853 499.688 374.949 499.688 374.949C499.688 374.949 500.995 347.356 504.082 339.929C505.98 335.344 509.103 332.811 512.281 333.228H512.29Z" fill="white"/>
<path d="M482.415 328.689C482.415 328.689 479.927 328.717 479.128 328.753C478.329 328.789 475.605 329.116 475.605 329.116L476.958 332.058C478.003 334.128 480.908 336.507 482.842 336.062L482.406 328.689H482.415Z" fill="#172345"/>
<path d="M482.843 336.062C482.843 336.062 483.76 337.96 486.348 338.786C490.506 340.111 498.778 340.366 502.464 339.285C507.358 337.86 513.732 333.365 513.732 333.365L502.519 329.397L482.834 336.071L482.843 336.062Z" fill="#172345"/>
<path d="M482.48 337.36C482.48 337.36 474.272 348.111 477.568 360.967C477.568 360.967 489.925 354.775 482.48 337.36Z" fill="#A61F26"/>
<path d="M482.153 337.27C482.153 337.27 482.189 350.126 471.43 357.553C471.43 357.553 471.412 338.895 482.153 337.27Z" fill="#C30D23"/>
<path d="M483.006 336.116C483.006 336.116 484.45 336.824 486.719 337.541C491.613 339.103 499.54 337.85 501.474 337.269C505.75 335.971 511.035 332.402 511.035 332.402" stroke="white" stroke-width="0.453982" stroke-miterlimit="10"/>
<path d="M482.844 336.061C482.844 336.061 489.599 337.269 494.003 336.888C501.303 336.261 508.821 331.612 508.821 331.612" stroke="white" stroke-width="0.453982" stroke-miterlimit="10"/>
<path d="M477.195 328.925C477.195 328.925 478.012 331.64 478.675 332.693C479.901 334.663 482.843 336.061 482.843 336.061" stroke="white" stroke-width="0.453982" stroke-miterlimit="10"/>
<path d="M478.92 328.844C478.92 328.844 479.465 331.395 480.128 332.448C481.353 334.419 482.851 336.053 482.851 336.053" stroke="white" stroke-width="0.453982" stroke-miterlimit="10"/>
<path d="M484.004 336.606C484.004 336.606 482.942 335.399 481.689 335.562C481.689 335.562 480.781 336.888 480.817 338.204C480.817 338.204 481.734 339.121 482.534 339.012C482.534 339.012 483.659 338.204 484.004 336.606Z" fill="#C30D23"/>
<path d="M459.954 358.679L460.063 350.553C460.063 350.553 467.49 350.498 468.743 348.464C469.996 346.43 471.422 343.234 471.422 343.234L466.001 359.732L459.945 358.688L459.954 358.679Z" fill="#EFEFEF"/>
</g>
<path d="M503.275 234.225C509.64 209.229 535.717 154.996 599.965 141.948C671.594 127.412 706.478 161.052 706.478 161.052" stroke="#6F4D9C" stroke-linecap="round" stroke-linejoin="round"/>
<path d="M208.203 144.908C208.203 144.908 249.461 99.5828 354.34 112.412C457.875 125.069 493.622 207.258 500.477 234.125" stroke="#6F4D9C" stroke-linecap="round" stroke-linejoin="round"/>
<path d="M708.935 166.3C710.535 166.3 711.832 164.979 711.832 163.349C711.832 161.72 710.535 160.398 708.935 160.398C707.336 160.398 706.039 161.72 706.039 163.349C706.039 164.979 707.336 166.3 708.935 166.3Z" fill="#6F4D9C" stroke="#6F4D9C" stroke-width="0.907964" stroke-linecap="round" stroke-linejoin="round"/>
<path d="M206.269 150.047C207.869 150.047 209.166 148.726 209.166 147.096C209.166 145.467 207.869 144.146 206.269 144.146C204.67 144.146 203.373 145.467 203.373 147.096C203.373 148.726 204.67 150.047 206.269 150.047Z" fill="#6F4D9C" stroke="#6F4D9C" stroke-width="0.907964" stroke-linecap="round" stroke-linejoin="round"/>
<path d="M501.893 240.018C503.492 240.018 504.789 238.697 504.789 237.067C504.789 235.437 503.492 234.116 501.893 234.116C500.293 234.116 498.996 235.437 498.996 237.067C498.996 238.697 500.293 240.018 501.893 240.018Z" fill="#6F4D9C" stroke="#6F4D9C" stroke-width="0.907964" stroke-linecap="round" stroke-linejoin="round"/>
<defs>
<filter id="filter0_d_143_10143" x="190.48" y="29.002" width="406.898" height="289.717" filterUnits="userSpaceOnUse" color-interpolation-filters="sRGB">
<feFlood flood-opacity="0" result="BackgroundImageFix"/>
<feColorMatrix in="SourceAlpha" type="matrix" values="0 0 0 0 0 0 0 0 0 0 0 0 0 0 0 0 0 0 127 0" result="hardAlpha"/>
<feOffset dy="1"/>
<feGaussianBlur stdDeviation="10"/>
<feComposite in2="hardAlpha" operator="out"/>
<feColorMatrix type="matrix" values="0 0 0 0 0 0 0 0 0 0 0 0 0 0 0 0 0 0 0.08 0"/>
<feBlend mode="normal" in2="BackgroundImageFix" result="effect1_dropShadow_143_10143"/>
<feBlend mode="normal" in="SourceGraphic" in2="effect1_dropShadow_143_10143" result="shape"/>
</filter>
<filter id="filter1_d_143_10143" x="69.5391" y="163.761" width="268.014" height="436.928" filterUnits="userSpaceOnUse" color-interpolation-filters="sRGB">
<feFlood flood-opacity="0" result="BackgroundImageFix"/>
<feColorMatrix in="SourceAlpha" type="matrix" values="0 0 0 0 0 0 0 0 0 0 0 0 0 0 0 0 0 0 127 0" result="hardAlpha"/>
<feOffset dy="1"/>
<feGaussianBlur stdDeviation="10"/>
<feComposite in2="hardAlpha" operator="out"/>
<feColorMatrix type="matrix" values="0 0 0 0 0 0 0 0 0 0 0 0 0 0 0 0 0 0 0.08 0"/>
<feBlend mode="normal" in2="BackgroundImageFix" result="effect1_dropShadow_143_10143"/>
<feBlend mode="normal" in="SourceGraphic" in2="effect1_dropShadow_143_10143" result="shape"/>
</filter>
<filter id="filter2_d_143_10143" x="612.732" y="166.757" width="217.596" height="430.943" filterUnits="userSpaceOnUse" color-interpolation-filters="sRGB">
<feFlood flood-opacity="0" result="BackgroundImageFix"/>
<feColorMatrix in="SourceAlpha" type="matrix" values="0 0 0 0 0 0 0 0 0 0 0 0 0 0 0 0 0 0 127 0" result="hardAlpha"/>
<feOffset dy="1"/>
<feGaussianBlur stdDeviation="10"/>
<feComposite in2="hardAlpha" operator="out"/>
<feColorMatrix type="matrix" values="0 0 0 0 0 0 0 0 0 0 0 0 0 0 0 0 0 0 0.08 0"/>
<feBlend mode="normal" in2="BackgroundImageFix" result="effect1_dropShadow_143_10143"/>
<feBlend mode="normal" in="SourceGraphic" in2="effect1_dropShadow_143_10143" result="shape"/>
</filter>
<filter id="filter3_d_143_10143" x="310.613" y="347.497" width="343.424" height="254.225" filterUnits="userSpaceOnUse" color-interpolation-filters="sRGB">
<feFlood flood-opacity="0" result="BackgroundImageFix"/>
<feColorMatrix in="SourceAlpha" type="matrix" values="0 0 0 0 0 0 0 0 0 0 0 0 0 0 0 0 0 0 127 0" result="hardAlpha"/>
<feOffset dy="1"/>
<feGaussianBlur stdDeviation="10"/>
<feComposite in2="hardAlpha" operator="out"/>
<feColorMatrix type="matrix" values="0 0 0 0 0 0 0 0 0 0 0 0 0 0 0 0 0 0 0.08 0"/>
<feBlend mode="normal" in2="BackgroundImageFix" result="effect1_dropShadow_143_10143"/>
<feBlend mode="normal" in="SourceGraphic" in2="effect1_dropShadow_143_10143" result="shape"/>
</filter>
<filter id="filter4_d_143_10143" x="392.686" y="257.017" width="176.57" height="157.884" filterUnits="userSpaceOnUse" color-interpolation-filters="sRGB">
<feFlood flood-opacity="0" result="BackgroundImageFix"/>
<feColorMatrix in="SourceAlpha" type="matrix" values="0 0 0 0 0 0 0 0 0 0 0 0 0 0 0 0 0 0 127 0" result="hardAlpha"/>
<feOffset dy="1"/>
<feGaussianBlur stdDeviation="10"/>
<feComposite in2="hardAlpha" operator="out"/>
<feColorMatrix type="matrix" values="0 0 0 0 0 0 0 0 0 0 0 0 0 0 0 0 0 0 0.08 0"/>
<feBlend mode="normal" in2="BackgroundImageFix" result="effect1_dropShadow_143_10143"/>
<feBlend mode="normal" in="SourceGraphic" in2="effect1_dropShadow_143_10143" result="shape"/>
</filter>
</defs>
</svg>
