<svg width="548" height="351" viewBox="0 0 548 351" fill="none" xmlns="http://www.w3.org/2000/svg">
<path d="M4.04932 155.307C-1.62668 206.678 21.2789 260.822 52.1771 298.082L514.322 297.437C526.81 284.497 545.945 267.779 547.434 248.395C548.709 231.793 548.49 213.585 539.667 200.457C531.028 187.611 516.405 182.908 502.809 178.957C515.816 154.286 518.234 129.85 511.234 104.795C504.235 79.7412 489.923 58.3554 467.758 53.061C455.669 50.172 431.034 50.0242 422.141 61.6207C422.141 61.6207 391.527 -1.166 308.112 0.0164958C249.113 0.85634 217.553 64.9801 217.553 64.9801C217.553 64.9801 204.875 45.3009 179.945 36.0424C163.112 29.794 130.987 25.971 110.795 27.9531C49.4934 33.9596 11.0771 91.6952 4.04932 155.307Z" fill="#CFEF8C"/>
<path d="M219.362 130.155C219.362 130.155 248.306 86.1526 302.415 85.5778C378.916 84.7635 406.992 127.851 406.992 127.851C415.147 119.894 437.74 119.995 448.828 121.981C469.156 125.616 482.275 140.288 488.7 157.479C495.12 174.669 492.902 191.439 480.973 208.368C493.442 211.077 506.853 214.302 514.776 223.121C522.868 232.126 523.069 244.622 521.899 256.016C520.534 269.316 502.984 288.662 491.532 297.539L51.9751 297.305C32.6686 281.158 17.5051 224.146 23.5604 192.141C31.99 147.587 71.0964 107.654 110.625 99.7238C177.367 86.3389 219.367 130.155 219.367 130.155H219.362Z" fill="#B1DD56"/>
<path d="M375.828 148.892L371.747 147.434C371.477 147.338 371.276 147.111 371.207 146.836L367.867 133.996C367.703 133.341 368.343 132.765 368.978 132.992L373.06 134.451C373.329 134.546 373.531 134.773 373.599 135.048L376.939 147.888C377.104 148.544 376.463 149.12 375.828 148.892Z" fill="#171C61"/>
<g filter="url(#filter0_d_143_10885)">
<path d="M324.128 28.0801H135.175C128.361 28.0801 122.837 33.5968 122.837 40.402V160.877C122.837 167.683 128.361 173.199 135.175 173.199H324.128C330.943 173.199 336.467 167.683 336.467 160.877V40.402C336.467 33.5968 330.943 28.0801 324.128 28.0801Z" fill="#F7F5F7" stroke="white" stroke-width="0.264662" stroke-miterlimit="10"/>
<path opacity="0.9" d="M156.666 137.292C165.673 137.292 172.974 130 172.974 121.005C172.974 112.01 165.673 104.719 156.666 104.719C147.659 104.719 140.357 112.01 140.357 121.005C140.357 130 147.659 137.292 156.666 137.292Z" fill="#DACFDF"/>
<path opacity="0.9" d="M181.169 137.292C190.176 137.292 197.477 130 197.477 121.005C197.477 112.01 190.176 104.719 181.169 104.719C172.162 104.719 164.86 112.01 164.86 121.005C164.86 130 172.162 137.292 181.169 137.292Z" stroke="#CCB9D9" stroke-width="0.529324" stroke-linecap="round" stroke-linejoin="round"/>
<path opacity="0.9" d="M171.006 131.829L196.832 106.033" stroke="#CCB9D9" stroke-width="0.529324" stroke-linecap="round" stroke-linejoin="round" stroke-dasharray="4.23 4.23"/>
<path opacity="0.6" d="M306.295 45.1172H141.114V50.4033H306.295V45.1172Z" fill="#DBD2DC"/>
<path opacity="0.6" d="M290.119 58.4746H141.114V63.7607H290.119V58.4746Z" fill="#DBD2DC"/>
<path opacity="0.6" d="M290.119 72.2285H141.114V77.5146H290.119V72.2285Z" fill="#DBD2DC"/>
<path opacity="0.6" d="M198.329 85.3398H141.114V90.6259H198.329V85.3398Z" fill="#DBD2DC"/>
<path opacity="0.8" d="M236.731 108.502V114.549" stroke="#CCB9D9" stroke-width="0.529324" stroke-linecap="round" stroke-linejoin="round"/>
<path opacity="0.8" d="M239.76 111.527H233.71" stroke="#CCB9D9" stroke-width="0.529324" stroke-linecap="round" stroke-linejoin="round"/>
<path opacity="0.8" d="M262.51 110.066H268.56" stroke="#CCB9D9" stroke-width="0.529324" stroke-linecap="round" stroke-linejoin="round"/>
<path opacity="0.8" d="M262.51 113.768H268.56" stroke="#CCB9D9" stroke-width="0.529324" stroke-linecap="round" stroke-linejoin="round"/>
<path opacity="0.8" d="M229.268 106.447H216.998V118.7H229.268V106.447Z" stroke="#CCB9D9" stroke-width="0.529324" stroke-linecap="round" stroke-linejoin="round"/>
<path opacity="0.8" d="M256.11 106.447H243.84V118.7H256.11V106.447Z" stroke="#CCB9D9" stroke-width="0.529324" stroke-linecap="round" stroke-linejoin="round"/>
</g>
<g filter="url(#filter1_d_143_10885)">
<path d="M96.2981 134.768C92.7569 130.323 95.0489 110.965 103.957 107.867C110.944 105.436 116.397 106.165 120.218 109.067C123.156 111.303 121.923 115.564 122.5 117.208C123.024 118.704 128.65 124.883 129.121 126.39C130.699 131.422 114.56 137.929 114.56 137.929C114.56 137.929 100.697 140.292 96.2981 134.763V134.768Z" fill="#152041"/>
<path d="M105.856 122.959C105.862 123.191 105.682 123.382 105.449 123.382C104.485 123.382 102.252 123.17 101.939 125.697C101.622 128.25 104.057 129.683 105.518 129.762C105.941 129.783 106.915 129.873 107.201 130.185C108.08 131.142 108.498 133.23 109.175 135.836C110.673 141.592 106.142 144.22 106.142 144.22C106.142 144.22 121.535 150.922 121.392 143.495C121.392 143.495 119.905 130.534 119.973 130.465C121.154 129.286 125.727 128.784 122.853 119.037C119.232 110.362 113.558 110.653 111.869 110.949C110.446 111.203 105.507 111.509 105.851 122.959H105.856Z" fill="#F5B2AD"/>
<path d="M114.109 110.563C114.109 110.563 115.258 123.234 105.661 123.308C105.661 123.308 96.9115 108.877 114.109 110.563Z" fill="#152041"/>
<path d="M103.034 126.42C103.034 126.42 104.553 123.222 106.48 127.509L103.034 126.42Z" fill="#E6918A"/>
<path d="M123.509 121.689C122.974 121.753 121.963 121.859 121.736 121.166C121.587 120.722 121.799 120.008 123.006 119.527C123.006 119.527 123.197 120.093 123.514 121.684L123.509 121.689Z" fill="#EE828F"/>
<path d="M119.064 125.084C119.064 125.084 120.557 125.729 121.309 125.173C122.06 124.618 122.06 123.693 122.06 123.693" stroke="#040000" stroke-width="0.264662" stroke-linecap="round" stroke-linejoin="round"/>
<path d="M114.707 119.215C114.406 119.633 114.58 118.174 115.073 117.835C115.565 117.497 116.2 117.571 116.491 117.999C116.491 117.999 115.427 118.211 114.707 119.215Z" fill="#040000"/>
<path d="M121.229 116.754C121.726 116.891 120.673 115.86 120.08 115.908C119.487 115.955 119.037 116.405 119.074 116.923C119.074 116.923 120.038 116.421 121.229 116.759V116.754Z" fill="#040000"/>
<path d="M116.702 121.03C116.872 121.443 117.168 121.712 117.369 121.633C117.571 121.554 117.597 121.152 117.428 120.739C117.258 120.327 116.962 120.058 116.761 120.137C116.56 120.216 116.533 120.618 116.702 121.03Z" fill="#040000"/>
<path d="M119.906 119.508C120.064 119.905 120.35 120.159 120.541 120.085C120.731 120.005 120.758 119.625 120.599 119.234C120.44 118.837 120.154 118.583 119.964 118.657C119.773 118.737 119.747 119.117 119.906 119.508Z" fill="#040000"/>
<path d="M119.979 130.46C119.979 130.46 115.67 131.285 113.495 131.142C111.319 130.999 120.948 143.548 119.979 130.46Z" fill="#E6918A"/>
<path opacity="0.5" d="M97.2023 337.49C122.057 337.49 142.205 335.471 142.205 332.981C142.205 330.49 122.057 328.472 97.2023 328.472C72.3478 328.472 52.1992 330.49 52.1992 332.981C52.1992 335.471 72.3478 337.49 97.2023 337.49Z" fill="#595757"/>
<path d="M119.096 312.572L119.35 313.793L120.964 324.275C120.948 324.307 120.932 324.338 120.916 324.37C119.392 327.203 121.271 328.002 123.081 328.171C123.833 328.943 124.68 329.217 125.506 328.208C125.532 328.176 125.559 328.144 125.585 328.113C125.596 328.113 125.601 328.113 125.601 328.113V328.097C127.903 325.322 130.148 323.847 130.148 323.847L130.915 312.286L119.085 312.572H119.096Z" fill="#E6918A"/>
<path d="M81.885 311.715L78.4232 322.805C78.4232 322.805 75.7872 325.115 74.8344 325.057C73.1035 324.946 72.1931 321.965 72.1931 321.965L71.9072 311.715H81.885Z" fill="#F5B2AD"/>
<path d="M78.0307 308.078C78.0307 308.078 76.2575 314.554 75.8393 316.753C75.3471 319.316 74.4737 327.103 74.4737 327.103C74.4737 327.103 69.5086 328.414 72.2505 323.471L71.6471 309.357L78.036 308.078H78.0307Z" fill="#E6918A"/>
<path d="M122.817 331.939C122.844 332.261 119.557 332.172 119.525 331.881C119.345 330.057 119.726 324.089 120.054 322.429C120.102 322.191 120.345 322.001 120.673 321.954C120.965 321.911 121.266 321.991 121.441 322.165C122.367 323.064 125.342 325.765 126.925 325.215C127.983 324.85 129.36 324.195 129.788 323.814C130.079 323.561 130.614 323.55 130.932 323.788L138.506 329.92C139.253 330.586 138.819 332.293 136.908 332.293L125.951 332.404C125.617 332.404 125.321 332.256 125.21 332.029L123.616 329.423L122.822 331.944L122.817 331.939Z" fill="#A051D4"/>
<path d="M72.0647 321.578L67.5707 329.677C67.0043 330.538 66.6444 332.166 67.089 333.271C67.6713 334.72 70.1326 335.909 71.5936 335.909C73.478 335.909 75.3465 335.253 76.8974 334.233C77.9719 333.525 79.0676 331.083 79.0676 329.825C79.0676 327.641 78.6918 322.17 78.6918 322.17C78.6759 322.059 78.4801 322.022 78.3848 322.107L76.3575 323.941C75.6905 324.544 73.8908 324.459 73.4409 323.74C73.1233 323.228 72.3717 321.568 72.3717 321.568C72.3029 321.478 72.1229 321.483 72.0647 321.573V321.578Z" fill="#A051D4"/>
<path d="M85.1816 314.374C82.9638 314.495 70.0006 309.595 66.4912 308.749C67.8357 288.509 86.8278 212.976 89.6756 201.849C92.1317 192.254 94.3919 186.725 98.6635 179.182C107.254 178.928 117.597 177.4 126.067 178.569C144.598 209.154 133.805 289.952 131.492 314.876C129.364 315.14 112.405 315.352 110.568 314.416C115.184 292.061 113.548 245.353 115.263 230.822L85.1816 314.384V314.374Z" fill="#152041"/>
<path d="M74.6904 301.909L102.845 181.021" stroke="white" stroke-width="0.328181" stroke-miterlimit="10"/>
<path d="M108.206 181.582C108.206 181.582 107.984 202.42 98.6201 200.776" stroke="white" stroke-width="0.328181" stroke-miterlimit="10"/>
<g style="mix-blend-mode:multiply" opacity="0.21">
<path d="M125.95 182.369L91.0627 208.604C91.0627 208.604 89.6071 194.448 95.8055 182.829L125.95 182.374V182.369Z" fill="#040000"/>
</g>
<path d="M132.798 197.35C124.811 198.751 124.377 180.91 124.377 180.91" stroke="white" stroke-width="0.328181" stroke-miterlimit="10"/>
<path d="M67.5967 299.657L87.9227 306.112" stroke="white" stroke-width="0.328181" stroke-miterlimit="10"/>
<path d="M184.504 148.047C177.348 151.16 172.637 153.396 172.007 153.761L149.029 164.011L149.072 163.921C149.072 163.921 147.923 164.455 147.081 164.777C146.679 164.93 146.218 164.814 145.949 164.476C139.411 156.314 123.516 134.165 116.539 139.885C116.439 139.97 117.614 140.229 118.069 140.451C122.203 142.486 130.863 157.667 130.863 157.667C131.032 157.884 131.535 158.962 132.26 160.511C137.029 177.776 140.946 177.437 140.946 177.437C141.555 177.506 142.238 177.48 142.974 177.385C142.995 177.395 143.016 177.406 143.032 177.416L143.053 177.374C154.704 175.73 180.842 154.993 180.842 154.993C182.932 153.222 186.585 147.148 184.51 148.052L184.504 148.047Z" fill="#F5B2AD"/>
<path d="M120.938 138.395C120.938 138.395 125.707 139.399 126.877 140.187C128.295 141.133 143.884 160.279 146.451 163.974L155.37 160.813C155.37 160.813 159.689 169.746 159.43 170.92C159.43 170.92 146.948 182.555 140.861 179.589C134.774 176.624 120.943 138.395 120.943 138.395H120.938Z" fill="#543080"/>
<path d="M182.27 137.855L180.073 134.641L177.908 137.659L177.845 139.403L182.169 139.477L182.27 137.855Z" fill="#FEF1E6"/>
<path d="M181.07 136.1L180.075 134.641L179.138 135.952C179.138 135.952 179.635 136.972 181.075 136.1H181.07Z" fill="#1A274D"/>
<path d="M177.941 137.665C177.999 137.998 178.279 138.257 178.629 138.267C178.978 138.283 179.28 138.051 179.365 137.723H179.402C179.46 138.056 179.74 138.315 180.09 138.331C180.439 138.347 180.741 138.114 180.826 137.786H180.863C180.921 138.119 181.201 138.378 181.551 138.394C181.884 138.41 182.175 138.193 182.276 137.887L181.291 160.094L176.93 159.898L177.92 137.654H177.946L177.941 137.665Z" fill="#036EB8"/>
<path d="M178.623 138.267C178.972 138.283 179.274 138.05 179.358 137.723H179.395C179.454 138.056 179.734 138.315 180.083 138.331C180.433 138.346 180.735 138.114 180.819 137.786H180.856C180.914 138.119 181.195 138.378 181.544 138.394C181.878 138.41 182.169 138.193 182.27 137.887L181.285 160.093L177.723 159.829C177.723 159.829 178.278 138.246 178.628 138.262L178.623 138.267Z" fill="#2EA7E0"/>
<path d="M176.921 159.87L181.283 160.063L181.33 159.013L176.967 158.819L176.921 159.87Z" fill="#FEF1E6"/>
<path d="M181.285 160.02L176.923 159.824L176.86 161.225C176.807 162.43 177.738 163.445 178.945 163.498C180.152 163.551 181.168 162.621 181.221 161.415L181.285 160.015V160.02Z" fill="#C63786"/>
<path d="M181.286 160.02L177.454 159.851L177.39 161.251C177.337 162.457 178.152 163.466 179.211 163.514C180.27 163.561 181.17 162.626 181.222 161.421L181.286 160.02Z" fill="#E0579A"/>
<path d="M180.889 137.718L179.889 157.763" stroke="#FEF1E6" stroke-width="0.158797" stroke-miterlimit="10"/>
<path d="M179.417 137.755L178.417 157.805" stroke="#FEF1E6" stroke-width="0.158797" stroke-miterlimit="10"/>
<path d="M174.251 152.645C174.251 152.645 177.988 146.751 178.597 147.459C179.799 148.86 176.162 152.645 176.956 152.883C176.956 152.883 175.294 152.693 174.246 152.645H174.251Z" fill="#F2A0AF"/>
<path d="M120.938 138.395C124.077 138.944 128.91 153.936 128.613 159.793C128.317 165.697 127.978 173.848 127.136 180.451C127.136 180.451 121.991 183.913 96.6949 179.933C88.9191 173.135 95.7527 150.04 98.3622 142.729C98.3622 142.729 107.133 138.96 109.277 138.802C109.277 138.802 113.178 145.118 118.688 143.564C121.51 142.771 120.938 140.9 120.938 138.395Z" fill="#F7F8F8"/>
<path d="M106.218 139.716C104.947 139.822 98.6749 142.348 98.6749 142.348C95.1231 153.687 89.417 184.394 89.417 184.394L114.899 184.077C115.428 176.946 115.576 160.31 113.988 153.84C112.797 148.988 106.218 139.716 106.218 139.716Z" fill="#5E3390"/>
<path d="M127.136 180.451C127.136 180.451 127.539 176.978 127.777 174.155C128.248 168.467 128.629 160.961 127.999 154.147C127.697 150.885 125.39 144.717 123.68 141.259C122.997 139.874 121.801 138.627 121.801 138.627L124.49 139.356C124.49 139.356 126.972 145.034 128.841 152.878C131.085 162.303 132.8 181.481 132.8 181.481L128.364 182.866L127.136 180.445V180.451Z" fill="#5E3390"/>
<path d="M115.124 125.294C116.272 124.722 116.95 123.752 116.638 123.128C116.326 122.503 115.142 122.461 113.994 123.034C112.846 123.606 112.168 124.576 112.48 125.201C112.792 125.825 113.976 125.867 115.124 125.294Z" fill="#EE828F"/>
<path d="M97.2021 192.022L118.01 198.265L127.03 169.529L104.83 163.551L97.2021 192.022Z" fill="#96C731"/>
<path d="M97.2021 192.022L98.9066 192.497L106.423 163.963L104.83 163.551L97.2021 192.022Z" fill="#22AC38"/>
<path d="M109.959 189.701C109.959 189.701 76.1034 186.672 74.3513 180.889C74.3513 180.889 71.9905 176.544 84.3026 165.427C85.2818 164.18 85.97 163.318 86.0758 163.086C86.0758 163.086 95.7466 146.524 92.7136 149.521C91.6602 150.563 92.216 148.158 92.2901 148.253C97.4351 154.829 92.3854 165.195 88.3466 173.985C88.1773 174.35 113.527 183.886 113.527 183.886C113.527 183.886 119.566 183.707 121.366 184.061C121.366 184.061 122.033 184.833 118.735 185.536C117.004 185.583 122.329 186.836 122.361 187.883C122.382 188.575 121.779 188.861 121.779 188.861C121.779 188.861 122.128 189.162 121.996 189.622C121.784 190.346 121.414 190.298 121.414 190.298C121.414 190.298 121.588 190.668 121.318 191.102C121.048 191.535 120.72 191.477 120.72 191.477C120.72 191.477 120.974 191.889 120.323 192.328C119.979 192.561 110.213 189.468 109.954 189.696L109.959 189.701Z" fill="#F5B2AD"/>
<path d="M103.49 154.147C103.49 154.147 102.765 165.644 101.913 169.376C101.394 171.644 98.7525 178.125 98.7525 178.125L86.7051 173.626L103.49 154.142V154.147Z" fill="#4A2379"/>
<path d="M76.9662 184.912C73.8591 181.989 73.0122 177.39 74.886 173.563C80.2745 162.552 94.5663 138.738 101.654 142.565C111.356 147.804 91.348 172.802 91.348 172.802L97.1705 176.338L83.7522 187.693L76.9662 184.918V184.912Z" fill="#5E3390"/>
<path d="M115.262 230.817L122.361 207.246L118.497 315.067L110.567 314.416C110.567 314.416 112.261 305.192 112.981 295.809C115.109 267.915 114.299 248.953 114.521 245.216C115.083 235.706 115.268 230.822 115.268 230.822L115.262 230.817Z" fill="#231815"/>
<path d="M111.818 306.46H132.314" stroke="white" stroke-width="0.328181" stroke-miterlimit="10"/>
</g>
<g filter="url(#filter2_d_143_10885)">
<path d="M401.819 168.141C391.265 178.491 388.613 176.631 388.613 176.631C388.152 176.424 387.676 176.128 387.189 175.753C387.168 175.753 387.152 175.753 387.131 175.753V175.716C379.503 169.732 369.441 144.142 369.441 144.142C368.684 142.012 368.594 136.176 369.7 137.677C373.516 142.858 375.951 146.394 376.253 146.918L388.406 163.722L388.417 163.643C388.417 163.643 389.015 164.499 389.481 165.075C389.703 165.355 390.079 165.456 390.412 165.329" fill="#F5B2AD"/>
<path d="M375.11 145.183C375.11 145.183 374.882 139.432 374.152 139.691C372.717 140.193 373.739 144.396 373.077 144.237C373.077 144.237 374.342 144.787 375.11 145.183Z" fill="#F2A0AF"/>
<path d="M411.78 108.577C410.245 108.968 406.625 110.089 406.244 117.003C405.952 122.268 420.662 132.27 420.662 132.27C420.662 132.27 427.454 129.135 429.957 122.533C430.878 120.112 430.174 113.858 426.591 110.861C423.007 107.864 414.919 107.779 411.78 108.577Z" fill="#152041"/>
<path d="M423.161 123.813C423.208 124.04 423.43 124.183 423.653 124.125C424.59 123.892 427.686 122.502 428.586 124.881C429.497 127.286 427.475 129.918 426.072 130.341C425.664 130.463 424.738 130.775 424.532 131.145C423.902 132.281 423.992 134.412 423.944 137.102C423.843 143.049 427.549 144.54 427.549 144.54C427.549 144.54 412.807 152.147 411.198 144.889C411.198 144.889 411.283 134.465 411.198 134.412C409.774 133.545 405.206 134.126 405.714 123.982C407.191 114.705 411.791 112.955 413.5 112.85C414.94 112.76 420.805 112.601 423.166 123.813H423.161Z" fill="#F5B2AD"/>
<path d="M411.198 113.329C411.198 113.329 413.813 113.424 414.988 114.814C417.143 117.373 415.708 125.873 422.716 124.239C422.716 124.239 421.679 127.95 422.399 127.749C422.875 127.612 423.537 125.783 424.421 124.625C424.865 124.044 425.924 123.568 425.945 123.446C426.512 119.794 424.834 108.592 411.204 113.329H411.198Z" fill="#152041"/>
<path d="M427.581 125.563C427.581 125.563 425.352 122.809 424.489 127.429L427.581 125.563Z" fill="#E6918A"/>
<path d="M405.657 126.476C406.128 126.423 407.023 126.296 407.076 125.657C407.107 125.245 406.779 124.668 405.641 124.51C405.641 124.51 405.594 125.033 405.657 126.476Z" fill="#EE828F"/>
<path d="M410.828 128.976C410.828 128.976 409.526 129.954 408.669 129.59C407.811 129.23 407.589 128.326 407.589 128.326" stroke="#040000" stroke-width="0.264662" stroke-linecap="round" stroke-linejoin="round"/>
<path d="M413.681 122.247C414.073 122.585 413.559 121.206 412.998 120.994C412.437 120.783 411.839 121.005 411.659 121.486C411.659 121.486 412.744 121.443 413.681 122.247Z" fill="#040000"/>
<path d="M406.762 121.38C406.312 121.634 407.09 120.381 407.678 120.286C408.265 120.191 408.811 120.524 408.895 121.036C408.895 121.036 407.842 120.777 406.762 121.38Z" fill="#040000"/>
<path d="M412.168 124.478C412.104 124.916 411.876 125.249 411.665 125.218C411.453 125.186 411.331 124.805 411.395 124.361C411.458 123.923 411.686 123.59 411.898 123.621C412.109 123.653 412.231 124.034 412.168 124.478Z" fill="#040000"/>
<path d="M408.695 123.749C408.631 124.172 408.414 124.484 408.213 124.458C408.007 124.426 407.896 124.061 407.954 123.643C408.017 123.221 408.234 122.909 408.436 122.935C408.642 122.967 408.753 123.332 408.695 123.749Z" fill="#040000"/>
<path d="M411.198 134.416C411.198 134.416 415.581 134.204 417.661 133.559C419.742 132.914 413.337 147.366 411.198 134.416Z" fill="#E6918A"/>
<path opacity="0.5" d="M427.401 335.752C452.255 335.752 472.404 332.941 472.404 329.472C472.404 326.004 452.255 323.192 427.401 323.192C402.546 323.192 382.397 326.004 382.397 329.472C382.397 332.941 402.546 335.752 427.401 335.752Z" fill="#595757"/>
<path d="M413.607 328.933C413.458 329.229 413.072 329.43 412.633 329.424L396.224 329.276C393.709 329.276 391.978 324.968 393.381 322.891C395.377 319.941 406.064 318.075 406.064 318.075C406.482 317.763 407.186 317.774 407.572 318.112C408.139 318.609 411.341 313.265 412.739 313.751C414.824 314.47 417.349 317.118 418.572 315.94C418.805 315.712 419.202 315.607 419.588 315.659C420.017 315.723 420.34 315.971 420.398 316.288C420.615 317.383 421.605 319.862 421.753 322.193C421.901 324.524 421.213 326.713 421.091 327.918C421.091 327.918 419.583 329.07 417.603 329.239C416.603 329.324 413.607 328.938 413.607 328.938V328.933Z" fill="#593287"/>
<path d="M443.191 313.842L450.713 323.722C451.66 324.774 452.264 326.761 451.517 328.104C450.538 329.875 446.43 331.323 443.98 331.323C440.83 331.323 437.702 330.525 435.103 329.283C433.303 328.421 431.477 325.44 431.472 323.907C431.472 321.243 432.107 314.566 432.107 314.566C432.133 314.434 432.456 314.381 432.62 314.487L436.013 316.728C437.125 317.463 440.142 317.363 440.888 316.485C441.423 315.856 442.677 313.837 442.677 313.837C442.789 313.731 443.09 313.736 443.191 313.847V313.842Z" fill="#593287"/>
<path d="M401.289 194.915C392.884 232.526 396.61 296.567 398.638 318.382C400.765 318.647 420.594 318.668 422.436 317.732C417.82 295.377 419.456 247.787 417.741 233.255L426.358 318.382C428.576 318.504 447.748 317.198 451.263 316.353C449.474 300.632 445.208 225.284 442.275 210.477C440.788 202.96 440.047 200.053 439.448 197.717L401.295 194.915H401.289Z" fill="white"/>
<path d="M383.885 146.975C383.885 146.975 370.868 151.68 371.128 152.858C371.128 152.858 384.906 184.316 390.993 181.35C393.502 180.124 399.971 176.297 403.602 168.23C408.773 156.744 411.203 141.07 411.203 141.07C411.203 141.07 404.354 141.044 400.574 144.591C397.901 147.102 391.285 160.476 391.285 160.476L383.879 146.975H383.885Z" fill="#5E3390"/>
<path d="M436.299 198.578C420.758 200.629 413.321 200.751 407.594 199.99C405.964 199.773 399.379 198.959 399.379 198.959C399.379 198.959 399.58 163.494 401.824 154.069C403.693 146.225 407.658 141.842 407.658 141.842L411.215 141.065C411.215 143.566 411.506 145.204 414.327 145.997C419.843 147.551 424.808 141.309 424.808 141.309C425.94 141.393 428.635 142.466 430.916 143.46C432.695 144.121 434.341 144.787 434.341 144.787C434.367 144.877 434.394 144.967 434.425 145.056C434.568 145.125 434.653 145.167 434.653 145.167C435.511 147.567 436.823 152.79 437.924 158.954L439.772 197.96L436.31 198.578H436.299Z" fill="#5E3390"/>
<path d="M417.259 127.55C417.415 126.87 416.528 126.086 415.278 125.799C414.027 125.512 412.886 125.831 412.73 126.511C412.573 127.191 413.46 127.975 414.711 128.262C415.962 128.549 417.103 128.23 417.259 127.55Z" fill="#EE828F"/>
<path d="M427.793 157.094C427.793 157.094 428.121 163.744 427.581 165.409C426.867 167.624 418.71 161.307 418.71 161.307L432.404 172.714L427.798 157.094H427.793Z" fill="#4A2379"/>
<path d="M419.086 240.646C418.08 235.481 412.665 216.874 412.665 216.874L414.565 318.378L423.961 317.849C423.961 317.849 422.923 305.157 422.209 295.774C420.081 267.88 420.552 259.189 420.552 259.189C420.552 259.189 419.975 245.207 419.086 240.64V240.646Z" fill="#DDDDDD"/>
<path d="M412.093 168.342C412.146 167.972 402.682 161.248 402.533 160.82C402.2 159.863 405.725 161.349 405.328 160.894C405.212 160.762 402.205 159.187 401.835 158.003C401.464 156.819 406.064 159.44 406.064 159.44C406.064 159.44 401.581 156.29 402.221 155.782C402.862 155.275 407.356 158.362 407.44 157.87C407.345 157.786 403.417 155.101 404.058 154.709C405.032 154.123 411.707 159.504 410.738 157.902C409.441 154.487 410.542 154.641 410.542 154.641C411.929 156.073 415.311 161.682 415.311 161.682C415.311 161.682 438.914 179.173 439.147 178.809L412.093 168.342Z" fill="#F2A0AF"/>
<path d="M408.896 141.239C408.896 141.239 408.811 146.383 410.828 147.652C412.845 148.92 414.592 149.19 416.333 149.126C418.074 149.063 421.224 148.053 422.431 147.387C423.638 146.721 427.581 142.106 427.581 142.106L424.792 141.313C424.792 141.313 419.191 147.192 414.989 146.156C410.786 145.119 411.204 141.07 411.204 141.07L408.896 141.239Z" fill="#4A2379"/>
<path d="M424.507 142.038L426.471 142.752" stroke="#4E7033" stroke-width="0.529324" stroke-miterlimit="10"/>
<path d="M417.519 146.257L418.318 148.366" stroke="#4E7033" stroke-width="0.529324" stroke-miterlimit="10"/>
<path d="M415.778 146.584L415.635 148.646" stroke="#4E7033" stroke-width="0.529324" stroke-miterlimit="10"/>
<path d="M414.162 146.362L413.32 148.17" stroke="#4E7033" stroke-width="0.529324" stroke-miterlimit="10"/>
<path d="M412.574 145.548L411.087 147.049" stroke="#4E7033" stroke-width="0.529324" stroke-miterlimit="10"/>
<path d="M411.548 144.358L409.892 145.104" stroke="#4E7033" stroke-width="0.529324" stroke-miterlimit="10"/>
<path d="M411.088 142.672L409.304 142.994" stroke="#4E7033" stroke-width="0.529324" stroke-miterlimit="10"/>
<path d="M423.257 143.237L424.967 144.453" stroke="#4E7033" stroke-width="0.529324" stroke-miterlimit="10"/>
<path d="M421.779 144.358L423.023 146.029" stroke="#4E7033" stroke-width="0.529324" stroke-miterlimit="10"/>
<path d="M420.043 145.548L420.8 147.181" stroke="#4E7033" stroke-width="0.529324" stroke-miterlimit="10"/>
<path d="M426.035 199.662L408.896 165.73L439.146 178.803L439.76 197.96C439.76 197.96 435.42 198.684 432.736 199.017C430.053 199.35 426.035 199.657 426.035 199.657V199.662Z" fill="#4A2379"/>
<path d="M437.324 189.164C439.098 189.37 442.295 189.713 443.946 187.858C446.244 185.273 446.699 179.934 446.413 177.471C444.984 165.297 440.622 142.894 432.666 144.163C421.773 145.897 431.396 170.768 431.396 170.768L418.708 161.306L412.737 170.123C412.737 170.123 428.225 188.101 437.324 189.164Z" fill="#5E3390"/>
<path d="M400.538 164.409C400.538 164.409 394.991 172.534 394.118 173.84C393.244 175.145 391.788 180.082 392.837 180.347C393.885 180.611 396.949 177.297 396.949 177.297L399.993 173.781L400.533 164.414L400.538 164.409Z" fill="#4A2379"/>
</g>
<g filter="url(#filter3_d_143_10885)">
<path d="M205.932 231.837H199.564V338.093H205.932V231.837Z" fill="black"/>
<path d="M362.378 231.837H356.01V338.093H362.378V231.837Z" fill="black"/>
<path d="M362.813 231.837H199.564V276.282H362.813V231.837Z" fill="#A051D4"/>
<path d="M362.563 231.991H199.531V244.678H362.563V231.991Z" fill="#8430BB"/>
<path d="M320.164 219.458H318.957C319.153 219.31 319.402 219.22 319.672 219.22H349.854C351.431 219.22 352.712 220.473 352.712 222.016V223.792C352.712 225.336 351.431 226.589 349.854 226.589L320.01 226.578L320.164 219.452V219.458Z" fill="#51B79E"/>
<path d="M337.298 219.225C338.807 219.225 340.035 220.425 340.035 221.899V223.908C340.035 225.388 338.812 226.583 337.298 226.583H318.507V226.134H318.587L323.361 225.689L324.325 221.984C324.325 221.984 322.461 219.938 322.34 219.885C322.218 219.833 318.581 219.674 318.581 219.674H318.502V219.225H337.293H337.298Z" fill="#3B8A78"/>
<path d="M319.729 222.893C319.729 220.726 318.586 219.674 318.586 219.674H336.916C338.303 219.674 339.431 220.773 339.431 222.132V223.675C339.431 225.034 338.309 226.133 336.916 226.133H318.586C318.586 226.133 319.729 225.615 319.729 222.888V222.893Z" fill="#F4F4F5"/>
<path d="M339.427 222.132V223.676C339.427 223.877 339.4 224.078 339.353 224.268C338.733 222.788 337.548 221.361 335.293 220.906C330.026 219.838 318.582 219.68 318.582 219.68H336.913C338.299 219.68 339.427 220.779 339.427 222.138V222.132Z" fill="#D8ECF5"/>
<path d="M320.884 213.563H319.677C319.873 213.447 320.121 213.373 320.391 213.373H350.584C352.161 213.373 353.442 214.367 353.442 215.593V217.005C353.442 218.231 352.161 219.225 350.584 219.225H320.725L320.878 213.563H320.884Z" fill="#F0C87F"/>
<path d="M338.024 213.383C339.532 213.383 340.76 214.334 340.76 215.508V217.099C340.76 218.272 339.538 219.224 338.024 219.224H319.228V218.87H319.307L324.087 218.521L325.05 215.582C325.05 215.582 323.187 213.959 323.065 213.917C322.943 213.874 319.307 213.748 319.307 213.748H319.228V213.393H338.024V213.383Z" fill="#E2AC54"/>
<path d="M320.445 216.291C320.445 214.573 319.302 213.738 319.302 213.738H337.638C339.024 213.738 340.152 214.61 340.152 215.689V216.915C340.152 217.994 339.024 218.866 337.638 218.866H319.302C319.302 218.866 320.445 218.459 320.445 216.291Z" fill="#F4F4F5"/>
<path d="M340.152 215.689V216.915C340.152 217.074 340.125 217.232 340.078 217.38C339.458 216.207 338.273 215.076 336.018 214.711C330.751 213.86 319.302 213.738 319.302 213.738H337.638C339.024 213.738 340.152 214.61 340.152 215.689Z" fill="#D8ECF5"/>
<path d="M324.43 222.35L323.255 224.205L321.947 222.35H324.43Z" fill="#4569AB"/>
<path d="M333.682 215.964L332.518 217.798L331.221 215.964H333.682Z" fill="#E97157"/>
<path d="M320.433 215.963H340.151V215.815H320.412L320.428 215.963H320.433Z" fill="#D8ECF5"/>
<path d="M319.694 222.349L339.422 222.338V222.19L319.673 222.201L319.689 222.349H319.694Z" fill="#D8ECF5"/>
<path d="M369.63 226.594H192.74V231.838H369.63V226.594Z" fill="#A051D4"/>
<path d="M234.239 220.35H235.26C235.091 220.223 234.885 220.149 234.657 220.149H209.048C207.709 220.149 206.624 221.212 206.624 222.523V224.029C206.624 225.34 207.709 226.403 209.048 226.403L234.371 226.392L234.239 220.345V220.35Z" fill="#E97157"/>
<path d="M219.703 220.154C218.422 220.154 217.385 221.169 217.385 222.427V224.129C217.385 225.382 218.422 226.402 219.703 226.402H235.646V226.022H235.583L231.528 225.647L230.708 222.501C230.708 222.501 232.291 220.762 232.391 220.72C232.497 220.678 235.578 220.54 235.578 220.54H235.641V220.16H219.698L219.703 220.154Z" fill="#B15541"/>
<path d="M234.609 223.263C234.609 221.423 235.577 220.535 235.577 220.535H220.026C218.851 220.535 217.893 221.471 217.893 222.618V223.929C217.893 225.081 218.845 226.017 220.026 226.017H235.577C235.577 226.017 234.609 225.578 234.609 223.263Z" fill="#F4F4F5"/>
<path d="M217.898 222.618V223.929C217.898 224.103 217.92 224.267 217.962 224.431C218.486 223.173 219.492 221.968 221.408 221.577C225.875 220.667 235.583 220.535 235.583 220.535H220.032C218.857 220.535 217.898 221.471 217.898 222.618Z" fill="#D8ECF5"/>
<path d="M223.627 223.136L222.526 225.086L221.536 223.136H223.627Z" fill="#113659"/>
<path d="M217.9 223.135H234.622V222.977H217.9V223.135Z" fill="#D8ECF5"/>
</g>
<g filter="url(#filter4_d_143_10885)">
<path d="M318.227 227.068H261.124L263.543 203.772C264.12 201.377 266.37 199.681 268.963 199.681H314.644C318.212 199.681 320.853 202.815 320.064 206.109L318.233 227.068H318.227Z" fill="#601986"/>
<path d="M280.143 171.829C279.741 170.142 280.043 166.077 281.017 164.624C283.007 161.648 285.939 160.479 289.941 160.728C293.44 160.944 298.458 162.625 300.358 164.084C304.895 167.573 305.667 172.801 307.097 179.139C310.204 192.878 309.082 206.854 309.082 206.854L278.471 209.492" fill="#40220F"/>
<path d="M292.355 193.517C291.286 197.133 291.572 201.52 291.572 201.52C291.572 201.52 282.007 200.156 277.439 197.846C277.264 198.549 279.974 194.008 283.558 186.83C283.589 186.767 275.628 186.301 278.736 175.904C282.16 164.454 286.781 165.839 288.412 165.844C289.783 165.844 295.055 165.009 296.029 176.448C296.05 176.681 296.24 176.834 296.463 176.797C297.373 176.622 300.221 176.876 299.813 179.456C299.406 182.035 297.447 182.485 296.071 182.818L292.355 193.517Z" fill="#F5B2AD"/>
<path d="M298.755 179.631C298.755 179.631 298.638 176.475 295.722 179.493L298.755 179.631Z" fill="#E6918A"/>
<path d="M283.007 180.904C283.007 180.904 281.806 181.835 280.953 181.433C280.096 181.031 279.905 180.059 279.905 180.059" stroke="#040000" stroke-width="0.264662" stroke-linecap="round" stroke-linejoin="round"/>
<path d="M287.068 175.159C287.406 175.492 287.015 174.191 286.512 173.969C286.009 173.742 285.448 173.911 285.252 174.345C285.252 174.345 286.252 174.366 287.068 175.159Z" fill="#060C27"/>
<path d="M280.164 173.108C279.719 173.197 280.704 172.362 281.223 172.436C281.741 172.516 282.107 172.938 282.038 173.388C282.038 173.388 281.223 172.891 280.159 173.108H280.164Z" fill="#060C27"/>
<path d="M284.685 177.136C284.558 177.734 284.225 178.167 283.934 178.109C283.642 178.051 283.51 177.517 283.637 176.914C283.764 176.317 284.098 175.878 284.389 175.942C284.68 176 284.812 176.534 284.685 177.136Z" fill="#060C27"/>
<path d="M281.187 175.883C281.065 176.454 280.747 176.872 280.467 176.813C280.191 176.755 280.064 176.248 280.181 175.677C280.303 175.106 280.62 174.688 280.901 174.747C281.176 174.805 281.303 175.312 281.187 175.883Z" fill="#060C27"/>
<path d="M280.571 169.54L289.242 172.125L291.29 167.141L290.666 172.432L298.134 174.737C298.134 174.737 300.654 165.581 295.059 163.752C293.99 163.403 284.187 159.93 280.571 169.54Z" fill="#40220F"/>
<path d="M282.943 191.83C281.593 192.745 280.169 193.702 278.941 194.288C274.447 195.367 268.09 196.572 265.533 193.628C262.977 190.683 263.564 184.604 262.405 180.069C262.405 180.069 265.771 173.815 264.274 174.085C262.776 174.355 262.225 176.041 261.484 176.564C260.743 177.088 261.495 168.598 260.304 168.709C259.118 168.82 258.493 174.936 258.493 174.936C258.493 174.936 258.17 169.217 257.413 169.306C256.657 169.402 256.164 174.968 256.164 174.968C256.164 174.968 256.291 169.312 255.667 169.978C255.047 170.644 254.836 174.852 254.836 174.852C254.836 174.852 254.666 171.601 253.788 171.553C252.909 171.5 253.756 181.602 253.756 181.602C254.121 187.654 254.592 194.875 256.18 201.071C258.414 209.798 271.663 207.382 275.077 206.404C278.782 205.342 285.245 202.82 286.394 198.85C286.579 198.2 286.764 197.016 286.897 196.07H286.939C286.982 195.658 287.013 194.685 287.045 193.601C287.045 193.601 285.965 192.401 282.943 191.83Z" fill="#F5B2AD"/>
<path d="M300.078 197.186C300.078 197.186 295.494 193.206 292.535 192.032C286.284 194.691 282.785 196.15 281.494 195.658C279.943 195.066 281.266 192.138 281.023 191.503C279.117 191.435 273.533 199.131 272.474 204.761C271.611 209.355 269.107 225.726 269.107 227.523L297.257 227.782C297.257 227.782 302.111 203.355 300.078 197.191V197.186Z" fill="white"/>
<path d="M240.587 227.956H271.061V226.053H240.587V227.956Z" fill="#4A2379"/>
<path d="M265.19 225.435L265.465 227.057L266.767 226.312C266.767 226.312 266.741 225.255 265.185 225.435H265.19Z" fill="#1A274D"/>
<path d="M283.563 186.83L288.035 187.401C288.035 187.401 286.024 189.7 283.78 189.299C283.017 189.161 282.859 187.93 283.563 186.83Z" fill="#E6918A"/>
<path d="M281.018 191.498C281.018 191.498 275.153 191.451 268.34 193.978L268.145 208.816L272.056 209.492C272.056 209.492 274.539 199.274 276.328 196.303C277.196 194.866 281.018 191.493 281.018 191.493V191.498Z" fill="white"/>
<path d="M289.63 180.892C289.799 180.215 288.927 179.414 287.682 179.103C286.437 178.793 285.291 179.09 285.121 179.766C284.952 180.443 285.824 181.244 287.069 181.555C288.314 181.865 289.461 181.569 289.63 180.892Z" fill="#EE828F"/>
<path d="M284.732 220.566L292.82 202.26L295.165 221.052L284.732 220.566Z" fill="#EFEFEF"/>
<path d="M295.648 203.598C295.664 209.17 295.298 216.972 291.122 219.15C286.946 221.328 274.046 222.232 268.388 222.327C262.724 222.417 261.877 228.041 261.877 228.041C261.877 228.041 286.946 229.495 297.845 229.31C308.743 229.13 306.578 218.716 306.383 214.435C306.171 209.788 304.424 199.274 300.676 196.124C300.242 195.759 298.924 194.67 298.924 194.67L295.653 203.598H295.648Z" fill="#F5B2AD"/>
<path d="M298.655 194.004C299.936 194.167 303.112 193.686 305.165 200.574C306.801 206.056 308.262 219.683 308.262 219.683C308.262 219.683 304.287 220.566 300.571 220.566C296.553 220.566 291.308 218.293 291.308 218.293C291.308 218.293 292.07 202.229 293.87 197.905C294.976 195.235 296.797 193.76 298.649 194.004H298.655Z" fill="white"/>
<path d="M281.238 191.361C281.238 191.361 279.788 191.377 279.322 191.398C278.857 191.419 277.269 191.61 277.269 191.61L278.057 193.322C278.666 194.528 280.36 195.913 281.487 195.654L281.233 191.361H281.238Z" fill="#172345"/>
<path d="M281.488 195.653C281.488 195.653 282.022 196.758 283.531 197.239C285.955 198.011 290.777 198.159 292.926 197.53C295.779 196.7 299.495 194.083 299.495 194.083L292.958 191.773L281.482 195.659L281.488 195.653Z" fill="#172345"/>
<path d="M281.276 196.409C281.276 196.409 276.491 202.668 278.412 210.153C278.412 210.153 285.616 206.548 281.276 196.409Z" fill="#A61F26"/>
<path d="M281.085 196.356C281.085 196.356 281.106 203.842 274.834 208.166C274.834 208.166 274.823 197.303 281.085 196.356Z" fill="#C30D23"/>
<path d="M281.583 195.684C281.583 195.684 282.425 196.097 283.748 196.514C286.601 197.424 291.222 196.694 292.349 196.356C294.843 195.6 297.923 193.522 297.923 193.522" stroke="white" stroke-width="0.264662" stroke-miterlimit="10"/>
<path d="M281.488 195.653C281.488 195.653 285.426 196.356 287.994 196.134C292.249 195.769 296.632 193.062 296.632 193.062" stroke="white" stroke-width="0.264662" stroke-miterlimit="10"/>
<path d="M278.195 191.498C278.195 191.498 278.672 193.079 279.058 193.692C279.773 194.839 281.488 195.653 281.488 195.653" stroke="white" stroke-width="0.264662" stroke-miterlimit="10"/>
<path d="M279.2 191.451C279.2 191.451 279.518 192.937 279.904 193.55C280.619 194.697 281.492 195.648 281.492 195.648" stroke="white" stroke-width="0.264662" stroke-miterlimit="10"/>
<path d="M282.165 195.97C282.165 195.97 281.546 195.267 280.815 195.362C280.815 195.362 280.286 196.134 280.307 196.901C280.307 196.901 280.842 197.435 281.308 197.371C281.308 197.371 281.964 196.901 282.165 195.97Z" fill="#C30D23"/>
<path d="M268.144 208.821L268.207 204.09C268.207 204.09 272.537 204.058 273.268 202.874C273.998 201.69 274.829 199.829 274.829 199.829L271.669 209.434L268.139 208.826L268.144 208.821Z" fill="#EFEFEF"/>
</g>
<path d="M293.398 136.366C297.109 121.813 312.311 90.2395 349.766 82.6434C391.525 74.1803 411.861 93.7653 411.861 93.7653" stroke="#6F4D9C" stroke-width="0.582979" stroke-linecap="round" stroke-linejoin="round"/>
<path d="M121.377 84.3658C121.377 84.3658 145.429 57.9776 206.572 65.4469C266.93 72.8157 287.77 120.665 291.766 136.307" stroke="#6F4D9C" stroke-width="0.582979" stroke-linecap="round" stroke-linejoin="round"/>
<path d="M413.294 96.8207C414.227 96.8207 414.983 96.0516 414.983 95.1027C414.983 94.1539 414.227 93.3848 413.294 93.3848C412.361 93.3848 411.605 94.1539 411.605 95.1027C411.605 96.0516 412.361 96.8207 413.294 96.8207Z" fill="#6F4D9C" stroke="#6F4D9C" stroke-width="0.529324" stroke-linecap="round" stroke-linejoin="round"/>
<path d="M120.25 87.3578C121.183 87.3578 121.939 86.5887 121.939 85.6399C121.939 84.691 121.183 83.9219 120.25 83.9219C119.318 83.9219 118.562 84.691 118.562 85.6399C118.562 86.5887 119.318 87.3578 120.25 87.3578Z" fill="#6F4D9C" stroke="#6F4D9C" stroke-width="0.529324" stroke-linecap="round" stroke-linejoin="round"/>
<path d="M292.592 139.738C293.524 139.738 294.28 138.969 294.28 138.02C294.28 137.071 293.524 136.302 292.592 136.302C291.659 136.302 290.903 137.071 290.903 138.02C290.903 138.969 291.659 139.738 292.592 139.738Z" fill="#6F4D9C" stroke="#6F4D9C" stroke-width="0.529324" stroke-linecap="round" stroke-linejoin="round"/>
<defs>
<filter id="filter0_d_143_10885" x="111.045" y="16.8707" width="237.215" height="168.704" filterUnits="userSpaceOnUse" color-interpolation-filters="sRGB">
<feFlood flood-opacity="0" result="BackgroundImageFix"/>
<feColorMatrix in="SourceAlpha" type="matrix" values="0 0 0 0 0 0 0 0 0 0 0 0 0 0 0 0 0 0 127 0" result="hardAlpha"/>
<feOffset dy="0.582979"/>
<feGaussianBlur stdDeviation="5.82979"/>
<feComposite in2="hardAlpha" operator="out"/>
<feColorMatrix type="matrix" values="0 0 0 0 0 0 0 0 0 0 0 0 0 0 0 0 0 0 0.08 0"/>
<feBlend mode="normal" in2="BackgroundImageFix" result="effect1_dropShadow_143_10885"/>
<feBlend mode="normal" in="SourceGraphic" in2="effect1_dropShadow_143_10885" result="shape"/>
</filter>
<filter id="filter1_d_143_10885" x="40.5396" y="95.3257" width="156.247" height="254.407" filterUnits="userSpaceOnUse" color-interpolation-filters="sRGB">
<feFlood flood-opacity="0" result="BackgroundImageFix"/>
<feColorMatrix in="SourceAlpha" type="matrix" values="0 0 0 0 0 0 0 0 0 0 0 0 0 0 0 0 0 0 127 0" result="hardAlpha"/>
<feOffset dy="0.582979"/>
<feGaussianBlur stdDeviation="5.82979"/>
<feComposite in2="hardAlpha" operator="out"/>
<feColorMatrix type="matrix" values="0 0 0 0 0 0 0 0 0 0 0 0 0 0 0 0 0 0 0.08 0"/>
<feBlend mode="normal" in2="BackgroundImageFix" result="effect1_dropShadow_143_10885"/>
<feBlend mode="normal" in="SourceGraphic" in2="effect1_dropShadow_143_10885" result="shape"/>
</filter>
<filter id="filter2_d_143_10885" x="357.211" y="97.0718" width="126.852" height="250.923" filterUnits="userSpaceOnUse" color-interpolation-filters="sRGB">
<feFlood flood-opacity="0" result="BackgroundImageFix"/>
<feColorMatrix in="SourceAlpha" type="matrix" values="0 0 0 0 0 0 0 0 0 0 0 0 0 0 0 0 0 0 127 0" result="hardAlpha"/>
<feOffset dy="0.582979"/>
<feGaussianBlur stdDeviation="5.82979"/>
<feComposite in2="hardAlpha" operator="out"/>
<feColorMatrix type="matrix" values="0 0 0 0 0 0 0 0 0 0 0 0 0 0 0 0 0 0 0.08 0"/>
<feBlend mode="normal" in2="BackgroundImageFix" result="effect1_dropShadow_143_10885"/>
<feBlend mode="normal" in="SourceGraphic" in2="effect1_dropShadow_143_10885" result="shape"/>
</filter>
<filter id="filter3_d_143_10885" x="181.081" y="202.296" width="200.209" height="148.039" filterUnits="userSpaceOnUse" color-interpolation-filters="sRGB">
<feFlood flood-opacity="0" result="BackgroundImageFix"/>
<feColorMatrix in="SourceAlpha" type="matrix" values="0 0 0 0 0 0 0 0 0 0 0 0 0 0 0 0 0 0 127 0" result="hardAlpha"/>
<feOffset dy="0.582979"/>
<feGaussianBlur stdDeviation="5.82979"/>
<feComposite in2="hardAlpha" operator="out"/>
<feColorMatrix type="matrix" values="0 0 0 0 0 0 0 0 0 0 0 0 0 0 0 0 0 0 0.08 0"/>
<feBlend mode="normal" in2="BackgroundImageFix" result="effect1_dropShadow_143_10885"/>
<feBlend mode="normal" in="SourceGraphic" in2="effect1_dropShadow_143_10885" result="shape"/>
</filter>
<filter id="filter4_d_143_10885" x="228.927" y="149.619" width="102.936" height="91.95" filterUnits="userSpaceOnUse" color-interpolation-filters="sRGB">
<feFlood flood-opacity="0" result="BackgroundImageFix"/>
<feColorMatrix in="SourceAlpha" type="matrix" values="0 0 0 0 0 0 0 0 0 0 0 0 0 0 0 0 0 0 127 0" result="hardAlpha"/>
<feOffset dy="0.582979"/>
<feGaussianBlur stdDeviation="5.82979"/>
<feComposite in2="hardAlpha" operator="out"/>
<feColorMatrix type="matrix" values="0 0 0 0 0 0 0 0 0 0 0 0 0 0 0 0 0 0 0.08 0"/>
<feBlend mode="normal" in2="BackgroundImageFix" result="effect1_dropShadow_143_10885"/>
<feBlend mode="normal" in="SourceGraphic" in2="effect1_dropShadow_143_10885" result="shape"/>
</filter>
</defs>
</svg>
