<svg width="322" height="208" viewBox="0 0 322 208" fill="none" xmlns="http://www.w3.org/2000/svg">
<path d="M0.511796 91.8337C-2.83992 122.21 10.6859 154.225 28.9315 176.257L301.831 175.876C309.205 168.224 320.505 158.339 321.384 146.877C322.137 137.06 322.007 126.294 316.797 118.531C311.696 110.935 303.061 108.154 295.033 105.818C302.713 91.2298 304.141 76.7806 300.008 61.966C295.874 47.1513 287.423 34.5058 274.335 31.3752C267.196 29.6669 252.649 29.5795 247.397 36.4366C247.397 36.4366 229.32 -0.689463 180.063 0.00975402C145.223 0.506357 126.587 38.423 126.587 38.423C126.587 38.423 119.1 26.7866 104.38 21.312C94.4395 17.6173 75.4693 15.3568 63.546 16.5288C27.3468 20.0805 4.66172 54.2198 0.511796 91.8337Z" fill="#CFEF8C"/>
<path d="M127.657 76.9554C127.657 76.9554 144.749 50.9365 176.7 50.5966C221.875 50.1151 238.454 75.5928 238.454 75.5928C243.27 70.8881 256.611 70.9479 263.158 72.1217C275.162 74.2711 282.909 82.9472 286.703 93.1118C290.494 103.276 289.184 113.192 282.14 123.203C289.503 124.805 297.422 126.712 302.101 131.926C306.879 137.251 306.998 144.64 306.307 151.378C305.501 159.242 295.138 170.681 288.375 175.93L28.8143 175.792C17.4137 166.244 8.45957 132.532 12.0352 113.608C17.0129 87.2631 40.1055 63.6501 63.4474 58.9612C102.859 51.0466 127.66 76.9554 127.66 76.9554H127.657Z" fill="#B1DD56"/>
<path d="M220.052 88.0355L217.642 87.1728C217.483 87.1165 217.364 86.9821 217.323 86.8196L215.351 79.2273C215.254 78.8397 215.632 78.499 216.007 78.6334L218.417 79.4961C218.577 79.5523 218.695 79.6867 218.736 79.8493L220.708 87.4416C220.805 87.8292 220.427 88.1699 220.052 88.0355Z" fill="#171C61"/>
<g filter="url(#filter0_d_136_18478)">
<path d="M189.522 16.5957H77.9447C73.9207 16.5957 70.6587 19.8577 70.6587 23.8817V95.1193C70.6587 99.1432 73.9207 102.405 77.9447 102.405H189.522C193.546 102.405 196.808 99.1432 196.808 95.1193V23.8817C196.808 19.8577 193.546 16.5957 189.522 16.5957Z" fill="#F7F5F7" stroke="white" stroke-width="0.156284" stroke-miterlimit="10"/>
<path opacity="0.9" d="M90.6351 81.1746C95.9538 81.1746 100.265 76.863 100.265 71.5443C100.265 66.2257 95.9538 61.9141 90.6351 61.9141C85.3165 61.9141 81.0049 66.2257 81.0049 71.5443C81.0049 76.863 85.3165 81.1746 90.6351 81.1746Z" fill="#DACFDF"/>
<path opacity="0.9" d="M105.104 81.1746C110.423 81.1746 114.735 76.863 114.735 71.5443C114.735 66.2257 110.423 61.9141 105.104 61.9141C99.7857 61.9141 95.4741 66.2257 95.4741 71.5443C95.4741 76.863 99.7857 81.1746 105.104 81.1746Z" stroke="#CCB9D9" stroke-width="0.312569" stroke-linecap="round" stroke-linejoin="round"/>
<path opacity="0.9" d="M99.1025 77.9428L114.353 62.6895" stroke="#CCB9D9" stroke-width="0.312569" stroke-linecap="round" stroke-linejoin="round" stroke-dasharray="2.5 2.5"/>
<path opacity="0.6" d="M178.992 26.6699H81.4521V29.7956H178.992V26.6699Z" fill="#DBD2DC"/>
<path opacity="0.6" d="M169.44 34.5703H81.4521V37.696H169.44V34.5703Z" fill="#DBD2DC"/>
<path opacity="0.6" d="M169.44 42.7031H81.4521V45.8288H169.44V42.7031Z" fill="#DBD2DC"/>
<path opacity="0.6" d="M115.238 50.4551H81.4521V53.5808H115.238V50.4551Z" fill="#DBD2DC"/>
<path opacity="0.8" d="M137.915 64.1484V67.7268" stroke="#CCB9D9" stroke-width="0.312569" stroke-linecap="round" stroke-linejoin="round"/>
<path opacity="0.8" d="M139.707 65.9395H136.131" stroke="#CCB9D9" stroke-width="0.312569" stroke-linecap="round" stroke-linejoin="round"/>
<path opacity="0.8" d="M153.137 65.0742H156.712" stroke="#CCB9D9" stroke-width="0.312569" stroke-linecap="round" stroke-linejoin="round"/>
<path opacity="0.8" d="M153.137 67.2637H156.712" stroke="#CCB9D9" stroke-width="0.312569" stroke-linecap="round" stroke-linejoin="round"/>
<path opacity="0.8" d="M133.507 62.9297H126.262V70.175H133.507V62.9297Z" stroke="#CCB9D9" stroke-width="0.312569" stroke-linecap="round" stroke-linejoin="round"/>
<path opacity="0.8" d="M149.358 62.9297H142.112V70.175H149.358V62.9297Z" stroke="#CCB9D9" stroke-width="0.312569" stroke-linecap="round" stroke-linejoin="round"/>
</g>
<g filter="url(#filter1_d_136_18478)">
<path d="M54.9879 79.681C52.8968 77.0523 54.2502 65.606 59.5107 63.7744C63.6367 62.3366 66.8561 62.7679 69.1129 64.4839C70.8476 65.8061 70.1193 68.3254 70.46 69.2975C70.7695 70.1821 74.0921 73.836 74.3703 74.7268C75.3017 77.7025 65.7715 81.5502 65.7715 81.5502C65.7715 81.5502 57.5853 82.9474 54.9879 79.6779V79.681Z" fill="#152041"/>
<path d="M60.6339 72.7C60.637 72.8376 60.5307 72.9501 60.3932 72.9501C59.8243 72.9501 58.5053 72.8251 58.3209 74.3191C58.1333 75.8289 59.5712 76.6759 60.4338 76.7228C60.6839 76.7353 61.259 76.7884 61.4278 76.9729C61.9467 77.5386 62.1936 78.7733 62.5937 80.3142C63.4783 83.7181 60.8027 85.2716 60.8027 85.2716C60.8027 85.2716 69.8922 89.2349 69.8078 84.8433C69.8078 84.8433 68.9295 77.1792 68.9701 77.1385C69.6671 76.4415 72.3677 76.1446 70.6705 70.3808C68.5325 65.2515 65.1818 65.4234 64.1847 65.5985C63.3439 65.7485 60.4276 65.9298 60.6308 72.7H60.6339Z" fill="#F5B2AD"/>
<path d="M65.5065 65.3681C65.5065 65.3681 66.1847 72.8604 60.5179 72.9042C60.5179 72.9042 55.3511 64.3711 65.5065 65.3681Z" fill="#152041"/>
<path d="M58.9668 74.7467C58.9668 74.7467 59.8645 72.8543 61.0031 75.3911L58.9668 74.7467Z" fill="#E6918A"/>
<path d="M71.0584 71.9482C70.7422 71.9857 70.1444 72.0483 70.0098 71.6383C69.9222 71.3754 70.0474 70.9528 70.761 70.668C70.761 70.668 70.8737 71.0029 71.0615 71.945L71.0584 71.9482Z" fill="#EE828F"/>
<path d="M68.4307 73.9563C68.4307 73.9563 69.3137 74.3383 69.7583 74.0096C70.203 73.6808 70.203 73.1328 70.203 73.1328" stroke="#040000" stroke-width="0.156284" stroke-linecap="round" stroke-linejoin="round"/>
<path d="M65.8596 70.4887C65.681 70.7363 65.7844 69.8714 66.0758 69.6708C66.3672 69.4703 66.7433 69.5141 66.9156 69.768C66.9156 69.768 66.2858 69.8933 65.8596 70.4887Z" fill="#040000"/>
<path d="M69.7122 69.0311C70.0064 69.1124 69.3835 68.5021 69.033 68.5302C68.6824 68.5584 68.4164 68.8245 68.4383 69.1312C68.4383 69.1312 69.0079 68.8339 69.7122 69.0342V69.0311Z" fill="#040000"/>
<path d="M67.0375 71.5587C67.138 71.8037 67.3139 71.964 67.4333 71.9168C67.5527 71.8697 67.5684 71.631 67.4679 71.3859C67.3673 71.1409 67.1914 70.9806 67.072 71.0278C66.9526 71.0749 66.9369 71.3136 67.0375 71.5587Z" fill="#040000"/>
<path d="M68.9293 70.6638C69.0235 70.8994 69.1932 71.0502 69.3063 71.0063C69.4194 70.9591 69.4351 70.7329 69.3409 70.5004C69.2466 70.2648 69.0769 70.114 68.9638 70.158C68.8507 70.2051 68.835 70.4313 68.9293 70.6638Z" fill="#040000"/>
<path d="M68.9717 77.1328C68.9717 77.1328 66.4274 77.6204 65.1427 77.536C63.8581 77.4516 69.5437 84.872 68.9717 77.1328Z" fill="#E6918A"/>
<path opacity="0.5" d="M55.5224 199.555C70.1991 199.555 82.097 198.361 82.097 196.889C82.097 195.416 70.1991 194.223 55.5224 194.223C40.8456 194.223 28.9478 195.416 28.9478 196.889C28.9478 198.361 40.8456 199.555 55.5224 199.555Z" fill="#595757"/>
<path d="M68.4511 184.815L68.6011 185.537L69.5544 191.736C69.5451 191.754 69.5357 191.773 69.5263 191.792C68.6261 193.467 69.7357 193.939 70.8047 194.039C71.2486 194.496 71.7487 194.658 72.2363 194.061C72.2519 194.042 72.2675 194.024 72.2832 194.005C72.2894 194.005 72.2925 194.005 72.2925 194.005V193.995C73.6522 192.354 74.9775 191.482 74.9775 191.482L75.4307 184.646L68.4448 184.815H68.4511Z" fill="#E6918A"/>
<path d="M46.4764 184.309L44.4322 190.866C44.4322 190.866 42.8756 192.232 42.313 192.198C41.2909 192.132 40.7533 190.369 40.7533 190.369L40.5845 184.309H46.4764Z" fill="#F5B2AD"/>
<path d="M44.2007 182.16C44.2007 182.16 43.1535 185.989 42.9066 187.289C42.6159 188.805 42.1002 193.41 42.1002 193.41C42.1002 193.41 39.1683 194.185 40.7874 191.262L40.4311 182.917L44.2038 182.16H44.2007Z" fill="#E6918A"/>
<path d="M70.6473 196.267C70.6629 196.457 68.7218 196.404 68.7031 196.232C68.5968 195.154 68.8219 191.625 69.0157 190.643C69.0438 190.503 69.1876 190.39 69.3814 190.362C69.5533 190.337 69.7314 190.384 69.8346 190.487C70.3816 191.018 72.1382 192.616 73.0728 192.291C73.6979 192.075 74.5106 191.687 74.7638 191.462C74.9357 191.312 75.2514 191.306 75.4389 191.447L79.9118 195.072C80.3525 195.466 80.0962 196.476 78.9678 196.476L72.4977 196.542C72.3008 196.542 72.1257 196.454 72.0601 196.32L71.1192 194.779L70.6504 196.27L70.6473 196.267Z" fill="#A051D4"/>
<path d="M40.6789 190.142L38.0252 194.931C37.6908 195.44 37.4782 196.403 37.7408 197.056C38.0846 197.913 39.5381 198.616 40.4007 198.616C41.5135 198.616 42.6169 198.228 43.5327 197.625C44.1672 197.206 44.8142 195.762 44.8142 195.018C44.8142 193.727 44.5923 190.492 44.5923 190.492C44.5829 190.427 44.4673 190.405 44.411 190.455L43.2139 191.539C42.82 191.896 41.7573 191.846 41.4916 191.421C41.3041 191.117 40.8602 190.136 40.8602 190.136C40.8196 190.083 40.7133 190.086 40.6789 190.139V190.142Z" fill="#A051D4"/>
<path d="M48.423 185.879C47.1134 185.951 39.4586 183.054 37.3862 182.554C38.1802 170.586 49.3951 125.923 51.0767 119.343C52.5271 113.67 53.8617 110.4 56.3842 105.94C61.4572 105.79 67.5648 104.887 72.5659 105.577C83.5089 123.663 77.1356 171.439 75.7697 186.176C74.5132 186.333 64.4985 186.458 63.4138 185.905C66.1394 172.686 65.1736 145.067 66.1863 136.475L48.423 185.886V185.879Z" fill="#152041"/>
<path d="M42.2295 178.515L58.855 107.033" stroke="white" stroke-width="0.193793" stroke-miterlimit="10"/>
<path d="M62.0205 107.361C62.0205 107.361 61.8892 119.683 56.3599 118.711" stroke="white" stroke-width="0.193793" stroke-miterlimit="10"/>
<g style="mix-blend-mode:multiply" opacity="0.21">
<path d="M72.4973 107.824L51.8959 123.337C51.8959 123.337 51.0363 114.966 54.6965 108.096L72.4973 107.827V107.824Z" fill="#040000"/>
</g>
<path d="M76.5423 116.684C71.8256 117.512 71.5693 106.963 71.5693 106.963" stroke="white" stroke-width="0.193793" stroke-miterlimit="10"/>
<path d="M38.041 177.184L50.0437 181" stroke="white" stroke-width="0.193793" stroke-miterlimit="10"/>
<path d="M107.074 87.5314C102.849 89.3724 100.067 90.6946 99.6947 90.9102L86.1261 96.9709L86.1511 96.9178C86.1511 96.9178 85.4728 97.2335 84.9758 97.4242C84.7383 97.5148 84.4663 97.446 84.3069 97.246C80.4467 92.4199 71.0603 79.3233 66.9406 82.7053C66.8812 82.7553 67.5751 82.9085 67.8439 83.0397C70.2851 84.2431 75.3987 93.2201 75.3987 93.2201C75.4987 93.3483 75.7957 93.9859 76.2239 94.9017C79.0401 105.11 81.3532 104.91 81.3532 104.91C81.7126 104.951 82.1158 104.935 82.5503 104.879C82.5628 104.885 82.5753 104.891 82.5847 104.898L82.5972 104.873C89.4768 103.901 104.911 91.6385 104.911 91.6385C106.146 90.5914 108.303 87 107.078 87.5345L107.074 87.5314Z" fill="#F5B2AD"/>
<path d="M69.5366 81.8242C69.5366 81.8242 72.3529 82.4181 73.0436 82.8838C73.8813 83.4433 83.0865 94.7646 84.6024 96.9494L89.8692 95.0803C89.8692 95.0803 92.4198 100.363 92.2666 101.057C92.2666 101.057 84.8963 107.936 81.3017 106.183C77.7072 104.429 69.5397 81.8242 69.5397 81.8242H69.5366Z" fill="#543080"/>
<path d="M105.758 81.5073L104.459 79.6055L103.18 81.3915L103.143 82.4237L105.698 82.4675L105.758 81.5073Z" fill="#FEF1E6"/>
<path d="M105.05 80.4704L104.46 79.6055L103.906 80.3826C103.906 80.3826 104.2 80.9875 105.053 80.4704H105.05Z" fill="#1A274D"/>
<path d="M103.199 81.3969C103.233 81.5938 103.399 81.747 103.605 81.7532C103.812 81.7626 103.99 81.6251 104.04 81.4313H104.062C104.096 81.6282 104.262 81.7813 104.468 81.7907C104.674 81.8001 104.853 81.6626 104.903 81.4688H104.924C104.959 81.6657 105.124 81.8188 105.331 81.8282C105.528 81.8376 105.7 81.7094 105.759 81.5282L105.178 94.6592L102.602 94.5435L103.187 81.3906H103.202L103.199 81.3969Z" fill="#036EB8"/>
<path d="M103.601 81.7497C103.807 81.7591 103.986 81.6215 104.036 81.4277H104.058C104.092 81.6247 104.258 81.7778 104.464 81.7872C104.67 81.7966 104.848 81.659 104.898 81.4652H104.92C104.955 81.6622 105.12 81.8153 105.327 81.8247C105.523 81.8341 105.695 81.7059 105.755 81.5246L105.173 94.6557L103.07 94.4994C103.07 94.4994 103.398 81.7372 103.604 81.7466L103.601 81.7497Z" fill="#2EA7E0"/>
<path d="M102.595 94.5224L105.173 94.6367L105.2 94.0149L102.622 93.9005L102.595 94.5224Z" fill="#FEF1E6"/>
<path d="M105.177 94.6138L102.599 94.498L102.562 95.327C102.531 96.0401 103.081 96.6407 103.794 96.672C104.507 96.7032 105.108 96.1527 105.139 95.4396L105.177 94.6107V94.6138Z" fill="#C63786"/>
<path d="M105.174 94.6118L102.91 94.5117L102.872 95.3406C102.841 96.0538 103.322 96.6512 103.948 96.6794C104.574 96.7075 105.105 96.1539 105.137 95.4407L105.174 94.6118Z" fill="#E0579A"/>
<path d="M104.939 81.4258L104.349 93.2784" stroke="#FEF1E6" stroke-width="0.0937707" stroke-miterlimit="10"/>
<path d="M104.07 81.4453L103.479 93.3011" stroke="#FEF1E6" stroke-width="0.0937707" stroke-miterlimit="10"/>
<path d="M101.02 90.2519C101.02 90.2519 103.229 86.7643 103.588 87.1834C104.298 88.0123 102.149 90.2519 102.619 90.3927C102.619 90.3927 101.636 90.2801 101.017 90.2519H101.02Z" fill="#F2A0AF"/>
<path d="M69.5367 81.8242C71.3903 82.1493 74.244 91.0137 74.069 94.477C73.8939 97.9684 73.6939 102.788 73.1969 106.692C73.1969 106.692 70.1587 108.74 55.2211 106.386C50.6294 102.366 54.6647 88.7101 56.2057 84.3873C56.2057 84.3873 61.3849 82.1587 62.6508 82.0649C62.6508 82.0649 64.9545 85.8001 68.2083 84.8811C69.8743 84.4123 69.5367 83.3058 69.5367 81.8242Z" fill="#F7F8F8"/>
<path d="M60.8462 82.6055C60.0961 82.668 56.3921 84.1621 56.3921 84.1621C54.2948 90.8667 50.9253 109.024 50.9253 109.024L65.9724 108.836C66.2849 104.62 66.3725 94.7832 65.4347 90.9573C64.7315 88.0879 60.8462 82.6055 60.8462 82.6055Z" fill="#5E3390"/>
<path d="M73.199 106.693C73.199 106.693 73.4366 104.64 73.5772 102.971C73.8554 99.6074 74.0805 95.1689 73.7085 91.1399C73.5304 89.2114 72.1676 85.5637 71.158 83.5195C70.7547 82.7006 70.0483 81.9629 70.0483 81.9629L71.6362 82.3942C71.6362 82.3942 73.1021 85.7512 74.2055 90.3897C75.5308 95.9629 76.5435 107.303 76.5435 107.303L73.9242 108.122L73.199 106.69V106.693Z" fill="#5E3390"/>
<path d="M66.1069 74.0779C66.7854 73.7391 67.1859 73.1651 67.0015 72.7957C66.8171 72.4263 66.1175 72.4014 65.439 72.7402C64.7605 73.0789 64.3599 73.653 64.5444 74.0224C64.7288 74.3918 65.4283 74.4166 66.1069 74.0779Z" fill="#EE828F"/>
<path d="M55.5215 113.532L67.8086 117.224L73.1347 100.232L60.0256 96.6973L55.5215 113.532Z" fill="#96C731"/>
<path d="M55.5215 113.532L56.528 113.814L60.9664 96.9411L60.0256 96.6973L55.5215 113.532Z" fill="#22AC38"/>
<path d="M63.0545 112.163C63.0545 112.163 43.0626 110.371 42.028 106.952C42.028 106.952 40.634 104.383 47.9043 97.8093C48.4826 97.0717 48.8889 96.5622 48.9514 96.4247C48.9514 96.4247 54.662 86.6319 52.871 88.4041C52.249 89.0199 52.5772 87.5977 52.621 87.654C55.6591 91.5423 52.6772 97.6718 50.2923 102.87C50.1923 103.086 65.1612 108.724 65.1612 108.724C65.1612 108.724 68.7277 108.618 69.7904 108.827C69.7904 108.827 70.1842 109.284 68.2369 109.699C67.2148 109.728 70.3593 110.468 70.378 111.087C70.3905 111.497 70.0342 111.666 70.0342 111.666C70.0342 111.666 70.2405 111.844 70.1623 112.116C70.0373 112.544 69.8185 112.516 69.8185 112.516C69.8185 112.516 69.9217 112.735 69.7623 112.991C69.6028 113.247 69.4091 113.213 69.4091 113.213C69.4091 113.213 69.5591 113.457 69.1746 113.716C68.9715 113.854 63.2046 112.025 63.0514 112.159L63.0545 112.163Z" fill="#F5B2AD"/>
<path d="M59.2353 91.1398C59.2353 91.1398 58.8071 97.9382 58.3038 100.145C57.9975 101.486 56.4378 105.318 56.4378 105.318L49.3237 102.658L59.2353 91.1367V91.1398Z" fill="#4A2379"/>
<path d="M43.5733 109.328C41.7385 107.6 41.2384 104.881 42.3449 102.618C45.5268 96.1068 53.9662 82.0255 58.1515 84.2885C63.8809 87.3861 52.0658 102.167 52.0658 102.167L55.504 104.259L47.5804 110.973L43.5733 109.332V109.328Z" fill="#5E3390"/>
<path d="M66.187 136.475L70.3786 122.537L68.0968 186.292L63.4146 185.907C63.4146 185.907 64.4148 180.453 64.8399 174.905C66.0964 158.411 65.6182 147.199 65.7494 144.989C66.0808 139.366 66.1902 136.478 66.1902 136.478L66.187 136.475Z" fill="#231815"/>
<path d="M64.1533 181.203H76.256" stroke="white" stroke-width="0.193793" stroke-miterlimit="10"/>
</g>
<g filter="url(#filter2_d_136_18478)">
<path d="M235.396 99.4212C229.164 105.541 227.598 104.441 227.598 104.441C227.326 104.319 227.044 104.144 226.757 103.922C226.744 103.922 226.735 103.922 226.722 103.922V103.9C222.218 100.362 216.276 85.2306 216.276 85.2306C215.829 83.9709 215.776 80.5202 216.429 81.4078C218.683 84.471 220.121 86.5621 220.299 86.8716L227.476 96.8081L227.482 96.7612C227.482 96.7612 227.835 97.2676 228.11 97.6083C228.241 97.774 228.463 97.8333 228.66 97.7583" fill="#F5B2AD"/>
<path d="M219.624 85.8507C219.624 85.8507 219.49 82.4475 219.058 82.6007C218.211 82.8979 218.814 85.3846 218.423 85.2908C218.423 85.2908 219.171 85.6161 219.624 85.8507Z" fill="#F2A0AF"/>
<path d="M241.279 64.197C240.373 64.4283 238.235 65.0909 238.01 69.1793C237.838 72.2925 246.524 78.2063 246.524 78.2063C246.524 78.2063 250.534 76.3528 252.013 72.4488C252.557 71.0172 252.141 67.3195 250.025 65.5473C247.909 63.775 243.133 63.725 241.279 64.197Z" fill="#152041"/>
<path d="M248 73.2021C248.028 73.3365 248.16 73.4209 248.291 73.3865C248.844 73.249 250.673 72.4269 251.204 73.8335C251.742 75.2557 250.548 76.8123 249.719 77.0623C249.479 77.1342 248.932 77.3186 248.81 77.5374C248.438 78.2095 248.491 79.4691 248.463 81.0601C248.403 84.5765 250.591 85.4579 250.591 85.4579C250.591 85.4579 241.886 89.9558 240.936 85.6642C240.936 85.6642 240.986 79.5004 240.936 79.4691C240.095 78.9565 237.398 79.3003 237.698 73.3021C238.57 67.8165 241.286 66.7819 242.296 66.7194C243.146 66.6663 246.609 66.5725 248.003 73.2021H248Z" fill="#F5B2AD"/>
<path d="M240.936 67.0057C240.936 67.0057 242.48 67.0619 243.174 67.884C244.446 69.3968 243.599 74.4229 247.737 73.4571C247.737 73.4571 247.124 75.6513 247.549 75.5325C247.831 75.4513 248.222 74.3698 248.744 73.6853C249.006 73.3414 249.631 73.0601 249.644 72.9882C249.978 70.8284 248.987 64.205 240.939 67.0057H240.936Z" fill="#152041"/>
<path d="M250.613 74.2423C250.613 74.2423 249.295 72.6109 248.785 75.3476L250.613 74.2423Z" fill="#E6918A"/>
<path d="M237.664 74.7849C237.943 74.7536 238.473 74.6783 238.504 74.2992C238.523 74.0547 238.328 73.7132 237.655 73.6191C237.655 73.6191 237.626 73.9294 237.664 74.7849Z" fill="#EE828F"/>
<path d="M240.719 76.2617C240.719 76.2617 239.95 76.8404 239.443 76.6245C238.936 76.4118 238.805 75.877 238.805 75.877" stroke="#040000" stroke-width="0.156284" stroke-linecap="round" stroke-linejoin="round"/>
<path d="M242.405 72.2795C242.636 72.4798 242.333 71.6629 242.001 71.5377C241.669 71.4125 241.315 71.5439 241.209 71.8288C241.209 71.8288 241.851 71.8037 242.405 72.2795Z" fill="#040000"/>
<path d="M238.317 71.7649C238.051 71.9152 238.511 71.1734 238.858 71.117C239.206 71.0607 239.528 71.2579 239.578 71.5615C239.578 71.5615 238.955 71.4081 238.317 71.7649Z" fill="#040000"/>
<path d="M241.51 73.5987C241.472 73.8588 241.338 74.0563 241.212 74.0375C241.087 74.0187 241.015 73.793 241.052 73.5298C241.09 73.2697 241.225 73.0723 241.35 73.0911C241.476 73.1099 241.548 73.3355 241.51 73.5987Z" fill="#040000"/>
<path d="M239.459 73.1683C239.422 73.4197 239.293 73.605 239.173 73.5893C239.051 73.5705 238.985 73.3537 239.019 73.1055C239.057 72.8542 239.186 72.6688 239.305 72.6845C239.428 72.7034 239.494 72.9201 239.459 73.1683Z" fill="#040000"/>
<path d="M240.936 79.472C240.936 79.472 243.524 79.3469 244.752 78.9656C245.98 78.5843 242.198 87.1299 240.936 79.472Z" fill="#E6918A"/>
<path opacity="0.5" d="M250.503 198.528C265.18 198.528 277.078 196.866 277.078 194.815C277.078 192.764 265.18 191.102 250.503 191.102C235.827 191.102 223.929 192.764 223.929 194.815C223.929 196.866 235.827 198.528 250.503 198.528Z" fill="#595757"/>
<path d="M242.359 194.497C242.271 194.673 242.043 194.791 241.784 194.788L232.094 194.701C230.609 194.701 229.587 192.153 230.416 190.925C231.594 189.181 237.905 188.077 237.905 188.077C238.152 187.893 238.567 187.899 238.796 188.099C239.13 188.393 241.021 185.233 241.846 185.52C243.078 185.946 244.569 187.512 245.291 186.815C245.428 186.68 245.663 186.618 245.891 186.649C246.144 186.686 246.335 186.833 246.369 187.021C246.497 187.668 247.082 189.134 247.169 190.512C247.257 191.891 246.851 193.185 246.779 193.897C246.779 193.897 245.888 194.579 244.719 194.679C244.128 194.729 242.359 194.501 242.359 194.501V194.497Z" fill="#593287"/>
<path d="M259.828 185.574L264.27 191.415C264.829 192.037 265.185 193.213 264.745 194.007C264.166 195.054 261.741 195.91 260.294 195.91C258.434 195.91 256.587 195.438 255.052 194.704C253.989 194.194 252.911 192.431 252.908 191.525C252.908 189.949 253.283 186.002 253.283 186.002C253.298 185.924 253.489 185.892 253.586 185.955L255.59 187.28C256.246 187.715 258.028 187.655 258.468 187.136C258.784 186.764 259.525 185.57 259.525 185.57C259.59 185.508 259.769 185.511 259.828 185.577V185.574Z" fill="#593287"/>
<path d="M235.085 115.248C230.121 137.487 232.322 175.355 233.519 188.255C234.775 188.411 246.484 188.424 247.572 187.87C244.846 174.652 245.812 146.511 244.799 137.919L249.888 188.255C251.198 188.327 262.519 187.555 264.594 187.055C263.538 177.759 261.018 133.205 259.287 124.45C258.409 120.005 257.971 118.286 257.618 116.905L235.088 115.248H235.085Z" fill="white"/>
<path d="M224.808 86.9035C224.808 86.9035 217.122 89.6854 217.275 90.3824C217.275 90.3824 225.411 108.983 229.005 107.23C230.487 106.505 234.307 104.242 236.451 99.4719C239.505 92.6798 240.939 83.4121 240.939 83.4121C240.939 83.4121 236.895 83.3965 234.663 85.4938C233.084 86.9785 229.177 94.8865 229.177 94.8865L224.805 86.9035H224.808Z" fill="#5E3390"/>
<path d="M255.759 117.416C246.582 118.628 242.191 118.7 238.809 118.25C237.846 118.122 233.958 117.641 233.958 117.641C233.958 117.641 234.076 96.6705 235.402 91.0974C236.505 86.4589 238.846 83.8677 238.846 83.8677L240.947 83.4082C240.947 84.8867 241.118 85.8556 242.784 86.3245C246.041 87.2434 248.973 83.552 248.973 83.552C249.642 83.602 251.233 84.2365 252.58 84.8241C253.631 85.2149 254.603 85.6087 254.603 85.6087C254.618 85.6618 254.634 85.715 254.653 85.7681C254.737 85.8087 254.787 85.8337 254.787 85.8337C255.293 87.2528 256.069 90.341 256.719 93.9855L257.81 117.05L255.765 117.416H255.759Z" fill="#5E3390"/>
<path d="M244.516 75.4177C244.609 75.0153 244.085 74.5514 243.345 74.3816C242.606 74.2117 241.932 74.4003 241.84 74.8027C241.747 75.2051 242.272 75.6689 243.011 75.8387C243.75 76.0086 244.424 75.82 244.516 75.4177Z" fill="#EE828F"/>
<path d="M250.736 92.8828C250.736 92.8828 250.93 96.8149 250.611 97.7995C250.189 99.1092 245.372 95.374 245.372 95.374L253.458 102.119L250.739 92.8828H250.736Z" fill="#4A2379"/>
<path d="M245.594 142.287C245 139.233 241.803 128.23 241.803 128.23L242.925 188.25L248.473 187.937C248.473 187.937 247.86 180.433 247.438 174.885C246.182 158.39 246.46 153.252 246.46 153.252C246.46 153.252 246.119 144.984 245.594 142.284V142.287Z" fill="#DDDDDD"/>
<path d="M241.464 99.5379C241.495 99.3192 235.907 95.3433 235.819 95.0901C235.622 94.5243 237.704 95.4027 237.47 95.1339C237.401 95.0557 235.625 94.1243 235.407 93.4241C235.188 92.7239 237.904 94.2743 237.904 94.2743C237.904 94.2743 235.257 92.4114 235.635 92.1113C236.013 91.8112 238.667 93.6366 238.717 93.346C238.66 93.2959 236.341 91.7081 236.719 91.4768C237.295 91.1298 241.236 94.3118 240.664 93.3647C239.898 91.3455 240.548 91.4362 240.548 91.4362C241.367 92.2832 243.365 95.5996 243.365 95.5996C243.365 95.5996 257.302 105.942 257.44 105.727L241.464 99.5379Z" fill="#F2A0AF"/>
<path d="M239.577 83.5121C239.577 83.5121 239.527 86.5534 240.718 87.3036C241.909 88.0538 242.94 88.2132 243.969 88.1757C244.997 88.1382 246.857 87.5411 247.569 87.1473C248.282 86.7535 250.611 84.0247 250.611 84.0247L248.963 83.5559C248.963 83.5559 245.656 87.0317 243.175 86.419C240.693 85.8064 240.94 83.4121 240.94 83.4121L239.577 83.5121Z" fill="#4A2379"/>
<path d="M248.796 83.9824L249.959 84.4055" stroke="#4E7033" stroke-width="0.312569" stroke-miterlimit="10"/>
<path d="M244.67 86.4746L245.143 87.7235" stroke="#4E7033" stroke-width="0.312569" stroke-miterlimit="10"/>
<path d="M243.64 86.6719L243.556 87.894" stroke="#4E7033" stroke-width="0.312569" stroke-miterlimit="10"/>
<path d="M242.688 86.541L242.19 87.6128" stroke="#4E7033" stroke-width="0.312569" stroke-miterlimit="10"/>
<path d="M241.754 86.0566L240.872 86.9489" stroke="#4E7033" stroke-width="0.312569" stroke-miterlimit="10"/>
<path d="M241.145 85.3555L240.165 85.7973" stroke="#4E7033" stroke-width="0.312569" stroke-miterlimit="10"/>
<path d="M240.874 84.3613L239.818 84.5525" stroke="#4E7033" stroke-width="0.312569" stroke-miterlimit="10"/>
<path d="M248.057 84.6934L249.069 85.4141" stroke="#4E7033" stroke-width="0.312569" stroke-miterlimit="10"/>
<path d="M247.185 85.3555L247.921 86.3457" stroke="#4E7033" stroke-width="0.312569" stroke-miterlimit="10"/>
<path d="M246.16 86.0566L246.608 87.025" stroke="#4E7033" stroke-width="0.312569" stroke-miterlimit="10"/>
<path d="M249.698 118.058L239.577 97.9941L257.44 105.724L257.803 117.051C257.803 117.051 255.239 117.48 253.655 117.677C252.07 117.874 249.698 118.055 249.698 118.055V118.058Z" fill="#4A2379"/>
<path d="M256.364 111.849C257.411 111.97 259.299 112.174 260.274 111.076C261.63 109.548 261.899 106.391 261.73 104.935C260.886 97.736 258.311 84.4894 253.613 85.2395C247.18 86.2648 252.863 100.971 252.863 100.971L245.371 95.3761L241.845 100.59C241.845 100.59 250.99 111.22 256.364 111.849Z" fill="#5E3390"/>
<path d="M234.641 97.209C234.641 97.209 231.365 102.013 230.849 102.785C230.334 103.557 229.474 106.477 230.093 106.633C230.712 106.789 232.522 104.829 232.522 104.829L234.319 102.751L234.638 97.2121L234.641 97.209Z" fill="#4A2379"/>
</g>
<g filter="url(#filter3_d_136_18478)">
<path d="M119.727 137.076H115.967V199.906H119.727V137.076Z" fill="black"/>
<path d="M212.108 137.074H208.348V199.904H212.108V137.074Z" fill="black"/>
<path d="M212.366 137.076H115.967V163.357H212.366V137.076Z" fill="#A051D4"/>
<path d="M212.217 137.168H115.946V144.67H212.217V137.168Z" fill="#8430BB"/>
<path d="M187.18 129.756H186.467C186.583 129.668 186.73 129.615 186.889 129.615H204.712C205.643 129.615 206.4 130.356 206.4 131.269V132.319C206.4 133.232 205.643 133.972 204.712 133.972L187.089 133.966L187.18 129.753V129.756Z" fill="#51B79E"/>
<path d="M197.299 129.617C198.189 129.617 198.915 130.327 198.915 131.199V132.387C198.915 133.262 198.192 133.968 197.299 133.968H186.202V133.702H186.249L189.069 133.44L189.637 131.249C189.637 131.249 188.537 130.039 188.465 130.008C188.393 129.977 186.246 129.883 186.246 129.883H186.199V129.617H197.295H197.299Z" fill="#3B8A78"/>
<path d="M186.923 131.79C186.923 130.509 186.248 129.887 186.248 129.887H197.072C197.891 129.887 198.557 130.537 198.557 131.34V132.253C198.557 133.056 197.894 133.706 197.072 133.706H186.248C186.248 133.706 186.923 133.4 186.923 131.787V131.79Z" fill="#F4F4F5"/>
<path d="M198.554 131.339V132.252C198.554 132.37 198.538 132.489 198.51 132.602C198.144 131.727 197.444 130.883 196.112 130.614C193.002 129.982 186.245 129.889 186.245 129.889H197.069C197.888 129.889 198.554 130.539 198.554 131.342V131.339Z" fill="#D8ECF5"/>
<path d="M187.605 126.273H186.893C187.008 126.204 187.155 126.16 187.315 126.16H205.143C206.075 126.16 206.831 126.748 206.831 127.473V128.308C206.831 129.033 206.075 129.62 205.143 129.62H187.511L187.602 126.273H187.605Z" fill="#F0C87F"/>
<path d="M197.727 126.17C198.618 126.17 199.343 126.733 199.343 127.426V128.367C199.343 129.061 198.621 129.624 197.727 129.624H186.628V129.414H186.675L189.497 129.208L190.066 127.47C190.066 127.47 188.966 126.511 188.894 126.486C188.822 126.461 186.675 126.386 186.675 126.386H186.628V126.176H197.727V126.17Z" fill="#E2AC54"/>
<path d="M187.346 127.891C187.346 126.875 186.671 126.381 186.671 126.381H197.498C198.317 126.381 198.983 126.897 198.983 127.534V128.259C198.983 128.897 198.317 129.413 197.498 129.413H186.671C186.671 129.413 187.346 129.172 187.346 127.891Z" fill="#F4F4F5"/>
<path d="M198.983 127.534V128.259C198.983 128.353 198.967 128.447 198.939 128.534C198.574 127.841 197.873 127.172 196.542 126.956C193.432 126.453 186.671 126.381 186.671 126.381H197.498C198.317 126.381 198.983 126.897 198.983 127.534Z" fill="#D8ECF5"/>
<path d="M189.703 131.465L189.008 132.563L188.235 131.465H189.703Z" fill="#4569AB"/>
<path d="M195.166 127.693L194.477 128.779L193.71 127.693H195.166Z" fill="#E97157"/>
<path d="M187.341 127.695H198.984V127.607H187.328L187.338 127.695H187.341Z" fill="#D8ECF5"/>
<path d="M186.903 131.469L198.553 131.463V131.375L186.891 131.381L186.9 131.469H186.903Z" fill="#D8ECF5"/>
<path d="M216.391 133.977H111.937V137.077H216.391V133.977Z" fill="#A051D4"/>
<path d="M136.441 130.287H137.045C136.945 130.212 136.823 130.168 136.688 130.168H121.566C120.776 130.168 120.135 130.796 120.135 131.571V132.462C120.135 133.237 120.776 133.866 121.566 133.866L136.52 133.859L136.441 130.284V130.287Z" fill="#E97157"/>
<path d="M127.859 130.174C127.103 130.174 126.49 130.774 126.49 131.518V132.524C126.49 133.265 127.103 133.868 127.859 133.868H137.274V133.643H137.236L134.842 133.421L134.358 131.562C134.358 131.562 135.292 130.533 135.352 130.508C135.414 130.483 137.233 130.402 137.233 130.402H137.271V130.177H127.856L127.859 130.174Z" fill="#B15541"/>
<path d="M136.66 132.011C136.66 130.924 137.232 130.398 137.232 130.398H128.049C127.355 130.398 126.79 130.952 126.79 131.63V132.405C126.79 133.087 127.352 133.64 128.049 133.64H137.232C137.232 133.64 136.66 133.38 136.66 132.011Z" fill="#F4F4F5"/>
<path d="M126.793 131.63V132.405C126.793 132.508 126.805 132.605 126.83 132.702C127.14 131.958 127.734 131.245 128.865 131.014C131.503 130.477 137.236 130.398 137.236 130.398H128.053C127.359 130.398 126.793 130.952 126.793 131.63Z" fill="#D8ECF5"/>
<path d="M130.179 131.93L129.527 133.086L128.941 131.93H130.179Z" fill="#113659"/>
<path d="M126.794 131.932H136.668V131.838H126.794V131.932Z" fill="#D8ECF5"/>
</g>
<g filter="url(#filter4_d_136_18478)">
<path d="M186.038 134.259H152.318L153.747 120.484C154.088 119.068 155.416 118.064 156.948 118.064H183.922C186.029 118.064 187.589 119.918 187.123 121.865L186.041 134.259H186.038Z" fill="#601986"/>
<path d="M163.549 101.597C163.312 100.6 163.49 98.196 164.065 97.3365C165.24 95.5767 166.972 94.8859 169.335 95.0328C171.401 95.161 174.364 96.155 175.486 97.0177C178.165 99.0806 178.621 102.172 179.465 105.92C181.3 114.043 180.637 122.308 180.637 122.308L162.562 123.867" fill="#40220F"/>
<path d="M170.76 114.421C170.128 116.559 170.297 119.153 170.297 119.153C170.297 119.153 164.649 118.347 161.951 116.981C161.848 117.397 163.449 114.712 165.565 110.467C165.584 110.429 160.883 110.154 162.717 104.006C164.74 97.2359 167.468 98.0548 168.431 98.058C169.241 98.058 172.354 97.5641 172.929 104.328C172.941 104.466 173.054 104.556 173.185 104.534C173.723 104.431 175.404 104.581 175.164 106.107C174.923 107.632 173.767 107.898 172.954 108.095L170.76 114.421Z" fill="#F5B2AD"/>
<path d="M174.542 106.213C174.542 106.213 174.473 104.344 172.748 106.131L174.542 106.213Z" fill="#E6918A"/>
<path d="M165.243 106.962C165.243 106.962 164.532 107.513 164.028 107.275C163.521 107.037 163.408 106.461 163.408 106.461" stroke="#040000" stroke-width="0.156284" stroke-linecap="round" stroke-linejoin="round"/>
<path d="M167.64 103.568C167.84 103.765 167.608 102.994 167.311 102.863C167.013 102.728 166.681 102.828 166.565 103.085C166.565 103.085 167.157 103.098 167.64 103.568Z" fill="#060C27"/>
<path d="M163.561 102.356C163.298 102.409 163.881 101.914 164.188 101.958C164.495 102.005 164.711 102.256 164.67 102.522C164.67 102.522 164.188 102.227 163.558 102.356H163.561Z" fill="#060C27"/>
<path d="M166.232 104.736C166.157 105.09 165.96 105.347 165.788 105.312C165.616 105.278 165.537 104.962 165.613 104.605C165.688 104.251 165.885 103.991 166.057 104.029C166.229 104.063 166.307 104.38 166.232 104.736Z" fill="#060C27"/>
<path d="M164.165 103.995C164.093 104.334 163.905 104.581 163.739 104.547C163.576 104.512 163.501 104.212 163.57 103.873C163.642 103.535 163.83 103.287 163.996 103.322C164.159 103.356 164.234 103.657 164.165 103.995Z" fill="#060C27"/>
<path d="M163.801 100.245L168.921 101.773L170.131 98.8256L169.762 101.954L174.172 103.317C174.172 103.317 175.66 97.9035 172.356 96.822C171.725 96.6157 165.936 94.5621 163.801 100.245Z" fill="#40220F"/>
<path d="M165.202 113.426C164.405 113.967 163.564 114.533 162.839 114.88C160.185 115.517 156.431 116.23 154.921 114.489C153.412 112.748 153.759 109.153 153.074 106.472C153.074 106.472 155.062 102.774 154.178 102.933C153.293 103.093 152.968 104.09 152.53 104.399C152.093 104.709 152.537 99.6889 151.833 99.7545C151.133 99.8202 150.764 103.437 150.764 103.437C150.764 103.437 150.574 100.055 150.127 100.108C149.68 100.164 149.389 103.455 149.389 103.455C149.389 103.455 149.464 100.111 149.095 100.505C148.729 100.899 148.604 103.387 148.604 103.387C148.604 103.387 148.504 101.464 147.986 101.436C147.467 101.405 147.967 107.378 147.967 107.378C148.182 110.957 148.461 115.227 149.398 118.89C150.717 124.051 158.541 122.622 160.557 122.044C162.745 121.416 166.562 119.925 167.24 117.577C167.349 117.193 167.459 116.493 167.537 115.933H167.562C167.587 115.689 167.606 115.114 167.624 114.473C167.624 114.473 166.987 113.764 165.202 113.426Z" fill="#F5B2AD"/>
<path d="M175.32 116.589C175.32 116.589 172.613 114.235 170.866 113.541C167.174 115.114 165.108 115.976 164.345 115.686C163.43 115.335 164.211 113.604 164.067 113.229C162.942 113.188 159.644 117.739 159.019 121.068C158.51 123.784 157.031 133.464 157.031 134.527L173.654 134.68C173.654 134.68 176.52 120.237 175.32 116.592V116.589Z" fill="white"/>
<path d="M140.19 134.781H158.185V133.656H140.19V134.781Z" fill="#4A2379"/>
<path d="M154.719 133.291L154.882 134.254L155.653 133.812C155.653 133.812 155.638 133.185 154.716 133.291H154.719Z" fill="#1A274D"/>
<path d="M165.567 110.465L168.21 110.803C168.21 110.803 167.022 112.163 165.696 111.926C165.245 111.844 165.151 111.115 165.567 110.465Z" fill="#E6918A"/>
<path d="M164.065 113.228C164.065 113.228 160.602 113.2 156.579 114.694L156.463 123.467L158.773 123.868C158.773 123.868 160.239 117.826 161.296 116.069C161.808 115.219 164.065 113.225 164.065 113.225V113.228Z" fill="white"/>
<path d="M169.153 106.96C169.253 106.559 168.738 106.086 168.002 105.902C167.267 105.718 166.589 105.894 166.489 106.294C166.389 106.695 166.904 107.169 167.64 107.352C168.376 107.536 169.053 107.361 169.153 106.96Z" fill="#EE828F"/>
<path d="M166.26 130.418L171.036 119.594L172.421 130.706L166.26 130.418Z" fill="#EFEFEF"/>
<path d="M172.704 120.383C172.713 123.677 172.498 128.291 170.032 129.579C167.565 130.866 159.948 131.401 156.607 131.457C153.262 131.51 152.762 134.836 152.762 134.836C152.762 134.836 167.565 135.696 174.001 135.586C180.437 135.48 179.159 129.322 179.043 126.79C178.918 124.043 177.887 117.826 175.674 115.963C175.417 115.747 174.639 115.104 174.639 115.104L172.707 120.383H172.704Z" fill="#F5B2AD"/>
<path d="M174.481 114.707C175.237 114.804 177.112 114.519 178.325 118.592C179.291 121.833 180.154 129.891 180.154 129.891C180.154 129.891 177.806 130.413 175.612 130.413C173.24 130.413 170.142 129.069 170.142 129.069C170.142 129.069 170.592 119.57 171.655 117.014C172.308 115.435 173.383 114.563 174.477 114.707H174.481Z" fill="white"/>
<path d="M164.197 113.145C164.197 113.145 163.34 113.154 163.065 113.166C162.789 113.179 161.851 113.292 161.851 113.292L162.317 114.305C162.677 115.018 163.678 115.838 164.344 115.684L164.194 113.145H164.197Z" fill="#172345"/>
<path d="M164.343 115.687C164.343 115.687 164.659 116.34 165.549 116.625C166.981 117.081 169.829 117.168 171.098 116.796C172.782 116.306 174.977 114.759 174.977 114.759L171.116 113.393L164.34 115.69L164.343 115.687Z" fill="#172345"/>
<path d="M164.218 116.127C164.218 116.127 161.392 119.828 162.527 124.254C162.527 124.254 166.781 122.122 164.218 116.127Z" fill="#A61F26"/>
<path d="M164.105 116.1C164.105 116.1 164.118 120.526 160.414 123.082C160.414 123.082 160.407 116.659 164.105 116.1Z" fill="#C30D23"/>
<path d="M164.4 115.7C164.4 115.7 164.897 115.944 165.678 116.191C167.363 116.729 170.092 116.297 170.758 116.097C172.23 115.65 174.049 114.422 174.049 114.422" stroke="white" stroke-width="0.156284" stroke-miterlimit="10"/>
<path d="M164.343 115.682C164.343 115.682 166.669 116.098 168.185 115.966C170.698 115.751 173.286 114.15 173.286 114.15" stroke="white" stroke-width="0.156284" stroke-miterlimit="10"/>
<path d="M162.399 113.23C162.399 113.23 162.68 114.166 162.909 114.529C163.331 115.207 164.345 115.689 164.345 115.689" stroke="white" stroke-width="0.156284" stroke-miterlimit="10"/>
<path d="M162.994 113.199C162.994 113.199 163.182 114.078 163.41 114.441C163.832 115.12 164.349 115.683 164.349 115.683" stroke="white" stroke-width="0.156284" stroke-miterlimit="10"/>
<path d="M164.747 115.871C164.747 115.871 164.38 115.455 163.948 115.511C163.948 115.511 163.634 115.969 163.647 116.423C163.647 116.423 163.963 116.74 164.239 116.702C164.239 116.702 164.628 116.423 164.747 115.871Z" fill="#C30D23"/>
<path d="M156.464 123.471L156.501 120.674C156.501 120.674 159.058 120.655 159.489 119.955C159.921 119.255 160.411 118.154 160.411 118.154L158.545 123.834L156.46 123.474L156.464 123.471Z" fill="#EFEFEF"/>
</g>
<path d="M171.376 80.6187C173.567 72.0137 182.544 53.344 204.661 48.8523C229.32 43.8481 241.329 55.4288 241.329 55.4288" stroke="#6F4D9C" stroke-width="0.344252" stroke-linecap="round" stroke-linejoin="round"/>
<path d="M69.7954 49.8727C69.7954 49.8727 83.9985 34.2692 120.103 38.6858C155.746 43.0431 168.051 71.3368 170.411 80.5857" stroke="#6F4D9C" stroke-width="0.344252" stroke-linecap="round" stroke-linejoin="round"/>
<path d="M242.175 57.2402C242.726 57.2402 243.173 56.7851 243.173 56.2236C243.173 55.6622 242.726 55.207 242.175 55.207C241.624 55.207 241.177 55.6622 241.177 56.2236C241.177 56.7851 241.624 57.2402 242.175 57.2402Z" fill="#6F4D9C" stroke="#6F4D9C" stroke-width="0.312569" stroke-linecap="round" stroke-linejoin="round"/>
<path d="M69.1311 51.6445C69.6822 51.6445 70.1289 51.1893 70.1289 50.6279C70.1289 50.0665 69.6822 49.6113 69.1311 49.6113C68.58 49.6113 68.1333 50.0665 68.1333 50.6279C68.1333 51.1893 68.58 51.6445 69.1311 51.6445Z" fill="#6F4D9C" stroke="#6F4D9C" stroke-width="0.312569" stroke-linecap="round" stroke-linejoin="round"/>
<path d="M170.901 82.6171C171.452 82.6171 171.898 82.162 171.898 81.6006C171.898 81.0391 171.452 80.584 170.901 80.584C170.35 80.584 169.903 81.0391 169.903 81.6006C169.903 82.162 170.35 82.6171 170.901 82.6171Z" fill="#6F4D9C" stroke="#6F4D9C" stroke-width="0.312569" stroke-linecap="round" stroke-linejoin="round"/>
<defs>
<filter id="filter0_d_136_18478" x="63.6955" y="9.97678" width="140.076" height="99.7349" filterUnits="userSpaceOnUse" color-interpolation-filters="sRGB">
<feFlood flood-opacity="0" result="BackgroundImageFix"/>
<feColorMatrix in="SourceAlpha" type="matrix" values="0 0 0 0 0 0 0 0 0 0 0 0 0 0 0 0 0 0 127 0" result="hardAlpha"/>
<feOffset dy="0.344252"/>
<feGaussianBlur stdDeviation="3.44252"/>
<feComposite in2="hardAlpha" operator="out"/>
<feColorMatrix type="matrix" values="0 0 0 0 0 0 0 0 0 0 0 0 0 0 0 0 0 0 0.08 0"/>
<feBlend mode="normal" in2="BackgroundImageFix" result="effect1_dropShadow_136_18478"/>
<feBlend mode="normal" in="SourceGraphic" in2="effect1_dropShadow_136_18478" result="shape"/>
</filter>
<filter id="filter1_d_136_18478" x="22.0627" y="56.3674" width="92.2642" height="150.417" filterUnits="userSpaceOnUse" color-interpolation-filters="sRGB">
<feFlood flood-opacity="0" result="BackgroundImageFix"/>
<feColorMatrix in="SourceAlpha" type="matrix" values="0 0 0 0 0 0 0 0 0 0 0 0 0 0 0 0 0 0 127 0" result="hardAlpha"/>
<feOffset dy="0.344252"/>
<feGaussianBlur stdDeviation="3.44252"/>
<feComposite in2="hardAlpha" operator="out"/>
<feColorMatrix type="matrix" values="0 0 0 0 0 0 0 0 0 0 0 0 0 0 0 0 0 0 0.08 0"/>
<feBlend mode="normal" in2="BackgroundImageFix" result="effect1_dropShadow_136_18478"/>
<feBlend mode="normal" in="SourceGraphic" in2="effect1_dropShadow_136_18478" result="shape"/>
</filter>
<filter id="filter2_d_136_18478" x="209.054" y="57.4026" width="74.9088" height="148.354" filterUnits="userSpaceOnUse" color-interpolation-filters="sRGB">
<feFlood flood-opacity="0" result="BackgroundImageFix"/>
<feColorMatrix in="SourceAlpha" type="matrix" values="0 0 0 0 0 0 0 0 0 0 0 0 0 0 0 0 0 0 127 0" result="hardAlpha"/>
<feOffset dy="0.344252"/>
<feGaussianBlur stdDeviation="3.44252"/>
<feComposite in2="hardAlpha" operator="out"/>
<feColorMatrix type="matrix" values="0 0 0 0 0 0 0 0 0 0 0 0 0 0 0 0 0 0 0.08 0"/>
<feBlend mode="normal" in2="BackgroundImageFix" result="effect1_dropShadow_136_18478"/>
<feBlend mode="normal" in="SourceGraphic" in2="effect1_dropShadow_136_18478" result="shape"/>
</filter>
<filter id="filter3_d_136_18478" x="105.051" y="119.619" width="118.224" height="87.5162" filterUnits="userSpaceOnUse" color-interpolation-filters="sRGB">
<feFlood flood-opacity="0" result="BackgroundImageFix"/>
<feColorMatrix in="SourceAlpha" type="matrix" values="0 0 0 0 0 0 0 0 0 0 0 0 0 0 0 0 0 0 127 0" result="hardAlpha"/>
<feOffset dy="0.344252"/>
<feGaussianBlur stdDeviation="3.44252"/>
<feComposite in2="hardAlpha" operator="out"/>
<feColorMatrix type="matrix" values="0 0 0 0 0 0 0 0 0 0 0 0 0 0 0 0 0 0 0.08 0"/>
<feBlend mode="normal" in2="BackgroundImageFix" result="effect1_dropShadow_136_18478"/>
<feBlend mode="normal" in="SourceGraphic" in2="effect1_dropShadow_136_18478" result="shape"/>
</filter>
<filter id="filter4_d_136_18478" x="133.305" y="88.4729" width="60.7857" height="54.3521" filterUnits="userSpaceOnUse" color-interpolation-filters="sRGB">
<feFlood flood-opacity="0" result="BackgroundImageFix"/>
<feColorMatrix in="SourceAlpha" type="matrix" values="0 0 0 0 0 0 0 0 0 0 0 0 0 0 0 0 0 0 127 0" result="hardAlpha"/>
<feOffset dy="0.344252"/>
<feGaussianBlur stdDeviation="3.44252"/>
<feComposite in2="hardAlpha" operator="out"/>
<feColorMatrix type="matrix" values="0 0 0 0 0 0 0 0 0 0 0 0 0 0 0 0 0 0 0.08 0"/>
<feBlend mode="normal" in2="BackgroundImageFix" result="effect1_dropShadow_136_18478"/>
<feBlend mode="normal" in="SourceGraphic" in2="effect1_dropShadow_136_18478" result="shape"/>
</filter>
</defs>
</svg>
