<svg width="465" height="444" viewBox="0 0 465 444" fill="none" xmlns="http://www.w3.org/2000/svg">
  <path d="M-168.851 93.6305C-168.851 93.6305 -108.328 1.52579 4.81567 0.322685C164.782 -1.38172 223.49 88.8069 223.49 88.8069C240.543 72.1528 287.786 72.3644 310.971 76.5196C353.477 84.1281 380.911 114.841 394.346 150.823C407.769 186.805 403.132 221.906 378.188 257.342C404.261 263.013 432.304 269.763 448.87 288.222C465.791 307.071 466.211 333.227 463.766 357.078C460.911 384.917 424.214 425.41 400.266 443.991L-518.862 443.501C-559.233 409.703 -587.397 271.601 -578.278 223.377C-560.683 130.27 -478.879 46.531 -396.223 29.9325C-256.664 1.91569 -168.84 93.6305 -168.84 93.6305H-168.851Z" fill="#B1DD56" fill-opacity="0.5" />
</svg>