<svg width="670" height="510" viewBox="0 0 670 510" fill="none" xmlns="http://www.w3.org/2000/svg">
  <path d="M-58.407 107.28C-58.407 107.28 11.1605 1.41033 141.213 0.0274221C325.086 -1.9317 392.567 101.735 392.567 101.735C412.169 82.5921 466.472 82.8354 493.121 87.6115C541.98 96.3571 573.514 131.66 588.956 173.019C604.386 214.378 599.056 254.726 570.384 295.457C600.354 301.975 632.587 309.735 651.629 330.952C671.079 352.617 671.562 382.683 668.751 410.098C665.469 442.097 623.288 488.642 595.761 510L-460.726 509.437C-507.129 470.587 -539.503 311.847 -529.021 256.416C-508.796 149.394 -414.767 53.1413 -319.759 34.0623C-159.343 1.85849 -58.3943 107.28 -58.3943 107.28H-58.407Z" fill="#B1DD56" fill-opacity="0.5" />
</svg>