<svg width="273" height="261" viewBox="0 0 273 261" fill="none" xmlns="http://www.w3.org/2000/svg">
  <path d="M-99.7179 55.4014C-99.7179 55.4014 -64.2003 1.34993 2.198 0.643883C96.0739 -0.356343 130.526 52.5707 130.526 52.5707C140.534 42.7972 168.259 42.9214 181.864 45.3599C206.809 49.825 222.909 67.8486 230.793 88.9645C238.671 110.08 235.949 130.68 221.311 151.475C236.612 154.803 253.069 158.765 262.791 169.597C272.72 180.659 272.967 196.008 271.532 210.005C269.856 226.342 248.321 250.106 234.267 261.01L-305.121 260.722C-328.813 240.888 -345.341 159.843 -339.99 131.543C-329.664 76.903 -281.657 27.7611 -233.151 18.0204C-151.251 1.57873 -99.7114 55.4014 -99.7114 55.4014H-99.7179Z" fill="#B1DD56" fill-opacity="0.5" />
</svg>
