<svg width="1052" height="510" viewBox="0 0 1052 510" fill="none" xmlns="http://www.w3.org/2000/svg">
  <path d="M323.593 107.28C323.593 107.28 393.161 1.41033 523.213 0.0274221C707.086 -1.9317 774.567 101.735 774.567 101.735C794.169 82.5921 848.472 82.8354 875.121 87.6115C923.98 96.3571 955.514 131.66 970.956 173.019C986.386 214.378 981.056 254.726 952.384 295.457C982.354 301.975 1014.59 309.735 1033.63 330.952C1053.08 352.617 1053.56 382.683 1050.75 410.098C1047.47 442.097 1005.29 488.642 977.761 510L-78.7256 509.437C-125.129 470.587 -157.503 311.847 -147.021 256.416C-126.796 149.394 -32.767 53.1413 62.2411 34.0623C222.657 1.85849 323.606 107.28 323.606 107.28H323.593Z" fill="#B1DD56" fill-opacity="0.5" />
</svg>